<svg width="428" height="291" viewBox="0 0 330 291" fill="none" xmlns="http://www.w3.org/2000/svg">
<path d="M244 280H94C80.1929 280 69 268.807 69 255V115C69 55.3533 117.353 7 177 7H314C327.807 7 339 18.1929 339 32V185C339 237.467 296.467 280 244 280Z" fill="#D1F5E5" stroke="#EFFCF6" stroke-width="14"/>
<path d="M201.248 211L122 231.661L201.248 264L282 231.661L201.248 211Z" fill="#F2F7F5"/>
<path d="M201.147 183L112 214L203.029 249L291 214L201.147 183Z" fill="#B3D8C8"/>
<path d="M202.705 147L160 161.674L201.5 177L243 161.022L222.852 154.011L202.705 147Z" fill="#345B4A"/>
<path d="M157.24 127L131 135.804L156.5 145L182 135.413L157.24 127Z" fill="#345B4A"/>
<path d="M263.066 192L243 185.152L262.5 178L282 185.457L263.066 192Z" fill="#345B4A"/>
<path d="M233.385 137L202 126.239L232.5 115L263 126.717L233.385 137Z" fill="#345B4A"/>
<path d="M192.863 98.6225L243.93 79.5124L218.571 71.5117L166.958 89.3204L192.863 98.6225Z" fill="#345B4A"/>
<path d="M243.888 83.7984L243.93 79.5125L192.913 98.6231L166.959 89.3082L166.914 93.8121L192.86 103.898L243.888 83.7984Z" fill="#B3D8C8"/>
<path d="M198.038 211.863C199.32 211.76 199.553 211.346 198.792 210.981L193.572 208.26C193.342 208.133 193.07 208.041 192.779 207.992C192.488 207.942 192.186 207.936 191.897 207.975C191.608 208.013 191.341 208.094 191.117 208.211C190.892 208.329 190.717 208.48 190.606 208.651L187.945 211.648C187.868 211.762 187.843 211.888 187.873 212.013C187.903 212.138 187.986 212.257 188.114 212.357C188.242 212.457 188.409 212.535 188.597 212.581C188.786 212.627 188.988 212.639 189.183 212.618L198.038 211.863Z" fill="#FDFDFD"/>
<path d="M185.092 216.204C185.992 215.064 187.078 214.612 188.144 214.534L201.943 213.479C202.908 213.419 203.896 213.578 204.738 213.928L210.392 216.927C210.549 217.025 210.662 217.148 210.72 217.281C210.778 217.415 210.778 217.554 210.72 217.682C210.662 217.811 210.549 217.925 210.392 218.01C210.235 218.096 210.042 218.15 209.833 218.168L183.657 220.195C183.464 220.211 183.266 220.191 183.083 220.139C182.901 220.086 182.742 220.002 182.625 219.897C182.507 219.791 182.437 219.669 182.421 219.543C182.404 219.417 182.444 219.293 182.533 219.185L185.092 216.204Z" fill="#FDFDFD"/>
<path d="M207.093 224.266C206.724 224.575 206.212 224.8 205.622 224.913C205.033 225.026 204.394 225.021 203.79 224.899L191.704 222.476C191.473 222.431 191.268 222.338 191.125 222.212C190.981 222.085 190.908 221.934 190.916 221.782C190.925 221.631 191.016 221.489 191.173 221.38C191.331 221.271 191.545 221.202 191.78 221.185L210.371 219.633C210.577 219.615 210.79 219.637 210.981 219.697C211.173 219.756 211.336 219.851 211.447 219.967C211.558 220.084 211.613 220.218 211.605 220.35C211.597 220.483 211.526 220.609 211.401 220.712L207.093 224.266Z" fill="#FDFDFD"/>
<path d="M208.688 214.057C208.526 213.975 208.404 213.865 208.337 213.742C208.27 213.619 208.261 213.487 208.311 213.364C208.361 213.24 208.468 213.13 208.62 213.046C208.771 212.963 208.959 212.909 209.162 212.893L215.678 212.347L218.9 212.097L220.435 212.02C220.537 212.014 220.64 212.027 220.732 212.057C220.825 212.087 220.902 212.133 220.954 212.189C221.007 212.246 221.032 212.31 221.028 212.374C221.023 212.438 220.989 212.499 220.929 212.549L215.756 216.842C215.671 216.911 215.565 216.968 215.443 217.01C215.321 217.052 215.186 217.078 215.045 217.087C214.905 217.095 214.763 217.086 214.626 217.059C214.49 217.033 214.362 216.99 214.251 216.933L208.688 214.057Z" fill="#FDFDFD"/>
<path d="M197.133 208.042L202.997 211.127C203.346 211.311 203.75 211.448 204.183 211.527C204.615 211.607 205.066 211.628 205.504 211.589L220.64 210.244C220.821 210.225 220.983 210.166 221.097 210.077C221.211 209.988 221.27 209.876 221.264 209.759C221.258 209.642 221.186 209.529 221.062 209.439C220.938 209.349 220.77 209.289 220.587 209.268L213.412 208.522L208.05 208.049L197.923 206.892C197.695 206.867 197.464 206.889 197.265 206.955C197.066 207.021 196.909 207.127 196.82 207.258C196.73 207.388 196.712 207.536 196.769 207.677C196.826 207.819 196.954 207.947 197.133 208.042Z" fill="#FDFDFD"/>
<g filter="url(#filter0_d_715_809)">
<rect x="45" y="103" width="72" height="72" rx="8" fill="white"/>
</g>
<path d="M79.9999 112.708C71.0164 112.708 63.7083 120.017 63.7083 129C63.7083 137.984 71.0164 145.292 79.9999 145.292C88.9834 145.292 96.2916 137.984 96.2916 129C96.2916 120.017 88.9834 112.708 79.9999 112.708ZM79.9999 116.25C85.5682 116.25 90.3022 119.844 92.0353 124.83C89.8173 124.561 84.9037 124.042 79.9999 124.042C75.0961 124.042 70.1824 124.561 67.9645 124.83C69.6976 119.844 74.4316 116.25 79.9999 116.25ZM67.3027 130.042C71.6114 132.469 74.9171 136.467 76.4904 141.247C71.4858 139.81 67.7388 135.392 67.3027 130.042ZM79.9999 133.958C78.0439 133.958 76.4583 132.373 76.4583 130.417C76.4583 128.461 78.0439 126.875 79.9999 126.875C81.9559 126.875 83.5416 128.461 83.5416 130.417C83.5416 132.373 81.9559 133.958 79.9999 133.958ZM83.5095 141.247C85.0827 136.467 88.3884 132.469 92.6971 130.042C92.261 135.392 88.5141 139.81 83.5095 141.247Z" fill="#345B4A"/>
<path d="M56 155C56 153.895 56.8954 153 58 153H102C103.105 153 104 153.895 104 155C104 156.105 103.105 157 102 157H58C56.8954 157 56 156.105 56 155Z" fill="#B3D8C8"/>
<path d="M56 164C56 162.895 56.8954 162 58 162H78C79.1046 162 80 162.895 80 164C80 165.105 79.1046 166 78 166H58C56.8954 166 56 165.105 56 164Z" fill="#B3D8C8"/>
<g filter="url(#filter1_d_715_809)">
<rect x="301" y="159" width="72" height="72" rx="8" fill="white"/>
</g>
<path d="M347.208 185.75H344.418L341.895 178.322V178.313L340.85 175.244C340.8 175.097 340.694 174.976 340.555 174.908C340.417 174.839 340.256 174.829 340.11 174.878C339.963 174.928 339.842 175.034 339.774 175.173C339.705 175.312 339.695 175.472 339.744 175.619L340.603 178.143C339.007 178.661 337.044 178.986 335.136 177.914C334.283 177.443 333.575 176.747 333.09 175.902C332.604 175.058 332.36 174.096 332.383 173.122C332.389 172.846 332.327 172.573 332.203 172.327C332.08 172.08 331.898 171.867 331.674 171.707C331.312 171.45 330.863 171.347 330.426 171.421C329.989 171.495 329.598 171.739 329.341 172.101L324.008 179.571C323.657 180.07 323.518 180.687 323.621 181.288C323.724 181.889 324.061 182.425 324.557 182.779L340.175 193.235C340.271 193.299 340.384 193.333 340.5 193.333H348.083C348.702 193.333 349.296 193.088 349.733 192.65C350.171 192.212 350.417 191.619 350.417 191V188.958C350.416 188.108 350.077 187.292 349.476 186.691C348.874 186.089 348.059 185.751 347.208 185.75V185.75Z" fill="#345B4A"/>
<path d="M329.677 189.783H323.742C323.545 189.783 323.356 189.696 323.217 189.541C323.078 189.387 323 189.177 323 188.958C323 188.74 323.078 188.53 323.217 188.375C323.356 188.221 323.545 188.134 323.742 188.134H329.677C329.873 188.134 330.062 188.221 330.201 188.375C330.34 188.53 330.418 188.74 330.418 188.958C330.418 189.177 330.34 189.387 330.201 189.541C330.062 189.696 329.873 189.783 329.677 189.783Z" fill="#345B4A"/>
<path d="M332.974 193.08H327.039C326.842 193.08 326.654 192.993 326.514 192.838C326.375 192.684 326.297 192.474 326.297 192.255C326.297 192.037 326.375 191.827 326.514 191.673C326.654 191.518 326.842 191.431 327.039 191.431H332.974C333.17 191.431 333.359 191.518 333.498 191.673C333.637 191.827 333.716 192.037 333.716 192.255C333.716 192.474 333.637 192.684 333.498 192.838C333.359 192.993 333.17 193.08 332.974 193.08V193.08Z" fill="#345B4A"/>
<path d="M313 207C313 205.895 313.895 205 315 205H359C360.105 205 361 205.895 361 207C361 208.105 360.105 209 359 209H315C313.895 209 313 208.105 313 207Z" fill="#B3D8C8"/>
<path d="M313 216C313 214.895 313.895 214 315 214H335C336.105 214 337 214.895 337 216C337 217.105 336.105 218 335 218H315C313.895 218 313 217.105 313 216Z" fill="#B3D8C8"/>
<g filter="url(#filter2_d_715_809)">
<rect x="285" y="59" width="58" height="58" rx="8" fill="white"/>
</g>
<path d="M324.4 81.0526H319.2V78.5263C319.2 77.1242 318.043 76 316.6 76H311.4C309.957 76 308.8 77.1242 308.8 78.5263V81.0526H303.6C302.157 81.0526 301.013 82.1768 301.013 83.5789L301 97.4737C301 98.8758 302.157 100 303.6 100H324.4C325.843 100 327 98.8758 327 97.4737V83.5789C327 82.1768 325.843 81.0526 324.4 81.0526ZM316.6 81.0526H311.4V78.5263H316.6V81.0526Z" fill="#345B4A"/>
<ellipse cx="232.5" cy="125" rx="4.5" ry="3" fill="#4F8C71"/>
<ellipse cx="156.5" cy="135" rx="4.5" ry="3" fill="#4F8C71"/>
<ellipse cx="262.5" cy="185" rx="4.5" ry="3" fill="#4F8C71"/>
<path d="M277 91H265L232.5 124.5" stroke="white" stroke-width="2" stroke-linecap="round"/>
<path d="M262.5 185L279.5 194H295" stroke="white" stroke-width="2" stroke-linecap="round"/>
<path d="M120 155L132 155L156.5 135" stroke="white" stroke-width="2" stroke-linecap="round"/>
<defs>
<filter id="filter0_d_715_809" x="0" y="63" width="172" height="172" filterUnits="userSpaceOnUse" color-interpolation-filters="sRGB">
<feFlood flood-opacity="0" result="BackgroundImageFix"/>
<feColorMatrix in="SourceAlpha" type="matrix" values="0 0 0 0 0 0 0 0 0 0 0 0 0 0 0 0 0 0 127 0" result="hardAlpha"/>
<feOffset dx="5" dy="10"/>
<feGaussianBlur stdDeviation="25"/>
<feColorMatrix type="matrix" values="0 0 0 0 0 0 0 0 0 0 0 0 0 0 0 0 0 0 0.05 0"/>
<feBlend mode="normal" in2="BackgroundImageFix" result="effect1_dropShadow_715_809"/>
<feBlend mode="normal" in="SourceGraphic" in2="effect1_dropShadow_715_809" result="shape"/>
</filter>
<filter id="filter1_d_715_809" x="256" y="119" width="172" height="172" filterUnits="userSpaceOnUse" color-interpolation-filters="sRGB">
<feFlood flood-opacity="0" result="BackgroundImageFix"/>
<feColorMatrix in="SourceAlpha" type="matrix" values="0 0 0 0 0 0 0 0 0 0 0 0 0 0 0 0 0 0 127 0" result="hardAlpha"/>
<feOffset dx="5" dy="10"/>
<feGaussianBlur stdDeviation="25"/>
<feColorMatrix type="matrix" values="0 0 0 0 0 0 0 0 0 0 0 0 0 0 0 0 0 0 0.05 0"/>
<feBlend mode="normal" in2="BackgroundImageFix" result="effect1_dropShadow_715_809"/>
<feBlend mode="normal" in="SourceGraphic" in2="effect1_dropShadow_715_809" result="shape"/>
</filter>
<filter id="filter2_d_715_809" x="240" y="19" width="158" height="158" filterUnits="userSpaceOnUse" color-interpolation-filters="sRGB">
<feFlood flood-opacity="0" result="BackgroundImageFix"/>
<feColorMatrix in="SourceAlpha" type="matrix" values="0 0 0 0 0 0 0 0 0 0 0 0 0 0 0 0 0 0 127 0" result="hardAlpha"/>
<feOffset dx="5" dy="10"/>
<feGaussianBlur stdDeviation="25"/>
<feColorMatrix type="matrix" values="0 0 0 0 0 0 0 0 0 0 0 0 0 0 0 0 0 0 0.05 0"/>
<feBlend mode="normal" in2="BackgroundImageFix" result="effect1_dropShadow_715_809"/>
<feBlend mode="normal" in="SourceGraphic" in2="effect1_dropShadow_715_809" result="shape"/>
</filter>
</defs>
</svg>
