<svg width="359" height="330" viewBox="0 0 359 330" fill="none" xmlns="http://www.w3.org/2000/svg">
<path d="M241 300H91C77.1929 300 66 288.807 66 275V135C66 75.3533 114.353 27 174 27H311C324.807 27 336 38.1929 336 52V205C336 257.467 293.467 300 241 300Z" fill="#FDC5D0" stroke="#FDF6F7" stroke-width="14"/>
<g filter="url(#filter0_d_541_429)">
<rect x="186" y="170" width="141" height="130" rx="5" transform="rotate(180 186 170)" fill="#F7DFE3"/>
</g>
<mask id="mask0_541_429" style="mask-type:alpha" maskUnits="userSpaceOnUse" x="45" y="40" width="141" height="130">
<rect x="186" y="170" width="141" height="130" rx="5" transform="rotate(180 186 170)" fill="#F7DFE3"/>
</mask>
<g mask="url(#mask0_541_429)">
<path fill-rule="evenodd" clip-rule="evenodd" d="M70.1846 143.954L47.6615 143.954L47.6615 138.198L64.1784 138.198L64.1784 100.785L70.1846 100.785L70.1846 143.954Z" fill="#F6C1CA"/>
<path fill-rule="evenodd" clip-rule="evenodd" d="M146.319 166.268L192.185 166.268L192.185 172.108L146.319 172.108C142.71 172.108 137.397 170.946 132.917 167.408C128.306 163.766 124.82 157.789 124.82 148.75L124.82 138.532L113.354 138.532L113.354 132.692L127.687 132.692L127.687 134.286L130.553 134.286L130.553 148.75C130.553 156.062 133.279 160.304 136.431 162.793C139.714 165.387 143.718 166.268 146.319 166.268Z" fill="#F6C1CA"/>
<path fill-rule="evenodd" clip-rule="evenodd" d="M222.215 92L104.243 92C99.5236 92 92.5084 90.5969 86.5913 86.3035C80.5292 81.9049 75.8154 74.5991 75.8154 63.3522L81.5008 63.3522C81.5008 72.7317 85.3152 78.3174 89.9133 81.6538C94.6564 85.0953 100.433 86.2705 104.243 86.2705L216.53 86.2704L216.53 37.5692L222.215 37.5692L222.215 92Z" fill="#F6C1CA"/>
<path fill-rule="evenodd" clip-rule="evenodd" d="M111.477 60.0923L237.231 60.0923L237.231 65.7231L111.477 65.7231L111.477 60.0923Z" fill="#F6C1CA"/>
<path fill-rule="evenodd" clip-rule="evenodd" d="M36.4 59.7169L98.3384 59.7169L98.3384 65.7231L30.7692 65.7231L30.7692 58.2154L36.4 58.2154L36.4 59.7169Z" fill="#F6C1CA"/>
<path fill-rule="evenodd" clip-rule="evenodd" d="M53.3465 82.4198C53.0925 85.74 53.6719 90.6543 56.3649 94.8608C59.2144 99.3117 64.246 102.662 72.1402 102.662L72.1402 96.9108C66.1559 96.9108 62.9954 94.5099 61.2429 91.7724C59.3678 88.8434 58.9156 85.2025 59.1192 82.7727L59.1292 82.6536L59.1292 22.1512C59.1292 13.17 62.3919 8.50113 65.9999 6.05173C69.7843 3.48247 74.4384 3.02472 77.5407 3.43607L77.7309 3.4613L122.738 3.4613L122.738 -2.28944L78.1068 -2.28944C73.9826 -2.79313 67.9071 -2.20608 62.7395 1.30218C57.312 4.98689 53.3465 11.5799 53.3465 22.1512L53.3465 82.4198Z" fill="#F6C1CA"/>
<path fill-rule="evenodd" clip-rule="evenodd" d="M165.908 117.677L256 117.677L256 123.308L165.908 123.308L165.908 117.677Z" fill="#F6C1CA"/>
<path fill-rule="evenodd" clip-rule="evenodd" d="M115.231 120.622L115.231 187.123L109.511 187.123L109.511 120.622C109.511 117.413 108.328 112.438 104.763 108.312C101.289 104.292 95.3262 100.814 85.2 100.814L85.2 95.1539C96.8104 95.1539 104.433 99.2216 109.11 104.634C113.697 109.941 115.231 116.286 115.231 120.622Z" fill="#F6C1CA"/>
<path fill-rule="evenodd" clip-rule="evenodd" d="M72.0615 164.429C72.0615 156.353 75.9718 151.094 80.9241 147.963C85.7214 144.931 91.3723 143.954 95.1621 143.954L109.6 143.954L109.6 149.414L95.1621 149.414C92.2143 149.414 87.7587 150.211 84.1339 152.503C80.6641 154.696 77.8367 158.309 77.8367 164.429L77.8367 189L72.0615 189L72.0615 164.429Z" fill="#F6C1CA"/>
<path fill-rule="evenodd" clip-rule="evenodd" d="M53.2923 55.7385L23.2615 55.7385L23.2615 50.1077L53.2923 50.1077L53.2923 55.7385Z" fill="#F6C1CA"/>
<path fill-rule="evenodd" clip-rule="evenodd" d="M126.738 33.1077C123.629 33.1077 121.108 35.6287 121.108 38.7385C121.108 41.8483 123.629 44.3692 126.738 44.3692C129.848 44.3692 132.369 41.8482 132.369 38.7385C132.369 35.6287 129.848 33.1077 126.738 33.1077ZM126.738 27.4769C120.519 27.4769 115.477 32.5189 115.477 38.7385C115.477 44.958 120.519 50 126.738 50C132.958 50 138 44.958 138 38.7385C138 32.5189 132.958 27.4769 126.738 27.4769Z" fill="#F6C1CA"/>
</g>
<path d="M276.238 53.0332C276.238 45.8438 282.066 40.0156 289.256 40.0156H345.665C352.854 40.0156 358.682 45.8438 358.682 53.0332V77.6218C358.682 84.8112 352.854 90.6394 345.665 90.6394H289.256C282.066 90.6394 276.238 84.8112 276.238 77.6218V53.0332Z" fill="#E65F79"/>
<path d="M335.346 97.1481C334.79 98.1124 333.398 98.1124 332.841 97.1481L327.831 88.4698C327.274 87.5055 327.97 86.3002 329.083 86.3002L339.104 86.3002C340.218 86.3002 340.913 87.5055 340.357 88.4698L335.346 97.1481Z" fill="#E65F79"/>
<path fill-rule="evenodd" clip-rule="evenodd" d="M301.238 60.2651C301.238 58.6675 302.533 57.3723 304.131 57.3723H337.398C338.996 57.3723 340.291 58.6675 340.291 60.2651C340.291 61.8627 338.996 63.1579 337.398 63.1579H304.131C302.533 63.1579 301.238 61.8627 301.238 60.2651Z" fill="white"/>
<path fill-rule="evenodd" clip-rule="evenodd" d="M301.238 71.8363C301.238 70.2386 302.533 68.9435 304.131 68.9435H328.72C330.317 68.9435 331.612 70.2386 331.612 71.8363C331.612 73.4339 330.317 74.7291 328.72 74.7291H304.131C302.533 74.7291 301.238 73.4339 301.238 71.8363Z" fill="white" fill-opacity="0.46"/>
<path d="M320.445 30.0175C320.445 22.8281 314.617 17 307.427 17H251.018C243.829 17 238.001 22.8281 238.001 30.0175V54.6062C238.001 61.7956 243.829 67.6237 251.018 67.6237H307.427C314.617 67.6237 320.445 61.7956 320.445 54.6062V30.0175Z" fill="#EF98A9"/>
<path d="M261.337 74.1325C261.893 75.0968 263.285 75.0968 263.842 74.1325L268.852 65.4542C269.409 64.4899 268.713 63.2846 267.6 63.2846L257.579 63.2846C256.465 63.2846 255.769 64.4899 256.326 65.4542L261.337 74.1325Z" fill="#EF98A9"/>
<path d="M257.79 46.0808L256.112 44.8369C255.977 44.7404 255.9 44.6054 255.881 44.4319C255.861 44.239 255.89 44.0847 255.968 43.969C255.968 43.9497 256.025 43.8822 256.141 43.7665L258.108 42.0309L255.476 41.7705C255.399 41.7512 255.341 41.7416 255.302 41.7416C255.283 41.7223 255.264 41.7127 255.244 41.7127C255.109 41.6741 254.994 41.5777 254.897 41.4234C254.82 41.2498 254.801 41.0762 254.839 40.9027L255.505 38.9067C255.543 38.7524 255.649 38.6367 255.823 38.5595C255.996 38.4824 256.151 38.4631 256.286 38.5017C256.324 38.5017 256.401 38.5402 256.517 38.6174L258.802 39.9481L258.224 37.3735C258.205 37.2963 258.195 37.2481 258.195 37.2288C258.195 37.1903 258.195 37.1613 258.195 37.1421C258.195 36.9878 258.253 36.8431 258.369 36.7081C258.504 36.5731 258.658 36.5056 258.831 36.5056H260.943C261.117 36.5056 261.261 36.5731 261.377 36.7081C261.512 36.8431 261.58 36.9878 261.58 37.1421C261.58 37.1613 261.58 37.1903 261.58 37.2288C261.58 37.2481 261.57 37.2963 261.551 37.3735L260.943 39.977L263.257 38.6174C263.392 38.5402 263.469 38.5017 263.489 38.5017C263.643 38.4631 263.797 38.4824 263.952 38.5595C264.125 38.6367 264.231 38.7524 264.27 38.9067L264.935 40.9027C264.974 41.0762 264.954 41.2498 264.877 41.4234C264.8 41.5777 264.684 41.6741 264.53 41.7127C264.511 41.7127 264.482 41.7223 264.443 41.7416C264.424 41.7416 264.376 41.7512 264.299 41.7705L261.637 42.0309L263.633 43.7665C263.749 43.8822 263.807 43.9497 263.807 43.969C263.903 44.0847 263.942 44.239 263.923 44.4319C263.903 44.6054 263.817 44.7404 263.662 44.8369L261.985 46.0808C261.83 46.1579 261.666 46.1868 261.493 46.1675C261.319 46.1483 261.184 46.0711 261.088 45.9361C261.088 45.9168 261.078 45.8976 261.059 45.8783C261.04 45.8397 261.011 45.7915 260.972 45.7336L259.902 43.2748L258.831 45.7336C258.812 45.7915 258.783 45.8397 258.745 45.8783C258.725 45.8976 258.706 45.9168 258.687 45.9361C258.61 46.0711 258.475 46.1483 258.282 46.1675C258.108 46.1868 257.944 46.1579 257.79 46.0808Z" fill="white"/>
<path d="M270.672 46.0808L268.994 44.8369C268.859 44.7404 268.782 44.6054 268.763 44.4319C268.743 44.239 268.772 44.0847 268.849 43.969C268.849 43.9497 268.907 43.8822 269.023 43.7665L270.99 42.0309L268.358 41.7705C268.281 41.7512 268.223 41.7416 268.184 41.7416C268.165 41.7223 268.146 41.7127 268.126 41.7127C267.991 41.6741 267.876 41.5777 267.779 41.4234C267.702 41.2498 267.683 41.0762 267.721 40.9027L268.387 38.9067C268.425 38.7524 268.531 38.6367 268.705 38.5595C268.878 38.4824 269.033 38.4631 269.168 38.5017C269.206 38.5017 269.283 38.5402 269.399 38.6174L271.684 39.9481L271.106 37.3735C271.087 37.2963 271.077 37.2481 271.077 37.2288C271.077 37.1903 271.077 37.1613 271.077 37.1421C271.077 36.9878 271.135 36.8431 271.25 36.7081C271.385 36.5731 271.54 36.5056 271.713 36.5056H273.825C273.999 36.5056 274.143 36.5731 274.259 36.7081C274.394 36.8431 274.461 36.9878 274.461 37.1421C274.461 37.1613 274.461 37.1903 274.461 37.2288C274.461 37.2481 274.452 37.2963 274.433 37.3735L273.825 39.977L276.139 38.6174C276.274 38.5402 276.351 38.5017 276.371 38.5017C276.525 38.4631 276.679 38.4824 276.834 38.5595C277.007 38.6367 277.113 38.7524 277.152 38.9067L277.817 40.9027C277.856 41.0762 277.836 41.2498 277.759 41.4234C277.682 41.5777 277.566 41.6741 277.412 41.7127C277.393 41.7127 277.364 41.7223 277.325 41.7416C277.306 41.7416 277.258 41.7512 277.181 41.7705L274.519 42.0309L276.515 43.7665C276.631 43.8822 276.689 43.9497 276.689 43.969C276.785 44.0847 276.824 44.239 276.805 44.4319C276.785 44.6054 276.699 44.7404 276.544 44.8369L274.866 46.0808C274.712 46.1579 274.548 46.1868 274.375 46.1675C274.201 46.1483 274.066 46.0711 273.97 45.9361C273.97 45.9168 273.96 45.8976 273.941 45.8783C273.921 45.8397 273.893 45.7915 273.854 45.7336L272.784 43.2748L271.713 45.7336C271.694 45.7915 271.665 45.8397 271.627 45.8783C271.607 45.8976 271.588 45.9168 271.569 45.9361C271.492 46.0711 271.357 46.1483 271.164 46.1675C270.99 46.1868 270.826 46.1579 270.672 46.0808Z" fill="white"/>
<path d="M283.554 46.0808L281.876 44.8369C281.741 44.7404 281.664 44.6054 281.645 44.4319C281.625 44.239 281.654 44.0847 281.731 43.969C281.731 43.9497 281.789 43.8822 281.905 43.7665L283.872 42.0309L281.24 41.7705C281.162 41.7512 281.105 41.7416 281.066 41.7416C281.047 41.7223 281.027 41.7127 281.008 41.7127C280.873 41.6741 280.757 41.5777 280.661 41.4234C280.584 41.2498 280.565 41.0762 280.603 40.9027L281.269 38.9067C281.307 38.7524 281.413 38.6367 281.587 38.5595C281.76 38.4824 281.915 38.4631 282.05 38.5017C282.088 38.5017 282.165 38.5402 282.281 38.6174L284.566 39.9481L283.988 37.3735C283.968 37.2963 283.959 37.2481 283.959 37.2288C283.959 37.1903 283.959 37.1613 283.959 37.1421C283.959 36.9878 284.017 36.8431 284.132 36.7081C284.267 36.5731 284.422 36.5056 284.595 36.5056H286.707C286.881 36.5056 287.025 36.5731 287.141 36.7081C287.276 36.8431 287.343 36.9878 287.343 37.1421C287.343 37.1613 287.343 37.1903 287.343 37.2288C287.343 37.2481 287.334 37.2963 287.314 37.3735L286.707 39.977L289.021 38.6174C289.156 38.5402 289.233 38.5017 289.253 38.5017C289.407 38.4631 289.561 38.4824 289.715 38.5595C289.889 38.6367 289.995 38.7524 290.034 38.9067L290.699 40.9027C290.738 41.0762 290.718 41.2498 290.641 41.4234C290.564 41.5777 290.448 41.6741 290.294 41.7127C290.275 41.7127 290.246 41.7223 290.207 41.7416C290.188 41.7416 290.14 41.7512 290.063 41.7705L287.401 42.0309L289.397 43.7665C289.513 43.8822 289.571 43.9497 289.571 43.969C289.667 44.0847 289.706 44.239 289.687 44.4319C289.667 44.6054 289.58 44.7404 289.426 44.8369L287.748 46.0808C287.594 46.1579 287.43 46.1868 287.257 46.1675C287.083 46.1483 286.948 46.0711 286.852 45.9361C286.852 45.9168 286.842 45.8976 286.823 45.8783C286.803 45.8397 286.774 45.7915 286.736 45.7336L285.666 43.2748L284.595 45.7336C284.576 45.7915 284.547 45.8397 284.508 45.8783C284.489 45.8976 284.47 45.9168 284.451 45.9361C284.373 46.0711 284.238 46.1483 284.046 46.1675C283.872 46.1868 283.708 46.1579 283.554 46.0808Z" fill="white"/>
<path d="M296.436 46.0808L294.758 44.8369C294.623 44.7404 294.546 44.6054 294.527 44.4319C294.507 44.239 294.536 44.0847 294.613 43.969C294.613 43.9497 294.671 43.8822 294.787 43.7665L296.754 42.0309L294.122 41.7705C294.044 41.7512 293.987 41.7416 293.948 41.7416C293.929 41.7223 293.909 41.7127 293.89 41.7127C293.755 41.6741 293.639 41.5777 293.543 41.4234C293.466 41.2498 293.447 41.0762 293.485 40.9027L294.15 38.9067C294.189 38.7524 294.295 38.6367 294.469 38.5595C294.642 38.4824 294.797 38.4631 294.932 38.5017C294.97 38.5017 295.047 38.5402 295.163 38.6174L297.448 39.9481L296.87 37.3735C296.85 37.2963 296.841 37.2481 296.841 37.2288C296.841 37.1903 296.841 37.1613 296.841 37.1421C296.841 36.9878 296.899 36.8431 297.014 36.7081C297.149 36.5731 297.304 36.5056 297.477 36.5056H299.589C299.762 36.5056 299.907 36.5731 300.023 36.7081C300.158 36.8431 300.225 36.9878 300.225 37.1421C300.225 37.1613 300.225 37.1903 300.225 37.2288C300.225 37.2481 300.216 37.2963 300.196 37.3735L299.589 39.977L301.903 38.6174C302.038 38.5402 302.115 38.5017 302.135 38.5017C302.289 38.4631 302.443 38.4824 302.597 38.5595C302.771 38.6367 302.877 38.7524 302.916 38.9067L303.581 40.9027C303.62 41.0762 303.6 41.2498 303.523 41.4234C303.446 41.5777 303.33 41.6741 303.176 41.7127C303.157 41.7127 303.128 41.7223 303.089 41.7416C303.07 41.7416 303.022 41.7512 302.945 41.7705L300.283 42.0309L302.279 43.7665C302.395 43.8822 302.453 43.9497 302.453 43.969C302.549 44.0847 302.588 44.239 302.568 44.4319C302.549 44.6054 302.462 44.7404 302.308 44.8369L300.63 46.0808C300.476 46.1579 300.312 46.1868 300.139 46.1675C299.965 46.1483 299.83 46.0711 299.734 45.9361C299.734 45.9168 299.724 45.8976 299.705 45.8783C299.685 45.8397 299.656 45.7915 299.618 45.7336L298.548 43.2748L297.477 45.7336C297.458 45.7915 297.429 45.8397 297.39 45.8783C297.371 45.8976 297.352 45.9168 297.333 45.9361C297.255 46.0711 297.12 46.1483 296.928 46.1675C296.754 46.1868 296.59 46.1579 296.436 46.0808Z" fill="white"/>
<rect x="297" y="153" width="60" height="86" rx="6" fill="#F9AAB9"/>
<rect x="285.001" y="170" width="60" height="86" rx="6" fill="#EE8697"/>
<rect x="294" y="212" width="41" height="5" rx="2.5" fill="#E65F79"/>
<rect x="294" y="223" width="25" height="5" rx="2.5" fill="#E65F79"/>
<circle cx="316" cy="192" r="12" fill="#FEFEFE" fill-opacity="0.57"/>
<circle cx="316" cy="191.888" r="4.17391" fill="#E65F79"/>
<path d="M316.081 197.143C311.974 197.143 309.546 200.329 309.143 201.857C310.429 203.143 314.732 204.435 316.081 204.422C320.265 204.002 321.748 202.775 322.841 201.871L322.857 201.857C322.508 200.228 320.187 197.143 316.081 197.143Z" fill="#E65F79"/>
<rect x="160.815" y="99" width="83.8763" height="151.443" rx="10" fill="white"/>
<rect x="167" y="105" width="72" height="140" rx="10" fill="#F7F6F6"/>
<path d="M148 163.072V329.66H233.66C233.739 316.773 233.849 288.845 233.66 280.222C233.471 271.6 237.829 256.792 240.031 250.466H202.511C200.623 221.647 197.083 222.584 172.542 215.087C172.07 208.917 170.843 186.034 168.766 174.787C166.69 163.541 155.001 163.775 148 163.072Z" fill="#F78EA2"/>
<path d="M201.588 278.402C202.531 276.959 202.846 258.936 202.767 250.443H240.031C239.56 251.796 234.371 267.354 233.663 278.402H201.588Z" fill="#E9778D"/>
<path fill-rule="evenodd" clip-rule="evenodd" d="M172.791 215.238C173.772 219.679 174.743 226.501 175.277 233.162C175.836 240.128 175.893 246.659 175.096 250.103C174.91 250.91 175.413 251.716 176.22 251.903C177.027 252.089 177.832 251.586 178.019 250.779C178.934 246.826 178.824 239.859 178.267 232.922C177.787 226.932 176.956 220.771 176.063 216.233C175.017 215.917 173.927 215.586 172.791 215.238Z" fill="#E65F79"/>
<path d="M228.382 234.716C228.382 229.891 232.261 225.979 237.046 225.979H252.336C257.121 225.979 261 229.891 261 234.716V234.716C261 239.542 257.121 243.454 252.336 243.454H237.046C232.261 243.454 228.382 239.542 228.382 234.716V234.716Z" fill="#E9778D"/>
<g filter="url(#filter1_d_541_429)">
<path d="M84 64C84 61.2386 86.2386 59 89 59H127.786C130.547 59 132.786 61.2386 132.786 64V107.028C132.786 109.789 130.547 112.028 127.786 112.028H89C86.2386 112.028 84 109.789 84 107.028V64Z" fill="white"/>
</g>
<path d="M106.953 117.728C107.593 118.612 109.193 118.612 109.833 117.728L115.592 109.774C116.231 108.89 115.432 107.786 114.152 107.786L102.634 107.786C101.354 107.786 100.554 108.89 101.194 109.774L106.953 117.728Z" fill="white"/>
<path d="M109.01 68C102.615 68 96 72.8663 96 81.0095C96 89.6455 107.959 101.704 108.468 102.213C108.612 102.357 108.807 102.437 109.01 102.437C109.212 102.437 109.407 102.357 109.551 102.213C110.06 101.704 122.019 89.6455 122.019 81.0095C122.019 72.8663 115.404 68 109.01 68ZM109.01 85.6011C106.477 85.6011 104.418 83.5418 104.418 81.0095C104.418 78.4773 106.477 76.4179 109.01 76.4179C111.542 76.4179 113.601 78.4773 113.601 81.0095C113.601 83.5418 111.542 85.6011 109.01 85.6011Z" fill="#E65F79"/>
<path d="M235 167C235 184.673 220.674 199 203 199C185.327 199 171 184.673 171 167C171 149.327 185.327 135 203 135C220.674 135 235 149.327 235 167Z" fill="#FBEBEE"/>
<path d="M196.535 169.185C196.842 168.055 196.329 167.626 195.534 168.055L189.77 170.88C189.507 171.001 189.279 171.176 189.104 171.391C188.93 171.607 188.814 171.856 188.767 172.119C188.719 172.382 188.741 172.652 188.831 172.906C188.92 173.16 189.075 173.391 189.282 173.581L192.649 177.503C192.785 177.631 192.958 177.723 193.149 177.769C193.339 177.815 193.54 177.813 193.729 177.763C193.918 177.713 194.089 177.617 194.222 177.485C194.354 177.353 194.445 177.191 194.483 177.017L196.535 169.185Z" fill="#5D2B34"/>
<path d="M198.19 182.467C196.87 181.069 196.604 179.905 196.87 178.97L200.243 166.835C200.499 165.995 201.077 165.258 201.88 164.752L208.197 161.722C208.394 161.647 208.611 161.621 208.823 161.648C209.036 161.675 209.235 161.754 209.4 161.875C209.564 161.997 209.687 162.156 209.755 162.336C209.823 162.515 209.832 162.708 209.783 162.892L203.421 185.926C203.376 186.095 203.277 186.251 203.137 186.373C202.996 186.496 202.819 186.581 202.626 186.62C202.433 186.658 202.232 186.648 202.045 186.59C201.858 186.532 201.694 186.429 201.57 186.293L198.19 182.467Z" fill="#5D2B34"/>
<path d="M217.583 168.634C217.896 169.117 218.039 169.674 217.992 170.23C217.945 170.787 217.712 171.318 217.321 171.754L209.554 180.488C209.408 180.656 209.201 180.775 208.968 180.823C208.736 180.872 208.492 180.847 208.277 180.754C208.062 180.661 207.89 180.505 207.789 180.312C207.689 180.118 207.666 179.9 207.724 179.694L212.081 163.271C212.128 163.089 212.235 162.924 212.389 162.797C212.543 162.67 212.736 162.588 212.943 162.561C213.151 162.534 213.362 162.564 213.55 162.646C213.738 162.728 213.894 162.858 213.998 163.021L217.583 168.634Z" fill="#5D2B34"/>
<path d="M203.466 161.523C203.289 161.612 203.089 161.652 202.888 161.638C202.687 161.625 202.495 161.558 202.335 161.446C202.175 161.334 202.054 161.182 201.987 161.008C201.921 160.834 201.911 160.646 201.959 160.468L203.484 154.711L204.265 151.875L204.7 150.548C204.727 150.46 204.782 150.38 204.858 150.32C204.934 150.26 205.027 150.222 205.127 150.21C205.226 150.198 205.328 150.213 205.418 150.253C205.508 150.292 205.584 150.356 205.636 150.434L209.976 157.189C210.045 157.299 210.09 157.421 210.107 157.546C210.124 157.672 210.113 157.8 210.076 157.922C210.038 158.044 209.974 158.158 209.888 158.257C209.802 158.356 209.695 158.439 209.573 158.5L203.466 161.523Z" fill="#5D2B34"/>
<path d="M190.719 167.779L197.235 164.623C197.624 164.435 197.963 164.174 198.231 163.858C198.499 163.541 198.688 163.176 198.787 162.788L202.218 149.371C202.255 149.209 202.227 149.04 202.14 148.894C202.053 148.749 201.912 148.636 201.742 148.575C201.572 148.514 201.384 148.51 201.21 148.563C201.037 148.616 200.89 148.722 200.795 148.863L197.18 154.44L194.599 158.656L189.346 166.468C189.229 166.644 189.178 166.85 189.203 167.054C189.227 167.258 189.325 167.449 189.481 167.598C189.637 167.746 189.842 167.845 190.066 167.877C190.29 167.91 190.519 167.876 190.719 167.779Z" fill="#5D2B34"/>
<path d="M228.382 179.381C228.382 174.234 232.698 170.062 238.021 170.062H250.197C255.52 170.062 259.836 174.234 259.836 179.381V179.381C259.836 184.529 255.52 188.701 250.197 188.701H238.021C232.698 188.701 228.382 184.529 228.382 179.381V179.381Z" fill="#E9778D"/>
<path d="M228.382 207.34C228.382 202.193 232.47 198.021 237.514 198.021H250.704C255.747 198.021 259.836 202.193 259.836 207.34V207.34C259.836 212.487 255.747 216.66 250.704 216.66H237.514C232.47 216.66 228.382 212.487 228.382 207.34V207.34Z" fill="#E9778D"/>
<defs>
<filter id="filter0_d_541_429" x="-3.05176e-05" y="0" width="241" height="230" filterUnits="userSpaceOnUse" color-interpolation-filters="sRGB">
<feFlood flood-opacity="0" result="BackgroundImageFix"/>
<feColorMatrix in="SourceAlpha" type="matrix" values="0 0 0 0 0 0 0 0 0 0 0 0 0 0 0 0 0 0 127 0" result="hardAlpha"/>
<feOffset dx="5" dy="10"/>
<feGaussianBlur stdDeviation="25"/>
<feColorMatrix type="matrix" values="0 0 0 0 0 0 0 0 0 0 0 0 0 0 0 0 0 0 0.05 0"/>
<feBlend mode="normal" in2="BackgroundImageFix" result="effect1_dropShadow_541_429"/>
<feBlend mode="normal" in="SourceGraphic" in2="effect1_dropShadow_541_429" result="shape"/>
</filter>
<filter id="filter1_d_541_429" x="39" y="19" width="148.786" height="153.028" filterUnits="userSpaceOnUse" color-interpolation-filters="sRGB">
<feFlood flood-opacity="0" result="BackgroundImageFix"/>
<feColorMatrix in="SourceAlpha" type="matrix" values="0 0 0 0 0 0 0 0 0 0 0 0 0 0 0 0 0 0 127 0" result="hardAlpha"/>
<feOffset dx="5" dy="10"/>
<feGaussianBlur stdDeviation="25"/>
<feColorMatrix type="matrix" values="0 0 0 0 0 0 0 0 0 0 0 0 0 0 0 0 0 0 0.05 0"/>
<feBlend mode="normal" in2="BackgroundImageFix" result="effect1_dropShadow_541_429"/>
<feBlend mode="normal" in="SourceGraphic" in2="effect1_dropShadow_541_429" result="shape"/>
</filter>
</defs>
</svg>
