<svg width="338" height="295" viewBox="0 0 338 295" fill="none" xmlns="http://www.w3.org/2000/svg">
<circle cx="12" cy="276" r="6" stroke="#CDCD21" stroke-width="2"/>
<path d="M215 9L222.971 2L230.942 9L238.188 2L246.884 9L251.957 2L258.478 9L265 2" stroke="#CDCD21" stroke-width="2"/>
<path d="M1 141L8.97101 134L16.942 141L24.1884 134L32.8841 141L37.9565 134L44.4783 141L51 134" stroke="#CDCD21" stroke-width="2"/>
<path d="M292 274H282C281.448 274 281 274.448 281 275V285C281 285.552 281.448 286 282 286H292C292.552 286 293 285.552 293 285V275C293 274.448 292.552 274 292 274Z" fill="#CDCD21"/>
<g clip-path="url(#clip0_304_129)">
<path d="M316.688 167L327.687 167C328.068 167 328.375 167.448 328.375 168C328.375 168.552 328.068 169 327.688 169L316.688 169C316.307 169 316 168.552 316 168C316 167.448 316.307 167 316.688 167Z" fill="#CDCD21"/>
<path d="M316.688 161L337.312 161C337.693 161 338 161.448 338 162C338 162.552 337.693 163 337.313 163L316.688 163C316.308 163 316 162.552 316 162C316 161.448 316.308 161 316.688 161Z" fill="#CDCD21"/>
<path d="M316.688 155L327.687 155C328.068 155 328.375 155.448 328.375 156C328.375 156.552 328.068 157 327.688 157L316.688 157C316.307 157 316 156.552 316 156C316 155.448 316.307 155 316.688 155Z" fill="#CDCD21"/>
</g>
<path d="M32 120C32 63.667 77.667 18 134 18H274C291.673 18 306 32.3269 306 50V180C306 243.513 254.513 295 191 295H64C46.3269 295 32 280.673 32 263V120Z" fill="#FBFBE7"/>
<path d="M293 182C293 238.333 247.333 284 191 284H69C52.4315 284 39 270.569 39 254V128C39 72.2193 84.2192 27 140 27H261C278.673 27 293 41.3269 293 59V182Z" fill="#F2F293"/>
<mask id="mask0_304_129" style="mask-type:alpha" maskUnits="userSpaceOnUse" x="39" y="27" width="254" height="257">
<path d="M39 125C39 70.8761 82.8761 27 137 27H261C278.673 27 293 41.3269 293 59V182C293 238.333 247.333 284 191 284H68C51.9837 284 39 271.016 39 255V125Z" fill="#F9F9FA"/>
</mask>
<g mask="url(#mask0_304_129)">
<path d="M138.298 215.5C126.646 221.348 112.798 237.816 78.2978 247.5C49.7978 255.5 34.2978 325.5 136.298 325.5C238.298 325.5 257.631 275.833 272.298 255.5C272.298 255.5 256.967 238.886 242.798 235.5C233.468 233.27 217.298 224.272 217.298 224.272C202.298 218.5 192.132 208 164.298 208C143.798 208 149.798 209.728 138.298 215.5Z" fill="white"/>
<path d="M137 180H196.298V238C196.298 249.598 186.896 259 175.298 259H159.215C147.097 259 137.261 249.201 137.215 237.083L137 180Z" fill="#F6A55C"/>
<path d="M196.298 181V194V219L170.24 199.681C169.422 199.075 169.941 197.666 170.959 197.631C184.175 197.172 193.239 186.658 196.298 181Z" fill="#D18343"/>
<rect x="138" y="177" width="13" height="27" fill="#F6A55C"/>
<path d="M129.901 110C129.678 113.08 129.901 135.5 129.901 135.5C125.401 134.5 119.901 135.5 118.401 143.5C117.51 148.25 126.234 159 131.401 164C130.201 191.2 153.567 197.333 165.401 197C193.001 198.6 199.401 179 199.401 162.5C202.567 159.833 209.301 152.6 210.901 145C212.501 137.4 203.901 135.5 199.401 135.5V114.5C174.601 115.7 137.401 99.5882 134.401 98C131.401 96.4117 130.298 104.5 129.901 110Z" fill="#F6A55C"/>
<mask id="mask1_304_129" style="mask-type:alpha" maskUnits="userSpaceOnUse" x="133" y="183" width="17" height="14">
<path d="M136 186C138.167 188.167 143.4 192.7 147 193.5" stroke="#D18343" stroke-width="5" stroke-linecap="round"/>
</mask>
<g mask="url(#mask1_304_129)">
<path d="M150.702 186.76L145.761 182.68L136.702 183.5V199L150.702 199V186.76Z" fill="#D18343"/>
</g>
<path d="M132.982 94.6039C111.41 97.1203 120.085 126.583 127.12 141H131.028C131.158 132.219 132.278 113.084 135.717 106.793C140.016 98.9289 153.303 113.084 157.211 117.802C161.119 122.52 179.487 124.879 189.647 117.802C197.776 112.14 196.942 130.908 195.509 141H200.98C208.015 103.254 202.153 96.1766 199.026 94.6039C196.525 93.3458 190.168 91.7205 187.302 91.0651C177.298 72.1922 164.897 68.5225 159.947 69.0468C141.501 68.4177 134.284 85.8227 132.982 94.6039Z" fill="#242402"/>
<path d="M135.298 131.774C136.464 130.107 140.798 127.074 148.798 128.274" stroke="#704926" stroke-width="3" stroke-linecap="round"/>
<path d="M192.798 131.774C191.631 130.107 187.298 127.074 179.298 128.274" stroke="#704926" stroke-width="3" stroke-linecap="round"/>
<path d="M188.496 140.673C187.2 141.662 183.118 142.936 177.163 140.119" stroke="#52520E" stroke-width="3" stroke-linecap="round"/>
<path d="M140.097 140.474C141.358 141.508 145.392 142.924 151.442 140.316" stroke="#52520E" stroke-width="3" stroke-linecap="round"/>
<path d="M163.298 141.274V160.517C163.298 161.16 163.895 161.631 164.504 161.422C166.442 160.758 168.652 159.597 170.298 158.774" stroke="#E78441" stroke-width="3" stroke-linecap="round"/>
<path d="M174.214 169.373C171.85 171.227 164.74 172.574 159.353 169.75" stroke="#E78441" stroke-width="3" stroke-linecap="round"/>
</g>
<defs>
<clipPath id="clip0_304_129">
<rect width="22" height="32" fill="white" transform="translate(338 178) rotate(180)"/>
</clipPath>
</defs>
</svg>
