<svg width="284" height="341" viewBox="0 0 284 341" fill="none" xmlns="http://www.w3.org/2000/svg">
<path d="M7 239C7 291.467 49.533 334 102 334H252C265.807 334 277 322.807 277 309V169C277 109.353 228.647 61 169 61H32C18.1929 61 7 72.1929 7 86V239Z" fill="#C1E9F9" stroke="#F2FAFD" stroke-width="14"/>
<mask id="mask0_536_197" style="mask-type:alpha" maskUnits="userSpaceOnUse" x="14" y="68" width="256" height="259">
<path fill-rule="evenodd" clip-rule="evenodd" d="M102 327H252C261.941 327 270 318.941 270 309V169C270 113.219 224.781 68 169 68H32C22.0589 68 14 76.0589 14 86V239C14 287.601 53.3989 327 102 327Z" fill="#EFEDED"/>
</mask>
<g mask="url(#mask0_536_197)">
<g filter="url(#filter0_d_536_197)">
<path d="M47 157C47 140.431 60.4315 127 77 127H207C223.569 127 237 140.431 237 157V350H47V157Z" fill="white"/>
</g>
<path d="M217.724 168.732H207.331C204.939 168.732 203 170.477 203 172.63C203 174.782 204.939 176.527 207.331 176.527H217.724C220.116 176.527 222.054 174.782 222.054 172.63C222.054 170.477 220.116 168.732 217.724 168.732Z" fill="#E8E1FE"/>
<path d="M223.354 172.63C223.354 175.739 220.833 178.259 217.724 178.259C214.615 178.259 212.094 175.739 212.094 172.63C212.094 169.521 214.615 167 217.724 167C220.833 167 223.354 169.521 223.354 172.63Z" fill="#473860"/>
<path d="M63 171.806C63 171.253 63.2465 170.73 63.6723 170.379L68.4625 166.424C69.1444 165.86 70.1294 165.859 70.8134 166.419L75.6458 170.378C76.0748 170.73 76.3235 171.255 76.3235 171.81V179.49C76.3235 180.512 75.495 181.34 74.473 181.34H64.8505C63.8285 181.34 63 180.512 63 179.49V171.806Z" fill="#473860"/>
<path fill-rule="evenodd" clip-rule="evenodd" d="M75.5833 179.49V171.81C75.5833 171.477 75.4341 171.162 75.1767 170.951L70.3443 166.992C69.9339 166.655 69.3429 166.656 68.9337 166.994L64.1436 170.949C63.8881 171.16 63.7402 171.474 63.7402 171.806V179.49C63.7402 180.103 64.2373 180.6 64.8505 180.6H74.473C75.0862 180.6 75.5833 180.103 75.5833 179.49ZM63.6723 170.379C63.2465 170.73 63 171.253 63 171.806V179.49C63 180.512 63.8285 181.34 64.8505 181.34H74.473C75.495 181.34 76.3235 180.512 76.3235 179.49V171.81C76.3235 171.255 76.0748 170.73 75.6458 170.378L70.8134 166.419C70.1294 165.859 69.1444 165.86 68.4625 166.424L63.6723 170.379Z" fill="#473860"/>
<path fill-rule="evenodd" clip-rule="evenodd" d="M69.6616 171.888C70.0704 171.888 70.4018 172.22 70.4018 172.629V176.216C70.4018 176.625 70.0704 176.956 69.6616 176.956C69.2528 176.956 68.9214 176.625 68.9214 176.216V172.629C68.9214 172.22 69.2528 171.888 69.6616 171.888Z" fill="white"/>
<rect x="86" y="169" width="46" height="4" rx="2" fill="#C4C4C4"/>
<rect x="113" y="144" width="63" height="5" rx="2.5" fill="#EDEBEB"/>
<path d="M217.724 210.732H207.331C204.939 210.732 203 212.477 203 214.63C203 216.782 204.939 218.527 207.331 218.527H217.724C220.116 218.527 222.054 216.782 222.054 214.63C222.054 212.477 220.116 210.732 217.724 210.732Z" fill="#E8E1FE"/>
<path d="M223.354 214.63C223.354 217.739 220.833 220.259 217.724 220.259C214.615 220.259 212.094 217.739 212.094 214.63C212.094 211.521 214.615 209 217.724 209C220.833 209 223.354 211.521 223.354 214.63Z" fill="#473860"/>
<path d="M69.303 207C65.7124 207 62 209.739 62 214.303C62 218.624 68.5727 225.379 68.877 225.684C68.9987 225.805 69.1205 225.866 69.303 225.866C69.4856 225.866 69.6073 225.805 69.729 225.684C70.0333 225.379 76.6061 218.685 76.6061 214.303C76.6061 209.739 72.8937 207 69.303 207ZM69.303 216.737C67.9641 216.737 66.8687 215.642 66.8687 214.303C66.8687 212.964 67.9641 211.869 69.303 211.869C70.6419 211.869 71.7374 212.964 71.7374 214.303C71.7374 215.642 70.6419 216.737 69.303 216.737Z" fill="#334155"/>
<rect x="86" y="209" width="29" height="4" rx="2" fill="#C4C4C4"/>
<rect x="86" y="215" width="14" height="4" rx="2" fill="#C4C4C4"/>
<rect x="86" y="176" width="14" height="4" rx="2" fill="#C4C4C4"/>
<path d="M217.724 247.732H207.331C204.939 247.732 203 249.477 203 251.63C203 253.782 204.939 255.527 207.331 255.527H217.724C220.116 255.527 222.054 253.782 222.054 251.63C222.054 249.477 220.116 247.732 217.724 247.732Z" fill="#E8E1FE"/>
<path d="M223.354 251.63C223.354 254.739 220.833 257.259 217.724 257.259C214.615 257.259 212.094 254.739 212.094 251.63C212.094 248.521 214.615 246 217.724 246C220.833 246 223.354 248.521 223.354 251.63Z" fill="#473860"/>
<path d="M71 259C71 260.105 70.1046 261 69 261C67.8954 261 67 260.105 67 259C67 257.895 67.8954 257 69 257C70.1046 257 71 257.895 71 259Z" fill="#334155"/>
<path d="M69 245C65.2387 245 61.8221 246.485 59.3076 248.898C58.9255 249.264 58.8955 249.865 59.2393 250.268L64.4551 256.381C64.6444 256.603 64.921 256.731 65.2126 256.732C65.5042 256.733 65.7817 256.606 65.9724 256.386C66.7073 255.535 67.7905 255 69 255C70.2094 255 71.2926 255.535 72.0275 256.386C72.2182 256.606 72.4957 256.733 72.7873 256.732C73.0789 256.731 73.3555 256.603 73.5448 256.381L78.7607 250.268C79.1045 249.865 79.0745 249.264 78.6924 248.898C76.1779 246.485 72.7613 245 69 245Z" fill="#334155"/>
<rect x="86" y="246" width="23" height="4" rx="2" fill="#C4C4C4"/>
<rect x="86" y="253" width="43" height="4" rx="2" fill="#C4C4C4"/>
<path d="M218.724 289.539H208.331C205.939 289.539 204 291.284 204 293.437C204 295.589 205.939 297.334 208.331 297.334H218.724C221.116 297.334 223.054 295.589 223.054 293.437C223.054 291.284 221.116 289.539 218.724 289.539Z" fill="#E9E8EC"/>
<path d="M213.259 293.437C213.259 296.546 210.739 299.066 207.63 299.066C204.521 299.066 202 296.546 202 293.437C202 290.327 204.521 287.807 207.63 287.807C210.739 287.807 213.259 290.327 213.259 293.437Z" fill="#DAD8DD"/>
<rect x="86" y="288.807" width="29" height="4" rx="2" fill="#C4C4C4"/>
<rect x="86" y="294.807" width="14" height="4" rx="2" fill="#C4C4C4"/>
<path d="M75.4541 292.099H70.1338L71.618 285.669C71.6748 285.422 71.5547 285.168 71.327 285.057C71.0992 284.944 70.8251 285.004 70.664 285.199L63.0191 294.482C62.8848 294.645 62.857 294.871 62.9471 295.062C63.0372 295.253 63.2294 295.375 63.4407 295.375H68.761L67.2768 301.805C67.22 302.053 67.3401 302.306 67.5678 302.418C67.6448 302.456 67.7273 302.474 67.8092 302.474C67.9687 302.474 68.1248 302.405 68.2308 302.276L75.8757 292.992C76.01 292.829 76.0378 292.604 75.9477 292.413C75.8576 292.221 75.6654 292.099 75.4541 292.099Z" fill="#C4C4C4"/>
<line x1="63" y1="194.5" x2="222" y2="194.5" stroke="#EFEFF1"/>
<line x1="63" y1="235.5" x2="222" y2="235.5" stroke="#EFEFF1"/>
<line x1="63" y1="272.5" x2="222" y2="272.5" stroke="#EFEFF1"/>
<path d="M124.636 131.378C124.636 131.378 130.601 122.574 141.808 122.341C153.014 122.108 159.34 130.656 159.34 130.656" stroke="#8C839A" stroke-width="4"/>
<path d="M117.241 123.576C117.241 123.576 125.578 111.829 141.22 111.504C156.863 111.178 165.682 122.568 165.682 122.568" stroke="#8C839A" stroke-width="4"/>
<path d="M134.17 137.69C134.17 137.69 136.897 133.293 142.033 133.186C147.169 133.08 150.076 137.359 150.076 137.359" stroke="#9B90AD" stroke-width="4"/>
</g>
<g filter="url(#filter1_d_536_197)">
<rect x="60" y="40" width="158" height="59" rx="29.5" fill="white"/>
</g>
<ellipse cx="142.509" cy="69.5094" rx="18.5094" ry="18.5094" transform="rotate(-90 142.509 69.5094)" fill="#6BD5FF"/>
<path d="M142.51 60.995C139.416 60.995 136.216 63.349 136.216 67.2882C136.216 71.4658 142.001 77.2988 142.248 77.545C142.317 77.6146 142.412 77.6535 142.51 77.6535C142.608 77.6535 142.702 77.6146 142.771 77.545C143.018 77.2988 148.803 71.4658 148.803 67.2882C148.803 63.349 145.603 60.995 142.51 60.995ZM142.51 69.5093C141.285 69.5093 140.289 68.5132 140.289 67.2882C140.289 66.0632 141.285 65.0671 142.51 65.0671C143.735 65.0671 144.731 66.0632 144.731 67.2882C144.731 68.5132 143.735 69.5093 142.51 69.5093Z" fill="#473860"/>
<ellipse cx="95.5094" cy="69.5094" rx="18.5094" ry="18.5094" transform="rotate(-90 95.5094 69.5094)" fill="#94E2BF"/>
<path d="M88.8988 67.3823C88.8988 66.8301 89.1453 66.3068 89.5711 65.9553L94.3612 62.0003C95.0432 61.4372 96.0282 61.4354 96.7122 61.9958L101.545 65.9551C101.974 66.3066 102.222 66.832 102.222 67.3865V75.0664C102.222 76.0884 101.394 76.9169 100.372 76.9169H90.7493C89.7273 76.9169 88.8988 76.0884 88.8988 75.0664V67.3823Z" fill="#345B4A"/>
<path fill-rule="evenodd" clip-rule="evenodd" d="M101.482 75.0664V67.3865C101.482 67.0538 101.333 66.7386 101.075 66.5277L96.2431 62.5684C95.8327 62.2321 95.2417 62.2332 94.8325 62.571L90.0424 66.5261C89.7869 66.737 89.639 67.051 89.639 67.3823V75.0664C89.639 75.6796 90.1361 76.1767 90.7493 76.1767H100.372C100.985 76.1767 101.482 75.6796 101.482 75.0664ZM89.5711 65.9553C89.1453 66.3068 88.8988 66.8301 88.8988 67.3823V75.0664C88.8988 76.0884 89.7273 76.9169 90.7493 76.9169H100.372C101.394 76.9169 102.222 76.0884 102.222 75.0664V67.3865C102.222 66.832 101.974 66.3066 101.545 65.9551L96.7122 61.9958C96.0282 61.4354 95.0432 61.4372 94.3612 62.0003L89.5711 65.9553Z" fill="#345B4A"/>
<path fill-rule="evenodd" clip-rule="evenodd" d="M95.5604 67.4651C95.9692 67.4651 96.3006 67.7965 96.3006 68.2053V71.7924C96.3006 72.2012 95.9692 72.5326 95.5604 72.5326C95.1516 72.5326 94.8202 72.2012 94.8202 71.7924V68.2053C94.8202 67.7965 95.1516 67.4651 95.5604 67.4651Z" fill="#94E2BF"/>
<ellipse cx="189.509" cy="69.5094" rx="18.5094" ry="18.5094" transform="rotate(-90 189.509 69.5094)" fill="#EBEB4A"/>
<path d="M191.5 75.25C191.5 76.2165 190.716 77 189.75 77C188.784 77 188 76.2165 188 75.25C188 74.2835 188.784 73.5 189.75 73.5C190.716 73.5 191.5 74.2835 191.5 75.25Z" fill="#424215"/>
<path d="M189.75 63C186.459 63 183.469 64.299 181.269 66.4104C180.935 66.7313 180.909 67.2572 181.209 67.6097L185.773 72.9583C185.939 73.1524 186.181 73.2645 186.436 73.2653C186.691 73.2661 186.934 73.1555 187.101 72.9625C187.744 72.2186 188.692 71.75 189.75 71.75C190.808 71.75 191.756 72.2186 192.399 72.9625C192.566 73.1555 192.809 73.2661 193.064 73.2653C193.319 73.2645 193.561 73.1524 193.727 72.9583L198.291 67.6097C198.591 67.2572 198.565 66.7313 198.231 66.4104C196.031 64.299 193.041 63 189.75 63Z" fill="#424215"/>
<defs>
<filter id="filter0_d_536_197" x="2" y="87" width="290" height="323" filterUnits="userSpaceOnUse" color-interpolation-filters="sRGB">
<feFlood flood-opacity="0" result="BackgroundImageFix"/>
<feColorMatrix in="SourceAlpha" type="matrix" values="0 0 0 0 0 0 0 0 0 0 0 0 0 0 0 0 0 0 127 0" result="hardAlpha"/>
<feOffset dx="5" dy="10"/>
<feGaussianBlur stdDeviation="25"/>
<feColorMatrix type="matrix" values="0 0 0 0 0 0 0 0 0 0 0 0 0 0 0 0 0 0 0.05 0"/>
<feBlend mode="normal" in2="BackgroundImageFix" result="effect1_dropShadow_536_197"/>
<feBlend mode="normal" in="SourceGraphic" in2="effect1_dropShadow_536_197" result="shape"/>
</filter>
<filter id="filter1_d_536_197" x="15" y="0" width="258" height="159" filterUnits="userSpaceOnUse" color-interpolation-filters="sRGB">
<feFlood flood-opacity="0" result="BackgroundImageFix"/>
<feColorMatrix in="SourceAlpha" type="matrix" values="0 0 0 0 0 0 0 0 0 0 0 0 0 0 0 0 0 0 127 0" result="hardAlpha"/>
<feOffset dx="5" dy="10"/>
<feGaussianBlur stdDeviation="25"/>
<feColorMatrix type="matrix" values="0 0 0 0 0 0 0 0 0 0 0 0 0 0 0 0 0 0 0.05 0"/>
<feBlend mode="normal" in2="BackgroundImageFix" result="effect1_dropShadow_536_197"/>
<feBlend mode="normal" in="SourceGraphic" in2="effect1_dropShadow_536_197" result="shape"/>
</filter>
</defs>
</svg>
