<svg width="1046" height="480" viewBox="0 0 1046 480" fill="none" xmlns="http://www.w3.org/2000/svg">
<g clip-path="url(#clip0)">
<path d="M0.0664062 0H1045.93V480H0.0664062V0Z" fill="white"/>
<path d="M279.453 243.64C278.606 267.174 267.254 290.201 248.618 304.762C229.303 320.338 202.703 326.264 178.645 320.338C154.417 314.751 133.408 297.481 123.242 274.963C112.738 252.613 113.246 225.354 124.767 203.344C134.086 185.058 150.52 170.666 169.834 163.725C168.987 163.555 161.363 164.91 151.367 170.666C141.371 176.254 129.342 187.09 121.887 201.82C110.027 224.677 109.349 252.952 120.362 276.148C131.036 299.682 152.892 317.46 177.967 323.217C203.042 329.312 230.658 323.217 250.651 306.963C269.965 291.725 281.825 267.852 282.672 243.471L279.453 243.64Z" fill="#A3C854"/>
<path d="M290.296 212.824C289.11 208.93 287.754 205.205 286.229 201.48L282.333 203.173C283.857 206.729 285.213 210.285 286.229 214.009C296.056 245.332 287.246 281.565 264.204 305.099C241.501 328.972 205.582 338.962 173.9 330.158C142.048 322.031 115.787 295.618 107.993 263.618C101.216 237.374 106.807 208.083 122.902 186.242C121.886 186.581 114.431 193.861 108.162 207.914C101.894 221.798 98.1662 243.131 103.757 264.634C111.89 298.158 139.337 325.755 172.714 334.39C205.921 343.533 243.534 333.036 267.254 308.147C291.312 283.597 300.631 245.671 290.296 212.824V212.824Z" fill="#A3C854"/>
<path d="M289.955 180.994C284.025 171.851 276.74 163.724 268.438 156.613L265.049 160.677C273.012 167.28 279.959 175.068 285.55 183.873C296.732 200.973 302.662 221.46 302.323 241.777C302.492 282.751 275.893 322.201 237.772 337.439C218.965 345.227 197.787 347.259 177.795 343.365C157.803 339.47 138.996 329.481 124.426 315.259C100.028 291.724 88.6767 255.83 94.776 222.476C93.7595 223.492 89.3544 235.682 90.7098 254.814C91.7264 273.777 100.706 299.682 120.529 318.984C135.777 334.052 155.6 344.55 176.609 348.613C197.618 352.677 219.813 350.476 239.635 342.349C279.789 326.433 307.745 284.952 307.575 241.777C307.745 220.444 301.645 198.941 289.955 180.994V180.994Z" fill="#A3C854"/>
<path d="M164.919 360.972C189.825 367.913 216.764 366.559 240.991 357.585C265.219 348.612 286.398 332.019 300.968 310.517C315.539 289.183 322.994 263.278 322.316 237.374C321.638 211.638 312.659 186.072 297.072 165.585C281.484 144.929 259.459 129.522 234.723 121.903C232.52 121.226 230.148 120.548 227.776 119.871L226.251 126.136C228.454 126.644 230.656 127.321 232.859 127.998C256.24 135.109 277.249 149.839 291.989 169.48C306.729 188.95 315.2 213.162 315.878 237.543C316.556 261.924 309.44 286.644 295.716 306.792C281.993 327.109 261.831 342.855 238.958 351.321C216.086 359.786 190.502 360.972 166.783 354.538C127.476 344.21 94.9461 312.04 84.1028 272.929C83.5945 274.453 85.1194 290.03 96.9792 309.839C108.331 329.649 132.559 352.506 164.919 360.972V360.972Z" fill="#A3C854"/>
<path d="M348.746 195.046C338.581 162.369 317.233 133.416 289.278 113.607C261.322 93.7972 226.929 83.2998 192.705 84.485C158.481 85.5009 124.595 97.8607 98.1649 119.533C97.3178 120.21 96.6401 120.718 95.793 121.395L101.384 127.998C102.062 127.321 102.909 126.813 103.587 126.136C128.662 105.649 160.683 93.9665 193.044 92.9506C225.404 91.7654 258.103 101.755 284.364 120.379C310.795 139.173 330.956 166.432 340.614 197.416C350.44 228.231 349.932 262.263 338.92 292.739C328.076 323.215 307.067 349.967 279.959 367.744C235.231 397.713 174.068 400.422 126.967 374.686C127.984 376.718 144.249 389.586 174.237 396.019C189.147 399.236 207.275 400.422 226.59 397.374C245.905 394.496 266.405 387.046 284.703 374.855C313.336 356.062 335.7 327.787 347.052 295.617C358.573 263.617 359.081 227.723 348.746 195.046V195.046Z" fill="#A3C854"/>
<path d="M213.715 372.994C166.615 379.259 117.312 357.756 89.6953 318.984C89.6953 321.016 97.6583 337.27 118.837 354.201C129.341 362.497 143.234 370.455 159.838 375.534C176.272 380.614 195.417 382.645 214.562 380.444C244.551 376.889 273.184 363.344 294.87 342.349C316.726 321.524 331.636 293.587 336.38 263.788C341.293 234.158 336.549 202.666 322.656 176.084C308.763 149.333 286.23 127.153 258.952 114.116C231.844 100.91 200.331 96.8463 170.85 102.603L168.309 103.111L169.834 110.391C170.681 110.222 171.359 110.053 172.206 109.883C200.161 104.465 229.98 108.19 255.564 120.719C281.316 133.079 302.664 154.074 315.879 179.471C329.095 204.698 333.669 234.328 328.925 262.603C324.351 290.878 310.288 317.291 289.618 336.931C269.118 356.91 242.009 369.27 213.715 372.994V372.994Z" fill="#A3C854"/>
<path d="M417.026 302.223H408.725V326.265H400.423V271.577H416.857C424.651 271.577 433.291 276.487 433.291 286.985C433.63 297.143 424.82 302.223 417.026 302.223V302.223ZM415.671 278.519H408.894V295.112H415.671C420.584 295.112 425.159 292.572 425.159 286.815C424.989 281.228 420.584 278.519 415.671 278.519ZM472.598 327.281C458.028 327.281 443.626 316.614 443.626 298.836C443.626 281.228 458.028 270.392 472.598 270.392C487.169 270.392 501.57 281.228 501.57 298.836C501.57 316.445 487.169 327.281 472.598 327.281ZM472.598 277.503C462.433 277.503 452.098 285.122 452.098 298.667C452.098 312.212 462.602 319.831 472.598 319.831C482.594 319.831 493.099 312.212 493.099 298.667C493.268 285.291 482.594 277.503 472.598 277.503ZM515.802 326.265V271.577H524.104V319.154H548.162V326.265H515.802ZM576.626 301.037V326.265H568.493V301.037L547.654 271.577H556.803L567.816 286.985C569.51 289.355 571.374 292.233 572.899 294.773H573.068C574.593 292.403 576.795 289.186 578.32 286.985L589.333 271.577H597.804L576.626 301.037ZM627.793 278.688V326.265H619.491V278.688H603.565V271.577H645.413V278.688H627.793ZM657.612 326.265V271.577H687.092V278.688H665.913V295.281H683.703V302.392H665.913V319.154H690.141V326.265H657.612ZM744.697 281.228C741.986 279.535 736.564 277.672 730.973 277.672C720.299 277.672 708.948 284.614 708.948 299.006C708.948 313.228 719.96 320.17 730.973 320.17C737.411 320.17 742.663 318.815 746.052 316.783L744.358 324.741C740.969 326.434 737.072 327.45 729.957 327.45C716.233 327.45 700.476 317.799 700.476 299.175C700.476 280.212 716.402 270.731 729.957 270.731C737.581 270.731 742.663 272.424 746.052 274.286L744.697 281.228ZM796.88 326.265V302.392H768.586V326.265H760.284V271.577H768.586V295.281H796.88V271.577H805.182V326.265H796.88ZM868.039 327.45L842.456 299.514C838.389 295.112 833.645 289.524 829.918 285.122H829.749C829.918 290.032 829.918 294.773 829.918 298.836V326.265H821.616V271.577H827.377L850.927 297.313C854.146 300.868 859.059 306.286 862.448 310.35L862.617 310.18C862.448 305.947 862.448 301.207 862.448 297.313V271.408H870.75V327.281H868.039V327.45ZM888.031 326.265V271.577H896.333V326.265H888.031ZM955.971 281.228C953.26 279.535 947.839 277.672 942.247 277.672C931.574 277.672 920.222 284.614 920.222 299.006C920.222 313.228 931.235 320.17 942.247 320.17C948.686 320.17 953.938 318.815 957.326 316.783L955.632 324.741C952.244 326.434 948.347 327.45 941.231 327.45C927.338 327.45 911.751 317.799 911.751 299.175C911.751 280.212 927.677 270.731 941.231 270.731C948.855 270.731 953.938 272.424 957.326 274.286L955.971 281.228ZM453.792 195.556C424.989 195.556 396.695 174.392 396.695 139.514C396.695 104.805 425.159 83.6406 453.792 83.6406C482.594 83.6406 510.889 104.974 510.889 139.514C510.889 174.392 482.594 195.556 453.792 195.556ZM453.792 97.6935C433.8 97.6935 413.13 112.762 413.13 139.514C413.13 166.265 433.8 181.334 453.792 181.334C473.445 181.334 494.454 166.096 494.454 139.514C494.454 112.762 473.445 97.6935 453.792 97.6935ZM574.423 99.7253V193.524H557.989V99.7253H523.257V85.6724H608.986V99.7253H574.423ZM692.175 193.524L680.484 165.588H638.466L626.776 193.524H610.681L656.595 84.1486H662.525L708.609 193.524H692.175ZM664.219 126.307C662.694 122.752 661 117.672 659.645 113.101H659.306C658.12 117.672 656.256 122.752 654.731 126.307L644.057 152.72H674.893L664.219 126.307ZM782.818 195.556C753.676 195.556 723.688 176.085 723.688 139.683C723.688 102.265 755.032 83.6406 781.801 83.6406C796.71 83.6406 808.74 87.1962 816.703 92.2755L813.653 106.498C805.69 101.418 795.016 97.8628 783.665 97.8628C762.486 97.8628 740.292 111.746 740.292 140.022C740.292 167.958 761.978 181.672 784.004 181.672C794 181.672 801.793 179.641 806.876 176.085V153.397H781.97V140.191H822.463V184.043C811.959 192.17 798.913 195.556 782.818 195.556V195.556ZM906.16 195.556C877.357 195.556 849.063 174.392 849.063 139.514C849.063 104.805 877.527 83.6406 906.16 83.6406C934.962 83.6406 963.256 104.974 963.256 139.514C963.426 174.392 934.962 195.556 906.16 195.556ZM906.16 97.6935C886.167 97.6935 865.667 112.762 865.667 139.514C865.667 166.265 886.337 181.334 906.16 181.334C925.813 181.334 946.822 166.096 946.822 139.514C946.822 112.762 925.813 97.6935 906.16 97.6935ZM398.22 231.281H960.037V235.683H398.22V231.281ZM414.485 362.159V394.159H410.758V362.159H398.728V358.942H426.684V362.159H414.485ZM446.337 379.598L444.304 381.63H427.531C427.192 386.709 431.258 391.619 437.527 391.619C440.577 391.619 442.949 390.942 445.321 389.08L444.304 392.974C442.44 393.99 440.238 394.667 437.019 394.667C429.903 394.667 423.803 389.249 423.803 381.63C423.803 373.672 429.903 368.593 435.833 368.593C442.61 368.593 446.337 373.334 446.337 377.905V379.598ZM436.002 371.641C431.936 371.641 428.378 375.196 427.7 378.752H442.779V378.074C442.949 375.196 440.577 371.641 436.002 371.641V371.641ZM484.797 394.159L469.04 377.397V394.159H465.313V358.942H469.04V375.873L484.289 358.942H488.694L472.937 376.381L489.371 394.159H484.797ZM511.058 394.159L510.889 391.112C509.533 392.974 507.161 394.667 502.756 394.667C497.334 394.667 493.268 391.45 493.268 386.032V369.27H496.657V385.694C496.657 389.08 499.029 391.619 503.603 391.619C507.839 391.619 510.719 389.08 510.719 385.694V369.27H514.277V394.159H511.058ZM533.592 371.81C528.848 371.81 524.781 375.027 524.781 381.969V394.159H521.393V369.27H524.781L524.951 374.011C525.967 370.963 529.187 368.932 533.592 368.932L534.269 371.979C533.93 371.81 533.761 371.81 533.592 371.81V371.81ZM554.939 394.667C553.245 394.328 551.551 392.805 551.212 390.942C549.857 393.313 546.976 394.667 543.927 394.667C539.183 394.667 535.964 391.45 535.964 387.387C535.964 382.477 539.86 380.106 543.927 379.598L550.534 378.921V376.551C550.534 373.503 548.332 371.641 544.604 371.641C542.232 371.641 539.691 372.487 537.997 373.503L537.319 370.625C539.183 369.27 542.063 368.593 544.774 368.593C550.026 368.593 554.092 371.641 554.092 376.889V388.233C554.092 390.773 555.617 391.958 557.142 392.297L554.939 394.667ZM550.534 381.969L544.435 382.477C541.216 382.815 539.183 384.678 539.183 387.387C539.183 389.926 541.216 391.789 543.927 391.789C546.976 391.789 550.534 389.249 550.534 385.355V381.969ZM610.342 394.159L608.817 375.873C608.647 372.826 608.309 369.778 608.309 366.731H608.139C606.953 369.609 605.259 373.164 603.734 376.043L594.754 394.498H593.568L584.589 376.043C583.233 373.334 581.539 369.778 580.184 366.731H580.014C579.845 369.609 579.676 372.995 579.506 375.873L577.981 394.159H574.593L577.473 358.942H579.845L589.502 378.752C591.027 381.799 592.721 385.355 594.077 388.572H594.246C595.602 385.355 597.126 382.138 598.821 378.752L608.478 358.942H610.85L613.73 394.159H610.342ZM637.789 394.667C636.094 394.328 634.4 392.805 634.061 390.942C632.706 393.313 629.826 394.667 626.776 394.667C622.032 394.667 618.813 391.45 618.813 387.387C618.813 382.477 622.71 380.106 626.776 379.598L633.384 378.921V376.551C633.384 373.503 631.181 371.641 627.454 371.641C625.082 371.641 622.54 372.487 620.846 373.503L620.168 370.625C622.032 369.27 624.912 368.593 627.623 368.593C633.045 368.593 636.942 371.641 636.942 376.889V388.233C636.942 390.773 638.466 391.958 639.991 392.297L637.789 394.667ZM633.553 381.969L627.454 382.477C624.235 382.815 622.202 384.678 622.202 387.387C622.202 389.926 624.235 391.789 626.945 391.789C629.995 391.789 633.553 389.249 633.553 385.355V381.969ZM657.781 372.149H649.649V388.064C649.649 390.434 651.343 391.619 653.376 391.619C654.562 391.619 655.578 391.45 656.256 391.112L655.409 394.328C654.901 394.498 654.054 394.667 653.037 394.667C649.14 394.667 646.26 392.297 646.26 387.895V372.149H641.008V369.27H646.26V363.852L649.649 361.99V369.27H658.628L657.781 372.149ZM680.484 394.667C678.79 394.328 677.096 392.805 676.757 390.942C675.401 393.313 672.521 394.667 669.471 394.667C664.727 394.667 661.508 391.45 661.508 387.387C661.508 382.477 665.405 380.106 669.471 379.598L676.079 378.921V376.551C676.079 373.503 673.876 371.641 670.149 371.641C667.777 371.641 665.236 372.487 663.542 373.503L662.864 370.625C664.897 369.27 667.608 368.593 670.319 368.593C675.74 368.593 679.637 371.641 679.637 376.889V388.233C679.637 390.773 681.162 391.958 682.687 392.297L680.484 394.667ZM676.079 381.969L669.98 382.477C666.761 382.815 664.897 384.678 664.897 387.387C664.897 389.926 666.93 391.789 669.641 391.789C672.691 391.789 676.248 389.249 676.248 385.355V381.969H676.079ZM700.476 372.149H692.344V388.064C692.344 390.434 694.038 391.619 696.071 391.619C697.257 391.619 698.274 391.45 698.952 391.112L698.104 394.328C697.596 394.498 696.749 394.667 695.732 394.667C691.836 394.667 688.786 392.297 688.786 387.895V372.149H683.534V369.27H688.786V363.852L692.175 361.99V369.27H701.154L700.476 372.149ZM735.548 394.159V377.736C735.548 374.35 733.176 371.81 728.601 371.81C724.365 371.81 721.485 374.35 721.485 377.736V394.159H717.927V369.27H721.146L721.316 372.318C722.671 370.455 725.043 368.762 729.448 368.762C734.87 368.762 738.936 371.979 738.936 377.397V394.159H735.548ZM786.884 394.159L775.024 381.969V394.159H771.635V354.879H775.024V381.122L786.545 369.27H790.781L778.921 381.461L791.289 394.159H786.884ZM838.22 394.836C828.563 394.836 819.752 387.556 819.752 376.551C819.752 365.715 828.393 358.434 838.22 358.434C847.877 358.434 856.687 365.715 856.687 376.551C856.687 387.556 848.047 394.836 838.22 394.836ZM838.22 361.651C830.596 361.651 823.649 367.577 823.649 376.551C823.649 385.524 830.596 391.45 838.22 391.45C845.844 391.45 852.96 385.524 852.96 376.551C852.96 367.577 845.844 361.651 838.22 361.651ZM876.51 372.149H868.208V388.064C868.208 390.434 869.903 391.619 871.936 391.619C873.122 391.619 874.138 391.45 874.816 391.112L873.969 394.328C873.46 394.498 872.613 394.667 871.597 394.667C867.7 394.667 864.65 392.297 864.65 387.895V372.149H859.398V369.27H864.65V363.852L868.039 361.99V369.27H877.018L876.51 372.149ZM899.213 394.667C897.519 394.328 895.825 392.805 895.486 390.942C894.13 393.313 891.25 394.667 888.201 394.667C883.457 394.667 880.238 391.45 880.238 387.387C880.238 382.477 884.134 380.106 888.201 379.598L894.808 378.921V376.551C894.808 373.503 892.606 371.641 888.878 371.641C886.506 371.641 883.965 372.487 882.271 373.503L881.593 370.625C883.457 369.27 886.337 368.593 889.048 368.593C894.469 368.593 898.366 371.641 898.366 376.889V388.233C898.366 390.773 899.891 391.958 901.416 392.297L899.213 394.667ZM894.808 381.969L888.709 382.477C885.49 382.815 883.457 384.678 883.457 387.387C883.457 389.926 885.49 391.789 888.201 391.789C891.25 391.789 894.808 389.249 894.808 385.355V381.969ZM915.139 406.858C908.532 406.858 904.127 403.133 904.127 398.223C904.127 394.159 907.007 391.281 910.057 390.604L907.007 387.895C907.007 386.201 908.871 384.508 910.565 384C908.023 382.815 905.99 380.276 905.99 376.889C905.99 372.149 909.718 368.593 915.139 368.593C916.495 368.593 917.342 368.762 918.189 369.101C919.036 369.44 920.053 369.44 921.239 369.44C922.764 369.44 924.119 369.101 924.966 368.593L925.644 371.471C924.966 371.81 923.272 372.318 922.255 372.318C923.272 373.334 924.119 375.027 924.119 377.059C924.119 381.461 920.561 385.355 914.97 385.355C912.259 385.355 910.734 386.201 910.734 387.217C910.734 387.387 911.751 388.572 912.937 389.08L919.375 391.281C923.611 392.635 925.983 395.006 925.983 399.069C926.152 403.471 921.747 406.858 915.139 406.858V406.858ZM918.358 394.159L913.276 392.635C909.718 392.635 907.176 395.175 907.176 398.392C907.176 401.27 910.057 404.149 915.139 404.149C920.053 404.149 922.933 401.609 922.933 399.069C922.933 396.529 921.239 395.006 918.358 394.159ZM915.139 371.641C911.751 371.641 909.209 374.011 909.209 377.059C909.209 380.106 911.751 382.477 915.139 382.477C918.358 382.477 920.9 380.106 920.9 377.059C920.9 374.011 918.358 371.641 915.139 371.641ZM942.586 394.667C935.132 394.667 929.371 389.249 929.371 381.63C929.371 374.011 935.132 368.593 942.586 368.593C950.041 368.593 955.632 374.011 955.632 381.63C955.632 389.249 949.872 394.667 942.586 394.667ZM942.586 371.81C937.165 371.81 932.929 375.873 932.929 381.799C932.929 387.725 937.165 391.789 942.586 391.789C947.839 391.789 952.244 387.725 952.244 381.799C952.074 375.873 947.839 371.81 942.586 371.81ZM706.745 394.159V369.27H710.303V394.159H706.745ZM708.439 360.297C707.253 360.297 706.406 361.313 706.406 362.498C706.406 363.683 707.423 364.529 708.439 364.529C709.625 364.529 710.642 363.514 710.642 362.498C710.473 361.143 709.625 360.297 708.439 360.297ZM746.73 394.159V369.27H750.288V394.159H746.73ZM748.593 360.297C747.407 360.297 746.391 361.313 746.391 362.498C746.391 363.683 747.407 364.529 748.593 364.529C749.779 364.529 750.796 363.514 750.796 362.498C750.627 361.143 749.779 360.297 748.593 360.297ZM796.372 394.159V369.27H799.93V394.159H796.372ZM798.066 360.297C796.88 360.297 795.863 361.313 795.863 362.498C795.863 363.683 796.88 364.529 798.066 364.529C799.252 364.529 800.099 363.514 800.099 362.498C800.099 361.143 799.252 360.297 798.066 360.297Z" fill="#0E5AA5"/>
</g>
<defs>
<clipPath id="clip0">
<rect width="1046" height="480" fill="white"/>
</clipPath>
</defs>
</svg>
