<svg width="1046" height="480" viewBox="0 0 1046 480" fill="none" xmlns="http://www.w3.org/2000/svg">
<g clip-path="url(#clip0)">
<path d="M0.0664062 0H1045.93V480H0.0664062V0Z" fill="white"/>
<path d="M423.592 208.287C423.592 171.723 443.707 151.613 466.566 151.613C494.911 151.613 515.026 176.294 515.026 218.342C515.026 253.991 495.825 274.101 472.966 274.101C442.793 273.187 423.592 245.764 423.592 208.287ZM404.391 213.771C404.391 249.42 429.992 276.843 467.48 276.843C504.969 276.843 533.313 249.42 533.313 210.115C533.313 172.637 504.969 147.043 472.052 147.043C427.249 147.043 404.391 180.864 404.391 213.771Z" fill="black"/>
<path d="M557.074 180.84C553.417 180.84 550.674 180.84 548.845 177.184H547.016C547.016 184.496 546.102 193.637 545.188 202.778H547.016C548.845 196.379 551.588 192.723 553.417 189.981C555.245 187.239 558.903 184.496 572.618 184.496H579.933V253.967C579.933 269.506 579.018 271.334 565.303 273.162V274.077H607.363V272.248C592.733 270.42 591.819 268.592 591.819 253.053V183.582H602.791C611.935 183.582 616.506 185.41 618.335 188.153C620.164 190.895 621.992 194.551 624.736 201.864H626.564C625.65 193.637 624.736 182.668 624.736 177.184H622.907C620.164 179.926 619.249 180.84 615.592 180.84H557.074V180.84Z" fill="black"/>
<path d="M675.939 197.305L690.569 233.869H662.224L675.939 197.305ZM663.139 274.088V272.26L660.395 271.346C652.166 269.518 651.252 267.69 653.081 259.463C654.909 253.978 658.567 242.095 660.395 238.439H691.483C696.055 249.408 699.712 260.377 700.627 264.033C701.541 268.604 701.541 269.518 696.055 271.346L691.483 272.26V274.088H726.228V272.26C717.085 270.432 715.256 268.604 710.684 256.721C705.198 242.095 698.798 223.814 691.483 205.532L680.511 178.109L678.682 179.023L648.509 254.892C643.023 268.604 641.194 269.518 632.051 272.26V274.088H663.139Z" fill="black"/>
<path d="M824.979 204.633C824.065 194.578 823.151 187.266 822.236 182.695C816.75 181.781 806.693 179.039 793.892 179.039C766.461 179.039 739.945 196.407 739.945 229.314C739.945 257.65 762.804 276.846 792.977 276.846C803.949 276.846 815.836 273.19 824.979 271.362C824.065 267.705 824.065 263.135 824.065 258.564V248.509C824.065 238.455 824.979 237.54 833.209 235.712V233.884H795.72V235.712C812.179 237.54 812.179 239.369 812.179 248.509V262.221C812.179 268.619 810.35 270.447 806.693 271.362C803.035 273.19 798.463 273.19 793.892 273.19C764.633 273.19 754.575 247.595 754.575 225.657C754.575 198.235 769.204 181.781 791.149 181.781C804.864 181.781 816.75 187.266 822.236 204.633H824.979Z" fill="black"/>
<path d="M867.946 224.743C867.946 197.321 882.576 181.781 899.948 181.781C920.978 181.781 936.522 200.063 936.522 231.142C936.522 257.65 921.892 273.19 904.52 273.19C882.576 273.19 867.946 252.166 867.946 224.743ZM853.316 229.314C853.316 255.822 872.518 276.846 900.862 276.846C929.207 276.846 950.237 256.736 950.237 226.571C950.237 198.235 929.207 179.039 903.605 179.039C870.689 179.039 853.316 204.633 853.316 229.314Z" fill="black"/>
<path d="M664.979 135.141C666.808 135.141 667.722 136.055 667.722 138.797C667.722 143.367 665.894 147.938 664.065 147.938H663.151C661.322 147.938 660.408 146.11 660.408 143.367C660.408 137.883 663.151 135.141 664.065 134.227C664.065 135.141 664.979 135.141 664.979 135.141ZM665.894 134.227C664.979 134.227 663.151 134.227 661.322 135.141C658.579 136.969 655.836 139.711 655.836 145.196C655.836 147.938 656.75 150.68 661.322 150.68C663.151 150.68 665.894 149.766 666.808 147.938C669.551 146.11 670.465 142.453 670.465 138.797C671.38 136.055 669.551 134.227 665.894 134.227Z" fill="black"/>
<path d="M694.215 134.235C695.129 126.922 696.044 126.008 696.958 126.008C697.872 126.008 698.787 126.922 699.701 126.922H700.615C700.615 126.922 701.53 126.008 701.53 125.094C701.53 124.18 700.615 123.266 698.787 123.266C696.044 123.266 694.215 125.094 692.386 126.008C690.557 127.836 689.643 130.578 689.643 133.321H687.814L686.9 134.235H689.643C688.729 136.977 688.729 140.633 687.814 144.29C686.9 150.688 685.986 153.43 685.986 153.43H685.071C685.071 153.43 684.157 153.43 683.243 152.516H682.328C682.328 152.516 681.414 153.43 681.414 154.344C681.414 155.259 682.328 155.259 683.243 155.259C684.157 155.259 685.986 154.344 687.814 152.516C689.643 150.688 691.472 147.032 692.386 140.633C693.301 137.891 693.301 136.063 694.215 132.406H697.872L698.787 131.492H694.215V134.235Z" fill="black"/>
<path d="M397.965 65.6719V67.5C402.537 67.5 403.451 68.4141 403.451 74.8127V88.524C403.451 95.8366 404.365 99.493 408.023 102.235C410.766 104.977 415.337 104.977 418.995 104.977C423.566 104.977 427.224 103.149 429.967 100.407C433.624 96.7507 434.539 92.1803 434.539 86.6958V82.1254C434.539 75.7268 434.539 72.0705 435.453 70.2423C435.453 68.4141 437.282 67.5 440.025 67.5V65.6719H425.395V67.5C429.053 67.5 430.881 68.4141 430.881 70.2423C430.881 72.0705 431.796 74.8127 431.796 82.1254V85.7817C431.796 95.8366 428.138 101.321 420.823 101.321C413.509 101.321 410.766 95.8366 410.766 86.6958V73.8986C410.766 67.5 411.68 67.5 415.337 66.586V65.6719H397.965Z" fill="black"/>
<path d="M464.719 65.6719V67.5C469.29 67.5 471.119 69.3282 471.119 75.7268V87.6099C471.119 94.0085 471.119 97.6648 470.205 99.493C470.205 101.321 468.376 102.235 465.633 102.235V104.063H480.263V101.321C476.605 101.321 474.777 100.407 474.777 98.5789C474.777 96.7507 473.862 94.0085 473.862 86.6958V73.8986L498.55 103.149H501.293V82.1254C501.293 75.7268 501.293 72.0705 502.207 70.2423C502.207 68.4141 504.036 67.5 506.779 67.5V65.6719H492.149V67.5C495.806 67.5 497.635 68.4141 497.635 70.2423C497.635 72.0705 498.55 74.8127 498.55 82.1254V93.0944L474.777 65.6719H464.719V65.6719Z" fill="black"/>
<path d="M533.297 65.6719V67.5C537.869 67.5 538.783 68.4141 538.783 74.8127V94.9226C538.783 101.321 537.869 101.321 533.297 102.235V104.063H549.755V101.321C545.183 101.321 545.183 100.407 545.183 94.0085V73.8986C545.183 67.5 546.098 67.5 549.755 66.586V65.6719H533.297Z" fill="black"/>
<path d="M575.367 65.6719V67.5C579.025 67.5 579.939 68.4141 581.768 73.8986C583.596 79.3831 589.997 94.0085 593.654 104.977H596.397C600.969 92.1803 608.284 74.8127 609.198 72.9845C611.941 67.5 611.941 67.5 615.598 66.586V65.6719H601.883V67.5H603.712C606.455 67.5 606.455 68.4141 605.541 72.0705C604.626 74.8127 599.14 88.524 597.311 94.9226C593.654 85.7817 589.082 73.8986 588.168 70.2423C587.254 68.4141 587.254 67.5 589.997 67.5H591.825V65.6719H575.367Z" fill="black"/>
<path d="M642.11 65.6719V67.5C646.681 67.5 646.681 68.4141 646.681 74.8127V94.9226C646.681 101.321 645.767 101.321 641.195 102.235V104.063H670.454C671.369 102.235 672.283 96.7507 672.283 94.9226H670.454C669.54 97.6648 668.626 99.493 667.711 100.407C666.797 102.235 664.054 102.235 660.397 102.235C657.654 102.235 655.825 102.235 654.911 101.321C653.996 100.407 653.996 98.5789 653.996 95.8366V86.6958H659.482C664.968 86.6958 664.968 86.6958 664.968 91.2662H666.797V77.555H664.054C664.054 82.1254 663.14 82.1254 658.568 82.1254H653.082V70.2423C653.082 68.4141 653.082 68.4141 655.825 68.4141H658.568C662.225 68.4141 664.054 68.4141 664.968 69.3282C665.883 70.2423 666.797 72.0705 666.797 74.8127H668.626C668.626 71.1564 667.711 66.586 667.711 65.6719H642.11V65.6719Z" fill="black"/>
<path d="M698.793 65.6719V67.5C703.365 67.5 703.365 68.4141 703.365 74.8127V94.9226C703.365 101.321 702.451 101.321 697.879 102.235V104.063H714.337V101.321C709.765 101.321 709.765 100.407 709.765 94.0085V86.6958H711.594C713.423 86.6958 714.337 87.6099 715.251 88.524C717.08 91.2662 718.909 94.9226 720.738 97.6648C723.481 101.321 725.309 102.235 731.71 103.149H734.453V101.321C732.624 101.321 731.71 100.407 730.795 98.5789C729.881 97.6648 728.052 94.9226 726.224 92.1803C724.395 89.4381 721.652 85.7817 720.738 83.9536C725.309 83.0395 728.052 79.3831 728.052 74.8127C728.052 71.1564 726.224 69.3282 724.395 67.5C721.652 65.6719 718.909 65.6719 714.337 65.6719H698.793V65.6719ZM710.68 69.3282C710.68 67.5 710.68 67.5 713.423 67.5C717.08 67.5 721.652 69.3282 721.652 75.7268C721.652 78.469 720.738 81.2113 717.995 83.0395C716.166 83.9536 715.251 84.8676 712.508 84.8676H710.68V69.3282Z" fill="black"/>
<path d="M783.832 73.9026C782.917 70.2462 782.917 68.4181 782.003 65.6758C781.089 65.6758 780.174 65.6758 779.26 64.7617C777.431 63.8477 775.602 63.8477 773.774 63.8477C765.545 63.8477 760.973 68.4181 760.973 74.8167C760.973 80.3012 765.545 83.9575 770.116 85.7857L771.945 86.6998C776.517 88.5279 778.346 91.2702 778.346 94.9265C778.346 98.5828 775.603 101.325 771.945 101.325C765.545 101.325 762.802 94.9265 761.887 92.1843L760.059 93.0983C760.973 96.7547 760.973 100.411 761.887 102.239C762.802 102.239 763.716 103.153 765.545 103.153C767.373 104.067 769.202 104.067 771.031 104.067C779.26 104.067 784.746 99.4969 784.746 92.1843C784.746 85.7857 780.174 83.0434 775.602 81.2153L773.774 80.3012C769.202 78.473 766.459 75.7307 766.459 72.9885C766.459 69.3322 768.288 66.5899 772.859 66.5899C777.431 66.5899 779.26 70.2462 781.089 73.9026H783.832Z" fill="black"/>
<path d="M813.098 65.6719V67.5C817.669 67.5 818.584 68.4141 818.584 74.8127V94.9226C818.584 101.321 817.669 101.321 813.098 102.235V104.063H829.556V101.321C824.984 101.321 824.984 100.407 824.984 94.0085V73.8986C824.984 67.5 825.899 67.5 829.556 66.586V65.6719H813.098Z" fill="black"/>
<path d="M858.809 74.8167C859.724 72.0744 860.638 70.2462 860.638 69.3322C861.552 68.4181 863.381 67.504 867.953 67.504H869.782V94.0124C869.782 100.411 868.867 100.411 864.296 101.325V103.153H882.582V101.325C877.096 101.325 877.096 100.411 877.096 94.0124V67.504H879.839C883.497 67.504 885.325 67.504 886.24 69.3322C887.154 70.2462 888.068 72.0744 888.068 74.8167H889.897C889.897 71.1603 888.983 66.5899 888.983 63.8477H888.068C887.154 64.7617 887.154 65.6758 885.325 65.6758H860.638C858.809 65.6758 858.809 65.6758 857.895 63.8477H856.981C856.981 66.5899 856.066 71.1603 856.066 74.8167H858.809V74.8167Z" fill="black"/>
<path d="M916.426 65.6719V67.5C919.169 67.5 920.083 68.4141 921.912 72.0705C925.569 78.4691 928.312 82.1254 930.141 85.7817C931.055 87.6099 931.055 87.6099 931.055 88.524V94.0085C931.055 100.407 930.141 100.407 925.569 101.321V103.149H943.856V101.321C938.37 101.321 938.37 100.407 938.37 94.0085V88.524C938.37 86.6958 938.37 85.7817 939.285 84.8676C942.028 79.3831 944.771 75.7268 946.599 72.0705C949.342 68.4141 949.342 67.5 953 67.5V65.6719H939.285V67.5H942.028C943.856 67.5 944.771 68.4141 943.856 70.2423C942.028 73.8986 938.37 80.2972 936.542 83.9536C933.798 79.3831 929.227 72.9845 928.312 70.2423C927.398 68.4141 927.398 67.5 929.227 67.5H931.97V65.6719H916.426Z" fill="black"/>
<path d="M952.986 115.051H403.465V116.879H952.986V115.051Z" fill="black"/>
<path d="M663.125 347.215H649.41V349.957H663.125V347.215Z" fill="black"/>
<path d="M908.176 347.215H894.461V349.957H908.176V347.215Z" fill="black"/>
<path d="M342.204 363.654V309.723L340.375 311.551L297.401 332.575V335.317V390.162H132.819V336.231V335.317L88.0156 312.465V315.207V366.396L99.9021 374.623L88.0156 390.162V391.076V431.296V434.038H342.204V431.296V391.076V390.162L329.403 371.88L342.204 363.654Z" fill="#00508F"/>
<path d="M337.64 390.185C332.154 381.958 305.638 347.223 301.066 340.824V390.185H337.64Z" fill="white"/>
<path d="M129.164 390.196V341.75C124.592 348.149 98.0759 381.97 92.5898 390.196H129.164Z" fill="white"/>
<path d="M339.448 393.852H91.6602V431.329H339.448V393.852Z" fill="white"/>
<path d="M125.515 406.621C124.6 405.707 122.772 405.707 121.857 405.707C119.114 405.707 116.371 407.535 116.371 409.363C116.371 413.934 123.686 413.934 123.686 416.676C123.686 417.59 122.772 418.504 120.943 418.504C119.114 418.504 117.285 417.59 116.371 416.676V419.418C117.285 420.332 119.114 420.332 120.943 420.332C123.686 420.332 125.515 418.504 125.515 415.762C125.515 411.192 118.2 411.192 118.2 408.449C118.2 407.535 119.114 406.621 120.943 406.621C121.857 406.621 123.686 406.621 124.6 408.449V406.621H125.515Z" fill="#00508F"/>
<path d="M138.319 408.445L141.062 413.93H135.576L138.319 408.445ZM139.233 405.703H137.405L130.09 420.328H132.833L134.662 415.758H141.976L144.719 420.328H147.462L139.233 405.703Z" fill="#00508F"/>
<path d="M154.763 407.551H157.506C159.334 407.551 160.249 408.465 160.249 410.293C160.249 412.121 159.334 413.035 157.506 413.035H154.763V407.551ZM152.02 405.723V420.348H154.763V413.949H157.506C161.163 413.949 162.992 412.121 162.992 409.379C162.992 406.637 161.163 404.809 157.506 404.809H152.02V405.723Z" fill="#00508F"/>
<path d="M178.522 405.703H169.379V420.328H179.437V418.5H171.208V413.93H178.522V412.102H171.208V407.531H178.522V405.703Z" fill="#00508F"/>
<path d="M187.692 407.551H189.521C192.264 407.551 193.178 408.465 193.178 410.293C193.178 411.207 192.264 413.035 189.521 413.035H187.692V407.551ZM184.949 405.723V420.348H187.692V413.949H188.607C189.521 413.949 191.35 413.949 193.178 417.606L195.921 420.348H198.664C197.75 418.52 196.836 418.52 195.921 417.606C195.007 415.778 193.178 413.949 192.264 413.035C194.093 412.121 195.007 411.207 195.007 409.379C195.007 406.637 193.178 404.809 189.521 404.809H184.949V405.723Z" fill="#00508F"/>
<path d="M214.187 405.703H204.129V420.328H214.187V418.5H206.872V413.93H213.272V412.102H206.872V407.531H214.187V405.703Z" fill="#00508F"/>
<path d="M245.288 408.445L248.031 413.93H243.459L245.288 408.445ZM246.202 405.703H244.373L237.059 420.328H239.802L241.63 415.758H248.945L251.688 420.328H254.431L246.202 405.703Z" fill="#00508F"/>
<path d="M273.618 405.723H270.875V414.864C270.875 416.692 270.875 417.606 269.96 418.52C269.046 419.434 268.132 419.434 266.303 419.434C264.474 419.434 263.56 419.434 262.646 418.52C261.731 416.692 261.731 415.778 261.731 413.949V404.809H258.988V413.949C258.988 418.52 262.646 420.348 266.303 420.348C271.789 420.348 273.618 417.606 273.618 413.949V405.723Z" fill="#00508F"/>
<path d="M282.747 407.563H286.404C290.976 407.563 293.719 410.305 293.719 413.047C293.719 414.875 292.804 418.532 286.404 418.532H282.747V407.563ZM280.918 420.36H287.318C292.804 420.36 296.462 416.703 296.462 413.047C296.462 409.391 293.719 405.734 287.318 405.734H280.918V420.36Z" fill="#00508F"/>
<path d="M312.944 405.703H302.887V420.328H312.944V418.5H305.63V413.93H312.944V412.102H305.63V407.531H312.944V405.703Z" fill="#00508F"/>
<path d="M326.668 369.154C333.068 365.497 338.555 361.841 338.555 361.841V315.223C333.983 317.051 301.981 333.504 301.066 334.418L326.668 369.154Z" fill="white"/>
<path d="M128.258 337.145C122.772 334.403 95.3413 320.691 90.7695 318.863V365.482C91.6839 365.482 96.2556 369.138 101.742 372.794L128.258 337.145Z" fill="white"/>
<path d="M341.285 63.8477H89.8398V232.953C89.8398 309.736 209.619 371.894 214.191 373.722H215.105H216.02C221.506 370.98 343.114 307.908 343.114 227.469V63.8477H341.285Z" fill="#00508F"/>
<path d="M322.091 280.474C281.859 234.77 256.258 206.433 253.515 202.777C254.429 201.863 332.148 115.025 340.377 105.884V67.4922H300.146C292.832 75.7189 217.855 158.901 216.941 160.729C216.026 159.815 141.964 75.7189 134.65 67.4922H92.5898V106.798C100.819 115.939 176.71 201.863 177.624 202.777C176.71 203.691 113.62 274.075 108.134 280.474C118.192 296.013 130.992 310.639 145.622 322.522C151.108 316.123 214.198 245.739 215.112 244.824C216.026 245.739 278.202 316.123 283.688 322.522C298.318 310.639 312.033 296.013 322.091 280.474Z" fill="#FFC20E"/>
<path d="M252.597 167.153L241.625 156.184H240.71H179.449V231.138L189.507 241.193V251.248H202.308V243.022H252.597V167.153Z" fill="#00508F"/>
<path d="M184.949 232.027H189.521V236.598C187.692 234.77 185.864 232.941 184.949 232.027Z" fill="#FFC20E"/>
<path d="M248.96 239.346H201.414V232.033H240.731V161.648C243.474 164.391 248.046 168.961 248.046 168.961C248.96 169.875 248.96 235.689 248.96 239.346Z" fill="#FFC20E"/>
<path d="M198.639 232.027H192.238V247.567H198.639V232.027Z" fill="#EE312F"/>
<path d="M214.206 77.5548C214.206 77.5548 208.72 87.6097 207.806 89.4378C205.977 89.4378 191.348 89.4378 191.348 89.4378C191.348 89.4378 198.662 102.235 199.577 104.063C198.662 105.891 191.348 118.689 191.348 118.689C191.348 118.689 205.977 118.689 207.806 118.689C208.72 120.517 216.035 133.314 216.035 133.314C216.035 133.314 223.35 120.517 224.264 118.689C226.093 118.689 240.722 118.689 240.722 118.689C240.722 118.689 233.408 105.891 232.493 104.063C233.408 102.235 240.722 89.4378 240.722 89.4378C240.722 89.4378 226.093 89.4378 224.264 89.4378C223.35 87.6097 216.035 74.8125 216.035 74.8125L214.206 77.5548Z" fill="#00508F"/>
<path d="M209.633 92.1877C209.633 92.1877 213.291 85.7891 215.119 82.1328C216.948 85.7891 221.52 93.1018 221.52 93.1018C221.52 93.1018 230.663 93.1018 234.32 93.1018C232.492 96.7582 227.92 104.071 227.92 104.071C227.92 104.071 232.492 111.383 234.32 115.04C230.663 115.04 221.52 115.04 221.52 115.04C221.52 115.04 216.948 122.353 215.119 126.009C213.291 122.353 208.719 115.04 208.719 115.04C208.719 115.04 199.575 115.04 195.918 115.04C197.747 111.383 202.318 104.071 202.318 104.071C202.318 104.071 197.747 96.7582 195.918 93.1018C200.49 93.1018 208.719 93.1018 209.633 92.1877Z" fill="#FFC20E"/>
<path d="M214.206 285.047C214.206 285.047 208.72 295.102 207.806 296.93C205.977 296.93 191.348 296.93 191.348 296.93C191.348 296.93 198.662 309.727 199.577 311.555C198.662 313.384 191.348 326.181 191.348 326.181C191.348 326.181 205.977 326.181 207.806 326.181C208.72 328.009 216.035 340.806 216.035 340.806C216.035 340.806 223.35 328.009 224.264 326.181C226.093 326.181 240.722 326.181 240.722 326.181C240.722 326.181 233.408 313.384 232.493 311.555C233.408 309.727 240.722 296.93 240.722 296.93C240.722 296.93 226.093 296.93 224.264 296.93C223.35 295.102 216.035 282.305 216.035 282.305L214.206 285.047Z" fill="#00508F"/>
<path d="M209.633 298.746C209.633 298.746 213.291 292.348 215.119 288.691C216.948 292.348 221.52 299.66 221.52 299.66C221.52 299.66 230.663 299.66 234.32 299.66C232.492 303.317 227.92 310.629 227.92 310.629C227.92 310.629 232.492 317.942 234.32 321.598C230.663 321.598 221.52 321.598 221.52 321.598C221.52 321.598 216.948 328.911 215.119 332.567C213.291 328.911 208.719 321.598 208.719 321.598C208.719 321.598 199.575 321.598 195.918 321.598C197.747 317.942 202.318 310.629 202.318 310.629C202.318 310.629 197.747 303.317 195.918 299.66C200.49 299.66 208.719 299.66 209.633 298.746Z" fill="#FFC20E"/>
<path d="M126.413 174.438C126.413 174.438 120.927 184.493 120.013 186.321C118.184 186.321 103.555 186.321 103.555 186.321C103.555 186.321 110.869 199.118 111.784 200.946C110.869 202.774 103.555 215.571 103.555 215.571C103.555 215.571 118.184 215.571 120.013 215.571L127.328 228.369C127.328 228.369 134.642 215.571 135.557 213.743C137.385 213.743 152.015 213.743 152.015 213.743C152.015 213.743 144.7 200.946 143.786 199.118C144.7 197.29 152.015 184.493 152.015 184.493C152.015 184.493 137.385 184.493 135.557 184.493C134.642 182.664 127.328 169.867 127.328 169.867L126.413 174.438Z" fill="#00508F"/>
<path d="M121.844 188.164C121.844 188.164 125.501 181.766 127.33 178.109C129.159 181.766 133.731 189.078 133.731 189.078C133.731 189.078 142.874 189.078 146.531 189.078C144.703 192.735 140.131 200.047 140.131 200.047C140.131 200.047 144.703 207.36 146.531 211.016C142.874 211.016 133.731 211.016 133.731 211.016C133.731 211.016 129.159 218.329 127.33 221.985C125.501 218.329 120.93 211.016 120.93 211.016C120.93 211.016 111.786 211.016 108.129 211.016C110.872 207.36 115.444 200.047 115.444 200.047C115.444 200.047 110.872 192.735 109.043 189.078C112.701 189.078 121.844 189.078 121.844 188.164Z" fill="#FFC20E"/>
<path d="M301.96 174.461C301.96 174.461 296.474 184.516 295.56 186.344C293.731 186.344 279.102 186.344 279.102 186.344C279.102 186.344 286.416 199.141 287.331 200.969C286.416 202.798 279.102 215.595 279.102 215.595C279.102 215.595 293.731 215.595 295.56 215.595C296.474 217.423 303.789 230.22 303.789 230.22C303.789 230.22 311.104 217.423 312.018 215.595C313.847 215.595 328.476 215.595 328.476 215.595C328.476 215.595 321.161 202.798 320.247 200.969C321.161 199.141 328.476 186.344 328.476 186.344C328.476 186.344 313.847 186.344 312.018 186.344C311.104 184.516 303.789 171.719 303.789 171.719L301.96 174.461Z" fill="#00508F"/>
<path d="M297.391 188.164C297.391 188.164 301.048 181.766 302.877 178.109C304.706 181.766 309.277 189.078 309.277 189.078C309.277 189.078 318.421 189.078 322.078 189.078C320.25 192.735 315.678 200.047 315.678 200.047C315.678 200.047 320.25 207.36 322.078 211.016C318.421 211.016 309.277 211.016 309.277 211.016C309.277 211.016 304.706 218.329 302.877 221.985C301.048 218.329 296.477 211.016 296.477 211.016C296.477 211.016 287.333 211.016 283.676 211.016C285.504 207.36 290.076 200.047 290.076 200.047C290.076 200.047 285.504 192.735 283.676 189.078C288.248 189.078 297.391 189.078 297.391 188.164Z" fill="#FFC20E"/>
<path d="M237.954 159.828H183.094V228.384H237.954V159.828Z" fill="#EE312F"/>
<path d="M209.632 169.887C209.632 169.887 204.146 179.942 203.232 181.77C201.403 181.77 186.773 181.77 186.773 181.77C186.773 181.77 194.088 194.567 195.003 196.395C194.088 198.223 186.773 211.021 186.773 211.021C186.773 211.021 201.403 211.021 203.232 211.021C204.146 212.849 211.461 225.646 211.461 225.646C211.461 225.646 218.776 212.849 219.69 211.021C221.519 211.021 236.148 211.021 236.148 211.021C236.148 211.021 228.833 198.223 227.919 196.395C228.833 194.567 236.148 181.77 236.148 181.77C236.148 181.77 221.519 181.77 219.69 181.77C218.776 179.942 211.461 167.145 211.461 167.145L209.632 169.887Z" fill="#00508F"/>
<path d="M205.063 184.52C205.063 184.52 208.72 178.121 210.549 174.465C212.378 178.121 216.949 185.434 216.949 185.434C216.949 185.434 226.093 185.434 229.75 185.434C227.921 189.09 223.35 196.403 223.35 196.403C223.35 196.403 227.921 203.716 229.75 207.372C226.093 207.372 216.949 207.372 216.949 207.372C216.949 207.372 212.378 214.685 210.549 218.341C208.72 214.685 204.148 207.372 204.148 207.372C204.148 207.372 195.005 207.372 191.348 207.372C193.176 203.716 197.748 196.403 197.748 196.403C197.748 196.403 193.176 189.09 191.348 185.434C195.919 185.434 205.063 185.434 205.063 184.52Z" fill="#FFC20E"/>
<path d="M407.131 344.484C406.216 344.484 405.302 344.484 404.388 343.57H403.473C402.559 346.313 401.645 349.055 401.645 351.797H402.559C403.473 349.969 404.388 348.141 405.302 347.227C406.216 346.313 408.045 345.398 411.702 345.398H413.531L408.959 368.251C408.045 373.735 407.131 373.735 403.473 374.649V375.563H417.188V374.649C412.617 373.735 412.617 373.735 413.531 368.251L418.103 345.398H421.76C424.503 345.398 426.332 345.398 426.332 347.227C427.246 348.141 427.246 349.969 427.246 351.797H428.161C428.161 349.055 429.075 345.398 429.075 343.57H428.161C427.246 344.484 427.246 344.484 425.418 344.484H407.131Z" fill="black"/>
<path d="M429.966 364.59C430.881 359.106 433.624 356.363 434.538 356.363C435.452 356.363 436.367 355.449 436.367 355.449C437.281 355.449 439.11 356.363 439.11 358.192C438.195 360.934 436.367 362.762 429.966 364.59ZM440.024 369.161C437.281 371.903 434.538 372.817 432.709 372.817C429.966 372.817 429.052 369.161 429.052 367.332V366.418C433.624 365.504 441.853 361.848 441.853 358.192C441.853 356.363 440.024 354.535 438.195 354.535C436.367 354.535 433.624 355.449 430.881 357.277C427.223 360.02 425.395 364.59 425.395 369.161C425.395 374.645 428.138 376.473 429.966 376.473C432.709 375.559 436.367 374.645 440.024 369.161Z" fill="black"/>
<path d="M471.121 344.465H460.148V345.379C462.891 346.293 462.891 346.293 463.806 350.863L467.463 376.458H468.378L480.264 352.692L484.836 376.458H485.75C492.151 362.747 496.722 351.778 498.551 349.949C500.38 346.293 500.38 346.293 504.037 345.379V344.465H493.979V345.379H495.808C497.637 345.379 497.637 346.293 496.722 348.121C495.808 351.778 491.236 362.747 487.579 369.145L483.007 344.465H482.093L470.206 368.231L467.463 348.121C467.463 345.379 467.463 345.379 468.378 344.465H471.121Z" fill="black"/>
<path d="M506.786 373.708C506.786 370.966 508.615 365.481 508.615 364.567C510.443 361.825 515.015 356.34 517.758 356.34C519.587 356.34 518.672 358.168 518.672 359.997L515.929 370.965C515.015 373.708 515.929 374.622 516.844 374.622C517.758 374.622 521.416 372.794 524.159 370.051V369.137C522.33 370.051 521.415 370.965 520.501 370.965C519.587 370.965 520.501 370.051 520.501 369.137L523.244 358.168C524.159 353.598 522.33 353.598 521.416 353.598C520.501 353.598 520.501 353.598 519.587 354.512C516.844 355.426 514.101 358.168 510.443 362.739L514.101 343.543C514.101 342.629 514.101 341.715 514.101 341.715C514.101 341.715 510.443 342.629 506.786 343.543V344.457H509.529C511.358 344.457 511.358 344.457 510.443 347.199L505.872 369.137C504.957 371.88 504.957 373.708 504.043 376.45L506.786 373.708Z" fill="black"/>
<path d="M540.629 355.449C541.543 355.449 543.372 355.449 543.372 356.363C543.372 358.192 542.458 362.762 541.543 364.59C540.629 366.418 538.8 368.246 537.886 369.161C536.057 370.989 534.229 372.817 533.314 372.817C532.4 372.817 532.4 370.989 532.4 369.161C532.4 367.332 532.4 363.676 534.229 360.934C536.057 358.192 536.972 356.363 537.886 355.449C538.8 355.449 539.715 355.449 540.629 355.449ZM547.944 370.075C546.115 370.989 545.201 371.903 544.286 371.903C544.286 371.903 544.286 370.989 544.286 370.075C545.201 364.59 546.115 359.106 547.029 354.535C546.115 354.535 546.115 354.535 545.201 354.535C544.286 354.535 543.372 354.535 542.458 354.535C539.715 354.535 536.057 356.363 533.314 358.192C530.571 360.934 527.828 365.504 527.828 370.989C527.828 374.645 529.657 375.559 530.571 375.559C531.486 375.559 533.314 373.731 534.229 373.731C536.972 371.903 538.8 369.161 540.629 367.332L539.715 373.731C539.715 375.559 540.629 376.473 540.629 376.473C542.458 375.559 546.115 372.817 547.944 370.075Z" fill="black"/>
<path d="M557.989 373.719C557.989 371.891 558.904 369.149 559.818 364.578C560.732 362.75 561.647 360.922 562.561 359.094C563.476 357.266 564.39 357.266 565.304 357.266C566.219 357.266 566.219 357.266 567.133 358.18H568.047C568.962 358.18 568.962 357.266 568.962 356.352C568.962 355.438 568.962 355.438 568.962 354.523C568.962 353.609 568.047 353.609 567.133 353.609C566.219 353.609 562.561 356.352 560.733 361.836L561.647 358.18C562.561 355.438 562.561 353.609 560.733 353.609C559.818 353.609 556.161 355.438 554.332 358.18L555.246 359.094C556.161 358.18 557.989 356.352 558.904 356.352C558.904 356.352 558.904 357.266 558.904 360.008L557.075 367.321C556.161 370.063 556.161 371.891 555.246 374.633L557.989 373.719Z" fill="black"/>
<path d="M575.373 364.59C576.287 359.106 579.03 356.363 579.944 356.363C580.859 356.363 581.773 355.449 581.773 355.449C582.687 355.449 584.516 356.363 584.516 358.192C583.602 360.934 581.773 362.762 575.373 364.59ZM585.43 369.161C582.687 371.903 579.944 372.817 578.116 372.817C575.373 372.817 574.458 369.161 574.458 367.332V366.418C579.03 365.504 587.259 361.848 587.259 358.192C587.259 356.363 585.43 354.535 583.602 354.535C581.773 354.535 579.03 355.449 576.287 357.277C572.629 360.02 570.801 364.59 570.801 369.161C570.801 374.645 573.544 376.473 575.373 376.473C578.116 375.559 581.773 374.645 585.43 369.161Z" fill="black"/>
<path d="M616.519 344.465H605.547V345.379C608.29 346.293 608.29 346.293 609.204 350.863L612.862 376.458H613.776L625.662 352.692L630.234 376.458H631.149C637.549 362.747 642.121 351.778 643.949 349.949C645.778 346.293 645.778 346.293 649.435 345.379V344.465H639.378V345.379H641.206C643.035 345.379 643.035 346.293 642.121 348.121C641.206 351.778 636.635 362.747 632.977 369.145L628.406 344.465H627.491L615.605 368.231L612.862 348.121C612.862 345.379 612.862 345.379 613.776 344.465H616.519Z" fill="black"/>
<path d="M655.816 355.449C656.731 355.449 658.559 355.449 658.559 356.363C658.559 358.192 657.645 362.762 656.731 364.59C655.816 366.418 653.988 368.246 653.073 369.161C651.245 370.989 649.416 372.817 648.502 372.817C647.587 372.817 647.587 370.989 647.587 369.161C647.587 367.332 647.587 363.676 649.416 360.934C651.245 358.192 652.159 356.363 653.073 355.449C653.988 355.449 654.902 355.449 655.816 355.449ZM663.131 370.075C661.303 370.989 660.388 371.903 659.474 371.903C659.474 371.903 659.474 370.989 659.474 370.075C660.388 364.59 661.303 359.106 662.217 354.535C661.303 354.535 661.303 354.535 660.388 354.535C659.474 354.535 658.559 354.535 657.645 354.535C654.902 354.535 651.245 356.363 648.502 358.192C645.759 360.934 643.016 365.504 643.016 370.989C643.016 374.645 644.844 375.559 645.759 375.559C646.673 375.559 648.502 373.731 649.416 373.731C652.159 371.903 653.988 369.161 655.816 367.332L654.902 373.731C654.902 375.559 655.816 376.473 655.816 376.473C657.645 375.559 661.303 372.817 663.131 370.075Z" fill="black"/>
<path d="M670.458 373.723C670.458 370.981 672.287 365.496 672.287 364.582C674.116 361.84 679.602 356.356 681.43 355.441C682.345 355.441 682.345 357.27 682.345 359.098L679.602 370.067C678.687 372.809 679.602 373.723 680.516 373.723C681.43 373.723 685.088 371.895 686.916 369.153V368.239C686.002 369.153 684.173 370.067 683.259 370.067C683.259 370.067 683.259 369.153 683.259 368.239C684.173 364.582 685.088 360.926 686.002 357.27C686.916 352.699 686.002 351.785 685.088 351.785C684.173 351.785 684.173 351.785 683.259 352.699C681.43 353.613 677.773 356.356 674.116 360.926L675.03 356.356C675.944 353.613 675.944 351.785 674.116 351.785C673.201 351.785 669.544 353.613 666.801 356.356V357.27C667.715 356.356 669.544 354.527 670.458 354.527C670.458 354.527 670.458 355.441 670.458 357.27L668.629 365.496C667.715 368.239 667.715 370.981 666.801 372.809L670.458 373.723Z" fill="black"/>
<path d="M704.301 355.449C705.215 355.449 707.044 355.449 707.044 356.363C707.044 358.192 706.129 362.762 705.215 364.59C704.301 366.418 702.472 368.246 701.558 369.161C699.729 370.989 697.9 372.817 696.986 372.817C696.071 372.817 696.071 370.989 696.071 369.161C696.071 367.332 696.071 363.676 697.9 360.934C699.729 358.192 700.643 356.363 701.558 355.449C702.472 355.449 703.386 355.449 704.301 355.449ZM712.53 370.075C710.701 370.989 709.787 371.903 708.872 371.903C708.872 371.903 708.872 370.989 708.872 370.075C709.787 364.59 710.701 359.106 711.615 354.535C710.701 354.535 710.701 354.535 709.787 354.535C708.872 354.535 707.958 354.535 707.044 354.535C704.301 354.535 700.643 356.363 697.9 358.192C695.157 360.934 692.414 365.504 692.414 370.989C692.414 374.645 694.243 375.559 695.157 375.559C696.071 375.559 697.9 373.731 698.815 373.731C701.558 371.903 703.386 369.161 705.215 367.332L704.301 373.731C704.301 375.559 705.215 376.473 705.215 376.473C706.129 375.559 709.787 372.817 712.53 370.075Z" fill="black"/>
<path d="M721.642 373.723C721.642 370.981 723.47 365.496 723.47 364.582C725.299 361.84 730.785 356.356 732.614 355.441C733.528 355.441 733.528 357.27 733.528 359.098L730.785 370.067C729.871 372.809 730.785 373.723 731.7 373.723C732.614 373.723 736.271 371.895 738.1 369.153V368.239C737.186 369.153 735.357 370.067 734.443 370.067C734.443 370.067 734.443 369.153 734.443 368.239C735.357 364.582 736.271 360.926 737.186 357.27C738.1 352.699 737.186 351.785 736.271 351.785C735.357 351.785 735.357 351.785 734.443 352.699C732.614 353.613 728.956 356.356 725.299 360.926L726.214 356.356C727.128 353.613 727.128 351.785 725.299 351.785C724.385 351.785 720.727 353.613 717.984 356.356V357.27C718.899 356.356 720.727 354.527 721.642 354.527C721.642 354.527 721.642 355.441 721.642 357.27L719.813 365.496C718.899 368.239 718.899 370.981 717.984 372.809L721.642 373.723Z" fill="black"/>
<path d="M761.89 353.609C760.976 353.609 759.147 354.523 755.49 354.523C754.576 353.609 753.661 353.609 751.833 353.609C750.004 353.609 747.261 354.523 745.432 356.352C742.689 358.18 741.775 360.922 741.775 363.664C741.775 366.407 743.604 368.235 746.347 369.149C744.518 370.977 743.604 370.977 743.604 371.891C743.604 372.805 744.518 373.719 745.432 374.633C739.946 377.376 737.203 379.204 737.203 381.946C737.203 385.602 741.775 386.516 745.432 386.516C748.175 386.516 756.404 384.688 756.404 380.118C756.404 378.29 754.576 376.461 751.833 374.633C750.004 373.719 747.261 371.891 747.261 370.977C747.261 370.977 747.261 370.063 748.175 370.063C750.918 369.149 752.747 368.235 754.576 367.321C756.404 365.492 758.233 363.664 758.233 360.922C758.233 360.008 758.233 359.094 757.319 358.18C758.233 358.18 758.233 358.18 758.233 358.18C759.147 356.352 760.062 355.438 761.89 353.609ZM747.261 374.633C748.175 374.633 749.09 375.547 750.918 376.461C752.747 377.376 754.576 379.204 754.576 381.032C754.576 383.774 750.918 384.688 749.09 384.688C746.347 384.688 742.689 383.774 742.689 380.118C741.775 378.29 743.604 376.461 747.261 374.633ZM753.661 360.008C753.661 364.578 750.918 367.321 748.175 367.321C746.347 367.321 745.432 365.492 745.432 362.75C745.432 360.922 746.347 359.094 746.347 357.266C747.261 355.438 748.175 355.438 750.004 355.438C752.747 355.438 753.661 357.266 753.661 360.008Z" fill="black"/>
<path d="M774.695 355.449C775.609 355.449 777.438 355.449 777.438 356.363C777.438 358.192 776.524 362.762 775.609 364.59C774.695 366.418 772.866 368.246 771.952 369.161C770.123 370.989 768.295 372.817 767.38 372.817C766.466 372.817 766.466 370.989 766.466 369.161C766.466 367.332 766.466 363.676 768.295 360.934C770.123 358.192 771.038 356.363 771.952 355.449C772.866 355.449 773.781 355.449 774.695 355.449ZM782.924 370.075C781.095 370.989 780.181 371.903 779.267 371.903C779.267 371.903 779.267 370.989 779.267 370.075C780.181 364.59 781.096 359.106 782.01 354.535C781.096 354.535 781.095 354.535 780.181 354.535C779.267 354.535 778.352 354.535 777.438 354.535C774.695 354.535 771.038 356.363 768.295 358.192C765.552 360.934 762.809 365.504 762.809 370.989C762.809 374.645 764.637 375.559 765.552 375.559C766.466 375.559 768.295 373.731 769.209 373.731C771.952 371.903 773.781 369.161 775.609 367.332L774.695 373.731C774.695 375.559 775.609 376.473 775.609 376.473C776.524 375.559 780.181 372.817 782.924 370.075Z" fill="black"/>
<path d="M814.918 360.922C814.918 367.321 812.175 372.805 809.432 373.719C808.518 373.719 808.518 373.719 807.604 373.719C804.86 373.719 803.946 370.977 803.946 367.321C803.946 360.008 807.604 356.352 808.518 355.438C808.518 355.438 809.432 355.438 810.347 355.438C813.09 355.438 814.918 357.266 814.918 360.922ZM812.175 353.609C811.261 353.609 809.432 354.523 807.604 355.438C803.946 357.266 801.203 361.836 801.203 368.235C801.203 371.891 803.032 375.547 806.689 375.547C808.518 375.547 811.261 374.633 814.004 372.805C816.747 370.063 818.576 365.492 818.576 360.922C818.576 356.352 815.833 353.609 812.175 353.609Z" fill="black"/>
<path d="M842.349 362.766C842.349 354.539 846.921 344.484 855.15 344.484C861.55 344.484 864.293 350.883 864.293 357.282C864.293 364.594 859.722 374.649 851.493 374.649C845.092 374.649 842.349 369.165 842.349 362.766ZM837.777 361.852C837.777 370.079 843.263 375.563 850.578 375.563C860.636 375.563 867.951 367.336 867.951 357.282C867.951 349.055 862.465 343.57 855.15 343.57C845.092 343.57 837.777 351.797 837.777 361.852Z" fill="black"/>
<path d="M878.009 356.348L875.265 370.059C874.351 373.715 875.265 375.544 876.18 375.544C878.008 375.544 882.58 371.887 883.495 370.059V369.145C882.58 370.059 879.837 372.801 878.923 372.801C878.009 372.801 878.009 371.887 878.923 369.145L881.666 356.348H887.152L888.981 355.434H882.58L884.409 349.035L880.752 351.777L879.837 355.434H876.18L875.265 356.348V357.262H878.009V356.348Z" fill="black"/>
<path d="M900.871 355.449C901.785 355.449 903.614 355.449 903.614 356.363C903.614 358.192 902.7 362.762 901.785 364.59C900.871 366.418 899.042 368.246 898.128 369.161C896.299 370.989 894.471 372.817 893.556 372.817C892.642 372.817 892.642 370.989 892.642 369.161C892.642 367.332 892.642 363.676 894.471 360.934C896.299 358.192 897.214 356.363 898.128 355.449C899.042 355.449 899.957 355.449 900.871 355.449ZM908.186 370.075C906.357 370.989 905.443 371.903 904.529 371.903C904.529 371.903 904.529 370.989 904.529 370.075C905.443 364.59 906.357 359.106 907.272 354.535C906.357 354.535 906.357 354.535 905.443 354.535C904.529 354.535 903.614 354.535 902.7 354.535C899.957 354.535 896.299 356.363 893.556 358.192C890.813 360.934 888.07 365.504 888.07 370.989C888.07 374.645 889.899 375.559 890.813 375.559C891.728 375.559 893.556 373.731 894.471 373.731C897.214 371.903 899.042 369.161 900.871 367.332L899.957 373.731C899.957 375.559 900.871 376.473 900.871 376.473C902.7 375.559 906.357 372.817 908.186 370.075Z" fill="black"/>
<path d="M933.789 353.609C932.874 353.609 931.046 354.523 927.388 354.523C926.474 353.609 925.56 353.609 923.731 353.609C921.902 353.609 919.159 354.523 917.331 356.352C914.588 358.18 913.673 360.922 913.673 363.664C913.673 366.407 915.502 368.235 918.245 369.149C916.416 370.977 915.502 370.977 915.502 371.891C915.502 372.805 916.416 373.719 917.331 374.633C911.845 377.376 909.102 379.204 909.102 381.946C909.102 385.602 913.673 386.516 917.331 386.516C920.074 386.516 928.303 384.688 928.303 380.118C928.303 378.29 926.474 376.461 923.731 374.633C921.902 373.719 919.159 371.891 919.159 370.977C919.159 370.977 919.159 370.063 920.074 370.063C922.817 369.149 924.645 368.235 926.474 367.321C928.303 365.492 930.131 363.664 930.131 360.922C930.131 360.008 930.131 359.094 929.217 358.18C930.131 358.18 930.131 358.18 930.131 358.18C931.046 356.352 931.96 355.438 933.789 353.609ZM919.159 374.633C920.074 374.633 920.988 375.547 922.817 376.461C924.645 377.376 926.474 379.204 926.474 381.032C926.474 383.774 922.817 384.688 920.988 384.688C918.245 384.688 914.588 383.774 914.588 380.118C913.673 378.29 915.502 376.461 919.159 374.633ZM925.56 360.008C925.56 364.578 922.817 367.321 920.074 367.321C918.245 367.321 917.331 365.492 917.331 362.75C917.331 360.922 918.245 359.094 918.245 357.266C919.159 355.438 920.074 355.438 921.902 355.438C924.645 355.438 925.56 357.266 925.56 360.008Z" fill="black"/>
<path d="M949.321 360.922C949.321 367.321 946.578 372.805 943.835 373.719C942.92 373.719 942.92 373.719 942.006 373.719C939.263 373.719 938.349 370.977 938.349 367.321C938.349 360.008 942.006 356.352 942.92 355.438C942.92 355.438 943.835 355.438 944.749 355.438C947.492 355.438 949.321 357.266 949.321 360.922ZM946.578 353.609C945.663 353.609 943.835 354.523 942.006 355.438C938.349 357.266 935.605 361.836 935.605 368.235C935.605 371.891 937.434 375.547 941.092 375.547C942.92 375.547 945.663 374.633 948.406 372.805C951.149 370.063 952.978 365.492 952.978 360.922C952.978 356.352 950.235 353.609 946.578 353.609Z" fill="black"/>
<path d="M432.724 405.723C429.981 405.723 429.066 406.637 429.066 408.465C429.066 409.379 429.066 412.121 429.066 415.778V433.145H428.152L409.865 410.293V421.262C409.865 424.918 409.865 427.661 409.865 428.575C409.865 430.403 410.78 431.317 414.437 431.317V432.231H404.379V431.317C407.122 431.317 408.037 430.403 408.037 428.575C408.037 427.661 408.037 424.918 408.037 421.262V412.121C408.037 409.379 408.037 408.465 407.122 407.551C406.208 406.637 405.294 405.723 403.465 405.723V404.809H409.865L428.152 426.747V415.778C428.152 412.121 428.152 410.293 428.152 408.465C428.152 406.637 427.238 405.723 423.58 405.723V404.809H433.638V405.723H432.724Z" fill="black"/>
<path d="M482.113 425.833C482.113 427.661 481.198 431.317 480.284 432.231H459.254V431.317C462.911 431.317 463.826 430.403 463.826 427.661V410.293C463.826 406.637 463.826 406.637 460.168 405.723V404.809H479.37C479.37 405.723 479.37 408.465 479.37 411.207H478.455C478.455 409.379 477.541 408.465 477.541 407.551C476.626 406.637 475.712 406.637 472.969 406.637H469.312C468.397 406.637 467.483 406.637 467.483 408.465V418.52H472.055C475.712 418.52 475.712 418.52 476.627 414.864H477.541V423.09H476.627C475.712 420.348 475.712 419.434 472.055 419.434H468.397V427.661C468.397 429.489 468.397 430.403 469.312 431.317C470.226 432.231 472.055 432.231 473.883 432.231C477.541 432.231 478.455 432.231 479.37 430.403C480.284 429.489 481.198 427.661 481.198 426.747L482.113 425.833Z" fill="black"/>
<path d="M547.919 405.711C545.176 405.711 544.261 406.625 543.347 410.281C542.433 413.024 539.69 421.25 536.032 433.133H535.118C532.375 425.821 529.632 417.594 527.803 412.11C525.06 419.422 523.231 426.735 520.488 433.133H519.574C517.745 425.821 515.002 417.594 512.259 410.281C511.345 406.625 510.431 406.625 507.688 405.711V404.797H517.745V405.711C515.002 405.711 514.088 406.625 515.002 408.453C516.831 413.938 518.66 420.336 520.488 425.821C522.317 418.508 525.06 411.195 527.803 404.797H528.717C531.46 412.11 533.289 418.508 536.032 425.821C537.861 420.336 540.604 412.11 540.604 408.453C541.518 405.711 540.604 405.711 537.861 404.797V403.883H547.004V405.711H547.919Z" fill="black"/>
<path d="M633.89 425.821C633.89 427.649 632.976 431.305 632.061 433.133H610.117V432.219C616.518 423.993 622.004 414.852 628.404 406.625H621.089C616.518 406.625 615.603 406.625 614.689 408.453C613.775 409.367 613.775 410.281 612.86 412.11H611.946C611.946 409.367 612.86 405.711 612.86 403.883H613.775C614.689 404.797 614.689 404.797 615.603 404.797H632.976V405.711C627.49 413.938 621.089 422.164 615.603 431.305C617.432 431.305 619.261 431.305 622.918 431.305C628.404 431.305 630.233 431.305 631.147 429.477C632.061 428.563 632.976 426.735 633.89 424.907V425.821Z" fill="black"/>
<path d="M682.339 425.833C682.339 427.661 681.425 431.317 680.511 432.231H659.48V431.317C663.138 431.317 664.052 430.403 664.052 427.661V410.293C664.052 406.637 664.052 406.637 660.395 405.723V404.809H679.596C679.596 405.723 679.596 408.465 679.596 411.207H678.682C678.682 409.379 677.767 408.465 677.767 407.551C676.853 406.637 675.939 406.637 673.196 406.637H669.538C668.624 406.637 667.71 406.637 667.71 408.465V418.52H671.367C675.024 418.52 675.024 418.52 675.939 414.864H676.853V423.09H675.939C675.024 420.348 675.024 419.434 671.367 419.434H667.71V427.661C667.71 429.489 667.71 430.403 668.624 431.317C669.538 432.231 671.367 432.231 673.196 432.231C676.853 432.231 677.767 432.231 678.682 430.403C679.596 429.489 680.511 427.661 680.511 426.747L682.339 425.833Z" fill="black"/>
<path d="M722.559 409.379C720.73 413.035 719.816 416.692 717.987 420.348H726.216L722.559 409.379ZM726.216 433.145V432.231C728.959 432.231 728.959 431.317 728.959 429.489C728.045 427.661 727.131 425.833 726.216 423.09H717.073C716.159 424.918 716.158 426.747 715.244 428.575C714.33 431.317 714.33 431.317 717.987 432.231V433.145H708.844V432.231C711.587 432.231 712.501 431.317 713.415 427.661L722.559 404.809H723.473C726.216 412.121 728.959 420.348 731.702 427.661C732.617 431.317 733.531 431.317 736.274 432.231V433.145H726.216Z" fill="black"/>
<path d="M784.748 425.821C784.748 426.735 783.834 431.305 782.92 432.219H764.633V431.305C768.29 431.305 768.29 430.391 768.29 426.735V409.367C768.29 405.711 768.29 405.711 764.633 404.797V403.883H775.605V404.797C771.948 404.797 771.948 405.711 771.948 409.367V426.735C771.948 429.477 771.948 429.477 772.862 430.391C773.776 431.305 775.605 431.305 776.519 431.305C779.262 431.305 780.177 431.305 781.091 430.391C782.005 429.477 782.92 428.563 782.92 425.821H784.748Z" fill="black"/>
<path d="M824.969 409.379C823.14 413.035 822.226 416.692 820.397 420.348H828.626L824.969 409.379ZM829.541 433.145V432.231C832.284 432.231 832.284 431.317 832.284 429.489C831.369 427.661 830.455 425.833 829.541 423.09H820.397C819.483 424.918 819.483 426.747 818.568 428.575C817.654 431.317 817.654 431.317 821.311 432.231V433.145H812.168V432.231C814.911 432.231 815.825 431.317 816.74 427.661L825.883 404.809H826.798C829.541 412.121 832.284 420.348 835.027 427.661C835.941 431.317 836.855 431.317 839.598 432.231V433.145H829.541Z" fill="black"/>
<path d="M896.29 405.723C893.547 405.723 892.633 406.637 892.633 408.465C892.633 409.379 892.633 412.121 892.633 415.778V433.145H891.719L873.432 410.293V421.262C873.432 424.918 873.432 427.661 873.432 428.575C873.432 430.403 874.346 431.317 878.003 431.317V432.231H867.946V431.317C870.689 431.317 871.603 430.403 871.603 428.575C871.603 427.661 871.603 424.918 871.603 421.262V412.121C871.603 409.379 871.603 408.465 870.689 407.551C869.774 406.637 868.86 405.723 867.031 405.723V404.809H873.432L891.719 426.747V415.778C891.719 412.121 891.719 410.293 891.719 408.465C891.719 406.637 890.804 405.723 887.147 405.723V404.809H897.205V405.723H896.29Z" fill="black"/>
<path d="M931.049 426.747C931.049 430.403 932.878 430.403 935.621 430.403C943.85 430.403 947.508 424.004 947.508 417.606C947.508 413.035 945.679 409.379 942.022 407.551C940.193 406.637 937.45 405.723 934.707 405.723C932.878 405.723 931.964 405.723 931.049 406.637C931.049 406.637 930.135 407.551 930.135 409.379V426.747H931.049ZM935.621 404.809C941.107 404.809 944.765 405.723 947.508 408.465C949.336 410.293 951.165 413.949 951.165 417.606C951.165 423.09 949.336 426.747 945.679 429.489C942.022 432.231 938.364 433.145 932.878 433.145H922.82V432.231C926.478 432.231 926.478 431.317 926.478 427.661V410.293C926.478 406.637 926.478 406.637 922.82 405.723V404.809H935.621V404.809Z" fill="black"/>
</g>
<defs>
<clipPath id="clip0">
<rect width="1046" height="480" fill="white"/>
</clipPath>
</defs>
</svg>
