<svg xmlns="http://www.w3.org/2000/svg" width="430" height="320" viewBox="0 0 430 320" fill="none">
<path d="M369.556 153.778C369.556 180.632 361.592 206.883 346.673 229.212C331.754 251.54 310.548 268.943 285.738 279.22C260.928 289.497 233.627 292.186 207.289 286.947C180.951 281.708 156.757 268.776 137.768 249.787C118.78 230.798 105.848 206.605 100.609 180.267C95.37 153.928 98.0589 126.628 108.336 101.818C118.612 77.0077 136.015 55.8021 158.344 40.8827C180.672 25.9632 206.924 18 233.778 18C269.788 18 304.324 32.3051 329.787 57.7684C355.251 83.2317 369.556 117.767 369.556 153.778Z" stroke="#DBDBDF" stroke-width="4" stroke-linecap="round"/>
<mask id="mask0_693:3297" style="mask-type:alpha" maskUnits="userSpaceOnUse" x="98" y="20" width="272" height="272">
<path d="M369.556 156.092C369.556 182.946 361.592 209.197 346.673 231.526C331.754 253.854 310.548 271.257 285.738 281.534C260.928 291.811 233.627 294.5 207.289 289.261C180.951 284.022 156.757 271.09 137.768 252.101C118.78 233.112 105.848 208.919 100.609 182.581C95.37 156.242 98.0589 128.942 108.336 104.132C118.612 79.3217 136.015 58.1161 158.344 43.1966C180.672 28.2772 206.924 20.314 233.778 20.314C269.788 20.314 304.324 34.6191 329.787 60.0824C355.251 85.5456 369.556 120.081 369.556 156.092Z" fill="#C4C4C4"/>
</mask>
<g mask="url(#mask0_693:3297)">
<path d="M249.005 211.45C248.62 209.685 248.18 207.662 247.735 205.573C246.442 199.558 245.089 193.043 244.671 191.025C241.718 193.972 236.642 196.6 230.053 196.666C223.453 196.6 218.388 193.972 215.429 191.025C215.033 192.955 213.372 199.432 211.865 205.479C211.315 207.585 210.837 209.641 210.408 211.428C210.007 213.11 209.677 214.556 209.468 215.595L196.901 217.437C196.901 217.437 198.16 264.531 230.053 263.618C261.946 262.705 262.133 217.437 262.133 217.437L249.951 215.606C249.709 214.6 249.385 213.148 249.005 211.45Z" fill="#EFB38B"/>
<path d="M217.514 185.863L216.76 185.462C216.584 186.094 216.001 188.249 215.429 191.026C218.388 193.972 223.459 196.6 230.053 196.666C236.653 196.6 241.718 193.972 244.672 191.026C244.243 188.942 243.896 187.271 243.698 186.314C242.169 187.133 238.198 188.788 230.977 188.788C221.369 188.788 217.514 185.863 217.514 185.863Z" fill="#D37637"/>
<path d="M280.948 137.153C278.512 133.167 272.187 132.205 268.799 139.412C268.316 139.422 267.832 139.38 267.358 139.286C261.858 138.263 247.63 131.149 226.511 111.901C231.318 119.444 245.046 133.167 259.455 137.972C229.003 139.165 212.812 115.799 208.918 109.84C208.643 109.359 208.331 108.901 207.983 108.471C207.851 108.559 197.39 114.645 192.957 138.401C191.044 134.206 183.569 132.754 181.017 137.142C180.869 137.399 180.741 137.668 180.632 137.944C180.391 138.635 180.237 139.354 180.176 140.083C180.118 140.66 180.092 141.24 180.099 141.82C180.193 151.716 195.977 156.538 195.977 156.543C199.937 173.037 210.249 181.921 216.76 185.462L217.514 185.863C217.514 185.863 221.364 188.788 230.977 188.788C238.198 188.788 242.169 187.138 243.698 186.314C243.956 186.182 244.205 186.031 244.441 185.863V185.863C250.881 182.608 261.864 173.691 265.978 156.543C265.978 156.543 280.151 153.179 281.861 141.82C282.119 140.205 281.796 138.551 280.948 137.153V137.153Z" fill="#EFB38B"/>
<path d="M273.87 197.656C271.12 187.364 277.983 188.051 278.671 170.898C279.001 162.652 276.785 156.604 274.392 152.574C271.759 154.234 268.933 155.566 265.977 156.544C261.864 173.691 250.881 182.609 244.44 185.863C244.204 186.032 243.956 186.182 243.698 186.314C243.896 187.271 244.248 188.942 244.671 191.026C245.095 193.109 249.709 214.6 249.951 215.606L258.712 216.992C258.712 216.992 281.976 221.28 299.372 230.406C297.205 208.239 276.306 206.7 273.87 197.656Z" fill="#513E22"/>
<path d="M259.455 137.972C245.045 133.167 231.318 119.444 226.511 111.901C247.63 131.143 261.864 138.291 267.358 139.286C267.622 139.33 267.858 139.363 268.078 139.385H268.221C268.414 139.395 268.607 139.395 268.799 139.385C272.187 132.172 278.511 133.139 280.948 137.125C280.948 137.125 280.997 137.125 281.008 137.169C286.03 120.879 282.741 99.3553 276.889 89.6022C264.537 67.9959 235.437 55.7634 205.046 76.4845C191.918 75.7918 178.757 98.5856 177.915 115.2C177.486 123.611 179.296 131.611 180.99 137.065C181.001 137.08 181.01 137.096 181.017 137.114C183.569 132.716 191.043 134.178 192.957 138.373C197.39 114.617 207.851 108.531 207.983 108.443C207.983 108.443 207.983 108.443 208.01 108.443C208.024 108.456 208.035 108.471 208.043 108.487L208.076 108.526L208.12 108.592C208.141 108.617 208.159 108.645 208.175 108.674C208.191 108.693 208.206 108.713 208.219 108.735C210.419 112.077 226.676 139.253 259.455 137.972Z" fill="#513E22"/>
<path d="M355.227 341.708C349.453 314.346 337.595 262.392 316.295 237.608C311.829 232.412 306.945 229.658 302.232 228.751C284.303 222.978 259.444 216.167 259.444 216.167L255.088 227.074C253.089 232.08 249.636 236.373 245.174 239.399C240.712 242.425 235.445 244.045 230.053 244.051C224.661 244.046 219.394 242.426 214.932 239.4C210.469 236.374 207.016 232.081 205.018 227.074L200.662 216.167C200.662 216.167 172.35 223.924 154.365 229.911C153.882 230.073 153.426 230.306 153.012 230.604C149.547 232.337 146.48 234.771 144.004 237.751C122.703 262.535 115.218 317.557 109.421 344.891C103.333 373.584 140.484 380.825 148.558 359.675C153.221 347.376 157.26 334.849 160.657 322.142C164.204 342.22 167.917 362.083 167.917 362.083L159.216 414.251C159.216 414.251 194.965 414.35 230.048 414.405C265.141 414.35 300.873 414.251 300.873 414.251L292.173 362.083C292.173 362.083 296.386 339.542 300.12 318.244C304.267 330.339 308.82 341.587 316.069 356.481C326.013 376.839 361.316 370.423 355.227 341.708Z" fill="#EDF4F7"/>
<path d="M290.427 276.559V285.43C290.427 286.388 289.65 287.165 288.691 287.165C287.733 287.165 286.956 286.388 286.956 285.43V277.142C286.956 275.867 286.713 274.604 286.239 273.42L282.055 262.961C281.785 262.285 282.139 261.521 282.83 261.291C283.427 261.092 284.08 261.362 284.362 261.925L289.307 271.816C290.043 273.288 290.427 274.912 290.427 276.559Z" fill="#D8E5EA"/>
<path d="M212.3 235.662C209.149 230.901 213.983 228.586 211.42 225.997L208.797 223.1C208.797 223.1 217.145 216.436 212.828 212.34C208.197 207.942 196.543 219.603 196.543 219.603C196.543 219.603 191.115 224.001 189.119 226.514C188.695 216.453 189.438 209.119 184.504 210.02L184.323 210.053C179.406 211.153 180.209 217.585 180.588 231.759C180.39 236.772 179.939 258.978 179.939 258.978C179.939 258.978 158.199 280.535 148.2 291.838C138.202 303.142 84.9147 353.38 120.366 370.55C149.938 384.894 167.768 328.816 179.51 306.644C182.898 300.25 207.812 254.288 207.812 254.288C207.812 254.288 212.355 249.67 213.482 245.492C213.871 244.33 213.828 243.068 213.361 241.935C212.751 240.621 213.543 237.548 212.3 235.662Z" fill="#EFB38B"/>
<path d="M224.416 239.791L219.565 181.217C219.514 180.595 219.34 179.989 219.055 179.434C218.769 178.879 218.376 178.386 217.9 177.982C217.423 177.579 216.872 177.273 216.277 177.083C215.682 176.893 215.056 176.822 214.434 176.874L186.715 179.167C186.093 179.218 185.487 179.391 184.931 179.677C184.376 179.962 183.883 180.355 183.479 180.831C183.076 181.307 182.77 181.859 182.58 182.453C182.389 183.048 182.318 183.674 182.37 184.296L184.504 210.042C189.454 209.118 188.695 216.452 189.118 226.535C191.115 224.034 196.543 219.625 196.543 219.625C196.543 219.625 208.197 207.975 212.828 212.362C217.145 216.458 208.797 223.121 208.797 223.121L211.42 226.019C213.983 228.608 209.149 230.923 212.3 235.684C213.543 237.569 212.751 240.632 213.361 241.929C213.827 243.062 213.87 244.324 213.482 245.486L220.082 244.936C220.705 244.884 221.311 244.709 221.866 244.422C222.422 244.134 222.915 243.74 223.317 243.262C223.72 242.784 224.024 242.232 224.213 241.636C224.401 241.04 224.47 240.413 224.416 239.791V239.791Z" fill="#8C7667"/>
<path d="M195.894 280.93C196.578 281.143 197.149 281.617 197.485 282.249C197.821 282.881 197.893 283.62 197.687 284.306C173.73 349.641 153.623 383.876 120.883 371.204C90.9972 359.658 115.345 321.449 164.265 269.319C164.656 268.867 165.175 268.545 165.753 268.393C166.331 268.241 166.941 268.266 167.504 268.467L195.894 280.93Z" fill="#D8E5EA"/>
<path d="M237.802 170.291C230.477 167.34 224.925 169.898 224.692 170.004C224.492 170.098 224.312 170.231 224.163 170.394C224.014 170.557 223.898 170.749 223.823 170.957C223.748 171.165 223.714 171.385 223.724 171.606C223.734 171.827 223.788 172.044 223.881 172.245C223.975 172.445 224.108 172.625 224.271 172.774C224.434 172.923 224.626 173.039 224.834 173.114C225.042 173.189 225.262 173.223 225.483 173.213C225.704 173.203 225.921 173.149 226.122 173.056C226.166 173.053 230.574 171.026 236.559 173.414C236.757 173.492 236.968 173.532 237.181 173.531C237.585 173.557 237.984 173.434 238.304 173.186C238.624 172.938 238.842 172.582 238.918 172.184C238.994 171.787 238.923 171.375 238.717 171.027C238.512 170.678 238.186 170.417 237.802 170.291V170.291Z" fill="#CF4F24"/>
<path d="M228.887 159.795C228.865 159.623 228.88 159.448 228.933 159.282C228.986 159.116 229.074 158.964 229.192 158.836C229.928 158.243 230.803 157.787 231.589 157.207C231.713 157.1 231.828 156.983 231.932 156.857L232.108 156.509C232.09 156.228 232.055 155.948 232.003 155.671C231.926 155.299 231.824 154.934 231.697 154.576C231.563 154.245 231.429 153.913 231.279 153.588C230.703 152.541 230.204 151.473 229.677 150.407C229.493 150.072 229.309 149.732 229.119 149.398C228.908 149.09 228.819 148.715 228.871 148.345C228.9 148.173 228.966 148.009 229.065 147.864C229.164 147.72 229.293 147.599 229.443 147.51C229.603 147.42 229.778 147.362 229.96 147.34C230.142 147.319 230.326 147.333 230.503 147.383C230.879 147.478 231.207 147.708 231.424 148.029C231.821 148.73 232.207 149.432 232.55 150.153C232.799 150.667 233.036 151.182 233.291 151.696C233.748 152.468 234.132 153.28 234.438 154.123C234.51 154.336 234.561 154.567 234.611 154.786C234.703 155.092 234.777 155.403 234.831 155.718C234.92 156.198 234.945 156.688 234.907 157.174C234.794 157.702 234.57 158.2 234.25 158.635C233.931 159.05 233.546 159.411 233.112 159.704C232.514 160.157 231.844 160.519 231.209 160.913C230.979 161.089 230.697 161.184 230.407 161.182C230.031 161.166 229.671 161.022 229.387 160.774C229.106 160.52 228.928 160.172 228.887 159.795Z" fill="#DD8858"/>
<path d="M216.226 143.094C215.973 142.368 215.489 141.745 214.847 141.321C214.205 140.898 213.441 140.698 212.674 140.753C212.277 140.706 207.781 142.205 211.157 147.37C214.183 149.955 217.015 147.072 216.226 143.094Z" fill="#361A1A"/>
<path d="M216.249 131.98C214.069 130.606 210.048 131.325 204.52 135.402C204.573 135.361 204.633 135.33 204.692 135.288C200.932 138.68 202.472 139.483 205.115 138.308C210.795 135.777 218.651 133.227 216.249 131.98Z" fill="#361A1A"/>
<path d="M250.929 143.838C250.943 143.078 250.705 142.334 250.252 141.724C249.798 141.114 249.155 140.671 248.423 140.465C248.07 140.289 243.368 140.172 244.753 146.129C246.69 149.553 250.308 147.811 250.929 143.838Z" fill="#361A1A"/>
<path d="M258.017 136.765C258.4 135.258 253.659 131.934 248.107 130.94C241.44 129.754 240.305 133.454 249.085 134.714C254.208 135.453 257.415 139.172 258.017 136.765Z" fill="#361A1A"/>
</g>
<rect x="206" y="263" width="57" height="57" rx="28.5" fill="#E8E1FE"/>
<g clip-path="url(#clip0_693:3297)">
<path d="M235.149 271.383C231.042 271.383 227.027 272.601 223.612 274.883C220.197 277.164 217.535 280.407 215.964 284.202C214.392 287.996 213.981 292.172 214.782 296.2C215.583 300.228 217.561 303.928 220.465 306.833C223.369 309.737 227.069 311.714 231.098 312.516C235.126 313.317 239.301 312.906 243.096 311.334C246.89 309.762 250.133 307.101 252.415 303.686C254.697 300.271 255.915 296.256 255.915 292.149C255.915 286.641 253.727 281.359 249.833 277.465C245.938 273.571 240.656 271.383 235.149 271.383V271.383ZM224.766 289.553C224.766 289.04 224.918 288.538 225.203 288.111C225.489 287.684 225.894 287.351 226.368 287.155C226.843 286.958 227.365 286.907 227.868 287.007C228.372 287.107 228.834 287.355 229.197 287.718C229.56 288.081 229.807 288.543 229.908 289.047C230.008 289.55 229.956 290.072 229.76 290.546C229.563 291.021 229.231 291.426 228.804 291.711C228.377 291.997 227.875 292.149 227.362 292.149C226.673 292.149 226.013 291.875 225.526 291.388C225.039 290.902 224.766 290.241 224.766 289.553ZM229.013 302.808L228.383 300.29L241.284 297.064L241.915 299.582L229.013 302.808ZM242.936 292.149C242.423 292.149 241.921 291.997 241.494 291.711C241.067 291.426 240.734 291.021 240.538 290.546C240.342 290.072 240.29 289.55 240.39 289.047C240.49 288.543 240.738 288.081 241.101 287.718C241.464 287.355 241.926 287.107 242.43 287.007C242.933 286.907 243.455 286.958 243.929 287.155C244.404 287.351 244.809 287.684 245.094 288.111C245.38 288.538 245.532 289.04 245.532 289.553C245.532 290.241 245.258 290.902 244.772 291.388C244.285 291.875 243.625 292.149 242.936 292.149Z" fill="#473860"/>
</g>
<rect width="160" height="53" rx="15" transform="matrix(-1 0 0 1 430 0)" fill="#E8E1FE"/>
<path d="M313 42H332.757C335.43 42 336.769 45.2314 334.879 47.1213L315.121 66.8787C313.231 68.7686 310 67.4301 310 64.7574V45C310 43.3431 311.343 42 313 42Z" fill="#E8E1FE"/>
<path d="M322.04 31C321.907 31 321.793 30.9533 321.7 30.86C321.607 30.7667 321.56 30.6533 321.56 30.52V17.48C321.56 17.3467 321.607 17.2333 321.7 17.14C321.793 17.0467 321.907 17 322.04 17H323.92C324.067 17 324.18 17.0467 324.26 17.14C324.353 17.2333 324.4 17.3467 324.4 17.48V30.52C324.4 30.6533 324.353 30.7667 324.26 30.86C324.18 30.9533 324.067 31 323.92 31H322.04ZM327.777 31C327.643 31 327.53 30.9533 327.437 30.86C327.343 30.7667 327.297 30.6533 327.297 30.52V21.08C327.297 20.9467 327.343 20.8333 327.437 20.74C327.53 20.6467 327.643 20.6 327.777 20.6H329.417C329.55 20.6 329.663 20.6467 329.757 20.74C329.85 20.8333 329.897 20.9467 329.897 21.08V21.9C330.243 21.4733 330.683 21.12 331.217 20.84C331.763 20.5467 332.437 20.4 333.237 20.4C334.05 20.4 334.757 20.5867 335.357 20.96C335.957 21.32 336.417 21.8333 336.737 22.5C337.07 23.1667 337.237 23.9667 337.237 24.9V30.52C337.237 30.6533 337.19 30.7667 337.097 30.86C337.003 30.9533 336.89 31 336.757 31H334.997C334.863 31 334.75 30.9533 334.657 30.86C334.563 30.7667 334.517 30.6533 334.517 30.52V25.02C334.517 24.2467 334.323 23.64 333.937 23.2C333.563 22.76 333.017 22.54 332.297 22.54C331.603 22.54 331.05 22.76 330.637 23.2C330.223 23.64 330.017 24.2467 330.017 25.02V30.52C330.017 30.6533 329.97 30.7667 329.877 30.86C329.783 30.9533 329.67 31 329.537 31H327.777ZM343.717 31.2C342.917 31.2 342.23 31.1067 341.657 30.92C341.097 30.7333 340.637 30.5 340.277 30.22C339.917 29.94 339.65 29.66 339.477 29.38C339.304 29.1 339.21 28.8667 339.197 28.68C339.184 28.5333 339.224 28.42 339.317 28.34C339.424 28.2467 339.537 28.2 339.657 28.2H341.237C341.29 28.2 341.337 28.2067 341.377 28.22C341.417 28.2333 341.47 28.2733 341.537 28.34C341.71 28.4867 341.89 28.64 342.077 28.8C342.277 28.96 342.51 29.1 342.777 29.22C343.044 29.3267 343.377 29.38 343.777 29.38C344.297 29.38 344.73 29.28 345.077 29.08C345.437 28.8667 345.617 28.5667 345.617 28.18C345.617 27.9 345.537 27.6733 345.377 27.5C345.23 27.3267 344.95 27.1733 344.537 27.04C344.124 26.8933 343.537 26.74 342.777 26.58C342.03 26.4067 341.41 26.1867 340.917 25.92C340.424 25.6533 340.057 25.32 339.817 24.92C339.577 24.52 339.457 24.0533 339.457 23.52C339.457 23 339.61 22.5067 339.917 22.04C340.237 21.56 340.704 21.1667 341.317 20.86C341.944 20.5533 342.717 20.4 343.637 20.4C344.357 20.4 344.984 20.4933 345.517 20.68C346.05 20.8533 346.49 21.0733 346.837 21.34C347.197 21.6067 347.47 21.88 347.657 22.16C347.844 22.4267 347.944 22.66 347.957 22.86C347.97 23.0067 347.93 23.1267 347.837 23.22C347.744 23.3 347.637 23.34 347.517 23.34H346.037C345.97 23.34 345.91 23.3267 345.857 23.3C345.804 23.2733 345.75 23.24 345.697 23.2C345.55 23.0667 345.39 22.9267 345.217 22.78C345.044 22.62 344.83 22.4867 344.577 22.38C344.337 22.2733 344.017 22.22 343.617 22.22C343.11 22.22 342.724 22.3333 342.457 22.56C342.19 22.7733 342.057 23.0467 342.057 23.38C342.057 23.6067 342.117 23.8067 342.237 23.98C342.37 24.14 342.63 24.2933 343.017 24.44C343.404 24.5867 343.99 24.74 344.777 24.9C345.67 25.06 346.377 25.3 346.897 25.62C347.43 25.9267 347.804 26.2867 348.017 26.7C348.244 27.1 348.357 27.5467 348.357 28.04C348.357 28.64 348.177 29.18 347.817 29.66C347.47 30.14 346.95 30.52 346.257 30.8C345.577 31.0667 344.73 31.2 343.717 31.2ZM355.022 31.2C353.955 31.2 353.055 31.0133 352.322 30.64C351.602 30.2667 351.048 29.74 350.662 29.06C350.288 28.38 350.075 27.5867 350.022 26.68C350.008 26.44 350.002 26.1467 350.002 25.8C350.002 25.4533 350.008 25.16 350.022 24.92C350.075 24 350.295 23.2067 350.682 22.54C351.082 21.86 351.642 21.3333 352.362 20.96C353.095 20.5867 353.982 20.4 355.022 20.4C356.062 20.4 356.942 20.5867 357.662 20.96C358.395 21.3333 358.955 21.86 359.342 22.54C359.742 23.2067 359.968 24 360.022 24.92C360.035 25.16 360.042 25.4533 360.042 25.8C360.042 26.1467 360.035 26.44 360.022 26.68C359.968 27.5867 359.748 28.38 359.362 29.06C358.988 29.74 358.435 30.2667 357.702 30.64C356.982 31.0133 356.088 31.2 355.022 31.2ZM355.022 29.22C355.728 29.22 356.275 29 356.662 28.56C357.048 28.1067 357.262 27.4467 357.302 26.58C357.315 26.38 357.322 26.12 357.322 25.8C357.322 25.48 357.315 25.22 357.302 25.02C357.262 24.1533 357.048 23.5 356.662 23.06C356.275 22.6067 355.728 22.38 355.022 22.38C354.315 22.38 353.768 22.6067 353.382 23.06C352.995 23.5 352.782 24.1533 352.742 25.02C352.728 25.22 352.722 25.48 352.722 25.8C352.722 26.12 352.728 26.38 352.742 26.58C352.782 27.4467 352.995 28.1067 353.382 28.56C353.768 29 354.315 29.22 355.022 29.22ZM362.738 31C362.604 31 362.491 30.9533 362.398 30.86C362.304 30.7667 362.257 30.6533 362.257 30.52V21.08C362.257 20.9467 362.304 20.8333 362.398 20.74C362.491 20.6467 362.604 20.6 362.738 20.6H364.298C364.431 20.6 364.544 20.6467 364.638 20.74C364.731 20.8333 364.778 20.9467 364.778 21.08V21.76C365.058 21.3867 365.431 21.0733 365.898 20.82C366.378 20.5533 366.944 20.4133 367.598 20.4C369.118 20.3733 370.178 20.9667 370.778 22.18C371.084 21.6467 371.524 21.22 372.098 20.9C372.684 20.5667 373.331 20.4 374.038 20.4C374.731 20.4 375.358 20.56 375.918 20.88C376.491 21.2 376.938 21.6867 377.258 22.34C377.591 22.98 377.758 23.7933 377.758 24.78V30.52C377.758 30.6533 377.711 30.7667 377.618 30.86C377.524 30.9533 377.411 31 377.278 31H375.638C375.504 31 375.391 30.9533 375.298 30.86C375.204 30.7667 375.158 30.6533 375.158 30.52V24.94C375.158 24.34 375.071 23.8667 374.898 23.52C374.724 23.16 374.491 22.9067 374.198 22.76C373.904 22.6133 373.578 22.54 373.218 22.54C372.924 22.54 372.631 22.6133 372.338 22.76C372.044 22.9067 371.804 23.16 371.618 23.52C371.431 23.8667 371.338 24.34 371.338 24.94V30.52C371.338 30.6533 371.291 30.7667 371.198 30.86C371.104 30.9533 370.991 31 370.858 31H369.218C369.084 31 368.971 30.9533 368.878 30.86C368.784 30.7667 368.738 30.6533 368.738 30.52V24.94C368.738 24.34 368.644 23.8667 368.458 23.52C368.271 23.16 368.031 22.9067 367.738 22.76C367.444 22.6133 367.131 22.54 366.798 22.54C366.491 22.54 366.191 22.62 365.898 22.78C365.604 22.9267 365.364 23.1733 365.178 23.52C364.991 23.8667 364.898 24.34 364.898 24.94V30.52C364.898 30.6533 364.851 30.7667 364.758 30.86C364.664 30.9533 364.551 31 364.418 31H362.738ZM380.784 31C380.651 31 380.538 30.9533 380.444 30.86C380.351 30.7667 380.304 30.6533 380.304 30.52V21.08C380.304 20.9467 380.351 20.8333 380.444 20.74C380.538 20.6467 380.651 20.6 380.784 20.6H382.424C382.558 20.6 382.671 20.6467 382.764 20.74C382.858 20.8333 382.904 20.9467 382.904 21.08V21.9C383.251 21.4733 383.691 21.12 384.224 20.84C384.771 20.5467 385.444 20.4 386.244 20.4C387.058 20.4 387.764 20.5867 388.364 20.96C388.964 21.32 389.424 21.8333 389.744 22.5C390.078 23.1667 390.244 23.9667 390.244 24.9V30.52C390.244 30.6533 390.198 30.7667 390.104 30.86C390.011 30.9533 389.898 31 389.764 31H388.004C387.871 31 387.758 30.9533 387.664 30.86C387.571 30.7667 387.524 30.6533 387.524 30.52V25.02C387.524 24.2467 387.331 23.64 386.944 23.2C386.571 22.76 386.024 22.54 385.304 22.54C384.611 22.54 384.058 22.76 383.644 23.2C383.231 23.64 383.024 24.2467 383.024 25.02V30.52C383.024 30.6533 382.978 30.7667 382.884 30.86C382.791 30.9533 382.678 31 382.544 31H380.784ZM393.265 31C393.132 31 393.018 30.9533 392.925 30.86C392.832 30.7667 392.785 30.6533 392.785 30.52V21.08C392.785 20.9467 392.832 20.8333 392.925 20.74C393.018 20.6467 393.132 20.6 393.265 20.6H394.925C395.072 20.6 395.185 20.6467 395.265 20.74C395.358 20.8333 395.405 20.9467 395.405 21.08V30.52C395.405 30.6533 395.358 30.7667 395.265 30.86C395.185 30.9533 395.072 31 394.925 31H393.265ZM393.185 18.88C393.052 18.88 392.938 18.8333 392.845 18.74C392.752 18.6467 392.705 18.5333 392.705 18.4V16.96C392.705 16.8267 392.752 16.7133 392.845 16.62C392.938 16.5267 393.052 16.48 393.185 16.48H395.005C395.152 16.48 395.272 16.5267 395.365 16.62C395.458 16.7133 395.505 16.8267 395.505 16.96V18.4C395.505 18.5333 395.458 18.6467 395.365 18.74C395.272 18.8333 395.152 18.88 395.005 18.88H393.185ZM401.078 31.2C400.385 31.2 399.758 31.0667 399.198 30.8C398.638 30.52 398.192 30.1533 397.858 29.7C397.538 29.2333 397.378 28.7133 397.378 28.14C397.378 27.2067 397.758 26.4667 398.518 25.92C399.278 25.36 400.272 24.9867 401.498 24.8L404.238 24.4V23.98C404.238 23.42 404.098 22.9867 403.818 22.68C403.538 22.3733 403.058 22.22 402.378 22.22C401.898 22.22 401.505 22.32 401.198 22.52C400.905 22.7067 400.685 22.96 400.538 23.28C400.432 23.4533 400.278 23.54 400.078 23.54H398.498C398.352 23.54 398.238 23.5 398.158 23.42C398.092 23.34 398.058 23.2333 398.058 23.1C398.072 22.8867 398.158 22.6267 398.318 22.32C398.492 22.0133 398.745 21.72 399.078 21.44C399.425 21.1467 399.872 20.9 400.418 20.7C400.965 20.5 401.625 20.4 402.398 20.4C403.238 20.4 403.945 20.5067 404.518 20.72C405.105 20.92 405.572 21.1933 405.918 21.54C406.265 21.8867 406.518 22.2933 406.678 22.76C406.838 23.2267 406.918 23.72 406.918 24.24V30.52C406.918 30.6533 406.872 30.7667 406.778 30.86C406.685 30.9533 406.572 31 406.438 31H404.818C404.672 31 404.552 30.9533 404.458 30.86C404.378 30.7667 404.338 30.6533 404.338 30.52V29.74C404.165 29.98 403.932 30.2133 403.638 30.44C403.345 30.6667 402.985 30.8533 402.558 31C402.145 31.1333 401.652 31.2 401.078 31.2ZM401.758 29.3C402.225 29.3 402.645 29.2 403.018 29C403.405 28.8 403.705 28.4933 403.918 28.08C404.145 27.6533 404.258 27.12 404.258 26.48V26.06L402.258 26.38C401.472 26.5 400.885 26.6933 400.498 26.96C400.112 27.2267 399.918 27.5533 399.918 27.94C399.918 28.2333 400.005 28.4867 400.178 28.7C400.365 28.9 400.598 29.0533 400.878 29.16C401.158 29.2533 401.452 29.3 401.758 29.3Z" fill="#333242"/>
<g clip-path="url(#clip1_693:3297)">
<path d="M300 13C297.627 13 295.307 13.7038 293.333 15.0224C291.36 16.3409 289.822 18.2151 288.913 20.4078C288.005 22.6005 287.768 25.0133 288.231 27.3411C288.694 29.6689 289.836 31.8071 291.515 33.4853C293.193 35.1635 295.331 36.3064 297.659 36.7694C299.987 37.2324 302.399 36.9948 304.592 36.0866C306.785 35.1783 308.659 33.6402 309.978 31.6668C311.296 29.6935 312 27.3734 312 25C311.996 21.8186 310.731 18.7685 308.481 16.5189C306.232 14.2693 303.181 13.0038 300 13V13ZM307.5 25.75H299.25V17.5H300.75V24.25H307.5V25.75Z" fill="#292833"/>
</g>
<path d="M131.5 50H112.657C109.093 50 107.309 54.3086 109.828 56.8284L128.672 75.6716C131.191 78.1914 135.5 76.4068 135.5 72.8431V54C135.5 51.7909 133.709 50 131.5 50Z" fill="#94E2BF"/>
<rect y="2" width="179" height="60" rx="15" fill="#94E2BF"/>
<path d="M58.04 38C57.9067 38 57.7933 37.96 57.7 37.88C57.6067 37.7867 57.56 37.6667 57.56 37.52V24.5C57.56 24.3533 57.6067 24.2333 57.7 24.14C57.7933 24.0467 57.9067 24 58.04 24H59.86C60.0067 24 60.12 24.0467 60.2 24.14C60.2933 24.2333 60.34 24.3533 60.34 24.5V29.66H66.24V24.5C66.24 24.3533 66.2867 24.2333 66.38 24.14C66.4733 24.0467 66.5867 24 66.72 24H68.52C68.6667 24 68.7867 24.0467 68.88 24.14C68.9733 24.2333 69.02 24.3533 69.02 24.5V37.52C69.02 37.6533 68.9733 37.7667 68.88 37.86C68.7867 37.9533 68.6667 38 68.52 38H66.72C66.5867 38 66.4733 37.9533 66.38 37.86C66.2867 37.7667 66.24 37.6533 66.24 37.52V32.16H60.34V37.52C60.34 37.6533 60.2933 37.7667 60.2 37.86C60.12 37.9533 60.0067 38 59.86 38H58.04ZM76.4903 38.2C75.4236 38.2 74.5236 38.0133 73.7903 37.64C73.0703 37.2667 72.517 36.74 72.1303 36.06C71.757 35.38 71.5436 34.5867 71.4903 33.68C71.477 33.44 71.4703 33.1467 71.4703 32.8C71.4703 32.4533 71.477 32.16 71.4903 31.92C71.5436 31 71.7636 30.2067 72.1503 29.54C72.5503 28.86 73.1103 28.3333 73.8303 27.96C74.5636 27.5867 75.4503 27.4 76.4903 27.4C77.5303 27.4 78.4103 27.5867 79.1303 27.96C79.8636 28.3333 80.4236 28.86 80.8103 29.54C81.2103 30.2067 81.437 31 81.4903 31.92C81.5036 32.16 81.5103 32.4533 81.5103 32.8C81.5103 33.1467 81.5036 33.44 81.4903 33.68C81.437 34.5867 81.217 35.38 80.8303 36.06C80.457 36.74 79.9036 37.2667 79.1703 37.64C78.4503 38.0133 77.557 38.2 76.4903 38.2ZM76.4903 36.22C77.197 36.22 77.7436 36 78.1303 35.56C78.517 35.1067 78.7303 34.4467 78.7703 33.58C78.7836 33.38 78.7903 33.12 78.7903 32.8C78.7903 32.48 78.7836 32.22 78.7703 32.02C78.7303 31.1533 78.517 30.5 78.1303 30.06C77.7436 29.6067 77.197 29.38 76.4903 29.38C75.7836 29.38 75.237 29.6067 74.8503 30.06C74.4636 30.5 74.2503 31.1533 74.2103 32.02C74.197 32.22 74.1903 32.48 74.1903 32.8C74.1903 33.12 74.197 33.38 74.2103 33.58C74.2503 34.4467 74.4636 35.1067 74.8503 35.56C75.237 36 75.7836 36.22 76.4903 36.22ZM84.2063 38C84.0729 38 83.9596 37.9533 83.8663 37.86C83.7729 37.7667 83.7262 37.6533 83.7262 37.52V28.08C83.7262 27.9467 83.7729 27.8333 83.8663 27.74C83.9596 27.6467 84.0729 27.6 84.2063 27.6H85.7663C85.8996 27.6 86.0129 27.6467 86.1063 27.74C86.1996 27.8333 86.2463 27.9467 86.2463 28.08V28.76C86.5263 28.3867 86.8996 28.0733 87.3663 27.82C87.8463 27.5533 88.4129 27.4133 89.0663 27.4C90.5863 27.3733 91.6463 27.9667 92.2463 29.18C92.5529 28.6467 92.9929 28.22 93.5663 27.9C94.1529 27.5667 94.7996 27.4 95.5063 27.4C96.1996 27.4 96.8263 27.56 97.3863 27.88C97.9596 28.2 98.4063 28.6867 98.7263 29.34C99.0596 29.98 99.2263 30.7933 99.2263 31.78V37.52C99.2263 37.6533 99.1796 37.7667 99.0863 37.86C98.9929 37.9533 98.8796 38 98.7463 38H97.1063C96.9729 38 96.8596 37.9533 96.7663 37.86C96.6729 37.7667 96.6263 37.6533 96.6263 37.52V31.94C96.6263 31.34 96.5396 30.8667 96.3663 30.52C96.1929 30.16 95.9596 29.9067 95.6663 29.76C95.3729 29.6133 95.0463 29.54 94.6863 29.54C94.3929 29.54 94.0996 29.6133 93.8063 29.76C93.5129 29.9067 93.2729 30.16 93.0863 30.52C92.8996 30.8667 92.8063 31.34 92.8063 31.94V37.52C92.8063 37.6533 92.7596 37.7667 92.6663 37.86C92.5729 37.9533 92.4596 38 92.3263 38H90.6863C90.5529 38 90.4396 37.9533 90.3463 37.86C90.2529 37.7667 90.2063 37.6533 90.2063 37.52V31.94C90.2063 31.34 90.1129 30.8667 89.9263 30.52C89.7396 30.16 89.4996 29.9067 89.2063 29.76C88.9129 29.6133 88.5996 29.54 88.2663 29.54C87.9596 29.54 87.6596 29.62 87.3663 29.78C87.0729 29.9267 86.8329 30.1733 86.6463 30.52C86.4596 30.8667 86.3663 31.34 86.3663 31.94V37.52C86.3663 37.6533 86.3196 37.7667 86.2263 37.86C86.1329 37.9533 86.0196 38 85.8863 38H84.2063ZM106.253 38.2C104.773 38.2 103.6 37.7733 102.733 36.92C101.866 36.0667 101.4 34.8533 101.333 33.28C101.32 33.1467 101.313 32.98 101.313 32.78C101.313 32.5667 101.32 32.4 101.333 32.28C101.386 31.2667 101.613 30.4 102.013 29.68C102.426 28.9467 102.993 28.3867 103.713 28C104.433 27.6 105.28 27.4 106.253 27.4C107.333 27.4 108.24 27.6267 108.973 28.08C109.706 28.52 110.26 29.14 110.633 29.94C111.006 30.7267 111.193 31.64 111.193 32.68V33.1C111.193 33.2333 111.146 33.3467 111.053 33.44C110.96 33.5333 110.84 33.58 110.693 33.58H104.053C104.053 33.58 104.053 33.6 104.053 33.64C104.053 33.68 104.053 33.7133 104.053 33.74C104.066 34.2067 104.153 34.64 104.313 35.04C104.486 35.4267 104.733 35.74 105.053 35.98C105.386 36.22 105.78 36.34 106.233 36.34C106.606 36.34 106.92 36.2867 107.173 36.18C107.426 36.06 107.633 35.9267 107.793 35.78C107.953 35.6333 108.066 35.5133 108.133 35.42C108.253 35.26 108.346 35.1667 108.413 35.14C108.493 35.1 108.606 35.08 108.753 35.08H110.473C110.606 35.08 110.713 35.12 110.793 35.2C110.886 35.28 110.926 35.38 110.913 35.5C110.9 35.7133 110.786 35.9733 110.573 36.28C110.373 36.5867 110.08 36.8867 109.693 37.18C109.306 37.4733 108.82 37.72 108.233 37.92C107.66 38.1067 107 38.2 106.253 38.2ZM104.053 31.9H108.473V31.84C108.473 31.32 108.386 30.8667 108.213 30.48C108.04 30.08 107.786 29.7733 107.453 29.56C107.12 29.3333 106.72 29.22 106.253 29.22C105.786 29.22 105.386 29.3333 105.053 29.56C104.72 29.7733 104.466 30.08 104.293 30.48C104.133 30.8667 104.053 31.32 104.053 31.84V31.9ZM117.256 38.2C116.456 38.2 115.769 38.1067 115.196 37.92C114.636 37.7333 114.176 37.5 113.816 37.22C113.456 36.94 113.189 36.66 113.016 36.38C112.843 36.1 112.749 35.8667 112.736 35.68C112.723 35.5333 112.763 35.42 112.856 35.34C112.963 35.2467 113.076 35.2 113.196 35.2H114.776C114.829 35.2 114.876 35.2067 114.916 35.22C114.956 35.2333 115.009 35.2733 115.076 35.34C115.249 35.4867 115.429 35.64 115.616 35.8C115.816 35.96 116.049 36.1 116.316 36.22C116.583 36.3267 116.916 36.38 117.316 36.38C117.836 36.38 118.269 36.28 118.616 36.08C118.976 35.8667 119.156 35.5667 119.156 35.18C119.156 34.9 119.076 34.6733 118.916 34.5C118.769 34.3267 118.489 34.1733 118.076 34.04C117.663 33.8933 117.076 33.74 116.316 33.58C115.569 33.4067 114.949 33.1867 114.456 32.92C113.963 32.6533 113.596 32.32 113.356 31.92C113.116 31.52 112.996 31.0533 112.996 30.52C112.996 30 113.149 29.5067 113.456 29.04C113.776 28.56 114.243 28.1667 114.856 27.86C115.483 27.5533 116.256 27.4 117.176 27.4C117.896 27.4 118.523 27.4933 119.056 27.68C119.589 27.8533 120.029 28.0733 120.376 28.34C120.736 28.6067 121.009 28.88 121.196 29.16C121.383 29.4267 121.483 29.66 121.496 29.86C121.509 30.0067 121.469 30.1267 121.376 30.22C121.283 30.3 121.176 30.34 121.056 30.34H119.576C119.509 30.34 119.449 30.3267 119.396 30.3C119.343 30.2733 119.289 30.24 119.236 30.2C119.089 30.0667 118.929 29.9267 118.756 29.78C118.583 29.62 118.369 29.4867 118.116 29.38C117.876 29.2733 117.556 29.22 117.156 29.22C116.649 29.22 116.263 29.3333 115.996 29.56C115.729 29.7733 115.596 30.0467 115.596 30.38C115.596 30.6067 115.656 30.8067 115.776 30.98C115.909 31.14 116.169 31.2933 116.556 31.44C116.943 31.5867 117.529 31.74 118.316 31.9C119.209 32.06 119.916 32.3 120.436 32.62C120.969 32.9267 121.343 33.2867 121.556 33.7C121.783 34.1 121.896 34.5467 121.896 35.04C121.896 35.64 121.716 36.18 121.356 36.66C121.009 37.14 120.489 37.52 119.796 37.8C119.116 38.0667 118.269 38.2 117.256 38.2ZM128.622 38C127.822 38 127.148 37.86 126.602 37.58C126.055 37.3 125.648 36.8867 125.382 36.34C125.115 35.78 124.982 35.0867 124.982 34.26V29.72H123.402C123.268 29.72 123.155 29.6733 123.062 29.58C122.968 29.4867 122.922 29.3667 122.922 29.22V28.08C122.922 27.9467 122.968 27.8333 123.062 27.74C123.155 27.6467 123.268 27.6 123.402 27.6H124.982V24.28C124.982 24.1467 125.022 24.0333 125.102 23.94C125.195 23.8467 125.315 23.8 125.462 23.8H127.082C127.215 23.8 127.328 23.8467 127.422 23.94C127.515 24.0333 127.562 24.1467 127.562 24.28V27.6H130.062C130.195 27.6 130.308 27.6467 130.402 27.74C130.495 27.8333 130.542 27.9467 130.542 28.08V29.22C130.542 29.3667 130.495 29.4867 130.402 29.58C130.308 29.6733 130.195 29.72 130.062 29.72H127.562V34.06C127.562 34.6067 127.655 35.0333 127.842 35.34C128.042 35.6467 128.382 35.8 128.862 35.8H130.242C130.375 35.8 130.488 35.8467 130.582 35.94C130.675 36.0333 130.722 36.1467 130.722 36.28V37.52C130.722 37.6533 130.675 37.7667 130.582 37.86C130.488 37.9533 130.375 38 130.242 38H128.622ZM135.516 38.2C134.822 38.2 134.196 38.0667 133.636 37.8C133.076 37.52 132.629 37.1533 132.296 36.7C131.976 36.2333 131.816 35.7133 131.816 35.14C131.816 34.2067 132.196 33.4667 132.956 32.92C133.716 32.36 134.709 31.9867 135.936 31.8L138.676 31.4V30.98C138.676 30.42 138.536 29.9867 138.256 29.68C137.976 29.3733 137.496 29.22 136.816 29.22C136.336 29.22 135.942 29.32 135.636 29.52C135.342 29.7067 135.122 29.96 134.976 30.28C134.869 30.4533 134.716 30.54 134.516 30.54H132.936C132.789 30.54 132.676 30.5 132.596 30.42C132.529 30.34 132.496 30.2333 132.496 30.1C132.509 29.8867 132.596 29.6267 132.756 29.32C132.929 29.0133 133.182 28.72 133.516 28.44C133.862 28.1467 134.309 27.9 134.856 27.7C135.402 27.5 136.062 27.4 136.836 27.4C137.676 27.4 138.382 27.5067 138.956 27.72C139.542 27.92 140.009 28.1933 140.356 28.54C140.702 28.8867 140.956 29.2933 141.116 29.76C141.276 30.2267 141.356 30.72 141.356 31.24V37.52C141.356 37.6533 141.309 37.7667 141.216 37.86C141.122 37.9533 141.009 38 140.876 38H139.256C139.109 38 138.989 37.9533 138.896 37.86C138.816 37.7667 138.776 37.6533 138.776 37.52V36.74C138.602 36.98 138.369 37.2133 138.076 37.44C137.782 37.6667 137.422 37.8533 136.996 38C136.582 38.1333 136.089 38.2 135.516 38.2ZM136.196 36.3C136.662 36.3 137.082 36.2 137.456 36C137.842 35.8 138.142 35.4933 138.356 35.08C138.582 34.6533 138.696 34.12 138.696 33.48V33.06L136.696 33.38C135.909 33.5 135.322 33.6933 134.936 33.96C134.549 34.2267 134.356 34.5533 134.356 34.94C134.356 35.2333 134.442 35.4867 134.616 35.7C134.802 35.9 135.036 36.0533 135.316 36.16C135.596 36.2533 135.889 36.3 136.196 36.3ZM145.528 41.8C145.421 41.8 145.328 41.76 145.248 41.68C145.168 41.6 145.128 41.5067 145.128 41.4C145.128 41.3467 145.128 41.2933 145.128 41.24C145.141 41.2 145.168 41.1467 145.208 41.08L146.768 37.38L142.928 28.32C142.875 28.1867 142.848 28.0933 142.848 28.04C142.861 27.92 142.908 27.82 142.988 27.74C143.068 27.6467 143.168 27.6 143.288 27.6H144.908C145.068 27.6 145.188 27.64 145.268 27.72C145.348 27.8 145.408 27.8867 145.448 27.98L148.108 34.52L150.848 27.98C150.888 27.8733 150.948 27.7867 151.028 27.72C151.108 27.64 151.228 27.6 151.388 27.6H152.988C153.095 27.6 153.188 27.64 153.268 27.72C153.361 27.8 153.408 27.8933 153.408 28C153.408 28.08 153.381 28.1867 153.328 28.32L147.668 41.42C147.615 41.5267 147.548 41.6133 147.468 41.68C147.388 41.76 147.268 41.8 147.108 41.8H145.528Z" fill="#333242"/>
<path d="M23 27.9609C23 27.1087 23.3805 26.301 24.0377 25.7584L31.4313 19.6537C32.4839 18.7847 34.0042 18.7818 35.0601 19.6469L42.5188 25.7581C43.181 26.3006 43.5649 27.1115 43.5649 27.9675V39.8214C43.5649 41.3989 42.2861 42.6777 40.7086 42.6777H25.8562C24.2788 42.6777 23 41.3989 23 39.8214V27.9609Z" fill="#292833"/>
<path fill-rule="evenodd" clip-rule="evenodd" d="M42.4224 39.8214V27.9675C42.4224 27.4539 42.192 26.9674 41.7948 26.6418L34.336 20.5306C33.7025 20.0116 32.7903 20.0133 32.1588 20.5347L24.7651 26.6394C24.3708 26.9649 24.1425 27.4495 24.1425 27.9609V39.8214C24.1425 40.7679 24.9098 41.5352 25.8562 41.5352H40.7086C41.6551 41.5352 42.4224 40.7679 42.4224 39.8214ZM24.0377 25.7584C23.3805 26.301 23 27.1087 23 27.9609V39.8214C23 41.3989 24.2788 42.6777 25.8562 42.6777H40.7086C42.2861 42.6777 43.5649 41.3989 43.5649 39.8214V27.9675C43.5649 27.1115 43.181 26.3006 42.5188 25.7581L35.0601 19.6469C34.0042 18.7818 32.4839 18.7847 31.4313 19.6537L24.0377 25.7584Z" fill="#292833"/>
<path fill-rule="evenodd" clip-rule="evenodd" d="M33.2821 28.0889C33.9131 28.0889 34.4246 28.6004 34.4246 29.2314V34.7681C34.4246 35.399 33.9131 35.9106 33.2821 35.9106C32.6512 35.9106 32.1396 35.399 32.1396 34.7681V29.2314C32.1396 28.6004 32.6512 28.0889 33.2821 28.0889Z" fill="white"/>
<defs>
<clipPath id="clip0_693:3297">
<rect width="41.5319" height="41.5319" fill="white" transform="translate(214.383 271.383)"/>
</clipPath>
<clipPath id="clip1_693:3297">
<rect width="24" height="24" fill="white" transform="translate(288 13)"/>
</clipPath>
</defs>
</svg>