<svg width="46" height="47" viewBox="0 0 46 47" fill="none" xmlns="http://www.w3.org/2000/svg">
<ellipse rx="22.8308" ry="23.1875" transform="matrix(1 0 0 -1 22.8308 23.1875)" fill="#94E2BF"/>
<path d="M14.6719 18.5312C16.1303 18.5312 17.3125 17.349 17.3125 15.8906C17.3125 14.4322 16.1303 13.25 14.6719 13.25C13.2135 13.25 12.0312 14.4322 12.0312 15.8906C12.0312 17.349 13.2135 18.5312 14.6719 18.5312Z" fill="#292833"/>
<path d="M31.3281 18.5312C32.7865 18.5312 33.9688 17.349 33.9688 15.8906C33.9688 14.4322 32.7865 13.25 31.3281 13.25C29.8697 13.25 28.6875 14.4322 28.6875 15.8906C28.6875 17.349 29.8697 18.5312 31.3281 18.5312Z" fill="#292833"/>
<path d="M22.4483 25.9607C21.029 25.1913 19.8113 24.0977 18.8944 22.7688C17.7781 21.2844 16.6239 19.75 14.0625 19.75C13.0931 19.7511 12.1638 20.1366 11.4783 20.8221C10.7929 21.5075 10.4073 22.4369 10.4062 23.4062V32.75C10.4062 32.8577 10.4491 32.9611 10.5252 33.0373C10.6014 33.1134 10.7048 33.1562 10.8125 33.1562H17.3125C17.4202 33.1562 17.5236 33.1134 17.5998 33.0373C17.6759 32.9611 17.7188 32.8577 17.7188 32.75V25.1227C18.8411 26.1673 20.1066 27.0467 21.477 27.7344C21.6318 27.8227 21.8062 27.871 21.9844 27.875C22.2119 27.8755 22.433 27.7994 22.6119 27.659C22.7909 27.5185 22.9174 27.3219 22.971 27.1008C23.0246 26.8797 23.0022 26.6469 22.9073 26.4401C22.8125 26.2333 22.6508 26.0644 22.4483 25.9607Z" fill="#292833"/>
<path d="M31.9374 19.75C29.3781 19.75 28.2219 21.2844 27.1055 22.7688C26.2631 23.9739 25.1784 24.99 23.9209 25.7519C24.1066 26.0724 24.2089 26.4343 24.2184 26.8045C24.2278 27.1748 24.1441 27.5415 23.9749 27.8709C23.9887 27.8709 24.0021 27.875 24.0156 27.875C24.1937 27.871 24.3681 27.8227 24.523 27.7344C25.8934 27.0467 27.1588 26.1673 28.2812 25.1227V32.75C28.2812 32.8577 28.324 32.9611 28.4002 33.0373C28.4764 33.1134 28.5797 33.1562 28.6874 33.1562H35.1874C35.2952 33.1562 35.3985 33.1134 35.4747 33.0373C35.5509 32.9611 35.5937 32.8577 35.5937 32.75V23.4062C35.5926 22.4369 35.207 21.5075 34.5216 20.8221C33.8362 20.1366 32.9068 19.7511 31.9374 19.75Z" fill="#292833"/>
</svg>
