<svg width="354" height="312" viewBox="0 0 354 312" fill="none" xmlns="http://www.w3.org/2000/svg">
<path d="M313 210C313 263.572 269.572 307 216 307H66C51.0883 307 39 294.912 39 280V140C39 79.2487 88.2487 30 149 30H286C300.912 30 313 42.0883 313 57V210Z" fill="#2F2E4B" stroke="#272233" stroke-width="10"/>
<mask id="mask0_1067_306" style="mask-type:alpha" maskUnits="userSpaceOnUse" x="48" y="43" width="256" height="259">
<path fill-rule="evenodd" clip-rule="evenodd" d="M216 302H66C56.0589 302 48 293.941 48 284V144C48 88.2192 93.2192 43 149 43H286C295.941 43 304 51.0589 304 61V214C304 262.601 264.601 302 216 302Z" fill="#A77AE1"/>
</mask>
<g mask="url(#mask0_1067_306)">
<path d="M40.0292 315.414C42.3949 311.485 44.99 307.699 47.8014 304.075C51.6591 299.535 60.4401 295.747 63.9737 291C70.4458 280.456 70.8634 265.007 71.5001 256.546C71.4675 246.825 70.2355 237.136 71.5001 227.417C73.5995 210.6 79.7566 203.611 84.6421 197.644C91.7647 190.247 104.876 177.884 117.854 150.021C106.885 179.109 94.3736 190.708 89.3384 197.787C84.732 203.982 76.2972 216.736 75.6194 233.677C75.1759 243.47 77.6491 257.817 78.5 267.5C78.3479 277.192 76.4061 289.453 71.5001 297C70.5186 300.496 61.5753 306.284 59.0004 315.414L241.5 311C153 282.086 276 161.5 219 94.5C208 81.5703 178 71 163 83.4999C150.5 83.4999 143.795 94.8243 134.5 108.5C131.781 112.5 130.332 119.191 128 123.5C111.615 175.228 88.7028 189.036 80.7687 197.451C75.8825 203.418 66.9468 210.599 64.8478 227.417C63.5836 237.135 63.9389 246.824 63.9737 256.546C63.3349 265.006 61.5229 279.161 55.0497 289.706C51.5169 294.452 47.7951 299.198 43.9367 303.739C41.0017 307.426 38.3487 311.329 36.0001 315.415L40.0292 315.414Z" fill="#131226"/>
<path d="M250.626 230.082C250.439 230.041 201.513 216 201.513 216H158.487C158.487 216 109.561 230.041 109.373 230.082C80.6795 241.276 77.6591 276.767 64 304H296C282.341 276.766 279.32 241.277 250.626 230.082Z" fill="#F7A664"/>
<path d="M157 179.167L210.953 178L208.961 207.869L207.877 216.206C206.518 226.67 197.604 234.5 187.052 234.5H180.219C168.378 234.5 158.661 225.128 158.234 213.295L157 179.167Z" fill="#9C6A3D"/>
<path d="M185.837 191.342C200.617 184.408 208.348 178.331 211.5 172.5L210.5 184.5C210.5 184.5 197 204 185.5 206.5C174 209 157 183.5 157 183.5V177L171 187.5L185.145 191.402C185.374 191.465 185.622 191.443 185.837 191.342Z" fill="#865B32"/>
<path d="M149.795 112.41C149.583 115.344 149.795 136.705 149.795 136.705C145.507 135.752 136.758 139 138.5 145.756C139.65 150.215 146.301 159.095 151.224 163.858C151.224 182.5 176.383 198.5 183 198.5C190.883 198.5 216.011 178.15 216.011 162.429C219.028 159.889 225.443 152.997 226.968 145.756C228.492 138.515 222.288 134 218 134L216.011 116.697C198.5 94 156.94 102.49 154.082 100.976C151.224 99.4632 150.173 107.169 149.795 112.41Z" fill="#9C6A3D"/>
<path d="M142.031 144.5C141.724 142.66 143.749 140.506 145.988 139.527C147.042 139.065 148.031 139.97 148.031 141.121V153.258C148.031 154.242 146.8 154.607 146.298 153.761C144.278 150.353 142.341 146.363 142.031 144.5Z" fill="#865B32"/>
<path d="M169.5 110C169.5 113.2 156.167 124.667 149.5 130V126V121.5L167.5 102L178.5 107.5C185.5 109 199.6 112 200 112C200.5 112 213 121 214.5 121.5C215.7 121.9 216 133.667 216 139.5C215.333 133.667 210.5 121.6 196.5 120C182.5 118.4 172.667 112.667 169.5 110Z" fill="#865B32"/>
<path d="M169.5 104C165.1 111.2 153.333 121.667 148 126L144 113.5L148 93L210 90L229 145L211 178C212 167 227.5 119 199.5 116C187.145 114.676 174.333 108.333 169.5 104Z" fill="#131226"/>
<path d="M152.615 228.492C148.836 222.785 154.631 220.01 151.559 216.906L148.414 213.433C148.414 213.433 158.421 205.445 153.245 200.535C147.693 195.264 133.725 209.243 133.725 209.243C133.725 209.243 127.218 214.516 124.825 217.528C124.316 205.468 125.206 196.676 119.292 197.758L119.074 197.797C113.181 199.116 114.144 206.827 114.601 223.817C114.364 229.827 114.601 232 114.601 232C114.601 232 88 279.5 75.7832 295.84C63.799 309.391 -0.0718739 369.62 42.4269 390.198C77.8778 407.388 100.528 326.08 114.601 299.5C118.661 291.835 135 255 135 255C135 255 152.682 245.284 154.033 240.275C154.498 238.883 154.447 237.369 153.888 236.011C153.156 234.436 154.105 230.752 152.615 228.492Z" fill="#9C6A3D"/>
<path d="M167.139 233.44L161.317 163.227C161.255 162.481 161.047 161.755 160.705 161.089C160.362 160.424 159.892 159.833 159.32 159.349C158.749 158.866 158.088 158.5 157.375 158.272C156.662 158.044 155.911 157.959 155.165 158.021L121.938 160.773C121.192 160.834 120.466 161.042 119.8 161.385C119.135 161.727 118.543 162.197 118.059 162.768C117.576 163.339 117.21 164 116.981 164.713C116.753 165.426 116.668 166.176 116.731 166.922L119.292 197.784C125.225 196.677 124.316 205.468 124.825 217.555C127.218 214.556 133.724 209.27 133.724 209.27C133.724 209.27 147.693 195.303 153.245 200.562C158.42 205.471 148.413 213.46 148.413 213.46L151.558 216.933C154.631 220.036 148.836 222.812 152.614 228.518C154.105 230.779 153.156 234.45 153.888 236.005C154.447 237.363 154.498 238.876 154.033 240.269L161.944 239.609C162.691 239.546 163.418 239.336 164.083 238.992C164.749 238.647 165.34 238.175 165.822 237.602C166.305 237.029 166.669 236.366 166.895 235.652C167.121 234.938 167.204 234.186 167.139 233.44Z" fill="#EBEBEB"/>
<line x1="162.5" y1="151.5" x2="166.5" y2="151.5" stroke="#875223" stroke-width="3" stroke-linecap="round"/>
<line x1="162.5" y1="151.5" x2="166.5" y2="151.5" stroke="#875223" stroke-width="3" stroke-linecap="round"/>
<line x1="199.5" y1="151.5" x2="203.5" y2="151.5" stroke="#875223" stroke-width="3" stroke-linecap="round"/>
<line x1="199.5" y1="151.5" x2="203.5" y2="151.5" stroke="#875223" stroke-width="3" stroke-linecap="round"/>
<path d="M157 135.5C159.5 134.726 162.5 133.726 170.5 132" stroke="#523A25" stroke-width="3" stroke-linecap="round"/>
<path d="M209.5 135.5C205 134.226 199.5 132.726 196 132" stroke="#523A25" stroke-width="3" stroke-linecap="round"/>
<path d="M207.198 144.215C205.902 145.204 201.821 146.478 195.866 143.661" stroke="#281C11" stroke-width="3" stroke-linecap="round"/>
<path d="M158.799 144.015C160.06 145.049 164.095 146.465 170.145 143.858" stroke="#281C11" stroke-width="3" stroke-linecap="round"/>
<path d="M183.666 141L183.666 159.531C183.666 160.084 183.218 160.537 182.666 160.525C181.689 160.503 181.038 160.409 179.5 160" stroke="#523A25" stroke-width="3" stroke-linecap="round"/>
<path d="M176.5 172.394C179 168 185.5 168 188.5 172.394" stroke="#523A25" stroke-width="3" stroke-linecap="round"/>
</g>
<path d="M338 118L345 125.971L338 133.942L345 141.188L338 149.884L345 154.957L338 161.478L345 168" stroke="#272634" stroke-width="2"/>
<path d="M236 9L243.971 2L251.942 9L259.188 2" stroke="#272634" stroke-width="2"/>
<path d="M12 275L18 280.5L12 286" stroke="#272634" stroke-width="2"/>
<path d="M9 280L3 274.5L9 269" stroke="#272634" stroke-width="2"/>
<path d="M304 300H294C293.448 300 293 300.448 293 301V311C293 311.552 293.448 312 294 312H304C304.552 312 305 311.552 305 311V301C305 300.448 304.552 300 304 300Z" fill="#272634"/>
<path d="M34 51L38 55L48 45" stroke="#272634" stroke-width="2" stroke-linecap="round" stroke-linejoin="round"/>
<rect x="10" y="185" width="57" height="35" rx="9" fill="#424158"/>
<path d="M50.866 224.5C50.4811 225.167 49.5189 225.167 49.134 224.5L45.6699 218.5C45.285 217.833 45.7661 217 46.5359 217L53.4641 217C54.2339 217 54.715 217.833 54.3301 218.5L50.866 224.5Z" fill="#424158"/>
<line x1="23" y1="198" x2="55" y2="198" stroke="#A19EDC" stroke-width="4" stroke-linecap="round"/>
<line x1="23" y1="208" x2="40" y2="208" stroke="#272634" stroke-width="4" stroke-linecap="round"/>
<rect y="122" width="86" height="33" rx="6" fill="#424158"/>
<g clip-path="url(#clip0_1067_306)">
<path d="M44 130C42.22 130 40.4799 130.528 38.9999 131.517C37.5198 132.506 36.3663 133.911 35.6851 135.556C35.0039 137.2 34.8257 139.01 35.1729 140.756C35.5202 142.502 36.3774 144.105 37.636 145.364C38.8947 146.623 40.4984 147.48 42.2442 147.827C43.99 148.174 45.7996 147.996 47.4442 147.315C49.0887 146.634 50.4943 145.48 51.4832 144C52.4722 142.52 53 140.78 53 139C53 136.613 52.0518 134.324 50.364 132.636C48.6761 130.948 46.387 130 44 130V130ZM39.5 137.875C39.5 137.652 39.566 137.435 39.6896 137.25C39.8132 137.065 39.9889 136.921 40.1945 136.836C40.4001 136.75 40.6263 136.728 40.8445 136.772C41.0627 136.815 41.2632 136.922 41.4205 137.08C41.5778 137.237 41.685 137.437 41.7284 137.656C41.7718 137.874 41.7495 138.1 41.6644 138.306C41.5792 138.511 41.435 138.687 41.25 138.81C41.065 138.934 40.8475 139 40.625 139C40.3266 139 40.0405 138.881 39.8295 138.67C39.6185 138.46 39.5 138.173 39.5 137.875ZM47.4104 142.656C47.0649 143.255 46.5678 143.752 45.9692 144.098C45.3705 144.444 44.6913 144.626 44 144.626C43.3087 144.626 42.6295 144.444 42.0309 144.098C41.4322 143.752 40.9351 143.255 40.5896 142.656L40.3083 142.169L41.282 141.607L41.5633 142.093C41.81 142.521 42.1651 142.876 42.5928 143.124C43.0205 143.371 43.5058 143.501 43.9997 143.501C44.4937 143.501 44.9789 143.371 45.4066 143.124C45.8344 142.876 46.1894 142.521 46.4362 142.093L46.7174 141.607L47.6911 142.169L47.4104 142.656ZM47.375 139C47.1525 139 46.935 138.934 46.75 138.81C46.565 138.687 46.4208 138.511 46.3356 138.306C46.2505 138.1 46.2282 137.874 46.2716 137.656C46.315 137.437 46.4222 137.237 46.5795 137.08C46.7368 136.922 46.9373 136.815 47.1555 136.772C47.3738 136.728 47.6 136.75 47.8055 136.836C48.0111 136.921 48.1868 137.065 48.3104 137.25C48.434 137.435 48.5 137.652 48.5 137.875C48.5 138.173 48.3815 138.46 48.1705 138.67C47.9595 138.881 47.6734 139 47.375 139Z" fill="#272634"/>
</g>
<g clip-path="url(#clip1_1067_306)">
<path d="M19 130C17.22 130 15.4799 130.528 13.9999 131.517C12.5198 132.506 11.3663 133.911 10.6851 135.556C10.0039 137.2 9.82567 139.01 10.1729 140.756C10.5202 142.502 11.3774 144.105 12.636 145.364C13.8947 146.623 15.4984 147.48 17.2442 147.827C18.99 148.174 20.7996 147.996 22.4442 147.315C24.0887 146.634 25.4943 145.48 26.4832 144C27.4722 142.52 28 140.78 28 139C28 136.613 27.0518 134.324 25.364 132.636C23.6761 130.948 21.387 130 19 130V130ZM14.5 137.875C14.5 137.652 14.566 137.435 14.6896 137.25C14.8132 137.065 14.9889 136.921 15.1945 136.836C15.4001 136.75 15.6263 136.728 15.8445 136.772C16.0627 136.815 16.2632 136.922 16.4205 137.08C16.5778 137.237 16.685 137.437 16.7284 137.656C16.7718 137.874 16.7495 138.1 16.6644 138.306C16.5792 138.511 16.435 138.687 16.25 138.81C16.065 138.934 15.8475 139 15.625 139C15.3266 139 15.0405 138.881 14.8295 138.67C14.6185 138.46 14.5 138.173 14.5 137.875ZM16.3405 143.62L16.0677 142.529L21.6589 141.13L21.9323 142.221L16.3405 143.62ZM22.375 139C22.1525 139 21.935 138.934 21.75 138.81C21.565 138.687 21.4208 138.511 21.3356 138.306C21.2505 138.1 21.2282 137.874 21.2716 137.656C21.315 137.437 21.4222 137.237 21.5795 137.08C21.7368 136.922 21.9373 136.815 22.1555 136.772C22.3738 136.728 22.6 136.75 22.8055 136.836C23.0111 136.921 23.1868 137.065 23.3104 137.25C23.434 137.435 23.5 137.652 23.5 137.875C23.5 138.173 23.3815 138.46 23.1705 138.67C22.9595 138.881 22.6734 139 22.375 139Z" fill="#272634"/>
</g>
<g clip-path="url(#clip2_1067_306)">
<path d="M69 130C67.22 130 65.4799 130.528 63.9999 131.517C62.5198 132.506 61.3663 133.911 60.6851 135.556C60.0039 137.2 59.8257 139.01 60.1729 140.756C60.5202 142.502 61.3774 144.105 62.636 145.364C63.8947 146.623 65.4984 147.48 67.2442 147.827C68.99 148.174 70.7996 147.996 72.4442 147.315C74.0887 146.634 75.4943 145.48 76.4832 144C77.4722 142.52 78 140.78 78 139C78 136.613 77.0518 134.324 75.364 132.636C73.6761 130.948 71.387 130 69 130V130ZM63.9375 137.312H67.3125V138.438H63.9375V137.312ZM65.625 144.062C65.625 143.167 65.9806 142.309 66.6135 141.676C67.2465 141.043 68.1049 140.688 69 140.688C69.8951 140.688 70.7536 141.043 71.3865 141.676C72.0194 142.309 72.375 143.167 72.375 144.062H65.625ZM74.0625 138.438H70.6875V137.312H74.0625V138.438Z" fill="#A19EDC"/>
</g>
<rect x="270" y="145" width="57" height="52" rx="6" fill="#424158"/>
<path d="M312.75 159.75L307.75 159.75L307.75 174.75L312.75 174.75L312.75 159.75ZM285.25 173.5C285.25 174.881 286.369 176 287.75 176L295.644 176L294.45 181.713C294.425 181.838 294.406 181.969 294.406 182.106C294.406 182.625 294.619 183.094 294.956 183.431L296.288 184.75L304.519 176.519C304.969 176.062 305.25 175.437 305.25 174.75L305.25 162.25C305.25 160.869 304.131 159.75 302.75 159.75L291.5 159.75C290.462 159.75 289.575 160.381 289.2 161.275L285.431 170.088C285.319 170.375 285.25 170.681 285.25 171L285.25 173.394L285.263 173.406L285.25 173.5Z" fill="#A19EDC"/>
<path d="M299.866 202.5C299.481 203.167 298.519 203.167 298.134 202.5L294.67 196.5C294.285 195.833 294.766 195 295.536 195L302.464 195C303.234 195 303.715 195.833 303.33 196.5L299.866 202.5Z" fill="#424158"/>
<rect x="15" y="25" width="141" height="51" rx="10" fill="#46455F"/>
<path d="M34.428 47C34.3347 47 34.2553 46.9673 34.19 46.902C34.1247 46.8367 34.092 46.7573 34.092 46.664V37.55C34.092 37.4473 34.1247 37.3633 34.19 37.298C34.2553 37.2327 34.3347 37.2 34.428 37.2H40.504C40.6067 37.2 40.6907 37.2327 40.756 37.298C40.8213 37.3633 40.854 37.4473 40.854 37.55V38.53C40.854 38.6327 40.8213 38.7167 40.756 38.782C40.6907 38.838 40.6067 38.866 40.504 38.866H36.01V41.526H40.224C40.3267 41.526 40.4107 41.5587 40.476 41.624C40.5413 41.6893 40.574 41.7733 40.574 41.876V42.856C40.574 42.9493 40.5413 43.0287 40.476 43.094C40.4107 43.1593 40.3267 43.192 40.224 43.192H36.01V46.664C36.01 46.7573 35.9773 46.8367 35.912 46.902C35.8467 46.9673 35.7627 47 35.66 47H34.428ZM45.3315 47.14C44.2955 47.14 43.4742 46.8413 42.8675 46.244C42.2608 45.6467 41.9342 44.7973 41.8875 43.696C41.8782 43.6027 41.8735 43.486 41.8735 43.346C41.8735 43.1967 41.8782 43.08 41.8875 42.996C41.9248 42.2867 42.0835 41.68 42.3635 41.176C42.6528 40.6627 43.0495 40.2707 43.5535 40C44.0575 39.72 44.6502 39.58 45.3315 39.58C46.0875 39.58 46.7222 39.7387 47.2355 40.056C47.7488 40.364 48.1362 40.798 48.3975 41.358C48.6588 41.9087 48.7895 42.548 48.7895 43.276V43.57C48.7895 43.6633 48.7568 43.7427 48.6915 43.808C48.6262 43.8733 48.5422 43.906 48.4395 43.906H43.7915C43.7915 43.906 43.7915 43.92 43.7915 43.948C43.7915 43.976 43.7915 43.9993 43.7915 44.018C43.8008 44.3447 43.8615 44.648 43.9735 44.928C44.0948 45.1987 44.2675 45.418 44.4915 45.586C44.7248 45.754 45.0002 45.838 45.3175 45.838C45.5788 45.838 45.7982 45.8007 45.9755 45.726C46.1528 45.642 46.2975 45.5487 46.4095 45.446C46.5215 45.3433 46.6008 45.2593 46.6475 45.194C46.7315 45.082 46.7968 45.0167 46.8435 44.998C46.8995 44.97 46.9788 44.956 47.0815 44.956H48.2855C48.3788 44.956 48.4535 44.984 48.5095 45.04C48.5748 45.096 48.6028 45.166 48.5935 45.25C48.5842 45.3993 48.5048 45.5813 48.3555 45.796C48.2155 46.0107 48.0102 46.2207 47.7395 46.426C47.4688 46.6313 47.1282 46.804 46.7175 46.944C46.3162 47.0747 45.8542 47.14 45.3315 47.14ZM43.7915 42.73H46.8855V42.688C46.8855 42.324 46.8248 42.0067 46.7035 41.736C46.5822 41.456 46.4048 41.2413 46.1715 41.092C45.9382 40.9333 45.6582 40.854 45.3315 40.854C45.0048 40.854 44.7248 40.9333 44.4915 41.092C44.2582 41.2413 44.0808 41.456 43.9595 41.736C43.8475 42.0067 43.7915 42.324 43.7915 42.688V42.73ZM53.4116 47.14C52.3756 47.14 51.5542 46.8413 50.9476 46.244C50.3409 45.6467 50.0142 44.7973 49.9676 43.696C49.9582 43.6027 49.9536 43.486 49.9536 43.346C49.9536 43.1967 49.9582 43.08 49.9676 42.996C50.0049 42.2867 50.1636 41.68 50.4436 41.176C50.7329 40.6627 51.1296 40.2707 51.6336 40C52.1376 39.72 52.7302 39.58 53.4116 39.58C54.1676 39.58 54.8022 39.7387 55.3156 40.056C55.8289 40.364 56.2162 40.798 56.4776 41.358C56.7389 41.9087 56.8696 42.548 56.8696 43.276V43.57C56.8696 43.6633 56.8369 43.7427 56.7716 43.808C56.7062 43.8733 56.6222 43.906 56.5196 43.906H51.8716C51.8716 43.906 51.8716 43.92 51.8716 43.948C51.8716 43.976 51.8716 43.9993 51.8716 44.018C51.8809 44.3447 51.9416 44.648 52.0536 44.928C52.1749 45.1987 52.3476 45.418 52.5716 45.586C52.8049 45.754 53.0802 45.838 53.3976 45.838C53.6589 45.838 53.8782 45.8007 54.0556 45.726C54.2329 45.642 54.3776 45.5487 54.4896 45.446C54.6016 45.3433 54.6809 45.2593 54.7276 45.194C54.8116 45.082 54.8769 45.0167 54.9236 44.998C54.9796 44.97 55.0589 44.956 55.1616 44.956H56.3656C56.4589 44.956 56.5336 44.984 56.5896 45.04C56.6549 45.096 56.6829 45.166 56.6736 45.25C56.6642 45.3993 56.5849 45.5813 56.4356 45.796C56.2956 46.0107 56.0902 46.2207 55.8196 46.426C55.5489 46.6313 55.2082 46.804 54.7976 46.944C54.3962 47.0747 53.9342 47.14 53.4116 47.14ZM51.8716 42.73H54.9656V42.688C54.9656 42.324 54.9049 42.0067 54.7836 41.736C54.6622 41.456 54.4849 41.2413 54.2516 41.092C54.0182 40.9333 53.7382 40.854 53.4116 40.854C53.0849 40.854 52.8049 40.9333 52.5716 41.092C52.3382 41.2413 52.1609 41.456 52.0396 41.736C51.9276 42.0067 51.8716 42.324 51.8716 42.688V42.73ZM58.7056 47C58.6123 47 58.533 46.9673 58.4676 46.902C58.4023 46.8367 58.3696 46.7573 58.3696 46.664V37.396C58.3696 37.3027 58.4023 37.2233 58.4676 37.158C58.533 37.0927 58.6123 37.06 58.7056 37.06H59.8676C59.961 37.06 60.0403 37.0927 60.1056 37.158C60.171 37.2233 60.2036 37.3027 60.2036 37.396V46.664C60.2036 46.7573 60.171 46.8367 60.1056 46.902C60.0403 46.9673 59.961 47 59.8676 47H58.7056ZM62.3967 47C62.3034 47 62.2241 46.9673 62.1587 46.902C62.0934 46.8367 62.0607 46.7573 62.0607 46.664V40.056C62.0607 39.9627 62.0934 39.8833 62.1587 39.818C62.2241 39.7527 62.3034 39.72 62.3967 39.72H63.5587C63.6614 39.72 63.7407 39.7527 63.7967 39.818C63.8621 39.8833 63.8947 39.9627 63.8947 40.056V46.664C63.8947 46.7573 63.8621 46.8367 63.7967 46.902C63.7407 46.9673 63.6614 47 63.5587 47H62.3967ZM62.3407 38.516C62.2474 38.516 62.1681 38.4833 62.1027 38.418C62.0374 38.3527 62.0047 38.2733 62.0047 38.18V37.172C62.0047 37.0787 62.0374 36.9993 62.1027 36.934C62.1681 36.8687 62.2474 36.836 62.3407 36.836H63.6147C63.7174 36.836 63.8014 36.8687 63.8667 36.934C63.9321 36.9993 63.9647 37.0787 63.9647 37.172V38.18C63.9647 38.2733 63.9321 38.3527 63.8667 38.418C63.8014 38.4833 63.7174 38.516 63.6147 38.516H62.3407ZM66.0881 47C65.9948 47 65.9155 46.9673 65.8501 46.902C65.7848 46.8367 65.7521 46.7573 65.7521 46.664V40.056C65.7521 39.9627 65.7848 39.8833 65.8501 39.818C65.9155 39.7527 65.9948 39.72 66.0881 39.72H67.2361C67.3295 39.72 67.4088 39.7527 67.4741 39.818C67.5395 39.8833 67.5721 39.9627 67.5721 40.056V40.63C67.8148 40.3313 68.1228 40.084 68.4961 39.888C68.8788 39.6827 69.3501 39.58 69.9101 39.58C70.4795 39.58 70.9741 39.7107 71.3941 39.972C71.8141 40.224 72.1361 40.5833 72.3601 41.05C72.5935 41.5167 72.7101 42.0767 72.7101 42.73V46.664C72.7101 46.7573 72.6775 46.8367 72.6121 46.902C72.5468 46.9673 72.4675 47 72.3741 47H71.1421C71.0488 47 70.9695 46.9673 70.9041 46.902C70.8388 46.8367 70.8061 46.7573 70.8061 46.664V42.814C70.8061 42.2727 70.6708 41.848 70.4001 41.54C70.1388 41.232 69.7561 41.078 69.2521 41.078C68.7668 41.078 68.3795 41.232 68.0901 41.54C67.8008 41.848 67.6561 42.2727 67.6561 42.814V46.664C67.6561 46.7573 67.6235 46.8367 67.5581 46.902C67.4928 46.9673 67.4135 47 67.3201 47H66.0881ZM77.7785 50.08C77.0971 50.08 76.5371 49.9913 76.0985 49.814C75.6598 49.6367 75.3145 49.422 75.0625 49.17C74.8105 48.918 74.6285 48.666 74.5165 48.414C74.4138 48.1713 74.3578 47.98 74.3485 47.84C74.3391 47.7467 74.3671 47.6627 74.4325 47.588C74.5071 47.5227 74.5911 47.49 74.6845 47.49H75.9025C75.9958 47.49 76.0705 47.5087 76.1265 47.546C76.1825 47.5927 76.2291 47.672 76.2665 47.784C76.3225 47.9053 76.3971 48.036 76.4905 48.176C76.5838 48.316 76.7238 48.4327 76.9105 48.526C77.1065 48.6287 77.3725 48.68 77.7085 48.68C78.0631 48.68 78.3618 48.6287 78.6045 48.526C78.8471 48.4233 79.0291 48.2507 79.1505 48.008C79.2811 47.7653 79.3465 47.4293 79.3465 47V46.048C79.1225 46.3187 78.8331 46.538 78.4785 46.706C78.1331 46.874 77.7038 46.958 77.1905 46.958C76.6958 46.958 76.2618 46.8787 75.8885 46.72C75.5245 46.552 75.2211 46.3233 74.9785 46.034C74.7358 45.7353 74.5491 45.3853 74.4185 44.984C74.2971 44.5827 74.2271 44.1393 74.2085 43.654C74.1991 43.402 74.1991 43.15 74.2085 42.898C74.2271 42.4313 74.2971 41.9973 74.4185 41.596C74.5491 41.1947 74.7358 40.8447 74.9785 40.546C75.2211 40.238 75.5245 40 75.8885 39.832C76.2618 39.664 76.6958 39.58 77.1905 39.58C77.7225 39.58 78.1705 39.6827 78.5345 39.888C78.8985 40.084 79.1971 40.3313 79.4305 40.63V40.07C79.4305 39.9673 79.4631 39.8833 79.5285 39.818C79.5938 39.7527 79.6731 39.72 79.7665 39.72H80.9005C80.9938 39.72 81.0731 39.7527 81.1385 39.818C81.2038 39.8833 81.2365 39.9673 81.2365 40.07L81.2505 46.818C81.2505 47.49 81.1245 48.0687 80.8725 48.554C80.6205 49.0393 80.2378 49.4127 79.7245 49.674C79.2205 49.9447 78.5718 50.08 77.7785 50.08ZM77.7085 45.474C78.0911 45.474 78.3991 45.39 78.6325 45.222C78.8658 45.054 79.0385 44.8347 79.1505 44.564C79.2625 44.2933 79.3278 44.018 79.3465 43.738C79.3558 43.6167 79.3605 43.4627 79.3605 43.276C79.3605 43.0893 79.3558 42.94 79.3465 42.828C79.3278 42.5387 79.2625 42.2633 79.1505 42.002C79.0385 41.7313 78.8658 41.512 78.6325 41.344C78.3991 41.1667 78.0911 41.078 77.7085 41.078C77.3258 41.078 77.0178 41.1667 76.7845 41.344C76.5511 41.512 76.3831 41.736 76.2805 42.016C76.1871 42.296 76.1311 42.604 76.1125 42.94C76.0938 43.164 76.0938 43.3927 76.1125 43.626C76.1311 43.9527 76.1871 44.2607 76.2805 44.55C76.3831 44.83 76.5511 45.054 76.7845 45.222C77.0178 45.39 77.3258 45.474 77.7085 45.474ZM89.0166 47.14C88.5313 47.14 88.102 47.0607 87.7286 46.902C87.3646 46.734 87.0613 46.5007 86.8186 46.202C86.576 45.9033 86.3893 45.5533 86.2586 45.152C86.128 44.7413 86.0533 44.2933 86.0346 43.808C86.0253 43.64 86.0206 43.4907 86.0206 43.36C86.0206 43.22 86.0253 43.066 86.0346 42.898C86.0533 42.4313 86.1233 41.9973 86.2446 41.596C86.3753 41.1947 86.562 40.8447 86.8046 40.546C87.0566 40.238 87.3646 40 87.7286 39.832C88.102 39.664 88.5313 39.58 89.0166 39.58C89.5206 39.58 89.9453 39.6687 90.2906 39.846C90.6453 40.014 90.9393 40.2333 91.1726 40.504V37.396C91.1726 37.3027 91.2006 37.2233 91.2566 37.158C91.322 37.0927 91.406 37.06 91.5086 37.06H92.6986C92.792 37.06 92.8713 37.0927 92.9366 37.158C93.002 37.2233 93.0346 37.3027 93.0346 37.396V46.664C93.0346 46.7573 93.002 46.8367 92.9366 46.902C92.8713 46.9673 92.792 47 92.6986 47H91.5926C91.49 47 91.406 46.9673 91.3406 46.902C91.2846 46.8367 91.2566 46.7573 91.2566 46.664V46.146C91.0233 46.4353 90.7246 46.6733 90.3606 46.86C90.006 47.0467 89.558 47.14 89.0166 47.14ZM89.5346 45.642C89.9266 45.642 90.2393 45.5533 90.4726 45.376C90.706 45.1987 90.8786 44.9747 90.9906 44.704C91.1026 44.424 91.1633 44.1393 91.1726 43.85C91.182 43.682 91.1866 43.5047 91.1866 43.318C91.1866 43.122 91.182 42.94 91.1726 42.772C91.1633 42.492 91.098 42.226 90.9766 41.974C90.8553 41.7127 90.678 41.498 90.4446 41.33C90.2113 41.162 89.908 41.078 89.5346 41.078C89.1426 41.078 88.83 41.1667 88.5966 41.344C88.3726 41.512 88.2093 41.736 88.1066 42.016C88.004 42.296 87.9433 42.604 87.9246 42.94C87.9153 43.22 87.9153 43.5 87.9246 43.78C87.9433 44.116 88.004 44.424 88.1066 44.704C88.2093 44.984 88.3726 45.2127 88.5966 45.39C88.83 45.558 89.1426 45.642 89.5346 45.642ZM98.1206 47.14C97.3739 47.14 96.7439 47.0093 96.2306 46.748C95.7266 46.4867 95.3392 46.118 95.0686 45.642C94.8072 45.166 94.6579 44.6107 94.6206 43.976C94.6112 43.808 94.6066 43.6027 94.6066 43.36C94.6066 43.1173 94.6112 42.912 94.6206 42.744C94.6579 42.1 94.8119 41.5447 95.0826 41.078C95.3626 40.602 95.7546 40.2333 96.2586 39.972C96.7719 39.7107 97.3926 39.58 98.1206 39.58C98.8486 39.58 99.4646 39.7107 99.9686 39.972C100.482 40.2333 100.874 40.602 101.145 41.078C101.425 41.5447 101.583 42.1 101.621 42.744C101.63 42.912 101.635 43.1173 101.635 43.36C101.635 43.6027 101.63 43.808 101.621 43.976C101.583 44.6107 101.429 45.166 101.159 45.642C100.897 46.118 100.51 46.4867 99.9966 46.748C99.4926 47.0093 98.8672 47.14 98.1206 47.14ZM98.1206 45.754C98.6152 45.754 98.9979 45.6 99.2686 45.292C99.5392 44.9747 99.6886 44.5127 99.7166 43.906C99.7259 43.766 99.7306 43.584 99.7306 43.36C99.7306 43.136 99.7259 42.954 99.7166 42.814C99.6886 42.2073 99.5392 41.75 99.2686 41.442C98.9979 41.1247 98.6152 40.966 98.1206 40.966C97.6259 40.966 97.2432 41.1247 96.9726 41.442C96.7019 41.75 96.5526 42.2073 96.5246 42.814C96.5152 42.954 96.5106 43.136 96.5106 43.36C96.5106 43.584 96.5152 43.766 96.5246 43.906C96.5526 44.5127 96.7019 44.9747 96.9726 45.292C97.2432 45.6 97.6259 45.754 98.1206 45.754ZM104.969 47C104.838 47 104.74 46.9673 104.675 46.902C104.609 46.8367 104.553 46.7527 104.507 46.65L102.505 40.154C102.495 40.1073 102.491 40.0653 102.491 40.028C102.491 39.944 102.519 39.874 102.575 39.818C102.64 39.7527 102.71 39.72 102.785 39.72H103.821C103.933 39.72 104.021 39.7527 104.087 39.818C104.152 39.874 104.189 39.93 104.199 39.986L105.571 44.62L107.027 40.028C107.045 39.9627 107.087 39.8973 107.153 39.832C107.218 39.7573 107.316 39.72 107.447 39.72H108.147C108.277 39.72 108.375 39.7573 108.441 39.832C108.506 39.8973 108.548 39.9627 108.567 40.028L110.023 44.62L111.395 39.986C111.404 39.93 111.437 39.874 111.493 39.818C111.558 39.7527 111.647 39.72 111.759 39.72H112.795C112.879 39.72 112.949 39.7527 113.005 39.818C113.07 39.874 113.103 39.944 113.103 40.028C113.103 40.0653 113.093 40.1073 113.075 40.154L111.073 46.65C111.045 46.7527 110.993 46.8367 110.919 46.902C110.853 46.9673 110.755 47 110.625 47H109.715C109.593 47 109.491 46.9673 109.407 46.902C109.332 46.8367 109.281 46.7527 109.253 46.65L107.797 42.226L106.341 46.65C106.303 46.7527 106.247 46.8367 106.173 46.902C106.107 46.9673 106.005 47 105.865 47H104.969ZM114.801 47C114.708 47 114.628 46.9673 114.563 46.902C114.498 46.8367 114.465 46.7573 114.465 46.664V40.056C114.465 39.9627 114.498 39.8833 114.563 39.818C114.628 39.7527 114.708 39.72 114.801 39.72H115.949C116.042 39.72 116.122 39.7527 116.187 39.818C116.252 39.8833 116.285 39.9627 116.285 40.056V40.63C116.528 40.3313 116.836 40.084 117.209 39.888C117.592 39.6827 118.063 39.58 118.623 39.58C119.192 39.58 119.687 39.7107 120.107 39.972C120.527 40.224 120.849 40.5833 121.073 41.05C121.306 41.5167 121.423 42.0767 121.423 42.73V46.664C121.423 46.7573 121.39 46.8367 121.325 46.902C121.26 46.9673 121.18 47 121.087 47H119.855C119.762 47 119.682 46.9673 119.617 46.902C119.552 46.8367 119.519 46.7573 119.519 46.664V42.814C119.519 42.2727 119.384 41.848 119.113 41.54C118.852 41.232 118.469 41.078 117.965 41.078C117.48 41.078 117.092 41.232 116.803 41.54C116.514 41.848 116.369 42.2727 116.369 42.814V46.664C116.369 46.7573 116.336 46.8367 116.271 46.902C116.206 46.9673 116.126 47 116.033 47H114.801ZM129.621 47.14C128.874 47.14 128.244 47.0093 127.731 46.748C127.227 46.4867 126.839 46.118 126.569 45.642C126.307 45.166 126.158 44.6107 126.121 43.976C126.111 43.808 126.107 43.6027 126.107 43.36C126.107 43.1173 126.111 42.912 126.121 42.744C126.158 42.1 126.312 41.5447 126.583 41.078C126.863 40.602 127.255 40.2333 127.759 39.972C128.272 39.7107 128.893 39.58 129.621 39.58C130.349 39.58 130.965 39.7107 131.469 39.972C131.982 40.2333 132.374 40.602 132.645 41.078C132.925 41.5447 133.083 42.1 133.121 42.744C133.13 42.912 133.135 43.1173 133.135 43.36C133.135 43.6027 133.13 43.808 133.121 43.976C133.083 44.6107 132.929 45.166 132.659 45.642C132.397 46.118 132.01 46.4867 131.497 46.748C130.993 47.0093 130.367 47.14 129.621 47.14ZM129.621 45.754C130.115 45.754 130.498 45.6 130.769 45.292C131.039 44.9747 131.189 44.5127 131.217 43.906C131.226 43.766 131.231 43.584 131.231 43.36C131.231 43.136 131.226 42.954 131.217 42.814C131.189 42.2073 131.039 41.75 130.769 41.442C130.498 41.1247 130.115 40.966 129.621 40.966C129.126 40.966 128.743 41.1247 128.473 41.442C128.202 41.75 128.053 42.2073 128.025 42.814C128.015 42.954 128.011 43.136 128.011 43.36C128.011 43.584 128.015 43.766 128.025 43.906C128.053 44.5127 128.202 44.9747 128.473 45.292C128.743 45.6 129.126 45.754 129.621 45.754ZM135.022 47C134.928 47 134.849 46.9673 134.784 46.902C134.718 46.8367 134.686 46.7573 134.686 46.664V40.07C134.686 39.9673 134.718 39.8833 134.784 39.818C134.849 39.7527 134.928 39.72 135.022 39.72H136.156C136.249 39.72 136.328 39.7527 136.394 39.818C136.468 39.8833 136.506 39.9673 136.506 40.07V40.644C136.72 40.3453 136.996 40.1167 137.332 39.958C137.677 39.7993 138.074 39.72 138.522 39.72H139.096C139.198 39.72 139.278 39.7527 139.334 39.818C139.399 39.8833 139.432 39.9627 139.432 40.056V41.064C139.432 41.1573 139.399 41.2367 139.334 41.302C139.278 41.3673 139.198 41.4 139.096 41.4H138.004C137.556 41.4 137.206 41.526 136.954 41.778C136.711 42.0207 136.59 42.366 136.59 42.814V46.664C136.59 46.7573 136.557 46.8367 136.492 46.902C136.426 46.9673 136.342 47 136.24 47H135.022ZM36.626 64.14C36.1407 64.14 35.7113 64.0607 35.338 63.902C34.974 63.734 34.6707 63.5007 34.428 63.202C34.1853 62.9033 33.9987 62.5533 33.868 62.152C33.7373 61.7413 33.6627 61.2933 33.644 60.808C33.6347 60.64 33.63 60.4907 33.63 60.36C33.63 60.22 33.6347 60.066 33.644 59.898C33.6627 59.4313 33.7327 58.9973 33.854 58.596C33.9847 58.1947 34.1713 57.8447 34.414 57.546C34.666 57.238 34.974 57 35.338 56.832C35.7113 56.664 36.1407 56.58 36.626 56.58C37.13 56.58 37.5547 56.6687 37.9 56.846C38.2547 57.014 38.5487 57.2333 38.782 57.504V54.396C38.782 54.3027 38.81 54.2233 38.866 54.158C38.9313 54.0927 39.0153 54.06 39.118 54.06H40.308C40.4013 54.06 40.4807 54.0927 40.546 54.158C40.6113 54.2233 40.644 54.3027 40.644 54.396V63.664C40.644 63.7573 40.6113 63.8367 40.546 63.902C40.4807 63.9673 40.4013 64 40.308 64H39.202C39.0993 64 39.0153 63.9673 38.95 63.902C38.894 63.8367 38.866 63.7573 38.866 63.664V63.146C38.6327 63.4353 38.334 63.6733 37.97 63.86C37.6153 64.0467 37.1673 64.14 36.626 64.14ZM37.144 62.642C37.536 62.642 37.8487 62.5533 38.082 62.376C38.3153 62.1987 38.488 61.9747 38.6 61.704C38.712 61.424 38.7727 61.1393 38.782 60.85C38.7913 60.682 38.796 60.5047 38.796 60.318C38.796 60.122 38.7913 59.94 38.782 59.772C38.7727 59.492 38.7073 59.226 38.586 58.974C38.4647 58.7127 38.2873 58.498 38.054 58.33C37.8207 58.162 37.5173 58.078 37.144 58.078C36.752 58.078 36.4393 58.1667 36.206 58.344C35.982 58.512 35.8187 58.736 35.716 59.016C35.6133 59.296 35.5527 59.604 35.534 59.94C35.5247 60.22 35.5247 60.5 35.534 60.78C35.5527 61.116 35.6133 61.424 35.716 61.704C35.8187 61.984 35.982 62.2127 36.206 62.39C36.4393 62.558 36.752 62.642 37.144 62.642ZM45.6459 64.14C44.6099 64.14 43.7886 63.8413 43.1819 63.244C42.5753 62.6467 42.2486 61.7973 42.2019 60.696C42.1926 60.6027 42.1879 60.486 42.1879 60.346C42.1879 60.1967 42.1926 60.08 42.2019 59.996C42.2393 59.2867 42.3979 58.68 42.6779 58.176C42.9673 57.6627 43.3639 57.2707 43.8679 57C44.3719 56.72 44.9646 56.58 45.6459 56.58C46.4019 56.58 47.0366 56.7387 47.5499 57.056C48.0633 57.364 48.4506 57.798 48.7119 58.358C48.9733 58.9087 49.1039 59.548 49.1039 60.276V60.57C49.1039 60.6633 49.0713 60.7427 49.0059 60.808C48.9406 60.8733 48.8566 60.906 48.7539 60.906H44.1059C44.1059 60.906 44.1059 60.92 44.1059 60.948C44.1059 60.976 44.1059 60.9993 44.1059 61.018C44.1153 61.3447 44.1759 61.648 44.2879 61.928C44.4093 62.1987 44.5819 62.418 44.8059 62.586C45.0393 62.754 45.3146 62.838 45.6319 62.838C45.8933 62.838 46.1126 62.8007 46.2899 62.726C46.4673 62.642 46.6119 62.5487 46.7239 62.446C46.8359 62.3433 46.9153 62.2593 46.9619 62.194C47.0459 62.082 47.1113 62.0167 47.1579 61.998C47.2139 61.97 47.2933 61.956 47.3959 61.956H48.5999C48.6933 61.956 48.7679 61.984 48.8239 62.04C48.8893 62.096 48.9173 62.166 48.9079 62.25C48.8986 62.3993 48.8193 62.5813 48.6699 62.796C48.5299 63.0107 48.3246 63.2207 48.0539 63.426C47.7833 63.6313 47.4426 63.804 47.0319 63.944C46.6306 64.0747 46.1686 64.14 45.6459 64.14ZM44.1059 59.73H47.1999V59.688C47.1999 59.324 47.1393 59.0067 47.0179 58.736C46.8966 58.456 46.7193 58.2413 46.4859 58.092C46.2526 57.9333 45.9726 57.854 45.6459 57.854C45.3193 57.854 45.0393 57.9333 44.8059 58.092C44.5726 58.2413 44.3953 58.456 44.2739 58.736C44.1619 59.0067 44.1059 59.324 44.1059 59.688V59.73ZM50.94 66.66C50.8467 66.66 50.7673 66.6273 50.702 66.562C50.6367 66.4967 50.604 66.4173 50.604 66.324V57.056C50.604 56.9627 50.6367 56.8833 50.702 56.818C50.7673 56.7527 50.8467 56.72 50.94 56.72H52.046C52.1487 56.72 52.228 56.7527 52.284 56.818C52.3493 56.8833 52.382 56.9627 52.382 57.056V57.616C52.606 57.3173 52.9 57.07 53.264 56.874C53.628 56.678 54.0807 56.58 54.622 56.58C55.1167 56.58 55.546 56.6593 55.91 56.818C56.274 56.9767 56.5773 57.2053 56.82 57.504C57.0627 57.7933 57.2493 58.1387 57.38 58.54C57.5107 58.9413 57.5853 59.3847 57.604 59.87C57.6133 60.0287 57.618 60.192 57.618 60.36C57.618 60.528 57.6133 60.696 57.604 60.864C57.5947 61.3307 57.5247 61.7647 57.394 62.166C57.2633 62.558 57.072 62.9033 56.82 63.202C56.5773 63.4913 56.274 63.72 55.91 63.888C55.546 64.056 55.1167 64.14 54.622 64.14C54.118 64.14 53.6887 64.0513 53.334 63.874C52.9793 63.6873 52.69 63.4447 52.466 63.146V66.324C52.466 66.4173 52.4333 66.4967 52.368 66.562C52.312 66.6273 52.2327 66.66 52.13 66.66H50.94ZM54.104 62.642C54.5053 62.642 54.818 62.558 55.042 62.39C55.266 62.2127 55.4293 61.984 55.532 61.704C55.6347 61.424 55.6953 61.116 55.714 60.78C55.7233 60.5 55.7233 60.22 55.714 59.94C55.6953 59.604 55.6347 59.296 55.532 59.016C55.4293 58.736 55.266 58.512 55.042 58.344C54.818 58.1667 54.5053 58.078 54.104 58.078C53.7213 58.078 53.4087 58.1667 53.166 58.344C52.9327 58.5213 52.76 58.75 52.648 59.03C52.5453 59.3007 52.4847 59.5807 52.466 59.87C52.4567 60.038 52.452 60.2153 52.452 60.402C52.452 60.5887 52.4567 60.7707 52.466 60.948C52.4753 61.228 52.5407 61.4987 52.662 61.76C52.7833 62.012 52.9607 62.222 53.194 62.39C53.4273 62.558 53.7307 62.642 54.104 62.642ZM59.5256 64C59.4323 64 59.353 63.9673 59.2876 63.902C59.2223 63.8367 59.1896 63.7573 59.1896 63.664V57.07C59.1896 56.9673 59.2223 56.8833 59.2876 56.818C59.353 56.7527 59.4323 56.72 59.5256 56.72H60.6596C60.753 56.72 60.8323 56.7527 60.8976 56.818C60.9723 56.8833 61.0096 56.9673 61.0096 57.07V57.644C61.2243 57.3453 61.4996 57.1167 61.8356 56.958C62.181 56.7993 62.5776 56.72 63.0256 56.72H63.5996C63.7023 56.72 63.7816 56.7527 63.8376 56.818C63.903 56.8833 63.9356 56.9627 63.9356 57.056V58.064C63.9356 58.1573 63.903 58.2367 63.8376 58.302C63.7816 58.3673 63.7023 58.4 63.5996 58.4H62.5076C62.0596 58.4 61.7096 58.526 61.4576 58.778C61.215 59.0207 61.0936 59.366 61.0936 59.814V63.664C61.0936 63.7573 61.061 63.8367 60.9956 63.902C60.9303 63.9673 60.8463 64 60.7436 64H59.5256ZM68.0678 64.14C67.0318 64.14 66.2105 63.8413 65.6038 63.244C64.9971 62.6467 64.6705 61.7973 64.6238 60.696C64.6145 60.6027 64.6098 60.486 64.6098 60.346C64.6098 60.1967 64.6145 60.08 64.6238 59.996C64.6611 59.2867 64.8198 58.68 65.0998 58.176C65.3891 57.6627 65.7858 57.2707 66.2898 57C66.7938 56.72 67.3865 56.58 68.0678 56.58C68.8238 56.58 69.4585 56.7387 69.9718 57.056C70.4851 57.364 70.8725 57.798 71.1338 58.358C71.3951 58.9087 71.5258 59.548 71.5258 60.276V60.57C71.5258 60.6633 71.4931 60.7427 71.4278 60.808C71.3625 60.8733 71.2785 60.906 71.1758 60.906H66.5278C66.5278 60.906 66.5278 60.92 66.5278 60.948C66.5278 60.976 66.5278 60.9993 66.5278 61.018C66.5371 61.3447 66.5978 61.648 66.7098 61.928C66.8311 62.1987 67.0038 62.418 67.2278 62.586C67.4611 62.754 67.7365 62.838 68.0538 62.838C68.3151 62.838 68.5345 62.8007 68.7118 62.726C68.8891 62.642 69.0338 62.5487 69.1458 62.446C69.2578 62.3433 69.3371 62.2593 69.3838 62.194C69.4678 62.082 69.5331 62.0167 69.5798 61.998C69.6358 61.97 69.7151 61.956 69.8178 61.956H71.0218C71.1151 61.956 71.1898 61.984 71.2458 62.04C71.3111 62.096 71.3391 62.166 71.3298 62.25C71.3205 62.3993 71.2411 62.5813 71.0918 62.796C70.9518 63.0107 70.7465 63.2207 70.4758 63.426C70.2051 63.6313 69.8645 63.804 69.4538 63.944C69.0525 64.0747 68.5905 64.14 68.0678 64.14ZM66.5278 59.73H69.6218V59.688C69.6218 59.324 69.5611 59.0067 69.4398 58.736C69.3185 58.456 69.1411 58.2413 68.9078 58.092C68.6745 57.9333 68.3945 57.854 68.0678 57.854C67.7411 57.854 67.4611 57.9333 67.2278 58.092C66.9945 58.2413 66.8171 58.456 66.6958 58.736C66.5838 59.0067 66.5278 59.324 66.5278 59.688V59.73ZM75.7699 64.14C75.2099 64.14 74.7292 64.0747 74.3279 63.944C73.9359 63.8133 73.6139 63.65 73.3619 63.454C73.1099 63.258 72.9232 63.062 72.8019 62.866C72.6806 62.67 72.6152 62.5067 72.6059 62.376C72.5966 62.2733 72.6246 62.194 72.6899 62.138C72.7646 62.0727 72.8439 62.04 72.9279 62.04H74.0339C74.0712 62.04 74.1039 62.0447 74.1319 62.054C74.1599 62.0633 74.1972 62.0913 74.2439 62.138C74.3652 62.2407 74.4912 62.348 74.6219 62.46C74.7619 62.572 74.9252 62.67 75.1119 62.754C75.2986 62.8287 75.5319 62.866 75.8119 62.866C76.1759 62.866 76.4792 62.796 76.7219 62.656C76.9739 62.5067 77.0999 62.2967 77.0999 62.026C77.0999 61.83 77.0439 61.6713 76.9319 61.55C76.8292 61.4287 76.6332 61.3213 76.3439 61.228C76.0546 61.1253 75.6439 61.018 75.1119 60.906C74.5892 60.7847 74.1552 60.6307 73.8099 60.444C73.4646 60.2573 73.2079 60.024 73.0399 59.744C72.8719 59.464 72.7879 59.1373 72.7879 58.764C72.7879 58.4 72.8952 58.0547 73.1099 57.728C73.3339 57.392 73.6606 57.1167 74.0899 56.902C74.5286 56.6873 75.0699 56.58 75.7139 56.58C76.2179 56.58 76.6566 56.6453 77.0299 56.776C77.4032 56.8973 77.7112 57.0513 77.9539 57.238C78.2059 57.4247 78.3972 57.616 78.5279 57.812C78.6586 57.9987 78.7286 58.162 78.7379 58.302C78.7472 58.4047 78.7192 58.4887 78.6539 58.554C78.5886 58.61 78.5139 58.638 78.4299 58.638H77.3939C77.3472 58.638 77.3052 58.6287 77.2679 58.61C77.2306 58.5913 77.1932 58.568 77.1559 58.54C77.0532 58.4467 76.9412 58.3487 76.8199 58.246C76.6986 58.134 76.5492 58.0407 76.3719 57.966C76.2039 57.8913 75.9799 57.854 75.6999 57.854C75.3452 57.854 75.0746 57.9333 74.8879 58.092C74.7012 58.2413 74.6079 58.4327 74.6079 58.666C74.6079 58.8247 74.6499 58.9647 74.7339 59.086C74.8272 59.198 75.0092 59.3053 75.2799 59.408C75.5506 59.5107 75.9612 59.618 76.5119 59.73C77.1372 59.842 77.6319 60.01 77.9959 60.234C78.3692 60.4487 78.6306 60.7007 78.7799 60.99C78.9386 61.27 79.0179 61.5827 79.0179 61.928C79.0179 62.348 78.8919 62.726 78.6399 63.062C78.3972 63.398 78.0332 63.664 77.5479 63.86C77.0719 64.0467 76.4792 64.14 75.7699 64.14ZM83.2211 64.14C82.6611 64.14 82.1804 64.0747 81.7791 63.944C81.3871 63.8133 81.0651 63.65 80.8131 63.454C80.5611 63.258 80.3744 63.062 80.2531 62.866C80.1317 62.67 80.0664 62.5067 80.0571 62.376C80.0477 62.2733 80.0757 62.194 80.1411 62.138C80.2157 62.0727 80.2951 62.04 80.3791 62.04H81.4851C81.5224 62.04 81.5551 62.0447 81.5831 62.054C81.6111 62.0633 81.6484 62.0913 81.6951 62.138C81.8164 62.2407 81.9424 62.348 82.0731 62.46C82.2131 62.572 82.3764 62.67 82.5631 62.754C82.7497 62.8287 82.9831 62.866 83.2631 62.866C83.6271 62.866 83.9304 62.796 84.1731 62.656C84.4251 62.5067 84.5511 62.2967 84.5511 62.026C84.5511 61.83 84.4951 61.6713 84.3831 61.55C84.2804 61.4287 84.0844 61.3213 83.7951 61.228C83.5057 61.1253 83.0951 61.018 82.5631 60.906C82.0404 60.7847 81.6064 60.6307 81.2611 60.444C80.9157 60.2573 80.6591 60.024 80.4911 59.744C80.3231 59.464 80.2391 59.1373 80.2391 58.764C80.2391 58.4 80.3464 58.0547 80.5611 57.728C80.7851 57.392 81.1117 57.1167 81.5411 56.902C81.9797 56.6873 82.5211 56.58 83.1651 56.58C83.6691 56.58 84.1077 56.6453 84.4811 56.776C84.8544 56.8973 85.1624 57.0513 85.4051 57.238C85.6571 57.4247 85.8484 57.616 85.9791 57.812C86.1097 57.9987 86.1797 58.162 86.1891 58.302C86.1984 58.4047 86.1704 58.4887 86.1051 58.554C86.0397 58.61 85.9651 58.638 85.8811 58.638H84.8451C84.7984 58.638 84.7564 58.6287 84.7191 58.61C84.6817 58.5913 84.6444 58.568 84.6071 58.54C84.5044 58.4467 84.3924 58.3487 84.2711 58.246C84.1497 58.134 84.0004 58.0407 83.8231 57.966C83.6551 57.8913 83.4311 57.854 83.1511 57.854C82.7964 57.854 82.5257 57.9333 82.3391 58.092C82.1524 58.2413 82.0591 58.4327 82.0591 58.666C82.0591 58.8247 82.1011 58.9647 82.1851 59.086C82.2784 59.198 82.4604 59.3053 82.7311 59.408C83.0017 59.5107 83.4124 59.618 83.9631 59.73C84.5884 59.842 85.0831 60.01 85.4471 60.234C85.8204 60.4487 86.0817 60.7007 86.2311 60.99C86.3897 61.27 86.4691 61.5827 86.4691 61.928C86.4691 62.348 86.3431 62.726 86.0911 63.062C85.8484 63.398 85.4844 63.664 84.9991 63.86C84.5231 64.0467 83.9304 64.14 83.2211 64.14ZM91.0502 64.14C90.0142 64.14 89.1929 63.8413 88.5862 63.244C87.9796 62.6467 87.6529 61.7973 87.6062 60.696C87.5969 60.6027 87.5922 60.486 87.5922 60.346C87.5922 60.1967 87.5969 60.08 87.6062 59.996C87.6436 59.2867 87.8022 58.68 88.0822 58.176C88.3716 57.6627 88.7682 57.2707 89.2722 57C89.7762 56.72 90.3689 56.58 91.0502 56.58C91.8062 56.58 92.4409 56.7387 92.9542 57.056C93.4676 57.364 93.8549 57.798 94.1162 58.358C94.3776 58.9087 94.5082 59.548 94.5082 60.276V60.57C94.5082 60.6633 94.4756 60.7427 94.4102 60.808C94.3449 60.8733 94.2609 60.906 94.1582 60.906H89.5102C89.5102 60.906 89.5102 60.92 89.5102 60.948C89.5102 60.976 89.5102 60.9993 89.5102 61.018C89.5196 61.3447 89.5802 61.648 89.6922 61.928C89.8136 62.1987 89.9862 62.418 90.2102 62.586C90.4436 62.754 90.7189 62.838 91.0362 62.838C91.2976 62.838 91.5169 62.8007 91.6942 62.726C91.8716 62.642 92.0162 62.5487 92.1282 62.446C92.2402 62.3433 92.3196 62.2593 92.3662 62.194C92.4502 62.082 92.5156 62.0167 92.5622 61.998C92.6182 61.97 92.6976 61.956 92.8002 61.956H94.0042C94.0976 61.956 94.1722 61.984 94.2282 62.04C94.2936 62.096 94.3216 62.166 94.3122 62.25C94.3029 62.3993 94.2236 62.5813 94.0742 62.796C93.9342 63.0107 93.7289 63.2207 93.4582 63.426C93.1876 63.6313 92.8469 63.804 92.4362 63.944C92.0349 64.0747 91.5729 64.14 91.0502 64.14ZM89.5102 59.73H92.6042V59.688C92.6042 59.324 92.5436 59.0067 92.4222 58.736C92.3009 58.456 92.1236 58.2413 91.8902 58.092C91.6569 57.9333 91.3769 57.854 91.0502 57.854C90.7236 57.854 90.4436 57.9333 90.2102 58.092C89.9769 58.2413 89.7996 58.456 89.6782 58.736C89.5662 59.0067 89.5102 59.324 89.5102 59.688V59.73ZM98.6963 64.14C98.211 64.14 97.7816 64.0607 97.4083 63.902C97.0443 63.734 96.741 63.5007 96.4983 63.202C96.2556 62.9033 96.069 62.5533 95.9383 62.152C95.8076 61.7413 95.733 61.2933 95.7143 60.808C95.705 60.64 95.7003 60.4907 95.7003 60.36C95.7003 60.22 95.705 60.066 95.7143 59.898C95.733 59.4313 95.803 58.9973 95.9243 58.596C96.055 58.1947 96.2416 57.8447 96.4843 57.546C96.7363 57.238 97.0443 57 97.4083 56.832C97.7816 56.664 98.211 56.58 98.6963 56.58C99.2003 56.58 99.625 56.6687 99.9703 56.846C100.325 57.014 100.619 57.2333 100.852 57.504V54.396C100.852 54.3027 100.88 54.2233 100.936 54.158C101.002 54.0927 101.086 54.06 101.188 54.06H102.378C102.472 54.06 102.551 54.0927 102.616 54.158C102.682 54.2233 102.714 54.3027 102.714 54.396V63.664C102.714 63.7573 102.682 63.8367 102.616 63.902C102.551 63.9673 102.472 64 102.378 64H101.272C101.17 64 101.086 63.9673 101.02 63.902C100.964 63.8367 100.936 63.7573 100.936 63.664V63.146C100.703 63.4353 100.404 63.6733 100.04 63.86C99.6856 64.0467 99.2376 64.14 98.6963 64.14ZM99.2143 62.642C99.6063 62.642 99.919 62.5533 100.152 62.376C100.386 62.1987 100.558 61.9747 100.67 61.704C100.782 61.424 100.843 61.1393 100.852 60.85C100.862 60.682 100.866 60.5047 100.866 60.318C100.866 60.122 100.862 59.94 100.852 59.772C100.843 59.492 100.778 59.226 100.656 58.974C100.535 58.7127 100.358 58.498 100.124 58.33C99.891 58.162 99.5876 58.078 99.2143 58.078C98.8223 58.078 98.5096 58.1667 98.2763 58.344C98.0523 58.512 97.889 58.736 97.7863 59.016C97.6836 59.296 97.623 59.604 97.6043 59.94C97.595 60.22 97.595 60.5 97.6043 60.78C97.623 61.116 97.6836 61.424 97.7863 61.704C97.889 61.984 98.0523 62.2127 98.2763 62.39C98.5096 62.558 98.8223 62.642 99.2143 62.642ZM107.016 61.368C106.941 61.368 106.876 61.3447 106.82 61.298C106.764 61.242 106.736 61.172 106.736 61.088C106.736 61.0133 106.736 60.9387 106.736 60.864C106.736 60.7893 106.736 60.7147 106.736 60.64C106.773 60.276 106.871 59.954 107.03 59.674C107.198 59.3847 107.389 59.1233 107.604 58.89C107.828 58.6473 108.047 58.4187 108.262 58.204C108.486 57.9893 108.672 57.7793 108.822 57.574C108.98 57.3593 109.074 57.14 109.102 56.916C109.13 56.6453 109.074 56.4167 108.934 56.23C108.803 56.0433 108.621 55.9033 108.388 55.81C108.164 55.7073 107.926 55.656 107.674 55.656C107.235 55.656 106.876 55.7633 106.596 55.978C106.316 56.1927 106.124 56.538 106.022 57.014C105.994 57.126 105.947 57.21 105.882 57.266C105.816 57.3127 105.728 57.336 105.616 57.336H104.426C104.342 57.336 104.267 57.308 104.202 57.252C104.146 57.1867 104.118 57.1027 104.118 57C104.127 56.6267 104.211 56.2673 104.37 55.922C104.538 55.5673 104.776 55.25 105.084 54.97C105.401 54.69 105.784 54.4707 106.232 54.312C106.68 54.144 107.193 54.06 107.772 54.06C108.406 54.06 108.938 54.144 109.368 54.312C109.806 54.4707 110.152 54.6807 110.404 54.942C110.665 55.2033 110.852 55.488 110.964 55.796C111.076 56.0947 111.127 56.3887 111.118 56.678C111.099 57.0327 111.02 57.35 110.88 57.63C110.74 57.91 110.567 58.1713 110.362 58.414C110.156 58.6473 109.946 58.8807 109.732 59.114C109.517 59.338 109.326 59.5667 109.158 59.8C108.999 60.0333 108.892 60.2807 108.836 60.542C108.817 60.626 108.803 60.71 108.794 60.794C108.784 60.8687 108.775 60.9433 108.766 61.018C108.728 61.13 108.682 61.2187 108.626 61.284C108.57 61.34 108.49 61.368 108.388 61.368H107.016ZM106.974 64C106.88 64 106.801 63.9673 106.736 63.902C106.67 63.8367 106.638 63.7573 106.638 63.664V62.446C106.638 62.3433 106.67 62.2593 106.736 62.194C106.801 62.1287 106.88 62.096 106.974 62.096H108.332C108.434 62.096 108.518 62.1287 108.584 62.194C108.649 62.2593 108.682 62.3433 108.682 62.446V63.664C108.682 63.7573 108.649 63.8367 108.584 63.902C108.518 63.9673 108.434 64 108.332 64H106.974Z" fill="white"/>
<path d="M132.866 80.5C132.481 81.1667 131.519 81.1667 131.134 80.5L127.67 74.5C127.285 73.8333 127.766 73 128.536 73L135.464 73C136.234 73 136.715 73.8333 136.33 74.5L132.866 80.5Z" fill="#46445F"/>
<rect x="215" y="46" width="139" height="49" rx="10" fill="#424158"/>
<path d="M238.428 67C238.335 67 238.255 66.9673 238.19 66.902C238.125 66.8367 238.092 66.7573 238.092 66.664V57.55C238.092 57.4473 238.125 57.3633 238.19 57.298C238.255 57.2327 238.335 57.2 238.428 57.2H242.18C242.908 57.2 243.543 57.3167 244.084 57.55C244.625 57.774 245.045 58.1193 245.344 58.586C245.643 59.0433 245.792 59.6173 245.792 60.308C245.792 61.008 245.643 61.5867 245.344 62.044C245.045 62.492 244.625 62.828 244.084 63.052C243.543 63.276 242.908 63.388 242.18 63.388H240.094V66.664C240.094 66.7573 240.061 66.8367 239.996 66.902C239.94 66.9673 239.861 67 239.758 67H238.428ZM240.066 61.834H242.11C242.651 61.834 243.067 61.708 243.356 61.456C243.645 61.1947 243.79 60.812 243.79 60.308C243.79 59.8413 243.655 59.468 243.384 59.188C243.113 58.8987 242.689 58.754 242.11 58.754H240.066V61.834ZM250.277 67.14C249.53 67.14 248.9 67.0093 248.387 66.748C247.883 66.4867 247.495 66.118 247.225 65.642C246.963 65.166 246.814 64.6107 246.777 63.976C246.767 63.808 246.763 63.6027 246.763 63.36C246.763 63.1173 246.767 62.912 246.777 62.744C246.814 62.1 246.968 61.5447 247.239 61.078C247.519 60.602 247.911 60.2333 248.415 59.972C248.928 59.7107 249.549 59.58 250.277 59.58C251.005 59.58 251.621 59.7107 252.125 59.972C252.638 60.2333 253.03 60.602 253.301 61.078C253.581 61.5447 253.739 62.1 253.777 62.744C253.786 62.912 253.791 63.1173 253.791 63.36C253.791 63.6027 253.786 63.808 253.777 63.976C253.739 64.6107 253.585 65.166 253.315 65.642C253.053 66.118 252.666 66.4867 252.153 66.748C251.649 67.0093 251.023 67.14 250.277 67.14ZM250.277 65.754C250.771 65.754 251.154 65.6 251.425 65.292C251.695 64.9747 251.845 64.5127 251.873 63.906C251.882 63.766 251.887 63.584 251.887 63.36C251.887 63.136 251.882 62.954 251.873 62.814C251.845 62.2073 251.695 61.75 251.425 61.442C251.154 61.1247 250.771 60.966 250.277 60.966C249.782 60.966 249.399 61.1247 249.129 61.442C248.858 61.75 248.709 62.2073 248.681 62.814C248.671 62.954 248.667 63.136 248.667 63.36C248.667 63.584 248.671 63.766 248.681 63.906C248.709 64.5127 248.858 64.9747 249.129 65.292C249.399 65.6 249.782 65.754 250.277 65.754ZM258.562 67.14C257.815 67.14 257.185 67.0093 256.672 66.748C256.168 66.4867 255.781 66.118 255.51 65.642C255.249 65.166 255.099 64.6107 255.062 63.976C255.053 63.808 255.048 63.6027 255.048 63.36C255.048 63.1173 255.053 62.912 255.062 62.744C255.099 62.1 255.253 61.5447 255.524 61.078C255.804 60.602 256.196 60.2333 256.7 59.972C257.213 59.7107 257.834 59.58 258.562 59.58C259.29 59.58 259.906 59.7107 260.41 59.972C260.923 60.2333 261.315 60.602 261.586 61.078C261.866 61.5447 262.025 62.1 262.062 62.744C262.071 62.912 262.076 63.1173 262.076 63.36C262.076 63.6027 262.071 63.808 262.062 63.976C262.025 64.6107 261.871 65.166 261.6 65.642C261.339 66.118 260.951 66.4867 260.438 66.748C259.934 67.0093 259.309 67.14 258.562 67.14ZM258.562 65.754C259.057 65.754 259.439 65.6 259.71 65.292C259.981 64.9747 260.13 64.5127 260.158 63.906C260.167 63.766 260.172 63.584 260.172 63.36C260.172 63.136 260.167 62.954 260.158 62.814C260.13 62.2073 259.981 61.75 259.71 61.442C259.439 61.1247 259.057 60.966 258.562 60.966C258.067 60.966 257.685 61.1247 257.414 61.442C257.143 61.75 256.994 62.2073 256.966 62.814C256.957 62.954 256.952 63.136 256.952 63.36C256.952 63.584 256.957 63.766 256.966 63.906C256.994 64.5127 257.143 64.9747 257.414 65.292C257.685 65.6 258.067 65.754 258.562 65.754ZM263.963 67C263.87 67 263.79 66.9673 263.725 66.902C263.66 66.8367 263.627 66.7573 263.627 66.664V60.07C263.627 59.9673 263.66 59.8833 263.725 59.818C263.79 59.7527 263.87 59.72 263.963 59.72H265.097C265.19 59.72 265.27 59.7527 265.335 59.818C265.41 59.8833 265.447 59.9673 265.447 60.07V60.644C265.662 60.3453 265.937 60.1167 266.273 59.958C266.618 59.7993 267.015 59.72 267.463 59.72H268.037C268.14 59.72 268.219 59.7527 268.275 59.818C268.34 59.8833 268.373 59.9627 268.373 60.056V61.064C268.373 61.1573 268.34 61.2367 268.275 61.302C268.219 61.3673 268.14 61.4 268.037 61.4H266.945C266.497 61.4 266.147 61.526 265.895 61.778C265.652 62.0207 265.531 62.366 265.531 62.814V66.664C265.531 66.7573 265.498 66.8367 265.433 66.902C265.368 66.9673 265.284 67 265.181 67H263.963ZM274.477 67.14C273.992 67.14 273.553 67.0467 273.161 66.86C272.769 66.664 272.457 66.4073 272.223 66.09C271.999 65.7633 271.887 65.3993 271.887 64.998C271.887 64.3447 272.153 63.8267 272.685 63.444C273.217 63.052 273.913 62.7907 274.771 62.66L276.689 62.38V62.086C276.689 61.694 276.591 61.3907 276.395 61.176C276.199 60.9613 275.863 60.854 275.387 60.854C275.051 60.854 274.776 60.924 274.561 61.064C274.356 61.1947 274.202 61.372 274.099 61.596C274.025 61.7173 273.917 61.778 273.777 61.778H272.671C272.569 61.778 272.489 61.75 272.433 61.694C272.387 61.638 272.363 61.5633 272.363 61.47C272.373 61.3207 272.433 61.1387 272.545 60.924C272.667 60.7093 272.844 60.504 273.077 60.308C273.32 60.1027 273.633 59.93 274.015 59.79C274.398 59.65 274.86 59.58 275.401 59.58C275.989 59.58 276.484 59.6547 276.885 59.804C277.296 59.944 277.623 60.1353 277.865 60.378C278.108 60.6207 278.285 60.9053 278.397 61.232C278.509 61.5587 278.565 61.904 278.565 62.268V66.664C278.565 66.7573 278.533 66.8367 278.467 66.902C278.402 66.9673 278.323 67 278.229 67H277.095C276.993 67 276.909 66.9673 276.843 66.902C276.787 66.8367 276.759 66.7573 276.759 66.664V66.118C276.638 66.286 276.475 66.4493 276.269 66.608C276.064 66.7667 275.812 66.8973 275.513 67C275.224 67.0933 274.879 67.14 274.477 67.14ZM274.953 65.81C275.28 65.81 275.574 65.74 275.835 65.6C276.106 65.46 276.316 65.2453 276.465 64.956C276.624 64.6573 276.703 64.284 276.703 63.836V63.542L275.303 63.766C274.753 63.85 274.342 63.9853 274.071 64.172C273.801 64.3587 273.665 64.5873 273.665 64.858C273.665 65.0633 273.726 65.2407 273.847 65.39C273.978 65.53 274.141 65.6373 274.337 65.712C274.533 65.7773 274.739 65.81 274.953 65.81ZM280.712 69.66C280.618 69.66 280.539 69.6273 280.474 69.562C280.408 69.4967 280.376 69.4173 280.376 69.324V60.056C280.376 59.9627 280.408 59.8833 280.474 59.818C280.539 59.7527 280.618 59.72 280.712 59.72H281.818C281.92 59.72 282 59.7527 282.056 59.818C282.121 59.8833 282.154 59.9627 282.154 60.056V60.616C282.378 60.3173 282.672 60.07 283.035 59.874C283.4 59.678 283.852 59.58 284.394 59.58C284.888 59.58 285.318 59.6593 285.682 59.818C286.046 59.9767 286.349 60.2053 286.592 60.504C286.834 60.7933 287.021 61.1387 287.151 61.54C287.282 61.9413 287.357 62.3847 287.376 62.87C287.385 63.0287 287.39 63.192 287.39 63.36C287.39 63.528 287.385 63.696 287.376 63.864C287.366 64.3307 287.296 64.7647 287.166 65.166C287.035 65.558 286.844 65.9033 286.592 66.202C286.349 66.4913 286.046 66.72 285.682 66.888C285.318 67.056 284.888 67.14 284.394 67.14C283.89 67.14 283.46 67.0513 283.106 66.874C282.751 66.6873 282.462 66.4447 282.238 66.146V69.324C282.238 69.4173 282.205 69.4967 282.14 69.562C282.084 69.6273 282.004 69.66 281.902 69.66H280.712ZM283.876 65.642C284.277 65.642 284.59 65.558 284.814 65.39C285.038 65.2127 285.201 64.984 285.304 64.704C285.406 64.424 285.467 64.116 285.486 63.78C285.495 63.5 285.495 63.22 285.486 62.94C285.467 62.604 285.406 62.296 285.304 62.016C285.201 61.736 285.038 61.512 284.814 61.344C284.59 61.1667 284.277 61.078 283.876 61.078C283.493 61.078 283.18 61.1667 282.938 61.344C282.704 61.5213 282.532 61.75 282.42 62.03C282.317 62.3007 282.256 62.5807 282.238 62.87C282.228 63.038 282.224 63.2153 282.224 63.402C282.224 63.5887 282.228 63.7707 282.238 63.948C282.247 64.228 282.312 64.4987 282.434 64.76C282.555 65.012 282.732 65.222 282.966 65.39C283.199 65.558 283.502 65.642 283.876 65.642ZM289.311 69.66C289.218 69.66 289.138 69.6273 289.073 69.562C289.008 69.4967 288.975 69.4173 288.975 69.324V60.056C288.975 59.9627 289.008 59.8833 289.073 59.818C289.138 59.7527 289.218 59.72 289.311 59.72H290.417C290.52 59.72 290.599 59.7527 290.655 59.818C290.72 59.8833 290.753 59.9627 290.753 60.056V60.616C290.977 60.3173 291.271 60.07 291.635 59.874C291.999 59.678 292.452 59.58 292.993 59.58C293.488 59.58 293.917 59.6593 294.281 59.818C294.645 59.9767 294.948 60.2053 295.191 60.504C295.434 60.7933 295.62 61.1387 295.751 61.54C295.882 61.9413 295.956 62.3847 295.975 62.87C295.984 63.0287 295.989 63.192 295.989 63.36C295.989 63.528 295.984 63.696 295.975 63.864C295.966 64.3307 295.896 64.7647 295.765 65.166C295.634 65.558 295.443 65.9033 295.191 66.202C294.948 66.4913 294.645 66.72 294.281 66.888C293.917 67.056 293.488 67.14 292.993 67.14C292.489 67.14 292.06 67.0513 291.705 66.874C291.35 66.6873 291.061 66.4447 290.837 66.146V69.324C290.837 69.4173 290.804 69.4967 290.739 69.562C290.683 69.6273 290.604 69.66 290.501 69.66H289.311ZM292.475 65.642C292.876 65.642 293.189 65.558 293.413 65.39C293.637 65.2127 293.8 64.984 293.903 64.704C294.006 64.424 294.066 64.116 294.085 63.78C294.094 63.5 294.094 63.22 294.085 62.94C294.066 62.604 294.006 62.296 293.903 62.016C293.8 61.736 293.637 61.512 293.413 61.344C293.189 61.1667 292.876 61.078 292.475 61.078C292.092 61.078 291.78 61.1667 291.537 61.344C291.304 61.5213 291.131 61.75 291.019 62.03C290.916 62.3007 290.856 62.5807 290.837 62.87C290.828 63.038 290.823 63.2153 290.823 63.402C290.823 63.5887 290.828 63.7707 290.837 63.948C290.846 64.228 290.912 64.4987 291.033 64.76C291.154 65.012 291.332 65.222 291.565 65.39C291.798 65.558 292.102 65.642 292.475 65.642ZM300.697 67.14C299.661 67.14 298.839 66.8413 298.233 66.244C297.626 65.6467 297.299 64.7973 297.253 63.696C297.243 63.6027 297.239 63.486 297.239 63.346C297.239 63.1967 297.243 63.08 297.253 62.996C297.29 62.2867 297.449 61.68 297.729 61.176C298.018 60.6627 298.415 60.2707 298.919 60C299.423 59.72 300.015 59.58 300.697 59.58C301.453 59.58 302.087 59.7387 302.601 60.056C303.114 60.364 303.501 60.798 303.763 61.358C304.024 61.9087 304.155 62.548 304.155 63.276V63.57C304.155 63.6633 304.122 63.7427 304.057 63.808C303.991 63.8733 303.907 63.906 303.805 63.906H299.157C299.157 63.906 299.157 63.92 299.157 63.948C299.157 63.976 299.157 63.9993 299.157 64.018C299.166 64.3447 299.227 64.648 299.339 64.928C299.46 65.1987 299.633 65.418 299.857 65.586C300.09 65.754 300.365 65.838 300.683 65.838C300.944 65.838 301.163 65.8007 301.341 65.726C301.518 65.642 301.663 65.5487 301.775 65.446C301.887 65.3433 301.966 65.2593 302.013 65.194C302.097 65.082 302.162 65.0167 302.209 64.998C302.265 64.97 302.344 64.956 302.447 64.956H303.651C303.744 64.956 303.819 64.984 303.875 65.04C303.94 65.096 303.968 65.166 303.959 65.25C303.949 65.3993 303.87 65.5813 303.721 65.796C303.581 66.0107 303.375 66.2207 303.105 66.426C302.834 66.6313 302.493 66.804 302.083 66.944C301.681 67.0747 301.219 67.14 300.697 67.14ZM299.157 62.73H302.251V62.688C302.251 62.324 302.19 62.0067 302.069 61.736C301.947 61.456 301.77 61.2413 301.537 61.092C301.303 60.9333 301.023 60.854 300.697 60.854C300.37 60.854 300.09 60.9333 299.857 61.092C299.623 61.2413 299.446 61.456 299.325 61.736C299.213 62.0067 299.157 62.324 299.157 62.688V62.73ZM308.903 67C308.343 67 307.872 66.902 307.489 66.706C307.107 66.51 306.822 66.2207 306.635 65.838C306.449 65.446 306.355 64.9607 306.355 64.382V61.204H305.249C305.156 61.204 305.077 61.1713 305.011 61.106C304.946 61.0407 304.913 60.9567 304.913 60.854V60.056C304.913 59.9627 304.946 59.8833 305.011 59.818C305.077 59.7527 305.156 59.72 305.249 59.72H306.355V57.396C306.355 57.3027 306.383 57.2233 306.439 57.158C306.505 57.0927 306.589 57.06 306.691 57.06H307.825C307.919 57.06 307.998 57.0927 308.063 57.158C308.129 57.2233 308.161 57.3027 308.161 57.396V59.72H309.911C310.005 59.72 310.084 59.7527 310.149 59.818C310.215 59.8833 310.247 59.9627 310.247 60.056V60.854C310.247 60.9567 310.215 61.0407 310.149 61.106C310.084 61.1713 310.005 61.204 309.911 61.204H308.161V64.242C308.161 64.6247 308.227 64.9233 308.357 65.138C308.497 65.3527 308.735 65.46 309.071 65.46H310.037C310.131 65.46 310.21 65.4927 310.275 65.558C310.341 65.6233 310.373 65.7027 310.373 65.796V66.664C310.373 66.7573 310.341 66.8367 310.275 66.902C310.21 66.9673 310.131 67 310.037 67H308.903ZM311.951 67C311.858 67 311.779 66.9673 311.713 66.902C311.648 66.8367 311.615 66.7573 311.615 66.664V60.056C311.615 59.9627 311.648 59.8833 311.713 59.818C311.779 59.7527 311.858 59.72 311.951 59.72H313.113C313.216 59.72 313.295 59.7527 313.351 59.818C313.417 59.8833 313.449 59.9627 313.449 60.056V66.664C313.449 66.7573 313.417 66.8367 313.351 66.902C313.295 66.9673 313.216 67 313.113 67H311.951ZM311.895 58.516C311.802 58.516 311.723 58.4833 311.657 58.418C311.592 58.3527 311.559 58.2733 311.559 58.18V57.172C311.559 57.0787 311.592 56.9993 311.657 56.934C311.723 56.8687 311.802 56.836 311.895 56.836H313.169C313.272 56.836 313.356 56.8687 313.421 56.934C313.487 56.9993 313.519 57.0787 313.519 57.172V58.18C313.519 58.2733 313.487 58.3527 313.421 58.418C313.356 58.4833 313.272 58.516 313.169 58.516H311.895ZM318.597 67C318.037 67 317.565 66.902 317.183 66.706C316.8 66.51 316.515 66.2207 316.329 65.838C316.142 65.446 316.049 64.9607 316.049 64.382V61.204H314.943C314.849 61.204 314.77 61.1713 314.705 61.106C314.639 61.0407 314.607 60.9567 314.607 60.854V60.056C314.607 59.9627 314.639 59.8833 314.705 59.818C314.77 59.7527 314.849 59.72 314.943 59.72H316.049V57.396C316.049 57.3027 316.077 57.2233 316.133 57.158C316.198 57.0927 316.282 57.06 316.385 57.06H317.519C317.612 57.06 317.691 57.0927 317.757 57.158C317.822 57.2233 317.855 57.3027 317.855 57.396V59.72H319.605C319.698 59.72 319.777 59.7527 319.843 59.818C319.908 59.8833 319.941 59.9627 319.941 60.056V60.854C319.941 60.9567 319.908 61.0407 319.843 61.106C319.777 61.1713 319.698 61.204 319.605 61.204H317.855V64.242C317.855 64.6247 317.92 64.9233 318.051 65.138C318.191 65.3527 318.429 65.46 318.765 65.46H319.731C319.824 65.46 319.903 65.4927 319.969 65.558C320.034 65.6233 320.067 65.7027 320.067 65.796V66.664C320.067 66.7573 320.034 66.8367 319.969 66.902C319.903 66.9673 319.824 67 319.731 67H318.597ZM324.445 67.14C323.409 67.14 322.587 66.8413 321.981 66.244C321.374 65.6467 321.047 64.7973 321.001 63.696C320.991 63.6027 320.987 63.486 320.987 63.346C320.987 63.1967 320.991 63.08 321.001 62.996C321.038 62.2867 321.197 61.68 321.477 61.176C321.766 60.6627 322.163 60.2707 322.667 60C323.171 59.72 323.763 59.58 324.445 59.58C325.201 59.58 325.835 59.7387 326.349 60.056C326.862 60.364 327.249 60.798 327.511 61.358C327.772 61.9087 327.903 62.548 327.903 63.276V63.57C327.903 63.6633 327.87 63.7427 327.805 63.808C327.739 63.8733 327.655 63.906 327.553 63.906H322.905C322.905 63.906 322.905 63.92 322.905 63.948C322.905 63.976 322.905 63.9993 322.905 64.018C322.914 64.3447 322.975 64.648 323.087 64.928C323.208 65.1987 323.381 65.418 323.605 65.586C323.838 65.754 324.113 65.838 324.431 65.838C324.692 65.838 324.911 65.8007 325.089 65.726C325.266 65.642 325.411 65.5487 325.523 65.446C325.635 65.3433 325.714 65.2593 325.761 65.194C325.845 65.082 325.91 65.0167 325.957 64.998C326.013 64.97 326.092 64.956 326.195 64.956H327.399C327.492 64.956 327.567 64.984 327.623 65.04C327.688 65.096 327.716 65.166 327.707 65.25C327.697 65.3993 327.618 65.5813 327.469 65.796C327.329 66.0107 327.123 66.2207 326.853 66.426C326.582 66.6313 326.241 66.804 325.831 66.944C325.429 67.0747 324.967 67.14 324.445 67.14ZM322.905 62.73H325.999V62.688C325.999 62.324 325.938 62.0067 325.817 61.736C325.695 61.456 325.518 61.2413 325.285 61.092C325.051 60.9333 324.771 60.854 324.445 60.854C324.118 60.854 323.838 60.9333 323.605 61.092C323.371 61.2413 323.194 61.456 323.073 61.736C322.961 62.0067 322.905 62.324 322.905 62.688V62.73ZM241.144 84.14C240.397 84.14 239.767 84.0093 239.254 83.748C238.75 83.4867 238.363 83.118 238.092 82.642C237.831 82.166 237.681 81.6107 237.644 80.976C237.635 80.808 237.63 80.6027 237.63 80.36C237.63 80.1173 237.635 79.912 237.644 79.744C237.681 79.1 237.835 78.5447 238.106 78.078C238.386 77.602 238.778 77.2333 239.282 76.972C239.795 76.7107 240.416 76.58 241.144 76.58C241.872 76.58 242.488 76.7107 242.992 76.972C243.505 77.2333 243.897 77.602 244.168 78.078C244.448 78.5447 244.607 79.1 244.644 79.744C244.653 79.912 244.658 80.1173 244.658 80.36C244.658 80.6027 244.653 80.808 244.644 80.976C244.607 81.6107 244.453 82.166 244.182 82.642C243.921 83.118 243.533 83.4867 243.02 83.748C242.516 84.0093 241.891 84.14 241.144 84.14ZM241.144 82.754C241.639 82.754 242.021 82.6 242.292 82.292C242.563 81.9747 242.712 81.5127 242.74 80.906C242.749 80.766 242.754 80.584 242.754 80.36C242.754 80.136 242.749 79.954 242.74 79.814C242.712 79.2073 242.563 78.75 242.292 78.442C242.021 78.1247 241.639 77.966 241.144 77.966C240.649 77.966 240.267 78.1247 239.996 78.442C239.725 78.75 239.576 79.2073 239.548 79.814C239.539 79.954 239.534 80.136 239.534 80.36C239.534 80.584 239.539 80.766 239.548 80.906C239.576 81.5127 239.725 81.9747 239.996 82.292C240.267 82.6 240.649 82.754 241.144 82.754ZM246.545 84C246.452 84 246.372 83.9673 246.307 83.902C246.242 83.8367 246.209 83.7573 246.209 83.664V77.07C246.209 76.9673 246.242 76.8833 246.307 76.818C246.372 76.7527 246.452 76.72 246.545 76.72H247.679C247.772 76.72 247.852 76.7527 247.917 76.818C247.992 76.8833 248.029 76.9673 248.029 77.07V77.644C248.244 77.3453 248.519 77.1167 248.855 76.958C249.2 76.7993 249.597 76.72 250.045 76.72H250.619C250.722 76.72 250.801 76.7527 250.857 76.818C250.922 76.8833 250.955 76.9627 250.955 77.056V78.064C250.955 78.1573 250.922 78.2367 250.857 78.302C250.801 78.3673 250.722 78.4 250.619 78.4H249.527C249.079 78.4 248.729 78.526 248.477 78.778C248.234 79.0207 248.113 79.366 248.113 79.814V83.664C248.113 83.7573 248.08 83.8367 248.015 83.902C247.95 83.9673 247.866 84 247.763 84H246.545ZM258.165 84.14C257.419 84.14 256.789 84.0093 256.275 83.748C255.771 83.4867 255.384 83.118 255.113 82.642C254.852 82.166 254.703 81.6107 254.665 80.976C254.656 80.808 254.651 80.6027 254.651 80.36C254.651 80.1173 254.656 79.912 254.665 79.744C254.703 79.1 254.857 78.5447 255.127 78.078C255.407 77.602 255.799 77.2333 256.303 76.972C256.817 76.7107 257.437 76.58 258.165 76.58C258.893 76.58 259.509 76.7107 260.013 76.972C260.527 77.2333 260.919 77.602 261.189 78.078C261.469 78.5447 261.628 79.1 261.665 79.744C261.675 79.912 261.679 80.1173 261.679 80.36C261.679 80.6027 261.675 80.808 261.665 80.976C261.628 81.6107 261.474 82.166 261.203 82.642C260.942 83.118 260.555 83.4867 260.041 83.748C259.537 84.0093 258.912 84.14 258.165 84.14ZM258.165 82.754C258.66 82.754 259.043 82.6 259.313 82.292C259.584 81.9747 259.733 81.5127 259.761 80.906C259.771 80.766 259.775 80.584 259.775 80.36C259.775 80.136 259.771 79.954 259.761 79.814C259.733 79.2073 259.584 78.75 259.313 78.442C259.043 78.1247 258.66 77.966 258.165 77.966C257.671 77.966 257.288 78.1247 257.017 78.442C256.747 78.75 256.597 79.2073 256.569 79.814C256.56 79.954 256.555 80.136 256.555 80.36C256.555 80.584 256.56 80.766 256.569 80.906C256.597 81.5127 256.747 81.9747 257.017 82.292C257.288 82.6 257.671 82.754 258.165 82.754ZM265.547 84C265.398 84 265.286 83.9673 265.211 83.902C265.146 83.8273 265.09 83.7433 265.043 83.65L262.425 77.154C262.406 77.1073 262.397 77.0653 262.397 77.028C262.397 76.944 262.425 76.874 262.481 76.818C262.546 76.7527 262.621 76.72 262.705 76.72H263.839C263.951 76.72 264.035 76.7527 264.091 76.818C264.147 76.874 264.184 76.93 264.203 76.986L266.065 81.9L267.927 76.986C267.946 76.93 267.983 76.874 268.039 76.818C268.095 76.7527 268.179 76.72 268.291 76.72H269.439C269.514 76.72 269.579 76.7527 269.635 76.818C269.7 76.874 269.733 76.944 269.733 77.028C269.733 77.0653 269.728 77.1073 269.719 77.154L267.087 83.65C267.05 83.7433 266.994 83.8273 266.919 83.902C266.844 83.9673 266.732 84 266.583 84H265.547ZM273.886 84.14C272.85 84.14 272.029 83.8413 271.422 83.244C270.816 82.6467 270.489 81.7973 270.442 80.696C270.433 80.6027 270.428 80.486 270.428 80.346C270.428 80.1967 270.433 80.08 270.442 79.996C270.48 79.2867 270.638 78.68 270.918 78.176C271.208 77.6627 271.604 77.2707 272.108 77C272.612 76.72 273.205 76.58 273.886 76.58C274.642 76.58 275.277 76.7387 275.79 77.056C276.304 77.364 276.691 77.798 276.952 78.358C277.214 78.9087 277.344 79.548 277.344 80.276V80.57C277.344 80.6633 277.312 80.7427 277.246 80.808C277.181 80.8733 277.097 80.906 276.994 80.906H272.346C272.346 80.906 272.346 80.92 272.346 80.948C272.346 80.976 272.346 80.9993 272.346 81.018C272.356 81.3447 272.416 81.648 272.528 81.928C272.65 82.1987 272.822 82.418 273.046 82.586C273.28 82.754 273.555 82.838 273.872 82.838C274.134 82.838 274.353 82.8007 274.53 82.726C274.708 82.642 274.852 82.5487 274.964 82.446C275.076 82.3433 275.156 82.2593 275.202 82.194C275.286 82.082 275.352 82.0167 275.398 81.998C275.454 81.97 275.534 81.956 275.636 81.956H276.84C276.934 81.956 277.008 81.984 277.064 82.04C277.13 82.096 277.158 82.166 277.148 82.25C277.139 82.3993 277.06 82.5813 276.91 82.796C276.77 83.0107 276.565 83.2207 276.294 83.426C276.024 83.6313 275.683 83.804 275.272 83.944C274.871 84.0747 274.409 84.14 273.886 84.14ZM272.346 79.73H275.44V79.688C275.44 79.324 275.38 79.0067 275.258 78.736C275.137 78.456 274.96 78.2413 274.726 78.092C274.493 77.9333 274.213 77.854 273.886 77.854C273.56 77.854 273.28 77.9333 273.046 78.092C272.813 78.2413 272.636 78.456 272.514 78.736C272.402 79.0067 272.346 79.324 272.346 79.688V79.73ZM279.166 84C279.073 84 278.994 83.9673 278.928 83.902C278.863 83.8367 278.83 83.7573 278.83 83.664V77.07C278.83 76.9673 278.863 76.8833 278.928 76.818C278.994 76.7527 279.073 76.72 279.166 76.72H280.3C280.394 76.72 280.473 76.7527 280.538 76.818C280.613 76.8833 280.65 76.9673 280.65 77.07V77.644C280.865 77.3453 281.14 77.1167 281.476 76.958C281.822 76.7993 282.218 76.72 282.666 76.72H283.24C283.343 76.72 283.422 76.7527 283.478 76.818C283.544 76.8833 283.576 76.9627 283.576 77.056V78.064C283.576 78.1573 283.544 78.2367 283.478 78.302C283.422 78.3673 283.343 78.4 283.24 78.4H282.148C281.7 78.4 281.35 78.526 281.098 78.778C280.856 79.0207 280.734 79.366 280.734 79.814V83.664C280.734 83.7573 280.702 83.8367 280.636 83.902C280.571 83.9673 280.487 84 280.384 84H279.166ZM287.708 84.14C286.672 84.14 285.851 83.8413 285.244 83.244C284.638 82.6467 284.311 81.7973 284.264 80.696C284.255 80.6027 284.25 80.486 284.25 80.346C284.25 80.1967 284.255 80.08 284.264 79.996C284.302 79.2867 284.46 78.68 284.74 78.176C285.03 77.6627 285.426 77.2707 285.93 77C286.434 76.72 287.027 76.58 287.708 76.58C288.464 76.58 289.099 76.7387 289.612 77.056C290.126 77.364 290.513 77.798 290.774 78.358C291.036 78.9087 291.166 79.548 291.166 80.276V80.57C291.166 80.6633 291.134 80.7427 291.068 80.808C291.003 80.8733 290.919 80.906 290.816 80.906H286.168C286.168 80.906 286.168 80.92 286.168 80.948C286.168 80.976 286.168 80.9993 286.168 81.018C286.178 81.3447 286.238 81.648 286.35 81.928C286.472 82.1987 286.644 82.418 286.868 82.586C287.102 82.754 287.377 82.838 287.694 82.838C287.956 82.838 288.175 82.8007 288.352 82.726C288.53 82.642 288.674 82.5487 288.786 82.446C288.898 82.3433 288.978 82.2593 289.024 82.194C289.108 82.082 289.174 82.0167 289.22 81.998C289.276 81.97 289.356 81.956 289.458 81.956H290.662C290.756 81.956 290.83 81.984 290.886 82.04C290.952 82.096 290.98 82.166 290.97 82.25C290.961 82.3993 290.882 82.5813 290.732 82.796C290.592 83.0107 290.387 83.2207 290.116 83.426C289.846 83.6313 289.505 83.804 289.094 83.944C288.693 84.0747 288.231 84.14 287.708 84.14ZM286.168 79.73H289.262V79.688C289.262 79.324 289.202 79.0067 289.08 78.736C288.959 78.456 288.782 78.2413 288.548 78.092C288.315 77.9333 288.035 77.854 287.708 77.854C287.382 77.854 287.102 77.9333 286.868 78.092C286.635 78.2413 286.458 78.456 286.336 78.736C286.224 79.0067 286.168 79.324 286.168 79.688V79.73ZM294.767 84.14C294.281 84.14 293.843 84.0467 293.451 83.86C293.059 83.664 292.746 83.4073 292.513 83.09C292.289 82.7633 292.177 82.3993 292.177 81.998C292.177 81.3447 292.443 80.8267 292.975 80.444C293.507 80.052 294.202 79.7907 295.061 79.66L296.979 79.38V79.086C296.979 78.694 296.881 78.3907 296.685 78.176C296.489 77.9613 296.153 77.854 295.677 77.854C295.341 77.854 295.065 77.924 294.851 78.064C294.645 78.1947 294.491 78.372 294.389 78.596C294.314 78.7173 294.207 78.778 294.067 78.778H292.961C292.858 78.778 292.779 78.75 292.723 78.694C292.676 78.638 292.653 78.5633 292.653 78.47C292.662 78.3207 292.723 78.1387 292.835 77.924C292.956 77.7093 293.133 77.504 293.367 77.308C293.609 77.1027 293.922 76.93 294.305 76.79C294.687 76.65 295.149 76.58 295.691 76.58C296.279 76.58 296.773 76.6547 297.175 76.804C297.585 76.944 297.912 77.1353 298.155 77.378C298.397 77.6207 298.575 77.9053 298.687 78.232C298.799 78.5587 298.855 78.904 298.855 79.268V83.664C298.855 83.7573 298.822 83.8367 298.757 83.902C298.691 83.9673 298.612 84 298.519 84H297.385C297.282 84 297.198 83.9673 297.133 83.902C297.077 83.8367 297.049 83.7573 297.049 83.664V83.118C296.927 83.286 296.764 83.4493 296.559 83.608C296.353 83.7667 296.101 83.8973 295.803 84C295.513 84.0933 295.168 84.14 294.767 84.14ZM295.243 82.81C295.569 82.81 295.863 82.74 296.125 82.6C296.395 82.46 296.605 82.2453 296.755 81.956C296.913 81.6573 296.993 81.284 296.993 80.836V80.542L295.593 80.766C295.042 80.85 294.631 80.9853 294.361 81.172C294.09 81.3587 293.955 81.5873 293.955 81.858C293.955 82.0633 294.015 82.2407 294.137 82.39C294.267 82.53 294.431 82.6373 294.627 82.712C294.823 82.7773 295.028 82.81 295.243 82.81ZM303.872 84C303.312 84 302.841 83.902 302.458 83.706C302.076 83.51 301.791 83.2207 301.604 82.838C301.418 82.446 301.324 81.9607 301.324 81.382V78.204H300.218C300.125 78.204 300.046 78.1713 299.98 78.106C299.915 78.0407 299.882 77.9567 299.882 77.854V77.056C299.882 76.9627 299.915 76.8833 299.98 76.818C300.046 76.7527 300.125 76.72 300.218 76.72H301.324V74.396C301.324 74.3027 301.352 74.2233 301.408 74.158C301.474 74.0927 301.558 74.06 301.66 74.06H302.794C302.888 74.06 302.967 74.0927 303.032 74.158C303.098 74.2233 303.13 74.3027 303.13 74.396V76.72H304.88C304.974 76.72 305.053 76.7527 305.118 76.818C305.184 76.8833 305.216 76.9627 305.216 77.056V77.854C305.216 77.9567 305.184 78.0407 305.118 78.106C305.053 78.1713 304.974 78.204 304.88 78.204H303.13V81.242C303.13 81.6247 303.196 81.9233 303.326 82.138C303.466 82.3527 303.704 82.46 304.04 82.46H305.006C305.1 82.46 305.179 82.4927 305.244 82.558C305.31 82.6233 305.342 82.7027 305.342 82.796V83.664C305.342 83.7573 305.31 83.8367 305.244 83.902C305.179 83.9673 305.1 84 305.006 84H303.872ZM306.92 84C306.827 84 306.747 83.9673 306.682 83.902C306.617 83.8367 306.584 83.7573 306.584 83.664V77.056C306.584 76.9627 306.617 76.8833 306.682 76.818C306.747 76.7527 306.827 76.72 306.92 76.72H308.082C308.185 76.72 308.264 76.7527 308.32 76.818C308.385 76.8833 308.418 76.9627 308.418 77.056V83.664C308.418 83.7573 308.385 83.8367 308.32 83.902C308.264 83.9673 308.185 84 308.082 84H306.92ZM306.864 75.516C306.771 75.516 306.691 75.4833 306.626 75.418C306.561 75.3527 306.528 75.2733 306.528 75.18V74.172C306.528 74.0787 306.561 73.9993 306.626 73.934C306.691 73.8687 306.771 73.836 306.864 73.836H308.138C308.241 73.836 308.325 73.8687 308.39 73.934C308.455 73.9993 308.488 74.0787 308.488 74.172V75.18C308.488 75.2733 308.455 75.3527 308.39 75.418C308.325 75.4833 308.241 75.516 308.138 75.516H306.864ZM310.612 84C310.518 84 310.439 83.9673 310.374 83.902C310.308 83.8367 310.276 83.7573 310.276 83.664V77.056C310.276 76.9627 310.308 76.8833 310.374 76.818C310.439 76.7527 310.518 76.72 310.612 76.72H311.76C311.853 76.72 311.932 76.7527 311.998 76.818C312.063 76.8833 312.096 76.9627 312.096 77.056V77.63C312.338 77.3313 312.646 77.084 313.02 76.888C313.402 76.6827 313.874 76.58 314.434 76.58C315.003 76.58 315.498 76.7107 315.918 76.972C316.338 77.224 316.66 77.5833 316.884 78.05C317.117 78.5167 317.234 79.0767 317.234 79.73V83.664C317.234 83.7573 317.201 83.8367 317.136 83.902C317.07 83.9673 316.991 84 316.898 84H315.666C315.572 84 315.493 83.9673 315.428 83.902C315.362 83.8367 315.33 83.7573 315.33 83.664V79.814C315.33 79.2727 315.194 78.848 314.924 78.54C314.662 78.232 314.28 78.078 313.776 78.078C313.29 78.078 312.903 78.232 312.614 78.54C312.324 78.848 312.18 79.2727 312.18 79.814V83.664C312.18 83.7573 312.147 83.8367 312.082 83.902C312.016 83.9673 311.937 84 311.844 84H310.612ZM322.302 87.08C321.621 87.08 321.061 86.9913 320.622 86.814C320.183 86.6367 319.838 86.422 319.586 86.17C319.334 85.918 319.152 85.666 319.04 85.414C318.937 85.1713 318.881 84.98 318.872 84.84C318.863 84.7467 318.891 84.6627 318.956 84.588C319.031 84.5227 319.115 84.49 319.208 84.49H320.426C320.519 84.49 320.594 84.5087 320.65 84.546C320.706 84.5927 320.753 84.672 320.79 84.784C320.846 84.9053 320.921 85.036 321.014 85.176C321.107 85.316 321.247 85.4327 321.434 85.526C321.63 85.6287 321.896 85.68 322.232 85.68C322.587 85.68 322.885 85.6287 323.128 85.526C323.371 85.4233 323.553 85.2507 323.674 85.008C323.805 84.7653 323.87 84.4293 323.87 84V83.048C323.646 83.3187 323.357 83.538 323.002 83.706C322.657 83.874 322.227 83.958 321.714 83.958C321.219 83.958 320.785 83.8787 320.412 83.72C320.048 83.552 319.745 83.3233 319.502 83.034C319.259 82.7353 319.073 82.3853 318.942 81.984C318.821 81.5827 318.751 81.1393 318.732 80.654C318.723 80.402 318.723 80.15 318.732 79.898C318.751 79.4313 318.821 78.9973 318.942 78.596C319.073 78.1947 319.259 77.8447 319.502 77.546C319.745 77.238 320.048 77 320.412 76.832C320.785 76.664 321.219 76.58 321.714 76.58C322.246 76.58 322.694 76.6827 323.058 76.888C323.422 77.084 323.721 77.3313 323.954 77.63V77.07C323.954 76.9673 323.987 76.8833 324.052 76.818C324.117 76.7527 324.197 76.72 324.29 76.72H325.424C325.517 76.72 325.597 76.7527 325.662 76.818C325.727 76.8833 325.76 76.9673 325.76 77.07L325.774 83.818C325.774 84.49 325.648 85.0687 325.396 85.554C325.144 86.0393 324.761 86.4127 324.248 86.674C323.744 86.9447 323.095 87.08 322.302 87.08ZM322.232 82.474C322.615 82.474 322.923 82.39 323.156 82.222C323.389 82.054 323.562 81.8347 323.674 81.564C323.786 81.2933 323.851 81.018 323.87 80.738C323.879 80.6167 323.884 80.4627 323.884 80.276C323.884 80.0893 323.879 79.94 323.87 79.828C323.851 79.5387 323.786 79.2633 323.674 79.002C323.562 78.7313 323.389 78.512 323.156 78.344C322.923 78.1667 322.615 78.078 322.232 78.078C321.849 78.078 321.541 78.1667 321.308 78.344C321.075 78.512 320.907 78.736 320.804 79.016C320.711 79.296 320.655 79.604 320.636 79.94C320.617 80.164 320.617 80.3927 320.636 80.626C320.655 80.9527 320.711 81.2607 320.804 81.55C320.907 81.83 321.075 82.054 321.308 82.222C321.541 82.39 321.849 82.474 322.232 82.474ZM330.047 81.368C329.972 81.368 329.907 81.3447 329.851 81.298C329.795 81.242 329.767 81.172 329.767 81.088C329.767 81.0133 329.767 80.9387 329.767 80.864C329.767 80.7893 329.767 80.7147 329.767 80.64C329.804 80.276 329.902 79.954 330.061 79.674C330.229 79.3847 330.42 79.1233 330.635 78.89C330.859 78.6473 331.078 78.4187 331.293 78.204C331.517 77.9893 331.704 77.7793 331.853 77.574C332.012 77.3593 332.105 77.14 332.133 76.916C332.161 76.6453 332.105 76.4167 331.965 76.23C331.834 76.0433 331.652 75.9033 331.419 75.81C331.195 75.7073 330.957 75.656 330.705 75.656C330.266 75.656 329.907 75.7633 329.627 75.978C329.347 76.1927 329.156 76.538 329.053 77.014C329.025 77.126 328.978 77.21 328.913 77.266C328.848 77.3127 328.759 77.336 328.647 77.336H327.457C327.373 77.336 327.298 77.308 327.233 77.252C327.177 77.1867 327.149 77.1027 327.149 77C327.158 76.6267 327.242 76.2673 327.401 75.922C327.569 75.5673 327.807 75.25 328.115 74.97C328.432 74.69 328.815 74.4707 329.263 74.312C329.711 74.144 330.224 74.06 330.803 74.06C331.438 74.06 331.97 74.144 332.399 74.312C332.838 74.4707 333.183 74.6807 333.435 74.942C333.696 75.2033 333.883 75.488 333.995 75.796C334.107 76.0947 334.158 76.3887 334.149 76.678C334.13 77.0327 334.051 77.35 333.911 77.63C333.771 77.91 333.598 78.1713 333.393 78.414C333.188 78.6473 332.978 78.8807 332.763 79.114C332.548 79.338 332.357 79.5667 332.189 79.8C332.03 80.0333 331.923 80.2807 331.867 80.542C331.848 80.626 331.834 80.71 331.825 80.794C331.816 80.8687 331.806 80.9433 331.797 81.018C331.76 81.13 331.713 81.2187 331.657 81.284C331.601 81.34 331.522 81.368 331.419 81.368H330.047ZM330.005 84C329.912 84 329.832 83.9673 329.767 83.902C329.702 83.8367 329.669 83.7573 329.669 83.664V82.446C329.669 82.3433 329.702 82.2593 329.767 82.194C329.832 82.1287 329.912 82.096 330.005 82.096H331.363C331.466 82.096 331.55 82.1287 331.615 82.194C331.68 82.2593 331.713 82.3433 331.713 82.446V83.664C331.713 83.7573 331.68 83.8367 331.615 83.902C331.55 83.9673 331.466 84 331.363 84H330.005Z" fill="white"/>
<path d="M243.866 100.5C243.481 101.167 242.519 101.167 242.134 100.5L238.67 94.5C238.285 93.8333 238.766 93 239.536 93L246.464 93C247.234 93 247.715 93.8333 247.33 94.5L243.866 100.5Z" fill="#424158"/>
<defs>
<clipPath id="clip0_1067_306">
<rect width="18" height="18" fill="white" transform="translate(35 130)"/>
</clipPath>
<clipPath id="clip1_1067_306">
<rect width="18" height="18" fill="white" transform="translate(10 130)"/>
</clipPath>
<clipPath id="clip2_1067_306">
<rect width="18" height="18" fill="white" transform="translate(60 130)"/>
</clipPath>
</defs>
</svg>
