<svg width="46" height="47" viewBox="0 0 46 47" fill="none" xmlns="http://www.w3.org/2000/svg">
<ellipse rx="22.8308" ry="23.1875" transform="matrix(1 0 0 -1 22.8308 23.1875)" fill="#E8E1FE"/>
<path d="M15.2204 25.209C14.5545 25.209 14.2215 25.209 13.9671 25.0794C13.7434 24.9654 13.5615 24.7835 13.4475 24.5598C13.3179 24.3054 13.3179 23.9724 13.3179 23.3065L13.3179 17.1231C13.3179 15.7912 13.3179 15.1252 13.5771 14.6165C13.8051 14.169 14.1689 13.8052 14.6164 13.5772C15.1251 13.318 15.7911 13.318 17.123 13.318L28.5384 13.318C29.8703 13.318 30.5363 13.318 31.045 13.5772C31.4925 13.8052 31.8563 14.169 32.0843 14.6165C32.3435 15.1252 32.3435 15.7912 32.3435 17.1231V23.3065C32.3435 23.9724 32.3435 24.3054 32.2139 24.5598C32.0999 24.7835 31.918 24.9654 31.6943 25.0794C31.4399 25.209 31.1069 25.209 30.4409 25.209L15.2204 25.209Z" fill="#473860"/>
<path d="M14.1106 32.3436C13.3734 32.3436 13.0048 32.3436 12.7024 32.2625C11.8817 32.0426 11.2406 31.4016 11.0207 30.5809C10.9397 30.2785 10.9397 29.9098 10.9397 29.1726C10.9397 28.804 10.9397 28.6197 10.9802 28.4685C11.0902 28.0581 11.4107 27.7376 11.821 27.6277C11.9723 27.5872 12.1566 27.5872 12.5252 27.5872L33.1363 27.5872C33.5049 27.5872 33.6892 27.5872 33.8404 27.6277C34.2508 27.7376 34.5713 28.0581 34.6812 28.4685C34.7218 28.6197 34.7218 28.804 34.7218 29.1726C34.7218 29.9098 34.7218 30.2785 34.6407 30.5809C34.4208 31.4016 33.7798 32.0426 32.9591 32.2625C32.6566 32.3436 32.288 32.3436 31.5508 32.3436L14.1106 32.3436Z" fill="#473860"/>
</svg>
