<svg width="172" height="63" viewBox="0 0 172 63" fill="none" xmlns="http://www.w3.org/2000/svg">
<ellipse cx="31.1259" cy="31.9511" rx="30.8707" ry="31.0489" fill="#333242"/>
<path d="M23.7554 33.4766C24.0981 32.2139 23.5246 31.734 22.6365 32.2139L16.1959 35.3708C15.9016 35.5056 15.6468 35.7012 15.452 35.9417C15.2572 36.1822 15.128 36.4607 15.0748 36.7548C15.0217 37.0488 15.0461 37.35 15.1461 37.6339C15.2461 37.9179 15.4189 38.1765 15.6504 38.3888L19.4127 42.7705C19.5651 42.9142 19.7584 43.0172 19.9712 43.0685C20.1841 43.1198 20.4085 43.1173 20.62 43.0612C20.8314 43.0052 21.0217 42.8978 21.1701 42.7508C21.3186 42.6038 21.4194 42.4228 21.4617 42.2275L23.7554 33.4766Z" fill="#FDB590"/>
<path d="M25.6048 48.3182C24.1293 46.7562 23.8328 45.4556 24.1293 44.4101L27.8991 30.85C28.1847 29.9111 28.8309 29.0885 29.7275 28.5226L36.7871 25.1372C37.007 25.053 37.2492 25.0244 37.4865 25.0546C37.7238 25.0848 37.9469 25.1726 38.1309 25.3083C38.3148 25.4439 38.4522 25.622 38.5278 25.8226C38.6035 26.0232 38.6143 26.2384 38.559 26.444L31.4501 52.1827C31.3994 52.3724 31.2892 52.5458 31.1321 52.6829C30.975 52.8201 30.7773 52.9156 30.5616 52.9584C30.3459 53.0012 30.1208 52.9897 29.9122 52.9252C29.7035 52.8607 29.5197 52.7457 29.3816 52.5934L25.6048 48.3182Z" fill="#EBEB4A"/>
<path d="M47.2748 32.8605C47.6247 33.4005 47.784 34.0221 47.7319 34.6441C47.6798 35.2661 47.4187 35.8596 46.9827 36.3472L38.3028 46.1062C38.1395 46.2944 37.9085 46.4267 37.6487 46.4808C37.389 46.535 37.1162 46.5078 36.8763 46.4037C36.6364 46.2996 36.444 46.125 36.3314 45.9093C36.2188 45.6935 36.1929 45.4498 36.258 45.219L41.1265 26.8674C41.179 26.664 41.2991 26.4794 41.4711 26.3379C41.6431 26.1964 41.859 26.1045 42.0906 26.0744C42.3221 26.0442 42.5585 26.0771 42.7687 26.1688C42.9789 26.2605 43.1532 26.4067 43.2687 26.5882L47.2748 32.8605Z" fill="#E8E1FE"/>
<path d="M31.4997 24.9139C31.3028 25.0135 31.0784 25.0585 30.854 25.0432C30.6296 25.028 30.415 24.9533 30.2363 24.8282C30.0576 24.7031 29.9227 24.5331 29.848 24.3389C29.7734 24.1448 29.7622 23.9349 29.8159 23.7351L31.5205 17.3023L32.3935 14.1334L32.8785 12.6504C32.9092 12.5517 32.9708 12.4634 33.0557 12.3963C33.1405 12.3292 33.245 12.2863 33.3562 12.2728C33.4674 12.2594 33.5805 12.2759 33.6815 12.3205C33.7825 12.365 33.8671 12.4357 33.9248 12.5236L38.7751 20.0719C38.8522 20.1947 38.9018 20.3304 38.9208 20.4709C38.9399 20.6115 38.9281 20.7541 38.8862 20.8904C38.8442 21.0268 38.773 21.1541 38.6766 21.2649C38.5802 21.3757 38.4606 21.4679 38.3248 21.5359L31.4997 24.9139Z" fill="#94E2BF"/>
<path d="M17.2562 31.905L24.5375 28.378C24.9716 28.1684 25.3511 27.8769 25.6503 27.5232C25.9494 27.1696 26.1614 26.7619 26.2718 26.3278L30.1051 11.335C30.1463 11.1538 30.1156 10.9654 30.0184 10.8027C29.9211 10.6401 29.7636 10.5138 29.5736 10.446C29.3836 10.3782 29.1733 10.3733 28.9797 10.4322C28.7861 10.4911 28.6216 10.61 28.5153 10.7679L24.4755 16.9993L21.5919 21.7103L15.7215 30.4406C15.5906 30.6368 15.5346 30.8666 15.5619 31.0945C15.5892 31.3224 15.6983 31.5359 15.8726 31.7023C16.0469 31.8686 16.2767 31.9785 16.5266 32.0151C16.7766 32.0517 17.0329 32.013 17.2562 31.905V31.905Z" fill="#5DE8E8"/>
<path d="M87.7891 41.8298C85.4941 41.8298 83.5745 41.3334 82.0302 40.3406C80.5074 39.3262 79.4242 37.9556 78.7808 36.229L83.2206 33.639C84.1214 35.7325 85.6979 36.7793 87.95 36.7793C89.9876 36.7793 91.0064 36.1642 91.0064 34.934C91.0064 34.2649 90.674 33.7469 90.009 33.38C89.3656 32.9915 88.143 32.549 86.3414 32.0526C85.3976 31.7936 84.5719 31.5022 83.8641 31.1785C83.1563 30.8547 82.4592 30.4338 81.7728 29.9158C81.1079 29.3763 80.5932 28.7072 80.2285 27.9086C79.8854 27.11 79.7138 26.1927 79.7138 25.1567C79.7138 23.0631 80.4537 21.3904 81.9337 20.1386C83.4351 18.8868 85.2153 18.2609 87.2744 18.2609C89.1189 18.2609 90.749 18.7033 92.1646 19.5882C93.5802 20.4516 94.6955 21.7142 95.5106 23.3761L91.1673 25.9337C90.7597 25.0704 90.2557 24.4229 89.6551 23.9912C89.0546 23.538 88.261 23.3114 87.2744 23.3114C86.5022 23.3114 85.9017 23.484 85.4727 23.8294C85.0652 24.1531 84.8614 24.5524 84.8614 25.0272C84.8614 25.5884 85.1188 26.074 85.6336 26.4841C86.1698 26.8942 87.2636 27.3474 88.9152 27.8438C89.816 28.1244 90.5131 28.3511 91.0064 28.5237C91.4997 28.6964 92.1217 28.9878 92.8724 29.3978C93.6446 29.7863 94.2237 30.2072 94.6098 30.6605C95.0173 31.0921 95.3712 31.6749 95.6715 32.4087C95.9932 33.121 96.154 33.9411 96.154 34.8692C96.154 37.0275 95.3819 38.7326 93.8376 39.9844C92.2933 41.2147 90.2772 41.8298 87.7891 41.8298Z" fill="white"/>
<path d="M110.394 25.1891H115.22V41.3766H110.394V39.8549C109.257 41.1715 107.659 41.8298 105.6 41.8298C103.477 41.8298 101.664 41.0096 100.163 39.3693C98.6617 37.7074 97.911 35.6786 97.911 33.2828C97.911 30.8871 98.6617 28.869 100.163 27.2287C101.664 25.5668 103.477 24.7359 105.6 24.7359C107.659 24.7359 109.257 25.3941 110.394 26.7107V25.1891ZM103.799 36.1642C104.506 36.8764 105.429 37.2326 106.565 37.2326C107.702 37.2326 108.625 36.8764 109.332 36.1642C110.04 35.452 110.394 34.4915 110.394 33.2828C110.394 32.0742 110.04 31.1137 109.332 30.4015C108.625 29.6892 107.702 29.3331 106.565 29.3331C105.429 29.3331 104.506 29.6892 103.799 30.4015C103.091 31.1137 102.737 32.0742 102.737 33.2828C102.737 34.4915 103.091 35.452 103.799 36.1642Z" fill="white"/>
<path d="M127.865 24.7359C129.581 24.7359 131.008 25.3294 132.144 26.5165C133.303 27.7036 133.882 29.3439 133.882 31.4375V41.3766H129.056V32.1497C129.056 31.2 128.788 30.477 128.251 29.9806C127.737 29.4626 127.072 29.2036 126.257 29.2036C125.334 29.2036 124.605 29.4842 124.069 30.0453C123.533 30.6065 123.265 31.4375 123.265 32.5382V41.3766H118.439V18.7141H123.265V26.7107C124.23 25.3941 125.763 24.7359 127.865 24.7359Z" fill="white"/>
<path d="M146.301 24.7359C148.016 24.7359 149.443 25.3294 150.58 26.5165C151.738 27.7036 152.317 29.3439 152.317 31.4375V41.3766H147.491V32.1497C147.491 31.2 147.223 30.477 146.687 29.9806C146.172 29.4626 145.507 29.2036 144.692 29.2036C143.77 29.2036 143.04 29.4842 142.504 30.0453C141.968 30.6065 141.7 31.4375 141.7 32.5382V41.3766H136.874V18.7141H141.7V26.7107C142.665 25.3941 144.199 24.7359 146.301 24.7359Z" fill="white"/>
<path d="M166.988 25.1891H171.814V41.3766H166.988V39.8549C165.851 41.1715 164.253 41.8298 162.194 41.8298C160.071 41.8298 158.258 41.0096 156.757 39.3693C155.256 37.7074 154.505 35.6786 154.505 33.2828C154.505 30.8871 155.256 28.869 156.757 27.2287C158.258 25.5668 160.071 24.7359 162.194 24.7359C164.253 24.7359 165.851 25.3941 166.988 26.7107V25.1891ZM160.392 36.1642C161.1 36.8764 162.023 37.2326 163.159 37.2326C164.296 37.2326 165.218 36.8764 165.926 36.1642C166.634 35.452 166.988 34.4915 166.988 33.2828C166.988 32.0742 166.634 31.1137 165.926 30.4015C165.218 29.6892 164.296 29.3331 163.159 29.3331C162.023 29.3331 161.1 29.6892 160.392 30.4015C159.685 31.1137 159.331 32.0742 159.331 33.2828C159.331 34.4915 159.685 35.452 160.392 36.1642Z" fill="white"/>
</svg>
