<svg xmlns="http://www.w3.org/2000/svg" width="564" height="564" viewBox="0 0 564 564" fill="none">
<circle cx="281.248" cy="281.248" r="145.143" fill="#EDF5F9"/>
<circle cx="282" cy="282" r="228.619" transform="rotate(15 282 282)" stroke="#F4F4F5" stroke-width="2" stroke-linecap="round" stroke-linejoin="round" stroke-dasharray="60 60"/>
<circle cx="282" cy="282" r="186.213" transform="rotate(30 282 282)" stroke="#F4F4F5" stroke-width="2" stroke-linecap="round" stroke-linejoin="round" stroke-dasharray="90 90"/>
<rect x="406.838" y="92.2444" width="5.64027" height="5.64027" rx="2.82014" fill="#C4C4C4"/>
<rect x="418.119" y="92.2444" width="5.64027" height="5.64027" rx="2.82014" fill="#C4C4C4"/>
<rect x="429.398" y="92.2444" width="5.64027" height="5.64027" rx="2.82014" fill="#C4C4C4"/>
<rect x="440.68" y="92.2444" width="5.64027" height="5.64027" rx="2.82014" fill="#C4C4C4"/>
<rect x="406.838" y="101.645" width="5.64027" height="5.64027" rx="2.82014" fill="#C4C4C4"/>
<rect x="418.119" y="101.645" width="5.64027" height="5.64027" rx="2.82014" fill="#C4C4C4"/>
<rect x="429.398" y="101.645" width="5.64027" height="5.64027" rx="2.82014" fill="#C4C4C4"/>
<rect x="440.68" y="101.645" width="5.64027" height="5.64027" rx="2.82014" fill="#C4C4C4"/>
<g clip-path="url(#clip0)">
<path d="M106.023 310.335C103.048 310.335 100.14 311.217 97.667 312.87C95.1935 314.522 93.2657 316.871 92.1273 319.62C90.9889 322.368 90.6911 325.392 91.2714 328.31C91.8518 331.228 93.2843 333.908 95.3878 336.011C97.4912 338.115 100.171 339.547 103.089 340.127C106.006 340.708 109.031 340.41 111.779 339.271C114.527 338.133 116.876 336.205 118.529 333.732C120.182 331.258 121.064 328.35 121.064 325.376C121.064 321.387 119.479 317.561 116.659 314.74C113.838 311.92 110.012 310.335 106.023 310.335V310.335ZM98.5028 323.496C98.5028 323.124 98.6131 322.76 98.8196 322.451C99.0262 322.142 99.3199 321.901 99.6634 321.759C100.007 321.616 100.385 321.579 100.75 321.652C101.114 321.724 101.449 321.903 101.712 322.166C101.975 322.429 102.154 322.764 102.227 323.129C102.299 323.493 102.262 323.871 102.12 324.215C101.978 324.559 101.737 324.852 101.427 325.059C101.118 325.265 100.755 325.376 100.383 325.376C99.8843 325.376 99.406 325.178 99.0535 324.825C98.7009 324.472 98.5028 323.994 98.5028 323.496ZM106.023 334.149C104.693 334.149 103.418 333.621 102.478 332.681C101.538 331.741 101.01 330.465 101.01 329.136H111.037C111.037 330.465 110.509 331.741 109.568 332.681C108.628 333.621 107.353 334.149 106.023 334.149ZM111.663 325.376C111.292 325.376 110.928 325.265 110.619 325.059C110.31 324.852 110.069 324.559 109.926 324.215C109.784 323.871 109.747 323.493 109.819 323.129C109.892 322.764 110.071 322.429 110.334 322.166C110.597 321.903 110.932 321.724 111.297 321.652C111.661 321.579 112.039 321.616 112.383 321.759C112.726 321.901 113.02 322.142 113.227 322.451C113.433 322.76 113.544 323.124 113.544 323.496C113.544 323.994 113.345 324.472 112.993 324.825C112.64 325.178 112.162 325.376 111.663 325.376Z" fill="#8666E1"/>
</g>
<rect x="107.527" y="457.734" width="5.64027" height="5.64027" rx="2.82014" fill="#C4C4C4"/>
<rect x="118.809" y="457.734" width="5.64027" height="5.64027" rx="2.82014" fill="#C4C4C4"/>
<rect x="130.088" y="457.734" width="5.64027" height="5.64027" rx="2.82014" fill="#C4C4C4"/>
<rect x="141.369" y="457.734" width="5.64027" height="5.64027" rx="2.82014" fill="#C4C4C4"/>
<rect x="107.527" y="467.134" width="5.64027" height="5.64027" rx="2.82014" fill="#C4C4C4"/>
<rect x="118.809" y="467.134" width="5.64027" height="5.64027" rx="2.82014" fill="#C4C4C4"/>
<rect x="130.088" y="467.134" width="5.64027" height="5.64027" rx="2.82014" fill="#C4C4C4"/>
<rect x="141.369" y="467.134" width="5.64027" height="5.64027" rx="2.82014" fill="#C4C4C4"/>
<path d="M468.223 406.474L471.655 415.749C471.908 416.433 472.448 416.973 473.132 417.226L482.406 420.658C482.841 420.819 482.841 421.434 482.406 421.596L473.132 425.027C472.448 425.281 471.908 425.82 471.655 426.504L468.223 435.779C468.062 436.214 467.446 436.214 467.285 435.779L463.853 426.504C463.6 425.82 463.061 425.281 462.376 425.027L453.102 421.596C452.667 421.434 452.667 420.819 453.102 420.658L462.376 417.226C463.061 416.973 463.6 416.433 463.853 415.749L467.285 406.474C467.446 406.039 468.062 406.039 468.223 406.474Z" stroke="#5DE8E8" stroke-width="2"/>
<path d="M96.7151 129.483L100.147 138.757C100.4 139.441 100.94 139.981 101.624 140.234L110.898 143.666C111.334 143.827 111.334 144.443 110.898 144.604L101.624 148.036C100.94 148.289 100.4 148.828 100.147 149.513L96.7151 158.787C96.5541 159.222 95.9384 159.222 95.7773 158.787L92.3455 149.513C92.0923 148.828 91.5527 148.289 90.8684 148.036L81.5941 144.604C81.1588 144.443 81.1588 143.827 81.5941 143.666L90.8684 140.234C91.5527 139.981 92.0923 139.441 92.3455 138.757L95.7773 129.483C95.9384 129.047 96.5541 129.047 96.7151 129.483Z" stroke="#94E2BF" stroke-width="2"/>
<circle cx="282" cy="282" r="140" fill="#F1F5F9"/>
<circle cx="282" cy="282" r="149.5" stroke="#F4F4F5" stroke-width="5"/>
<mask id="mask0" mask-type="alpha" maskUnits="userSpaceOnUse" x="142" y="142" width="280" height="280">
<circle cx="282" cy="282" r="140" fill="#F1F5F9"/>
</mask>
<g mask="url(#mask0)">
<rect x="184" y="220" width="195" height="274" rx="26" fill="#D0D1D9"/>
<path d="M194 252C194 239.85 203.85 230 216 230H349C361.15 230 371 239.85 371 252V462C371 474.15 361.15 484 349 484H216C203.85 484 194 474.15 194 462V252Z" fill="#F1F5F9"/>
<path d="M249.189 263.362C249.133 263.362 249.088 263.347 249.053 263.317C249.018 263.281 249 263.236 249 263.181V258.264C249 258.209 249.018 258.164 249.053 258.128C249.088 258.093 249.133 258.076 249.189 258.076H249.785C249.891 258.076 249.967 258.123 250.012 258.219L251.47 260.938L252.942 258.219C252.992 258.123 253.068 258.076 253.169 258.076H253.758C253.813 258.076 253.858 258.093 253.894 258.128C253.929 258.164 253.947 258.209 253.947 258.264V263.181C253.947 263.236 253.929 263.281 253.894 263.317C253.858 263.347 253.813 263.362 253.758 263.362H253.123C253.073 263.362 253.03 263.344 252.995 263.309C252.96 263.274 252.942 263.231 252.942 263.181V259.911L251.885 261.927C251.819 262.038 251.734 262.093 251.628 262.093H251.318C251.213 262.093 251.127 262.038 251.062 261.927L250.004 259.911V263.181C250.004 263.231 249.987 263.274 249.952 263.309C249.921 263.344 249.879 263.362 249.823 263.362H249.189Z" fill="#1E293B"/>
<path d="M257.07 263.362C257.019 263.362 256.977 263.344 256.941 263.309C256.906 263.274 256.888 263.231 256.888 263.181V261.474L255.106 258.317C255.091 258.292 255.083 258.264 255.083 258.234C255.083 258.189 255.099 258.151 255.129 258.121C255.159 258.091 255.194 258.076 255.235 258.076H255.907C255.962 258.076 256.007 258.091 256.043 258.121C256.083 258.151 256.113 258.184 256.133 258.219L257.417 260.417L258.693 258.219C258.754 258.123 258.832 258.076 258.927 258.076H259.592C259.637 258.076 259.675 258.091 259.705 258.121C259.736 258.151 259.751 258.189 259.751 258.234C259.751 258.264 259.743 258.292 259.728 258.317L257.946 261.474V263.181C257.946 263.231 257.928 263.274 257.893 263.309C257.858 263.344 257.812 263.362 257.757 263.362H257.07Z" fill="#1E293B"/>
<path d="M264.115 263.362C263.969 263.362 263.873 263.291 263.828 263.15L262.212 258.302L262.197 258.234C262.197 258.189 262.212 258.151 262.242 258.121C262.272 258.091 262.31 258.076 262.355 258.076H263.02C263.085 258.076 263.136 258.093 263.171 258.128C263.211 258.159 263.239 258.196 263.254 258.242L264.53 262.131L265.807 258.242C265.817 258.201 265.842 258.164 265.882 258.128C265.922 258.093 265.975 258.076 266.041 258.076H266.705C266.746 258.076 266.781 258.091 266.811 258.121C266.846 258.151 266.864 258.189 266.864 258.234L266.849 258.302L265.233 263.15C265.187 263.291 265.092 263.362 264.946 263.362H264.115Z" fill="#1E293B"/>
<path d="M269.91 263.437C269.225 263.437 268.692 263.264 268.309 262.916C267.926 262.569 267.725 262.053 267.705 261.368C267.7 261.222 267.697 261.008 267.697 260.726C267.697 260.439 267.7 260.223 267.705 260.077C267.725 259.407 267.931 258.894 268.324 258.536C268.717 258.179 269.245 258 269.91 258C270.575 258 271.103 258.179 271.496 258.536C271.894 258.894 272.103 259.407 272.123 260.077C272.133 260.369 272.138 260.585 272.138 260.726C272.138 260.862 272.133 261.076 272.123 261.368C272.098 262.053 271.894 262.569 271.511 262.916C271.128 263.264 270.595 263.437 269.91 263.437ZM269.91 262.569C270.247 262.569 270.517 262.468 270.718 262.267C270.919 262.06 271.028 261.748 271.043 261.33C271.053 261.028 271.058 260.824 271.058 260.719C271.058 260.603 271.053 260.399 271.043 260.107C271.028 259.689 270.919 259.379 270.718 259.178C270.517 258.972 270.247 258.868 269.91 258.868C269.578 258.868 269.311 258.972 269.11 259.178C268.908 259.379 268.8 259.689 268.785 260.107C268.78 260.253 268.777 260.457 268.777 260.719C268.777 260.975 268.78 261.179 268.785 261.33C268.8 261.748 268.906 262.06 269.102 262.267C269.303 262.468 269.573 262.569 269.91 262.569Z" fill="#1E293B"/>
<path d="M275.546 263.437C274.851 263.437 274.313 263.259 273.93 262.901C273.552 262.544 273.351 262.04 273.326 261.391C273.321 261.255 273.318 261.033 273.318 260.726C273.318 260.414 273.321 260.188 273.326 260.047C273.351 259.402 273.555 258.901 273.938 258.544C274.325 258.181 274.861 258 275.546 258C275.994 258 276.384 258.078 276.717 258.234C277.049 258.385 277.306 258.594 277.487 258.861C277.668 259.123 277.764 259.42 277.774 259.752V259.767C277.774 259.807 277.756 259.843 277.721 259.873C277.691 259.898 277.656 259.911 277.615 259.911H276.898C276.838 259.911 276.792 259.898 276.762 259.873C276.732 259.848 276.707 259.8 276.687 259.729C276.606 259.412 276.473 259.191 276.286 259.065C276.1 258.934 275.851 258.868 275.539 258.868C274.814 258.868 274.436 259.274 274.406 260.084C274.401 260.22 274.398 260.429 274.398 260.711C274.398 260.993 274.401 261.207 274.406 261.353C274.436 262.164 274.814 262.569 275.539 262.569C275.851 262.569 276.1 262.504 276.286 262.373C276.478 262.242 276.611 262.02 276.687 261.708C276.702 261.638 276.724 261.59 276.754 261.565C276.79 261.539 276.838 261.527 276.898 261.527H277.615C277.661 261.527 277.698 261.542 277.729 261.572C277.764 261.602 277.779 261.64 277.774 261.685C277.764 262.018 277.668 262.317 277.487 262.584C277.306 262.846 277.049 263.055 276.717 263.211C276.384 263.362 275.994 263.437 275.546 263.437Z" fill="#1E293B"/>
<path d="M278.663 263.362C278.623 263.362 278.585 263.347 278.55 263.317C278.52 263.286 278.505 263.249 278.505 263.203L278.52 263.135L280.34 258.264C280.375 258.138 280.463 258.076 280.604 258.076H281.428C281.558 258.076 281.647 258.138 281.692 258.264L283.512 263.135C283.517 263.15 283.519 263.173 283.519 263.203C283.519 263.249 283.504 263.286 283.474 263.317C283.444 263.347 283.409 263.362 283.368 263.362H282.711C282.646 263.362 282.596 263.347 282.56 263.317C282.525 263.286 282.502 263.254 282.492 263.218L282.137 262.297H279.894L279.54 263.218C279.499 263.314 279.426 263.362 279.321 263.362H278.663ZM281.873 261.429L281.012 259.095L280.159 261.429H281.873Z" fill="#1E293B"/>
<path d="M284.783 263.362C284.733 263.362 284.69 263.344 284.655 263.309C284.62 263.274 284.602 263.231 284.602 263.181V258.264C284.602 258.209 284.617 258.164 284.647 258.128C284.683 258.093 284.728 258.076 284.783 258.076H286.973C287.562 258.076 288 258.206 288.287 258.468C288.579 258.725 288.725 259.077 288.725 259.526C288.725 259.787 288.66 260.011 288.529 260.198C288.403 260.379 288.255 260.51 288.084 260.59C288.295 260.686 288.471 260.842 288.612 261.059C288.758 261.275 288.831 261.522 288.831 261.799C288.831 262.267 288.673 262.644 288.355 262.931C288.043 263.218 287.603 263.362 287.034 263.362H284.783ZM286.837 260.243C287.099 260.243 287.298 260.18 287.434 260.054C287.57 259.928 287.638 259.76 287.638 259.548C287.638 259.332 287.57 259.166 287.434 259.05C287.298 258.929 287.099 258.868 286.837 258.868H285.652V260.243H286.837ZM286.913 262.561C287.175 262.561 287.379 262.491 287.525 262.35C287.671 262.204 287.744 262.02 287.744 261.799C287.744 261.572 287.671 261.388 287.525 261.247C287.379 261.101 287.175 261.028 286.913 261.028H285.652V262.561H286.913Z" fill="#1E293B"/>
<path d="M292.264 263.437C291.584 263.437 291.056 263.264 290.678 262.916C290.3 262.569 290.112 262.043 290.112 261.338V258.264C290.112 258.209 290.127 258.164 290.157 258.128C290.192 258.093 290.237 258.076 290.293 258.076H290.98C291.035 258.076 291.078 258.093 291.108 258.128C291.144 258.164 291.161 258.209 291.161 258.264V261.338C291.161 261.741 291.257 262.045 291.448 262.252C291.64 262.453 291.912 262.554 292.264 262.554C292.616 262.554 292.886 262.453 293.072 262.252C293.263 262.045 293.359 261.741 293.359 261.338V258.264C293.359 258.209 293.377 258.164 293.412 258.128C293.447 258.093 293.492 258.076 293.548 258.076H294.227C294.283 258.076 294.326 258.093 294.356 258.128C294.391 258.164 294.409 258.209 294.409 258.264V261.338C294.409 262.043 294.22 262.569 293.842 262.916C293.47 263.264 292.944 263.437 292.264 263.437Z" fill="#1E293B"/>
<path d="M296.1 263.362C296.049 263.362 296.006 263.344 295.971 263.309C295.936 263.274 295.918 263.231 295.918 263.181V258.257C295.918 258.201 295.936 258.159 295.971 258.128C296.006 258.093 296.049 258.076 296.1 258.076H296.802C296.857 258.076 296.9 258.093 296.93 258.128C296.965 258.159 296.983 258.201 296.983 258.257V262.463H299.377C299.432 262.463 299.478 262.481 299.513 262.516C299.548 262.551 299.566 262.597 299.566 262.652V263.181C299.566 263.236 299.548 263.281 299.513 263.317C299.478 263.347 299.432 263.362 299.377 263.362H296.1Z" fill="#1E293B"/>
<path d="M300.352 263.362C300.312 263.362 300.274 263.347 300.239 263.317C300.208 263.286 300.193 263.249 300.193 263.203L300.208 263.135L302.028 258.264C302.064 258.138 302.152 258.076 302.293 258.076H303.116C303.247 258.076 303.335 258.138 303.38 258.264L305.2 263.135C305.205 263.15 305.208 263.173 305.208 263.203C305.208 263.249 305.193 263.286 305.163 263.317C305.132 263.347 305.097 263.362 305.057 263.362H304.4C304.334 263.362 304.284 263.347 304.249 263.317C304.213 263.286 304.191 263.254 304.181 263.218L303.826 262.297H301.583L301.228 263.218C301.188 263.314 301.115 263.362 301.009 263.362H300.352ZM303.561 261.429L302.701 259.095L301.847 261.429H303.561Z" fill="#1E293B"/>
<path d="M306.472 263.362C306.421 263.362 306.379 263.344 306.343 263.309C306.308 263.274 306.29 263.231 306.29 263.181V258.264C306.29 258.209 306.306 258.164 306.336 258.128C306.371 258.093 306.416 258.076 306.472 258.076H308.428C309.042 258.076 309.523 258.219 309.87 258.506C310.223 258.793 310.399 259.201 310.399 259.729C310.399 260.097 310.308 260.407 310.127 260.658C309.951 260.905 309.704 261.084 309.387 261.194L310.489 263.12C310.504 263.15 310.512 263.178 310.512 263.203C310.512 263.249 310.494 263.286 310.459 263.317C310.429 263.347 310.394 263.362 310.353 263.362H309.666C309.586 263.362 309.523 263.344 309.477 263.309C309.437 263.274 309.399 263.223 309.364 263.158L308.39 261.368H307.34V263.181C307.34 263.231 307.323 263.274 307.287 263.309C307.257 263.344 307.214 263.362 307.159 263.362H306.472ZM308.405 260.515C308.707 260.515 308.934 260.447 309.085 260.311C309.241 260.175 309.319 259.979 309.319 259.722C309.319 259.465 309.241 259.266 309.085 259.125C308.934 258.984 308.707 258.914 308.405 258.914H307.34V260.515H308.405Z" fill="#1E293B"/>
<path d="M313.121 263.362C313.071 263.362 313.028 263.344 312.993 263.309C312.958 263.274 312.94 263.231 312.94 263.181V261.474L311.158 258.317C311.143 258.292 311.135 258.264 311.135 258.234C311.135 258.189 311.15 258.151 311.18 258.121C311.21 258.091 311.246 258.076 311.286 258.076H311.958C312.014 258.076 312.059 258.091 312.094 258.121C312.134 258.151 312.165 258.184 312.185 258.219L313.469 260.417L314.745 258.219C314.805 258.123 314.883 258.076 314.979 258.076H315.644C315.689 258.076 315.727 258.091 315.757 258.121C315.787 258.151 315.802 258.189 315.802 258.234C315.802 258.264 315.795 258.292 315.779 258.317L313.997 261.474V263.181C313.997 263.231 313.98 263.274 313.944 263.309C313.909 263.344 313.864 263.362 313.808 263.362H313.121Z" fill="#1E293B"/>
<g clip-path="url(#clip1)">
<g clip-path="url(#clip2)">
<path fill-rule="evenodd" clip-rule="evenodd" d="M208.633 259.872C208.633 259.611 208.844 259.4 209.105 259.4H218.545C218.805 259.4 219.017 259.611 219.017 259.872C219.017 260.133 218.805 260.344 218.545 260.344H209.105C208.844 260.344 208.633 260.133 208.633 259.872Z" fill="#475569"/>
<path fill-rule="evenodd" clip-rule="evenodd" d="M212.743 256.234C212.927 256.418 212.927 256.717 212.743 256.902L209.772 259.872L212.743 262.842C212.927 263.026 212.927 263.325 212.743 263.51C212.558 263.694 212.259 263.694 212.075 263.51L208.771 260.206C208.587 260.021 208.587 259.722 208.771 259.538L212.075 256.234C212.259 256.05 212.558 256.05 212.743 256.234Z" fill="#475569"/>
</g>
</g>
<path d="M249.259 359.288C249.204 359.288 249.158 359.273 249.123 359.243C249.088 359.207 249.07 359.162 249.07 359.107V354.19C249.07 354.135 249.088 354.09 249.123 354.054C249.158 354.019 249.204 354.002 249.259 354.002H249.856C249.961 354.002 250.037 354.049 250.082 354.145L251.54 356.864L253.012 354.145C253.063 354.049 253.138 354.002 253.239 354.002H253.828C253.883 354.002 253.929 354.019 253.964 354.054C253.999 354.09 254.017 354.135 254.017 354.19V359.107C254.017 359.162 253.999 359.207 253.964 359.243C253.929 359.273 253.883 359.288 253.828 359.288H253.194C253.143 359.288 253.101 359.27 253.065 359.235C253.03 359.2 253.012 359.157 253.012 359.107V355.837L251.955 357.853C251.89 357.964 251.804 358.019 251.698 358.019H251.389C251.283 358.019 251.197 357.964 251.132 357.853L250.075 355.837V359.107C250.075 359.157 250.057 359.2 250.022 359.235C249.992 359.27 249.949 359.288 249.893 359.288H249.259Z" fill="#1E293B"/>
<path d="M257.14 359.288C257.09 359.288 257.047 359.27 257.012 359.235C256.976 359.2 256.959 359.157 256.959 359.107V357.4L255.176 354.243C255.161 354.218 255.154 354.19 255.154 354.16C255.154 354.115 255.169 354.077 255.199 354.047C255.229 354.017 255.265 354.002 255.305 354.002H255.977C256.032 354.002 256.078 354.017 256.113 354.047C256.153 354.077 256.183 354.11 256.204 354.145L257.487 356.343L258.764 354.145C258.824 354.049 258.902 354.002 258.998 354.002H259.662C259.708 354.002 259.745 354.017 259.776 354.047C259.806 354.077 259.821 354.115 259.821 354.16C259.821 354.19 259.813 354.218 259.798 354.243L258.016 357.4V359.107C258.016 359.157 257.998 359.2 257.963 359.235C257.928 359.27 257.883 359.288 257.827 359.288H257.14Z" fill="#1E293B"/>
<path d="M264.185 359.288C264.039 359.288 263.944 359.217 263.898 359.076L262.282 354.228L262.267 354.16C262.267 354.115 262.282 354.077 262.312 354.047C262.343 354.017 262.38 354.002 262.426 354.002H263.09C263.156 354.002 263.206 354.019 263.241 354.054C263.282 354.085 263.309 354.122 263.324 354.168L264.601 358.057L265.877 354.168C265.887 354.127 265.912 354.09 265.953 354.054C265.993 354.019 266.046 354.002 266.111 354.002H266.776C266.816 354.002 266.851 354.017 266.881 354.047C266.917 354.077 266.934 354.115 266.934 354.16L266.919 354.228L265.303 359.076C265.258 359.217 265.162 359.288 265.016 359.288H264.185Z" fill="#1E293B"/>
<path d="M269.98 359.363C269.296 359.363 268.762 359.19 268.379 358.842C267.997 358.495 267.795 357.979 267.775 357.294C267.77 357.148 267.768 356.934 267.768 356.652C267.768 356.365 267.77 356.149 267.775 356.003C267.795 355.333 268.002 354.82 268.394 354.462C268.787 354.105 269.316 353.926 269.98 353.926C270.645 353.926 271.174 354.105 271.566 354.462C271.964 354.82 272.173 355.333 272.193 356.003C272.203 356.295 272.208 356.511 272.208 356.652C272.208 356.788 272.203 357.002 272.193 357.294C272.168 357.979 271.964 358.495 271.581 358.842C271.199 359.19 270.665 359.363 269.98 359.363ZM269.98 358.495C270.318 358.495 270.587 358.394 270.788 358.193C270.99 357.986 271.098 357.674 271.113 357.256C271.123 356.954 271.128 356.75 271.128 356.645C271.128 356.529 271.123 356.325 271.113 356.033C271.098 355.615 270.99 355.306 270.788 355.104C270.587 354.898 270.318 354.795 269.98 354.795C269.648 354.795 269.381 354.898 269.18 355.104C268.978 355.306 268.87 355.615 268.855 356.033C268.85 356.179 268.848 356.383 268.848 356.645C268.848 356.902 268.85 357.105 268.855 357.256C268.87 357.674 268.976 357.986 269.172 358.193C269.374 358.394 269.643 358.495 269.98 358.495Z" fill="#1E293B"/>
<path d="M275.616 359.363C274.922 359.363 274.383 359.185 274 358.827C273.623 358.47 273.421 357.966 273.396 357.317C273.391 357.181 273.389 356.959 273.389 356.652C273.389 356.34 273.391 356.114 273.396 355.973C273.421 355.328 273.625 354.827 274.008 354.47C274.396 354.107 274.932 353.926 275.616 353.926C276.065 353.926 276.455 354.004 276.787 354.16C277.119 354.311 277.376 354.52 277.557 354.787C277.739 355.049 277.834 355.346 277.844 355.678V355.693C277.844 355.733 277.827 355.769 277.791 355.799C277.761 355.824 277.726 355.837 277.686 355.837H276.968C276.908 355.837 276.863 355.824 276.832 355.799C276.802 355.774 276.777 355.726 276.757 355.655C276.676 355.338 276.543 355.117 276.357 354.991C276.17 354.86 275.921 354.795 275.609 354.795C274.884 354.795 274.506 355.2 274.476 356.01C274.471 356.146 274.469 356.355 274.469 356.637C274.469 356.919 274.471 357.133 274.476 357.279C274.506 358.09 274.884 358.495 275.609 358.495C275.921 358.495 276.17 358.43 276.357 358.299C276.548 358.168 276.681 357.946 276.757 357.634C276.772 357.564 276.795 357.516 276.825 357.491C276.86 357.465 276.908 357.453 276.968 357.453H277.686C277.731 357.453 277.769 357.468 277.799 357.498C277.834 357.528 277.849 357.566 277.844 357.611C277.834 357.944 277.739 358.243 277.557 358.51C277.376 358.772 277.119 358.981 276.787 359.137C276.455 359.288 276.065 359.363 275.616 359.363Z" fill="#1E293B"/>
<path d="M278.734 359.288C278.694 359.288 278.656 359.273 278.621 359.243C278.59 359.212 278.575 359.175 278.575 359.129L278.59 359.061L280.41 354.19C280.446 354.064 280.534 354.002 280.675 354.002H281.498C281.629 354.002 281.717 354.064 281.762 354.19L283.582 359.061C283.587 359.076 283.59 359.099 283.59 359.129C283.59 359.175 283.575 359.212 283.544 359.243C283.514 359.273 283.479 359.288 283.439 359.288H282.782C282.716 359.288 282.666 359.273 282.631 359.243C282.595 359.212 282.573 359.18 282.563 359.144L282.208 358.223H279.965L279.61 359.144C279.57 359.24 279.497 359.288 279.391 359.288H278.734ZM281.943 357.355L281.082 355.021L280.229 357.355H281.943Z" fill="#1E293B"/>
<path d="M284.854 359.288C284.803 359.288 284.76 359.27 284.725 359.235C284.69 359.2 284.672 359.157 284.672 359.107V354.19C284.672 354.135 284.687 354.09 284.718 354.054C284.753 354.019 284.798 354.002 284.854 354.002H287.044C287.633 354.002 288.071 354.132 288.358 354.394C288.65 354.651 288.796 355.003 288.796 355.452C288.796 355.713 288.73 355.937 288.599 356.124C288.474 356.305 288.325 356.436 288.154 356.516C288.365 356.612 288.542 356.768 288.683 356.985C288.829 357.201 288.902 357.448 288.902 357.725C288.902 358.193 288.743 358.571 288.426 358.857C288.114 359.144 287.673 359.288 287.104 359.288H284.854ZM286.908 356.169C287.17 356.169 287.368 356.106 287.504 355.98C287.64 355.854 287.708 355.686 287.708 355.474C287.708 355.258 287.64 355.092 287.504 354.976C287.368 354.855 287.17 354.795 286.908 354.795H285.722V356.169H286.908ZM286.983 358.487C287.245 358.487 287.449 358.417 287.595 358.276C287.741 358.13 287.814 357.946 287.814 357.725C287.814 357.498 287.741 357.314 287.595 357.173C287.449 357.027 287.245 356.954 286.983 356.954H285.722V358.487H286.983Z" fill="#1E293B"/>
<path d="M292.334 359.363C291.655 359.363 291.126 359.19 290.748 358.842C290.371 358.495 290.182 357.969 290.182 357.264V354.19C290.182 354.135 290.197 354.09 290.227 354.054C290.262 354.019 290.308 354.002 290.363 354.002H291.05C291.106 354.002 291.149 354.019 291.179 354.054C291.214 354.09 291.232 354.135 291.232 354.19V357.264C291.232 357.667 291.327 357.971 291.519 358.178C291.71 358.379 291.982 358.48 292.334 358.48C292.687 358.48 292.956 358.379 293.142 358.178C293.334 357.971 293.429 357.667 293.429 357.264V354.19C293.429 354.135 293.447 354.09 293.482 354.054C293.517 354.019 293.563 354.002 293.618 354.002H294.298C294.353 354.002 294.396 354.019 294.426 354.054C294.461 354.09 294.479 354.135 294.479 354.19V357.264C294.479 357.969 294.29 358.495 293.913 358.842C293.54 359.19 293.014 359.363 292.334 359.363Z" fill="#1E293B"/>
<path d="M296.17 359.288C296.119 359.288 296.077 359.27 296.041 359.235C296.006 359.2 295.989 359.157 295.989 359.107V354.183C295.989 354.127 296.006 354.085 296.041 354.054C296.077 354.019 296.119 354.002 296.17 354.002H296.872C296.928 354.002 296.97 354.019 297.001 354.054C297.036 354.085 297.053 354.127 297.053 354.183V358.389H299.447C299.503 358.389 299.548 358.407 299.583 358.442C299.619 358.477 299.636 358.523 299.636 358.578V359.107C299.636 359.162 299.619 359.207 299.583 359.243C299.548 359.273 299.503 359.288 299.447 359.288H296.17Z" fill="#1E293B"/>
<path d="M300.422 359.288C300.382 359.288 300.344 359.273 300.309 359.243C300.279 359.212 300.264 359.175 300.264 359.129L300.279 359.061L302.099 354.19C302.134 354.064 302.222 354.002 302.363 354.002H303.186C303.317 354.002 303.405 354.064 303.451 354.19L305.271 359.061C305.276 359.076 305.278 359.099 305.278 359.129C305.278 359.175 305.263 359.212 305.233 359.243C305.203 359.273 305.167 359.288 305.127 359.288H304.47C304.405 359.288 304.354 359.273 304.319 359.243C304.284 359.212 304.261 359.18 304.251 359.144L303.896 358.223H301.653L301.298 359.144C301.258 359.24 301.185 359.288 301.079 359.288H300.422ZM303.632 357.355L302.771 355.021L301.917 357.355H303.632Z" fill="#1E293B"/>
<path d="M306.542 359.288C306.492 359.288 306.449 359.27 306.414 359.235C306.378 359.2 306.361 359.157 306.361 359.107V354.19C306.361 354.135 306.376 354.09 306.406 354.054C306.441 354.019 306.487 354.002 306.542 354.002H308.498C309.112 354.002 309.593 354.145 309.94 354.432C310.293 354.719 310.469 355.127 310.469 355.655C310.469 356.023 310.378 356.333 310.197 356.584C310.021 356.831 309.774 357.01 309.457 357.121L310.56 359.046C310.575 359.076 310.582 359.104 310.582 359.129C310.582 359.175 310.565 359.212 310.529 359.243C310.499 359.273 310.464 359.288 310.424 359.288H309.737C309.656 359.288 309.593 359.27 309.548 359.235C309.507 359.2 309.47 359.149 309.434 359.084L308.46 357.294H307.411V359.107C307.411 359.157 307.393 359.2 307.358 359.235C307.327 359.27 307.285 359.288 307.229 359.288H306.542ZM308.475 356.441C308.777 356.441 309.004 356.373 309.155 356.237C309.311 356.101 309.389 355.905 309.389 355.648C309.389 355.391 309.311 355.192 309.155 355.051C309.004 354.91 308.777 354.84 308.475 354.84H307.411V356.441H308.475Z" fill="#1E293B"/>
<path d="M313.191 359.288C313.141 359.288 313.098 359.27 313.063 359.235C313.028 359.2 313.01 359.157 313.01 359.107V357.4L311.228 354.243C311.213 354.218 311.205 354.19 311.205 354.16C311.205 354.115 311.22 354.077 311.251 354.047C311.281 354.017 311.316 354.002 311.356 354.002H312.028C312.084 354.002 312.129 354.017 312.164 354.047C312.205 354.077 312.235 354.11 312.255 354.145L313.539 356.343L314.815 354.145C314.876 354.049 314.954 354.002 315.049 354.002H315.714C315.759 354.002 315.797 354.017 315.827 354.047C315.857 354.077 315.872 354.115 315.872 354.16C315.872 354.19 315.865 354.218 315.85 354.243L314.067 357.4V359.107C314.067 359.157 314.05 359.2 314.015 359.235C313.979 359.27 313.934 359.288 313.879 359.288H313.191Z" fill="#1E293B"/>
<path d="M194 339.536C194 331.252 200.716 324.536 209 324.536H356C364.284 324.536 371 331.252 371 339.536V484.072H194V339.536Z" fill="white"/>
<g clip-path="url(#clip3)">
<path d="M293.356 283.59H272.116C271.553 283.59 271.013 283.814 270.614 284.212C270.216 284.61 269.992 285.151 269.992 285.714V300.582C269.992 301.145 270.216 301.686 270.614 302.084C271.013 302.482 271.553 302.706 272.116 302.706H277.957L282.736 308.016L287.515 302.706H293.356C293.92 302.706 294.46 302.482 294.858 302.084C295.256 301.686 295.48 301.145 295.48 300.582V285.714C295.48 285.151 295.256 284.61 294.858 284.212C294.46 283.814 293.92 283.59 293.356 283.59ZM277.426 295.272C277.426 295.554 277.314 295.824 277.115 296.023C276.916 296.222 276.646 296.334 276.364 296.334C276.083 296.334 275.812 296.222 275.613 296.023C275.414 295.824 275.302 295.554 275.302 295.272V291.024C275.302 290.742 275.414 290.472 275.613 290.273C275.812 290.074 276.083 289.962 276.364 289.962C276.646 289.962 276.916 290.074 277.115 290.273C277.314 290.472 277.426 290.742 277.426 291.024V295.272ZM281.674 297.396C281.674 297.678 281.562 297.948 281.363 298.147C281.164 298.346 280.894 298.458 280.612 298.458C280.331 298.458 280.06 298.346 279.861 298.147C279.662 297.948 279.55 297.678 279.55 297.396V288.9C279.55 288.618 279.662 288.348 279.861 288.149C280.06 287.95 280.331 287.838 280.612 287.838C280.894 287.838 281.164 287.95 281.363 288.149C281.562 288.348 281.674 288.618 281.674 288.9V297.396ZM285.922 294.21C285.922 294.492 285.81 294.762 285.611 294.961C285.412 295.16 285.142 295.272 284.86 295.272C284.579 295.272 284.308 295.16 284.109 294.961C283.91 294.762 283.798 294.492 283.798 294.21V292.086C283.798 291.804 283.91 291.534 284.109 291.335C284.308 291.136 284.579 291.024 284.86 291.024C285.142 291.024 285.412 291.136 285.611 291.335C285.81 291.534 285.922 291.804 285.922 292.086V294.21ZM290.17 296.334C290.17 296.616 290.058 296.886 289.859 297.085C289.66 297.284 289.39 297.396 289.108 297.396C288.827 297.396 288.556 297.284 288.357 297.085C288.158 296.886 288.046 296.616 288.046 296.334V289.962C288.046 289.68 288.158 289.41 288.357 289.211C288.556 289.012 288.827 288.9 289.108 288.9C289.39 288.9 289.66 289.012 289.859 289.211C290.058 289.41 290.17 289.68 290.17 289.962V296.334Z" fill="#333242"/>
</g>
<path fill-rule="evenodd" clip-rule="evenodd" d="M208.16 358.604V341.057C208.305 341.056 208.45 341.056 208.596 341.056C241.311 341.056 267.832 367.577 267.832 400.292C267.832 433.007 241.311 459.528 208.596 459.528C208.45 459.528 208.305 459.527 208.16 459.526V444.393C231.705 442.818 250.29 424.215 250.29 401.499C250.29 378.782 231.705 360.179 208.16 358.604Z" fill="#FAB491"/>
<path d="M208.16 434.984C212.809 434.984 217.412 434.105 221.707 432.397C226.002 430.689 229.905 428.186 233.192 425.03C236.479 421.875 239.086 418.128 240.865 414.005C242.645 409.882 243.56 405.463 243.56 401C243.56 396.537 242.645 392.118 240.865 387.995C239.086 383.872 236.479 380.126 233.192 376.97C229.905 373.814 226.002 371.311 221.707 369.603C217.412 367.895 212.809 367.016 208.16 367.016V401V434.984Z" fill="#F8FAFC"/>
<path fill-rule="evenodd" clip-rule="evenodd" d="M250.481 442.178C255.982 436.678 260.345 430.148 263.322 422.961C271.172 406.664 272.116 365.128 232.94 346.248L225.352 363.093C240.146 370.178 250.29 384.716 250.29 401.499C250.29 412.579 245.869 422.68 238.607 430.304L250.481 442.178Z" fill="#79CED7"/>
<path d="M284.152 387.784C284.152 386.22 285.42 384.952 286.984 384.952H354.008C355.572 384.952 356.84 386.22 356.84 387.784V411.856C356.84 413.42 355.572 414.688 354.008 414.688H286.984C285.42 414.688 284.152 413.42 284.152 411.856V387.784Z" fill="#79CED7" fill-opacity="0.26"/>
<path d="M301.159 406.664C301.119 406.664 301.086 406.651 301.06 406.624C301.034 406.593 301.02 406.558 301.02 406.519C301.02 406.505 301.025 406.485 301.034 406.459L302.626 402.825H300.551C300.507 402.825 300.47 402.809 300.439 402.778C300.408 402.748 300.393 402.71 300.393 402.666V402.203C300.393 402.155 300.406 402.115 300.432 402.085C300.463 402.054 300.503 402.038 300.551 402.038H303.452C303.501 402.038 303.538 402.054 303.564 402.085C303.595 402.115 303.611 402.155 303.611 402.203V402.613C303.611 402.701 303.591 402.796 303.551 402.897L301.972 406.505C301.923 406.611 301.853 406.664 301.76 406.664H301.159Z" fill="#1E293B"/>
<path d="M305.943 406.737C305.577 406.737 305.262 406.675 304.998 406.552C304.738 406.428 304.538 406.265 304.397 406.063C304.26 405.86 304.188 405.642 304.179 405.408V405.395C304.179 405.36 304.192 405.331 304.218 405.309C304.245 405.287 304.278 405.276 304.318 405.276H304.932C305.033 405.276 305.099 405.32 305.13 405.408C305.192 405.602 305.293 405.745 305.434 405.838C305.58 405.93 305.749 405.977 305.943 405.977C306.19 405.977 306.395 405.902 306.558 405.752C306.725 405.602 306.809 405.393 306.809 405.124C306.809 404.886 306.725 404.693 306.558 404.543C306.395 404.393 306.19 404.318 305.943 404.318C305.811 404.318 305.703 404.336 305.619 404.371C305.536 404.406 305.454 404.455 305.375 404.516C305.322 404.556 305.28 404.585 305.249 404.602C305.223 404.615 305.19 404.622 305.15 404.622H304.542C304.503 404.622 304.467 404.609 304.436 404.582C304.41 404.552 304.397 404.516 304.397 404.477L304.628 402.217C304.633 402.164 304.65 402.122 304.681 402.091C304.716 402.056 304.76 402.038 304.813 402.038H307.298C307.342 402.038 307.379 402.054 307.41 402.085C307.441 402.115 307.456 402.153 307.456 402.197V402.64C307.456 402.684 307.441 402.721 307.41 402.752C307.379 402.783 307.342 402.798 307.298 402.798H305.388L305.282 403.875C305.498 403.726 305.787 403.651 306.148 403.651C306.434 403.651 306.699 403.712 306.941 403.836C307.188 403.955 307.384 404.129 307.529 404.358C307.674 404.582 307.747 404.844 307.747 405.144C307.747 405.466 307.672 405.748 307.522 405.99C307.373 406.228 307.161 406.413 306.888 406.545C306.619 406.673 306.304 406.737 305.943 406.737Z" fill="#1E293B"/>
<path d="M309.42 404.364C309.129 404.364 308.895 404.287 308.719 404.133C308.547 403.979 308.453 403.77 308.435 403.505C308.431 403.43 308.428 403.331 308.428 403.208C308.428 403.076 308.431 402.97 308.435 402.891C308.453 402.618 308.545 402.402 308.713 402.243C308.88 402.085 309.116 402.005 309.42 402.005C309.724 402.005 309.959 402.085 310.127 402.243C310.299 402.402 310.391 402.618 310.404 402.891C310.413 403.067 310.417 403.181 310.417 403.234C310.417 403.283 310.413 403.373 310.404 403.505C310.391 403.77 310.296 403.979 310.12 404.133C309.948 404.287 309.715 404.364 309.42 404.364ZM308.878 406.664C308.838 406.664 308.805 406.653 308.779 406.631C308.752 406.604 308.739 406.571 308.739 406.532C308.739 406.505 308.748 406.481 308.765 406.459L312.023 402.164C312.058 402.12 312.092 402.089 312.122 402.071C312.153 402.049 312.195 402.038 312.248 402.038H312.598C312.642 402.038 312.675 402.052 312.697 402.078C312.724 402.1 312.737 402.131 312.737 402.17C312.737 402.197 312.728 402.221 312.71 402.243L309.453 406.538C309.417 406.582 309.384 406.615 309.354 406.637C309.323 406.655 309.281 406.664 309.228 406.664H308.878ZM309.42 403.875C309.547 403.875 309.642 403.838 309.704 403.763C309.765 403.684 309.801 403.587 309.81 403.472C309.818 403.322 309.823 403.23 309.823 403.195C309.823 403.146 309.818 403.056 309.81 402.924C309.805 402.809 309.77 402.715 309.704 402.64C309.642 402.56 309.547 402.521 309.42 402.521C309.292 402.521 309.197 402.56 309.136 402.64C309.074 402.715 309.041 402.809 309.036 402.924C309.032 402.99 309.03 403.08 309.03 403.195C309.03 403.305 309.032 403.397 309.036 403.472C309.045 403.587 309.078 403.684 309.136 403.763C309.197 403.838 309.292 403.875 309.42 403.875ZM312.056 406.704C311.766 406.704 311.532 406.624 311.356 406.466C311.184 406.303 311.089 406.087 311.072 405.818C311.067 405.743 311.065 405.644 311.065 405.521C311.065 405.393 311.067 405.289 311.072 405.21C311.089 404.937 311.182 404.721 311.349 404.563C311.517 404.404 311.752 404.325 312.056 404.325C312.36 404.325 312.596 404.404 312.763 404.563C312.935 404.721 313.028 404.937 313.041 405.21C313.05 405.386 313.054 405.499 313.054 405.547C313.054 405.596 313.05 405.686 313.041 405.818C313.023 406.087 312.926 406.303 312.75 406.466C312.578 406.624 312.347 406.704 312.056 406.704ZM312.056 406.188C312.188 406.188 312.283 406.151 312.34 406.076C312.402 405.996 312.437 405.902 312.446 405.792C312.455 405.642 312.459 405.549 312.459 405.514C312.459 405.466 312.455 405.375 312.446 405.243C312.442 405.129 312.406 405.032 312.34 404.952C312.279 404.873 312.184 404.833 312.056 404.833C311.929 404.833 311.834 404.873 311.772 404.952C311.71 405.027 311.675 405.124 311.666 405.243C311.662 405.309 311.66 405.4 311.66 405.514C311.66 405.624 311.662 405.717 311.666 405.792C311.68 405.906 311.715 406.001 311.772 406.076C311.834 406.151 311.929 406.188 312.056 406.188Z" fill="#1E293B"/>
<path d="M297.368 404.776C297.368 405.819 296.523 406.664 295.48 406.664C294.437 406.664 293.592 405.819 293.592 404.776C293.592 403.733 294.437 402.888 295.48 402.888C296.523 402.888 297.368 403.733 297.368 404.776Z" fill="#59A2A9"/>
<path d="M284.152 352.856C284.152 351.292 285.42 350.024 286.984 350.024H354.008C355.572 350.024 356.84 351.292 356.84 352.856V376.928C356.84 378.492 355.572 379.76 354.008 379.76H286.984C285.42 379.76 284.152 378.492 284.152 376.928V352.856Z" fill="#FAB491" fill-opacity="0.37"/>
<path d="M302.221 371.809C301.856 371.809 301.541 371.747 301.276 371.624C301.017 371.5 300.816 371.337 300.675 371.135C300.539 370.932 300.466 370.714 300.457 370.481V370.467C300.457 370.432 300.47 370.403 300.497 370.381C300.523 370.359 300.556 370.348 300.596 370.348H301.21C301.312 370.348 301.378 370.392 301.409 370.481C301.47 370.674 301.572 370.818 301.713 370.91C301.858 371.003 302.028 371.049 302.221 371.049C302.468 371.049 302.673 370.974 302.836 370.824C303.003 370.674 303.087 370.465 303.087 370.196C303.087 369.958 303.003 369.765 302.836 369.615C302.673 369.465 302.468 369.39 302.221 369.39C302.089 369.39 301.981 369.408 301.898 369.443C301.814 369.478 301.732 369.527 301.653 369.588C301.6 369.628 301.558 369.657 301.528 369.674C301.501 369.688 301.468 369.694 301.428 369.694H300.82C300.781 369.694 300.746 369.681 300.715 369.655C300.688 369.624 300.675 369.588 300.675 369.549L300.906 367.289C300.911 367.236 300.928 367.194 300.959 367.163C300.994 367.128 301.039 367.11 301.091 367.11H303.576C303.62 367.11 303.658 367.126 303.688 367.157C303.719 367.188 303.735 367.225 303.735 367.269V367.712C303.735 367.756 303.719 367.793 303.688 367.824C303.658 367.855 303.62 367.87 303.576 367.87H301.666L301.561 368.947C301.776 368.798 302.065 368.723 302.426 368.723C302.713 368.723 302.977 368.784 303.219 368.908C303.466 369.027 303.662 369.201 303.807 369.43C303.953 369.655 304.025 369.917 304.025 370.216C304.025 370.538 303.95 370.82 303.801 371.062C303.651 371.3 303.439 371.485 303.166 371.617C302.898 371.745 302.583 371.809 302.221 371.809Z" fill="#0F172A"/>
<path d="M305.698 369.436C305.407 369.436 305.174 369.359 304.998 369.205C304.826 369.051 304.731 368.842 304.713 368.577C304.709 368.503 304.707 368.403 304.707 368.28C304.707 368.148 304.709 368.042 304.713 367.963C304.731 367.69 304.823 367.474 304.991 367.315C305.158 367.157 305.394 367.077 305.698 367.077C306.002 367.077 306.238 367.157 306.405 367.315C306.577 367.474 306.669 367.69 306.683 367.963C306.691 368.139 306.696 368.254 306.696 368.306C306.696 368.355 306.691 368.445 306.683 368.577C306.669 368.842 306.575 369.051 306.398 369.205C306.227 369.359 305.993 369.436 305.698 369.436ZM305.156 371.736C305.116 371.736 305.083 371.725 305.057 371.703C305.031 371.677 305.017 371.644 305.017 371.604C305.017 371.577 305.026 371.553 305.044 371.531L308.302 367.236C308.337 367.192 308.37 367.161 308.401 367.143C308.431 367.121 308.473 367.11 308.526 367.11H308.876C308.92 367.11 308.953 367.124 308.976 367.15C309.002 367.172 309.015 367.203 309.015 367.243C309.015 367.269 309.006 367.293 308.989 367.315L305.731 371.61C305.696 371.655 305.663 371.688 305.632 371.71C305.601 371.727 305.559 371.736 305.506 371.736H305.156ZM305.698 368.947C305.826 368.947 305.92 368.91 305.982 368.835C306.044 368.756 306.079 368.659 306.088 368.544C306.097 368.395 306.101 368.302 306.101 368.267C306.101 368.218 306.097 368.128 306.088 367.996C306.083 367.881 306.048 367.787 305.982 367.712C305.92 367.632 305.826 367.593 305.698 367.593C305.57 367.593 305.475 367.632 305.414 367.712C305.352 367.787 305.319 367.881 305.315 367.996C305.31 368.062 305.308 368.152 305.308 368.267C305.308 368.377 305.31 368.469 305.315 368.544C305.323 368.659 305.357 368.756 305.414 368.835C305.475 368.91 305.57 368.947 305.698 368.947ZM308.335 371.776C308.044 371.776 307.81 371.696 307.634 371.538C307.462 371.375 307.368 371.159 307.35 370.89C307.346 370.815 307.343 370.716 307.343 370.593C307.343 370.465 307.346 370.362 307.35 370.282C307.368 370.009 307.46 369.793 307.627 369.635C307.795 369.476 308.031 369.397 308.335 369.397C308.639 369.397 308.874 369.476 309.042 369.635C309.213 369.793 309.306 370.009 309.319 370.282C309.328 370.458 309.332 370.571 309.332 370.619C309.332 370.668 309.328 370.758 309.319 370.89C309.302 371.159 309.205 371.375 309.028 371.538C308.857 371.696 308.625 371.776 308.335 371.776ZM308.335 371.26C308.467 371.26 308.561 371.223 308.619 371.148C308.68 371.069 308.716 370.974 308.724 370.864C308.733 370.714 308.738 370.621 308.738 370.586C308.738 370.538 308.733 370.447 308.724 370.315C308.72 370.201 308.685 370.104 308.619 370.025C308.557 369.945 308.462 369.906 308.335 369.906C308.207 369.906 308.112 369.945 308.05 370.025C307.989 370.099 307.953 370.196 307.945 370.315C307.94 370.381 307.938 370.472 307.938 370.586C307.938 370.696 307.94 370.789 307.945 370.864C307.958 370.978 307.993 371.073 308.05 371.148C308.112 371.223 308.207 371.26 308.335 371.26Z" fill="#0F172A"/>
<path d="M297.368 369.848C297.368 370.891 296.523 371.736 295.48 371.736C294.437 371.736 293.592 370.891 293.592 369.848C293.592 368.805 294.437 367.96 295.48 367.96C296.523 367.96 297.368 368.805 297.368 369.848Z" fill="#E58858"/>
<path d="M284.152 422.712C284.152 421.148 285.42 419.88 286.984 419.88H354.008C355.572 419.88 356.84 421.148 356.84 422.712V446.784C356.84 448.348 355.572 449.616 354.008 449.616H286.984C285.42 449.616 284.152 448.348 284.152 446.784V422.712Z" fill="#E5E52D" fill-opacity="0.22"/>
<path d="M235.283 345.304L223.955 364.925L222.32 363.981L233.648 344.36L235.283 345.304Z" fill="white"/>
<path d="M235.283 345.304L223.955 364.925L222.32 363.981L233.648 344.36L235.283 345.304Z" fill="white"/>
<path d="M235.283 345.304L223.955 364.925L222.32 363.981L233.648 344.36L235.283 345.304Z" fill="white"/>
<g clip-path="url(#clip4)">
<path d="M227.04 399.546L226.374 398.881L225.029 400.396C224.057 399.301 222.711 398.64 221.192 398.64C219.827 398.64 218.577 399.187 217.6 400.056L218.27 400.726C219.072 400.023 220.087 399.584 221.192 399.584C222.485 399.584 223.594 400.179 224.387 401.113L223.028 402.642L221.14 400.754L217.6 404.299L218.308 405.007L221.14 402.17L223.028 404.058L224.939 401.911C225.293 402.548 225.529 403.28 225.619 404.058H226.568C226.464 402.973 226.119 401.986 225.605 401.16L227.04 399.546Z" fill="#64748B"/>
</g>
<path d="M294.002 396.28C293.958 396.28 293.921 396.265 293.89 396.234C293.859 396.203 293.844 396.165 293.844 396.121V391.82C293.844 391.771 293.857 391.731 293.883 391.701C293.914 391.67 293.954 391.654 294.002 391.654H295.773C296.302 391.654 296.718 391.78 297.022 392.031C297.326 392.278 297.478 392.641 297.478 393.121C297.478 393.602 297.326 393.965 297.022 394.212C296.723 394.454 296.306 394.575 295.773 394.575H294.789V396.121C294.789 396.165 294.773 396.203 294.742 396.234C294.716 396.265 294.679 396.28 294.63 396.28H294.002ZM295.74 393.842C295.996 393.842 296.192 393.782 296.328 393.663C296.465 393.54 296.533 393.359 296.533 393.121C296.533 392.892 296.467 392.714 296.335 392.586C296.203 392.454 296.005 392.388 295.74 392.388H294.775V393.842H295.74Z" fill="#117781"/>
<path d="M299.595 396.346C299.08 396.346 298.681 396.214 298.399 395.95C298.117 395.681 297.965 395.315 297.943 394.853L297.936 394.562L297.943 394.271C297.965 393.813 298.119 393.45 298.406 393.181C298.692 392.912 299.088 392.778 299.595 392.778C300.102 392.778 300.498 392.912 300.784 393.181C301.071 393.45 301.225 393.813 301.247 394.271C301.251 394.324 301.254 394.421 301.254 394.562C301.254 394.703 301.251 394.8 301.247 394.853C301.225 395.315 301.073 395.681 300.791 395.95C300.509 396.214 300.11 396.346 299.595 396.346ZM299.595 395.692C299.828 395.692 300.009 395.619 300.137 395.474C300.265 395.324 300.335 395.106 300.348 394.82C300.353 394.776 300.355 394.69 300.355 394.562C300.355 394.434 300.353 394.348 300.348 394.304C300.335 394.018 300.265 393.802 300.137 393.657C300.009 393.507 299.828 393.432 299.595 393.432C299.361 393.432 299.181 393.507 299.053 393.657C298.925 393.802 298.855 394.018 298.842 394.304L298.835 394.562L298.842 394.82C298.855 395.106 298.925 395.324 299.053 395.474C299.181 395.619 299.361 395.692 299.595 395.692Z" fill="#117781"/>
<path d="M303.288 396.346C302.957 396.346 302.68 396.298 302.455 396.201C302.23 396.099 302.063 395.983 301.953 395.85C301.847 395.714 301.794 395.597 301.794 395.5C301.794 395.456 301.81 395.421 301.84 395.394C301.871 395.368 301.906 395.355 301.946 395.355H302.468C302.508 395.355 302.541 395.37 302.567 395.401C302.585 395.414 302.631 395.454 302.706 395.52C302.781 395.591 302.869 395.646 302.97 395.685C303.072 395.725 303.184 395.745 303.307 395.745C303.484 395.745 303.629 395.709 303.743 395.639C303.858 395.568 303.915 395.472 303.915 395.348C303.915 395.256 303.889 395.181 303.836 395.124C303.788 395.066 303.697 395.016 303.565 394.972C303.433 394.923 303.237 394.872 302.977 394.82C302.602 394.74 302.325 394.619 302.144 394.456C301.968 394.293 301.88 394.077 301.88 393.809C301.88 393.632 301.933 393.467 302.039 393.313C302.144 393.154 302.301 393.027 302.508 392.93C302.719 392.828 302.97 392.778 303.261 392.778C303.556 392.778 303.812 392.826 304.028 392.923C304.243 393.016 304.406 393.128 304.517 393.26C304.631 393.388 304.688 393.502 304.688 393.604C304.688 393.643 304.673 393.679 304.642 393.709C304.616 393.736 304.583 393.749 304.543 393.749H304.054C304.019 393.749 303.981 393.734 303.942 393.703C303.911 393.681 303.862 393.639 303.796 393.577C303.73 393.516 303.653 393.467 303.565 393.432C303.477 393.397 303.373 393.379 303.254 393.379C303.091 393.379 302.964 393.414 302.871 393.485C302.783 393.555 302.739 393.648 302.739 393.762C302.739 393.846 302.761 393.914 302.805 393.967C302.849 394.02 302.935 394.071 303.063 394.119C303.191 394.168 303.382 394.216 303.638 394.265C304.061 394.348 304.362 394.478 304.543 394.654C304.728 394.831 304.821 395.046 304.821 395.302C304.821 395.61 304.686 395.861 304.417 396.055C304.149 396.249 303.772 396.346 303.288 396.346Z" fill="#117781"/>
<path d="M305.635 392.276C305.591 392.276 305.553 392.26 305.523 392.229C305.492 392.198 305.476 392.161 305.476 392.117V391.641C305.476 391.597 305.492 391.56 305.523 391.529C305.553 391.498 305.591 391.483 305.635 391.483H306.236C306.28 391.483 306.318 391.498 306.349 391.529C306.384 391.56 306.401 391.597 306.401 391.641V392.117C306.401 392.161 306.386 392.198 306.355 392.229C306.324 392.26 306.285 392.276 306.236 392.276H305.635ZM305.661 396.28C305.617 396.28 305.58 396.265 305.549 396.234C305.518 396.203 305.503 396.165 305.503 396.121V393.002C305.503 392.958 305.518 392.921 305.549 392.89C305.58 392.859 305.617 392.844 305.661 392.844H306.21C306.258 392.844 306.296 392.859 306.322 392.89C306.353 392.916 306.368 392.954 306.368 393.002V396.121C306.368 396.165 306.353 396.203 306.322 396.234C306.296 396.265 306.258 396.28 306.21 396.28H305.661Z" fill="#117781"/>
<path d="M308.798 396.28C308.397 396.28 308.095 396.176 307.893 395.969C307.694 395.758 307.595 395.45 307.595 395.044V393.544H307.073C307.029 393.544 306.992 393.529 306.961 393.498C306.93 393.463 306.915 393.423 306.915 393.379V393.002C306.915 392.958 306.93 392.921 306.961 392.89C306.992 392.859 307.029 392.844 307.073 392.844H307.595V391.747C307.595 391.698 307.611 391.661 307.642 391.635C307.672 391.604 307.71 391.588 307.754 391.588H308.289C308.338 391.588 308.375 391.604 308.401 391.635C308.432 391.661 308.448 391.698 308.448 391.747V392.844H309.274C309.322 392.844 309.36 392.859 309.386 392.89C309.417 392.916 309.432 392.954 309.432 393.002V393.379C309.432 393.427 309.417 393.467 309.386 393.498C309.355 393.529 309.318 393.544 309.274 393.544H308.448V394.978C308.448 395.168 308.481 395.311 308.547 395.408C308.613 395.505 308.723 395.553 308.877 395.553H309.333C309.377 395.553 309.415 395.568 309.445 395.599C309.476 395.63 309.492 395.668 309.492 395.712V396.121C309.492 396.165 309.476 396.203 309.445 396.234C309.419 396.265 309.382 396.28 309.333 396.28H308.798Z" fill="#117781"/>
<path d="M310.21 392.276C310.166 392.276 310.129 392.26 310.098 392.229C310.067 392.198 310.052 392.161 310.052 392.117V391.641C310.052 391.597 310.067 391.56 310.098 391.529C310.129 391.498 310.166 391.483 310.21 391.483H310.811C310.855 391.483 310.893 391.498 310.924 391.529C310.959 391.56 310.977 391.597 310.977 391.641V392.117C310.977 392.161 310.961 392.198 310.93 392.229C310.9 392.26 310.86 392.276 310.811 392.276H310.21ZM310.237 396.28C310.192 396.28 310.155 396.265 310.124 396.234C310.093 396.203 310.078 396.165 310.078 396.121V393.002C310.078 392.958 310.093 392.921 310.124 392.89C310.155 392.859 310.192 392.844 310.237 392.844H310.785C310.833 392.844 310.871 392.859 310.897 392.89C310.928 392.916 310.944 392.954 310.944 393.002V396.121C310.944 396.165 310.928 396.203 310.897 396.234C310.871 396.265 310.833 396.28 310.785 396.28H310.237Z" fill="#117781"/>
<path d="M313.036 396.28C312.97 396.28 312.919 396.267 312.884 396.24C312.849 396.209 312.82 396.168 312.798 396.115L311.563 393.049L311.549 392.989C311.549 392.95 311.563 392.916 311.589 392.89C311.62 392.859 311.655 392.844 311.695 392.844H312.23C312.314 392.844 312.371 392.886 312.402 392.969L313.281 395.289L314.16 392.969C314.173 392.939 314.193 392.91 314.219 392.883C314.25 392.857 314.287 392.844 314.331 392.844H314.873C314.908 392.844 314.939 392.859 314.966 392.89C314.997 392.916 315.012 392.95 315.012 392.989C315.012 393.016 315.01 393.035 315.005 393.049L313.763 396.115C313.741 396.168 313.712 396.209 313.677 396.24C313.642 396.267 313.591 396.28 313.525 396.28H313.036Z" fill="#117781"/>
<path d="M316.972 396.346C316.483 396.346 316.093 396.205 315.803 395.923C315.516 395.637 315.364 395.236 315.347 394.72L315.34 394.555L315.347 394.39C315.369 393.888 315.523 393.494 315.809 393.207C316.1 392.921 316.488 392.778 316.972 392.778C317.492 392.778 317.893 392.936 318.175 393.253C318.461 393.571 318.604 393.994 318.604 394.522V394.661C318.604 394.705 318.589 394.742 318.558 394.773C318.527 394.804 318.488 394.82 318.439 394.82H316.245V394.872C316.254 395.115 316.32 395.32 316.444 395.487C316.571 395.65 316.745 395.731 316.966 395.731C317.226 395.731 317.435 395.63 317.593 395.428C317.633 395.379 317.664 395.348 317.686 395.335C317.712 395.322 317.75 395.315 317.798 395.315H318.367C318.406 395.315 318.439 395.328 318.466 395.355C318.497 395.377 318.512 395.405 318.512 395.441C318.512 395.546 318.448 395.672 318.32 395.817C318.197 395.958 318.019 396.082 317.785 396.187C317.552 396.293 317.281 396.346 316.972 396.346ZM317.706 394.265V394.245C317.706 393.985 317.64 393.776 317.508 393.617C317.38 393.458 317.201 393.379 316.972 393.379C316.743 393.379 316.565 393.458 316.437 393.617C316.309 393.776 316.245 393.985 316.245 394.245V394.265H317.706Z" fill="#117781"/>
<path d="M294.004 361.352C293.96 361.352 293.923 361.337 293.892 361.306C293.861 361.275 293.846 361.238 293.846 361.193V356.892C293.846 356.843 293.859 356.804 293.885 356.773C293.916 356.742 293.956 356.726 294.004 356.726H294.513C294.566 356.726 294.606 356.737 294.632 356.76C294.658 356.777 294.683 356.801 294.705 356.832L296.608 359.793V356.892C296.608 356.843 296.621 356.804 296.647 356.773C296.678 356.742 296.718 356.726 296.766 356.726H297.322C297.37 356.726 297.41 356.742 297.44 356.773C297.471 356.804 297.487 356.843 297.487 356.892V361.187C297.487 361.235 297.471 361.275 297.44 361.306C297.41 361.337 297.372 361.352 297.328 361.352H296.813C296.738 361.352 296.674 361.317 296.621 361.246L294.725 358.352V361.193C294.725 361.242 294.709 361.282 294.678 361.312C294.647 361.339 294.608 361.352 294.559 361.352H294.004Z" fill="#D17445"/>
<path d="M299.919 361.418C299.43 361.418 299.04 361.277 298.749 360.995C298.463 360.709 298.311 360.308 298.293 359.793L298.286 359.627L298.293 359.462C298.315 358.96 298.469 358.566 298.756 358.279C299.046 357.993 299.434 357.85 299.919 357.85C300.438 357.85 300.839 358.008 301.121 358.326C301.408 358.643 301.551 359.066 301.551 359.594V359.733C301.551 359.777 301.535 359.815 301.505 359.845C301.474 359.876 301.434 359.892 301.386 359.892H299.192V359.945C299.201 360.187 299.267 360.392 299.39 360.559C299.518 360.722 299.692 360.804 299.912 360.804C300.172 360.804 300.381 360.702 300.54 360.5C300.579 360.451 300.61 360.42 300.632 360.407C300.659 360.394 300.696 360.387 300.745 360.387H301.313C301.353 360.387 301.386 360.401 301.412 360.427C301.443 360.449 301.458 360.478 301.458 360.513C301.458 360.619 301.394 360.744 301.267 360.89C301.143 361.03 300.965 361.154 300.731 361.26C300.498 361.365 300.227 361.418 299.919 361.418ZM300.652 359.337V359.317C300.652 359.057 300.586 358.848 300.454 358.689C300.326 358.53 300.148 358.451 299.919 358.451C299.69 358.451 299.511 358.53 299.383 358.689C299.256 358.848 299.192 359.057 299.192 359.317V359.337H300.652Z" fill="#D17445"/>
<path d="M303.528 361.418C303.122 361.418 302.803 361.286 302.569 361.022C302.336 360.753 302.219 360.39 302.219 359.931V358.075C302.219 358.03 302.235 357.993 302.265 357.962C302.296 357.931 302.334 357.916 302.378 357.916H302.959C303.008 357.916 303.045 357.931 303.072 357.962C303.102 357.989 303.118 358.026 303.118 358.075V359.892C303.118 360.438 303.358 360.711 303.838 360.711C304.067 360.711 304.248 360.638 304.38 360.493C304.517 360.348 304.585 360.147 304.585 359.892V358.075C304.585 358.03 304.6 357.993 304.631 357.962C304.662 357.931 304.699 357.916 304.743 357.916H305.325C305.373 357.916 305.411 357.931 305.437 357.962C305.468 357.989 305.484 358.026 305.484 358.075V361.193C305.484 361.238 305.468 361.275 305.437 361.306C305.411 361.337 305.373 361.352 305.325 361.352H304.79C304.746 361.352 304.708 361.337 304.677 361.306C304.647 361.275 304.631 361.238 304.631 361.193V360.923C304.384 361.253 304.017 361.418 303.528 361.418Z" fill="#D17445"/>
<path d="M307.909 361.352C307.508 361.352 307.207 361.249 307.004 361.042C306.806 360.83 306.707 360.522 306.707 360.116V358.616H306.185C306.141 358.616 306.103 358.601 306.072 358.57C306.041 358.535 306.026 358.495 306.026 358.451V358.075C306.026 358.03 306.041 357.993 306.072 357.962C306.103 357.931 306.141 357.916 306.185 357.916H306.707V356.819C306.707 356.771 306.722 356.733 306.753 356.707C306.784 356.676 306.821 356.66 306.865 356.66H307.401C307.449 356.66 307.486 356.676 307.513 356.707C307.544 356.733 307.559 356.771 307.559 356.819V357.916H308.385C308.434 357.916 308.471 357.931 308.497 357.962C308.528 357.989 308.544 358.026 308.544 358.075V358.451C308.544 358.5 308.528 358.539 308.497 358.57C308.467 358.601 308.429 358.616 308.385 358.616H307.559V360.05C307.559 360.24 307.592 360.383 307.658 360.48C307.724 360.577 307.834 360.625 307.989 360.625H308.445C308.489 360.625 308.526 360.641 308.557 360.671C308.588 360.702 308.603 360.74 308.603 360.784V361.193C308.603 361.238 308.588 361.275 308.557 361.306C308.53 361.337 308.493 361.352 308.445 361.352H307.909Z" fill="#D17445"/>
<path d="M309.348 361.352C309.304 361.352 309.266 361.337 309.236 361.306C309.205 361.275 309.189 361.238 309.189 361.193V358.081C309.189 358.037 309.205 358 309.236 357.969C309.266 357.934 309.304 357.916 309.348 357.916H309.883C309.932 357.916 309.971 357.931 310.002 357.962C310.033 357.993 310.048 358.033 310.048 358.081V358.352C310.154 358.211 310.286 358.103 310.445 358.028C310.608 357.953 310.793 357.916 311 357.916H311.271C311.319 357.916 311.357 357.931 311.383 357.962C311.414 357.989 311.429 358.026 311.429 358.075V358.55C311.429 358.594 311.414 358.632 311.383 358.663C311.357 358.693 311.319 358.709 311.271 358.709H310.755C310.548 358.709 310.385 358.768 310.266 358.887C310.148 359.006 310.088 359.169 310.088 359.376V361.193C310.088 361.238 310.073 361.275 310.042 361.306C310.011 361.337 309.971 361.352 309.923 361.352H309.348Z" fill="#D17445"/>
<path d="M312.891 361.418C312.666 361.418 312.459 361.374 312.27 361.286C312.085 361.193 311.937 361.07 311.827 360.916C311.721 360.762 311.669 360.592 311.669 360.407C311.669 360.108 311.79 359.865 312.032 359.68C312.274 359.495 312.607 359.37 313.03 359.304L313.935 359.171V359.033C313.935 358.839 313.887 358.693 313.79 358.597C313.693 358.5 313.536 358.451 313.321 358.451C313.175 358.451 313.056 358.48 312.964 358.537C312.876 358.59 312.805 358.643 312.752 358.696C312.699 358.753 312.664 358.79 312.647 358.808C312.629 358.861 312.596 358.887 312.547 358.887H312.039C311.999 358.887 311.964 358.874 311.933 358.848C311.906 358.821 311.893 358.786 311.893 358.742C311.898 358.632 311.951 358.506 312.052 358.365C312.158 358.224 312.318 358.103 312.534 358.002C312.75 357.901 313.014 357.85 313.327 357.85C313.847 357.85 314.226 357.967 314.464 358.2C314.702 358.434 314.821 358.74 314.821 359.119V361.193C314.821 361.238 314.805 361.275 314.774 361.306C314.748 361.337 314.71 361.352 314.662 361.352H314.127C314.083 361.352 314.045 361.337 314.014 361.306C313.984 361.275 313.968 361.238 313.968 361.193V360.936C313.871 361.077 313.732 361.193 313.552 361.286C313.376 361.374 313.155 361.418 312.891 361.418ZM313.116 360.79C313.358 360.79 313.556 360.711 313.71 360.553C313.865 360.394 313.942 360.163 313.942 359.859V359.72L313.281 359.826C313.025 359.865 312.832 359.929 312.699 360.017C312.572 360.105 312.508 360.213 312.508 360.341C312.508 360.482 312.567 360.592 312.686 360.671C312.805 360.751 312.948 360.79 313.116 360.79Z" fill="#D17445"/>
<path d="M315.834 361.352C315.789 361.352 315.752 361.337 315.721 361.306C315.69 361.275 315.675 361.238 315.675 361.193V356.819C315.675 356.771 315.69 356.733 315.721 356.707C315.752 356.676 315.789 356.66 315.834 356.66H316.382C316.43 356.66 316.468 356.676 316.494 356.707C316.525 356.733 316.541 356.771 316.541 356.819V361.193C316.541 361.238 316.525 361.275 316.494 361.306C316.468 361.337 316.43 361.352 316.382 361.352H315.834Z" fill="#D17445"/>
</g>
<rect x="138.75" y="388" width="3.75" height="3.75" rx="1.875" fill="#C4C4C4"/>
<rect x="146.25" y="388" width="3.75" height="3.75" rx="1.875" fill="#C4C4C4"/>
<rect x="153.75" y="388" width="3.75" height="3.75" rx="1.875" fill="#C4C4C4"/>
<rect x="161.25" y="388" width="3.75" height="3.75" rx="1.875" fill="#C4C4C4"/>
<rect x="138.75" y="394.25" width="3.75" height="3.75" rx="1.875" fill="#C4C4C4"/>
<rect x="146.25" y="394.25" width="3.75" height="3.75" rx="1.875" fill="#C4C4C4"/>
<rect x="153.75" y="394.25" width="3.75" height="3.75" rx="1.875" fill="#C4C4C4"/>
<rect x="161.25" y="394.25" width="3.75" height="3.75" rx="1.875" fill="#C4C4C4"/>
<rect x="360" y="173" width="3.75" height="3.75" rx="1.875" fill="#C4C4C4"/>
<rect x="367.5" y="173" width="3.75" height="3.75" rx="1.875" fill="#C4C4C4"/>
<rect x="375" y="173" width="3.75" height="3.75" rx="1.875" fill="#C4C4C4"/>
<rect x="382.5" y="173" width="3.75" height="3.75" rx="1.875" fill="#C4C4C4"/>
<rect x="360" y="179.25" width="3.75" height="3.75" rx="1.875" fill="#C4C4C4"/>
<rect x="367.5" y="179.25" width="3.75" height="3.75" rx="1.875" fill="#C4C4C4"/>
<rect x="375" y="179.25" width="3.75" height="3.75" rx="1.875" fill="#C4C4C4"/>
<rect x="382.5" y="179.25" width="3.75" height="3.75" rx="1.875" fill="#C4C4C4"/>
<path d="M421.969 258.149L423.699 262.824C423.952 263.508 424.492 264.048 425.176 264.301L429.851 266.031C430.287 266.192 430.287 266.808 429.851 266.969L425.176 268.699C424.492 268.952 423.952 269.492 423.699 270.176L421.969 274.851C421.808 275.287 421.192 275.287 421.031 274.851L419.301 270.176C419.048 269.492 418.508 268.952 417.824 268.699L413.149 266.969C412.713 266.808 412.713 266.192 413.149 266.031L417.824 264.301C418.508 264.048 419.048 263.508 419.301 262.824L421.031 258.149C421.192 257.713 421.808 257.713 421.969 258.149Z" stroke="#8666E1" stroke-width="2"/>
<defs>
<clipPath id="clip0">
<rect width="30.0815" height="30.0815" fill="white" transform="translate(90.9824 310.335)"/>
</clipPath>
<clipPath id="clip1">
<rect width="11.328" height="11.328" fill="white" transform="translate(208.16 254.208)"/>
</clipPath>
<clipPath id="clip2">
<rect width="11.328" height="11.328" fill="white" transform="translate(208.16 254.208)"/>
</clipPath>
<clipPath id="clip3">
<rect width="25.488" height="25.488" fill="white" transform="translate(269.992 282.528)"/>
</clipPath>
<clipPath id="clip4">
<rect width="11.328" height="11.328" fill="white" transform="translate(216.656 396.28)"/>
</clipPath>
</defs>
</svg>