<svg width="114" height="114" viewBox="0 0 114 114" fill="none" xmlns="http://www.w3.org/2000/svg">
<circle r="47.5" transform="matrix(1 0 0 -1 57.5 56.7451)" fill="#94E2BF" fill-opacity="0.17"/>
<ellipse rx="54.725" ry="55.2136" transform="matrix(-4.37114e-08 1 1 4.37114e-08 57.2136 56.9701)" stroke="#EDFAF4" stroke-width="3" stroke-linecap="round" stroke-dasharray="33 33"/>
<path d="M87 57.2451C87 41.2289 74.0163 28.2451 58 28.2451C41.9837 28.2451 29 41.2289 29 57.2451C29 73.2614 41.9837 86.2451 58 86.2451C74.0163 86.2451 87 73.2614 87 57.2451Z" fill="#94E2BF"/>
<path d="M60.3733 58.8469L69.2926 68.3977L72.9834 62.544L74.2137 56.9984L72.9834 50.5285L69.2926 45.9071L60.3733 54.2255L61.6035 56.9984L60.3733 58.8469Z" fill="#345B4A"/>
<path fill-rule="evenodd" clip-rule="evenodd" d="M58.2014 48.5478C53.5579 48.5478 49.7939 52.3296 49.7939 56.9951C49.7939 61.6607 53.5579 65.4425 58.2014 65.4425C60.5233 65.4425 62.6225 64.4982 64.1454 62.968C64.5058 62.6059 65.09 62.6059 65.4504 62.968C65.8108 63.3301 65.8108 63.9171 65.4504 64.2792C63.5957 66.1426 61.0327 67.2968 58.2014 67.2968C52.5386 67.2968 47.9484 62.6848 47.9484 56.9951C47.9484 51.3055 52.5386 46.6935 58.2014 46.6935C61.0317 46.6935 63.5955 47.8467 65.4503 49.7095C65.8107 50.0715 65.8108 50.6585 65.4505 51.0206C65.0902 51.3828 64.506 51.3829 64.1455 51.0209C62.6227 49.4916 60.5228 48.5478 58.2014 48.5478Z" fill="#345B4A"/>
<path fill-rule="evenodd" clip-rule="evenodd" d="M59.7005 58.4457C60.0619 58.0844 60.6477 58.0844 61.009 58.4457L70.168 67.6047C70.5293 67.966 70.5293 68.5518 70.168 68.9131C69.8067 69.2744 69.2209 69.2744 68.8596 68.9131L59.7005 59.7541C59.3392 59.3928 59.3392 58.807 59.7005 58.4457Z" fill="#345B4A"/>
<path fill-rule="evenodd" clip-rule="evenodd" d="M70.168 45.2344C70.5293 45.5957 70.5293 46.1815 70.168 46.5428L61.009 55.7018C60.6477 56.0631 60.0619 56.0631 59.7005 55.7018C59.3392 55.3405 59.3392 54.7547 59.7005 54.3934L68.8596 45.2344C69.2209 44.8731 69.8067 44.8731 70.168 45.2344Z" fill="#345B4A"/>
<path fill-rule="evenodd" clip-rule="evenodd" d="M58.25 42.0948C50.0208 42.0948 43.3497 48.7659 43.3497 56.9951C43.3497 65.2243 50.0208 71.8954 58.25 71.8954C66.4792 71.8954 73.1503 65.2243 73.1503 56.9951C73.1503 48.7659 66.4792 42.0948 58.25 42.0948ZM41.5 56.9951C41.5 47.7443 48.9992 40.2451 58.25 40.2451C67.5008 40.2451 75 47.7443 75 56.9951C75 66.2459 67.5008 73.7451 58.25 73.7451C48.9992 73.7451 41.5 66.2459 41.5 56.9951Z" fill="#345B4A"/>
<path fill-rule="evenodd" clip-rule="evenodd" d="M58.25 55.0164C57.1572 55.0164 56.2713 55.9023 56.2713 56.9951C56.2713 58.0879 57.1572 58.9738 58.25 58.9738C59.3428 58.9738 60.2287 58.0879 60.2287 56.9951C60.2287 55.9023 59.3428 55.0164 58.25 55.0164ZM54.3967 56.9951C54.3967 54.867 56.1219 53.1418 58.25 53.1418C60.3781 53.1418 62.1033 54.867 62.1033 56.9951C62.1033 59.1232 60.3781 60.8484 58.25 60.8484C56.1219 60.8484 54.3967 59.1232 54.3967 56.9951Z" fill="#345B4A"/>
</svg>
