<svg width="111" height="110" viewBox="0 0 111 110" fill="none" xmlns="http://www.w3.org/2000/svg">
<circle r="47.5" transform="matrix(1 0 0 -1 55.5 54.7451)" fill="#E4F7FF"/>
<path d="M93.9099 93.6662C115.472 72.104 115.627 37.2994 94.2554 15.9279C72.884 -5.44351 38.0793 -5.28882 16.5171 16.2734C-5.04517 37.8357 -5.19986 72.6403 16.1716 94.0117C37.543 115.383 72.3476 115.228 93.9099 93.6662Z" stroke="#E4F7FF" stroke-width="3" stroke-linecap="round" stroke-dasharray="33 33"/>
<path d="M85 55.2451C85 39.2289 72.0163 26.2451 56 26.2451C39.9837 26.2451 27 39.2289 27 55.2451C27 71.2614 39.9837 84.2451 56 84.2451C72.0163 84.2451 85 71.2614 85 55.2451Z" fill="#6BD5FF"/>
<path d="M58.3733 56.8469L67.2926 66.3977L70.9834 60.544L72.2137 54.9984L70.9834 48.5285L67.2926 43.9071L58.3733 52.2255L59.6035 54.9984L58.3733 56.8469Z" fill="#473860"/>
<path fill-rule="evenodd" clip-rule="evenodd" d="M56.2014 46.5478C51.5579 46.5478 47.7939 50.3296 47.7939 54.9951C47.7939 59.6607 51.5579 63.4425 56.2014 63.4425C58.5233 63.4425 60.6225 62.4982 62.1454 60.968C62.5058 60.6059 63.09 60.6059 63.4504 60.968C63.8108 61.3301 63.8108 61.9171 63.4504 62.2792C61.5957 64.1426 59.0327 65.2968 56.2014 65.2968C50.5386 65.2968 45.9484 60.6848 45.9484 54.9951C45.9484 49.3055 50.5386 44.6935 56.2014 44.6935C59.0317 44.6935 61.5955 45.8467 63.4503 47.7095C63.8107 48.0715 63.8108 48.6585 63.4505 49.0206C63.0902 49.3828 62.506 49.3829 62.1455 49.0209C60.6227 47.4916 58.5228 46.5478 56.2014 46.5478Z" fill="#473860"/>
<path fill-rule="evenodd" clip-rule="evenodd" d="M57.7005 56.4457C58.0619 56.0844 58.6477 56.0844 59.009 56.4457L68.168 65.6047C68.5293 65.966 68.5293 66.5518 68.168 66.9131C67.8067 67.2744 67.2209 67.2744 66.8596 66.9131L57.7005 57.7541C57.3392 57.3928 57.3392 56.807 57.7005 56.4457Z" fill="#473860"/>
<path fill-rule="evenodd" clip-rule="evenodd" d="M68.168 43.2344C68.5293 43.5957 68.5293 44.1815 68.168 44.5428L59.009 53.7018C58.6477 54.0631 58.0619 54.0631 57.7005 53.7018C57.3392 53.3405 57.3392 52.7547 57.7005 52.3934L66.8596 43.2344C67.2209 42.8731 67.8067 42.8731 68.168 43.2344Z" fill="#473860"/>
<path fill-rule="evenodd" clip-rule="evenodd" d="M56.25 40.0948C48.0208 40.0948 41.3497 46.7659 41.3497 54.9951C41.3497 63.2243 48.0208 69.8954 56.25 69.8954C64.4792 69.8954 71.1503 63.2243 71.1503 54.9951C71.1503 46.7659 64.4792 40.0948 56.25 40.0948ZM39.5 54.9951C39.5 45.7443 46.9992 38.2451 56.25 38.2451C65.5008 38.2451 73 45.7443 73 54.9951C73 64.2459 65.5008 71.7451 56.25 71.7451C46.9992 71.7451 39.5 64.2459 39.5 54.9951Z" fill="#473860"/>
<path fill-rule="evenodd" clip-rule="evenodd" d="M56.25 53.0164C55.1572 53.0164 54.2713 53.9023 54.2713 54.9951C54.2713 56.0879 55.1572 56.9738 56.25 56.9738C57.3428 56.9738 58.2287 56.0879 58.2287 54.9951C58.2287 53.9023 57.3428 53.0164 56.25 53.0164ZM52.3967 54.9951C52.3967 52.867 54.1219 51.1418 56.25 51.1418C58.3781 51.1418 60.1033 52.867 60.1033 54.9951C60.1033 57.1232 58.3781 58.8484 56.25 58.8484C54.1219 58.8484 52.3967 57.1232 52.3967 54.9951Z" fill="#473860"/>
</svg>
