<svg width="433" height="331" viewBox="0 0 433 331" fill="none" xmlns="http://www.w3.org/2000/svg">
<path d="M0 124C0 55.5167 55.5167 0 124 0H433V331H0V124Z" fill="#333141"/>
<path d="M75 75C75 62.8497 84.8497 53 97 53H433V331H75V75Z" fill="white"/>
<line x1="102" y1="241.5" x2="372" y2="241.5" stroke="#EFEFF1"/>
<line x1="100" y1="123.5" x2="370" y2="123.5" stroke="#EFEFF1"/>
<path d="M100 152C100 146.477 104.477 142 110 142H187C192.523 142 197 146.477 197 152V210C197 215.523 192.523 220 187 220H110C104.477 220 100 215.523 100 210V152Z" fill="#F2EFFA"/>
<path d="M127.097 194.1C126.617 194.1 126.193 194.01 125.827 193.83C125.467 193.65 125.183 193.39 124.977 193.05C124.777 192.703 124.667 192.287 124.647 191.8C124.64 191.7 124.637 191.57 124.637 191.41C124.637 191.243 124.64 191.107 124.647 191C124.667 190.513 124.777 190.1 124.977 189.76C125.183 189.413 125.467 189.15 125.827 188.97C126.193 188.79 126.617 188.7 127.097 188.7C127.523 188.7 127.887 188.76 128.187 188.88C128.487 188.993 128.733 189.143 128.927 189.33C129.12 189.51 129.263 189.7 129.357 189.9C129.457 190.093 129.51 190.27 129.517 190.43C129.523 190.503 129.5 190.563 129.447 190.61C129.4 190.65 129.343 190.67 129.277 190.67H128.397C128.33 190.67 128.277 190.653 128.237 190.62C128.203 190.587 128.17 190.537 128.137 190.47C128.037 190.203 127.903 190.017 127.737 189.91C127.577 189.797 127.37 189.74 127.117 189.74C126.783 189.74 126.517 189.847 126.317 190.06C126.123 190.267 126.02 190.597 126.007 191.05C125.993 191.303 125.993 191.537 126.007 191.75C126.02 192.21 126.123 192.543 126.317 192.75C126.517 192.957 126.783 193.06 127.117 193.06C127.377 193.06 127.587 193.007 127.747 192.9C127.907 192.787 128.037 192.597 128.137 192.33C128.17 192.263 128.203 192.213 128.237 192.18C128.277 192.147 128.33 192.13 128.397 192.13H129.277C129.343 192.13 129.4 192.153 129.447 192.2C129.5 192.24 129.523 192.297 129.517 192.37C129.51 192.49 129.477 192.627 129.417 192.78C129.363 192.927 129.273 193.08 129.147 193.24C129.027 193.393 128.873 193.537 128.687 193.67C128.5 193.797 128.273 193.9 128.007 193.98C127.747 194.06 127.443 194.1 127.097 194.1ZM130.809 194C130.743 194 130.686 193.977 130.639 193.93C130.593 193.883 130.569 193.827 130.569 193.76V187.14C130.569 187.073 130.593 187.017 130.639 186.97C130.686 186.923 130.743 186.9 130.809 186.9H131.699C131.773 186.9 131.829 186.923 131.869 186.97C131.916 187.017 131.939 187.073 131.939 187.14V189.42C132.119 189.207 132.339 189.033 132.599 188.9C132.859 188.767 133.179 188.7 133.559 188.7C133.966 188.7 134.319 188.793 134.619 188.98C134.926 189.16 135.163 189.417 135.329 189.75C135.496 190.083 135.579 190.483 135.579 190.95V193.76C135.579 193.827 135.556 193.883 135.509 193.93C135.463 193.977 135.406 194 135.339 194H134.439C134.373 194 134.316 193.977 134.269 193.93C134.223 193.883 134.199 193.827 134.199 193.76V191.01C134.199 190.623 134.103 190.32 133.909 190.1C133.723 189.88 133.449 189.77 133.089 189.77C132.743 189.77 132.463 189.88 132.249 190.1C132.043 190.32 131.939 190.623 131.939 191.01V193.76C131.939 193.827 131.916 193.883 131.869 193.93C131.829 193.977 131.773 194 131.699 194H130.809ZM139.088 194.1C138.348 194.1 137.762 193.887 137.328 193.46C136.895 193.033 136.662 192.427 136.628 191.64C136.622 191.573 136.618 191.49 136.618 191.39C136.618 191.283 136.622 191.2 136.628 191.14C136.655 190.633 136.768 190.2 136.968 189.84C137.175 189.473 137.458 189.193 137.818 189C138.178 188.8 138.602 188.7 139.088 188.7C139.628 188.7 140.082 188.813 140.448 189.04C140.815 189.26 141.092 189.57 141.278 189.97C141.465 190.363 141.558 190.82 141.558 191.34V191.55C141.558 191.617 141.535 191.673 141.488 191.72C141.442 191.767 141.382 191.79 141.308 191.79H137.988C137.988 191.79 137.988 191.8 137.988 191.82C137.988 191.84 137.988 191.857 137.988 191.87C137.995 192.103 138.038 192.32 138.118 192.52C138.205 192.713 138.328 192.87 138.488 192.99C138.655 193.11 138.852 193.17 139.078 193.17C139.265 193.17 139.422 193.143 139.548 193.09C139.675 193.03 139.778 192.963 139.858 192.89C139.938 192.817 139.995 192.757 140.028 192.71C140.088 192.63 140.135 192.583 140.168 192.57C140.208 192.55 140.265 192.54 140.338 192.54H141.198C141.265 192.54 141.318 192.56 141.358 192.6C141.405 192.64 141.425 192.69 141.418 192.75C141.412 192.857 141.355 192.987 141.248 193.14C141.148 193.293 141.002 193.443 140.808 193.59C140.615 193.737 140.372 193.86 140.078 193.96C139.792 194.053 139.462 194.1 139.088 194.1ZM137.988 190.95H140.198V190.92C140.198 190.66 140.155 190.433 140.068 190.24C139.982 190.04 139.855 189.887 139.688 189.78C139.522 189.667 139.322 189.61 139.088 189.61C138.855 189.61 138.655 189.667 138.488 189.78C138.322 189.887 138.195 190.04 138.108 190.24C138.028 190.433 137.988 190.66 137.988 190.92V190.95ZM144.87 194.1C144.39 194.1 143.967 194.01 143.6 193.83C143.24 193.65 142.957 193.39 142.75 193.05C142.55 192.703 142.44 192.287 142.42 191.8C142.413 191.7 142.41 191.57 142.41 191.41C142.41 191.243 142.413 191.107 142.42 191C142.44 190.513 142.55 190.1 142.75 189.76C142.957 189.413 143.24 189.15 143.6 188.97C143.967 188.79 144.39 188.7 144.87 188.7C145.297 188.7 145.66 188.76 145.96 188.88C146.26 188.993 146.507 189.143 146.7 189.33C146.893 189.51 147.037 189.7 147.13 189.9C147.23 190.093 147.283 190.27 147.29 190.43C147.297 190.503 147.273 190.563 147.22 190.61C147.173 190.65 147.117 190.67 147.05 190.67H146.17C146.103 190.67 146.05 190.653 146.01 190.62C145.977 190.587 145.943 190.537 145.91 190.47C145.81 190.203 145.677 190.017 145.51 189.91C145.35 189.797 145.143 189.74 144.89 189.74C144.557 189.74 144.29 189.847 144.09 190.06C143.897 190.267 143.793 190.597 143.78 191.05C143.767 191.303 143.767 191.537 143.78 191.75C143.793 192.21 143.897 192.543 144.09 192.75C144.29 192.957 144.557 193.06 144.89 193.06C145.15 193.06 145.36 193.007 145.52 192.9C145.68 192.787 145.81 192.597 145.91 192.33C145.943 192.263 145.977 192.213 146.01 192.18C146.05 192.147 146.103 192.13 146.17 192.13H147.05C147.117 192.13 147.173 192.153 147.22 192.2C147.273 192.24 147.297 192.297 147.29 192.37C147.283 192.49 147.25 192.627 147.19 192.78C147.137 192.927 147.047 193.08 146.92 193.24C146.8 193.393 146.647 193.537 146.46 193.67C146.273 193.797 146.047 193.9 145.78 193.98C145.52 194.06 145.217 194.1 144.87 194.1ZM148.583 194C148.516 194 148.46 193.977 148.413 193.93C148.366 193.883 148.343 193.827 148.343 193.76V187.14C148.343 187.073 148.366 187.017 148.413 186.97C148.46 186.923 148.516 186.9 148.583 186.9H149.393C149.466 186.9 149.523 186.923 149.563 186.97C149.61 187.017 149.633 187.073 149.633 187.14V190.56L151.313 188.97C151.38 188.917 151.433 188.877 151.473 188.85C151.52 188.817 151.59 188.8 151.683 188.8H152.613C152.68 188.8 152.733 188.82 152.773 188.86C152.813 188.9 152.833 188.953 152.833 189.02C152.833 189.047 152.826 189.077 152.813 189.11C152.8 189.143 152.773 189.173 152.733 189.2L150.673 191.13L152.983 193.61C153.05 193.677 153.083 193.733 153.083 193.78C153.083 193.847 153.06 193.9 153.013 193.94C152.973 193.98 152.923 194 152.863 194H151.913C151.813 194 151.74 193.987 151.693 193.96C151.653 193.927 151.603 193.883 151.543 193.83L149.633 191.82V193.76C149.633 193.827 149.61 193.883 149.563 193.93C149.523 193.977 149.466 194 149.393 194H148.583ZM153.67 191.57C153.596 191.57 153.536 191.547 153.49 191.5C153.45 191.453 153.43 191.397 153.43 191.33V190.67C153.43 190.603 153.45 190.547 153.49 190.5C153.536 190.453 153.596 190.43 153.67 190.43H156.74C156.806 190.43 156.863 190.453 156.91 190.5C156.956 190.547 156.98 190.603 156.98 190.67V191.33C156.98 191.397 156.956 191.453 156.91 191.5C156.863 191.547 156.806 191.57 156.74 191.57H153.67ZM158.514 194C158.448 194 158.391 193.977 158.344 193.93C158.298 193.883 158.274 193.827 158.274 193.76V189.04C158.274 188.973 158.298 188.917 158.344 188.87C158.391 188.823 158.448 188.8 158.514 188.8H159.344C159.418 188.8 159.474 188.823 159.514 188.87C159.561 188.917 159.584 188.973 159.584 189.04V193.76C159.584 193.827 159.561 193.883 159.514 193.93C159.474 193.977 159.418 194 159.344 194H158.514ZM158.474 187.94C158.408 187.94 158.351 187.917 158.304 187.87C158.258 187.823 158.234 187.767 158.234 187.7V186.98C158.234 186.913 158.258 186.857 158.304 186.81C158.351 186.763 158.408 186.74 158.474 186.74H159.384C159.458 186.74 159.518 186.763 159.564 186.81C159.611 186.857 159.634 186.913 159.634 186.98V187.7C159.634 187.767 159.611 187.823 159.564 187.87C159.518 187.917 159.458 187.94 159.384 187.94H158.474ZM161.151 194C161.084 194 161.028 193.977 160.981 193.93C160.934 193.883 160.911 193.827 160.911 193.76V189.04C160.911 188.973 160.934 188.917 160.981 188.87C161.028 188.823 161.084 188.8 161.151 188.8H161.971C162.038 188.8 162.094 188.823 162.141 188.87C162.188 188.917 162.211 188.973 162.211 189.04V189.45C162.384 189.237 162.604 189.06 162.871 188.92C163.144 188.773 163.481 188.7 163.881 188.7C164.288 188.7 164.641 188.793 164.941 188.98C165.241 189.16 165.471 189.417 165.631 189.75C165.798 190.083 165.881 190.483 165.881 190.95V193.76C165.881 193.827 165.858 193.883 165.811 193.93C165.764 193.977 165.708 194 165.641 194H164.761C164.694 194 164.638 193.977 164.591 193.93C164.544 193.883 164.521 193.827 164.521 193.76V191.01C164.521 190.623 164.424 190.32 164.231 190.1C164.044 189.88 163.771 189.77 163.411 189.77C163.064 189.77 162.788 189.88 162.581 190.1C162.374 190.32 162.271 190.623 162.271 191.01V193.76C162.271 193.827 162.248 193.883 162.201 193.93C162.154 193.977 162.098 194 162.031 194H161.151ZM169.121 194.1C168.721 194.1 168.378 194.053 168.091 193.96C167.811 193.867 167.581 193.75 167.401 193.61C167.221 193.47 167.088 193.33 167.001 193.19C166.915 193.05 166.868 192.933 166.861 192.84C166.855 192.767 166.875 192.71 166.921 192.67C166.975 192.623 167.031 192.6 167.091 192.6H167.881C167.908 192.6 167.931 192.603 167.951 192.61C167.971 192.617 167.998 192.637 168.031 192.67C168.118 192.743 168.208 192.82 168.301 192.9C168.401 192.98 168.518 193.05 168.651 193.11C168.785 193.163 168.951 193.19 169.151 193.19C169.411 193.19 169.628 193.14 169.801 193.04C169.981 192.933 170.071 192.783 170.071 192.59C170.071 192.45 170.031 192.337 169.951 192.25C169.878 192.163 169.738 192.087 169.531 192.02C169.325 191.947 169.031 191.87 168.651 191.79C168.278 191.703 167.968 191.593 167.721 191.46C167.475 191.327 167.291 191.16 167.171 190.96C167.051 190.76 166.991 190.527 166.991 190.26C166.991 190 167.068 189.753 167.221 189.52C167.381 189.28 167.615 189.083 167.921 188.93C168.235 188.777 168.621 188.7 169.081 188.7C169.441 188.7 169.755 188.747 170.021 188.84C170.288 188.927 170.508 189.037 170.681 189.17C170.861 189.303 170.998 189.44 171.091 189.58C171.185 189.713 171.235 189.83 171.241 189.93C171.248 190.003 171.228 190.063 171.181 190.11C171.135 190.15 171.081 190.17 171.021 190.17H170.281C170.248 190.17 170.218 190.163 170.191 190.15C170.165 190.137 170.138 190.12 170.111 190.1C170.038 190.033 169.958 189.963 169.871 189.89C169.785 189.81 169.678 189.743 169.551 189.69C169.431 189.637 169.271 189.61 169.071 189.61C168.818 189.61 168.625 189.667 168.491 189.78C168.358 189.887 168.291 190.023 168.291 190.19C168.291 190.303 168.321 190.403 168.381 190.49C168.448 190.57 168.578 190.647 168.771 190.72C168.965 190.793 169.258 190.87 169.651 190.95C170.098 191.03 170.451 191.15 170.711 191.31C170.978 191.463 171.165 191.643 171.271 191.85C171.385 192.05 171.441 192.273 171.441 192.52C171.441 192.82 171.351 193.09 171.171 193.33C170.998 193.57 170.738 193.76 170.391 193.9C170.051 194.033 169.628 194.1 169.121 194.1Z" fill="#334155"/>
<path d="M137.449 177C137.309 177 137.19 176.951 137.092 176.853C136.994 176.755 136.945 176.636 136.945 176.496V175.425C136.945 175.299 136.973 175.152 137.029 174.984C137.099 174.802 137.246 174.62 137.47 174.438L140.788 171.141C141.712 170.413 142.454 169.797 143.014 169.293C143.588 168.775 144.001 168.306 144.253 167.886C144.519 167.452 144.652 167.025 144.652 166.605C144.652 165.975 144.477 165.464 144.127 165.072C143.791 164.68 143.252 164.484 142.51 164.484C142.02 164.484 141.607 164.589 141.271 164.799C140.935 164.995 140.669 165.261 140.473 165.597C140.291 165.933 140.165 166.304 140.095 166.71C140.067 166.892 139.99 167.018 139.864 167.088C139.738 167.158 139.612 167.193 139.486 167.193H137.617C137.491 167.193 137.386 167.151 137.302 167.067C137.218 166.983 137.176 166.885 137.176 166.773C137.19 166.171 137.316 165.59 137.554 165.03C137.792 164.456 138.135 163.952 138.583 163.518C139.045 163.07 139.605 162.713 140.263 162.447C140.921 162.181 141.663 162.048 142.489 162.048C143.651 162.048 144.61 162.244 145.366 162.636C146.136 163.028 146.71 163.56 147.088 164.232C147.48 164.904 147.676 165.66 147.676 166.5C147.676 167.158 147.55 167.767 147.298 168.327C147.046 168.873 146.682 169.405 146.206 169.923C145.73 170.427 145.156 170.945 144.484 171.477L141.502 174.501H147.487C147.641 174.501 147.76 174.55 147.844 174.648C147.942 174.732 147.991 174.851 147.991 175.005V176.496C147.991 176.636 147.942 176.755 147.844 176.853C147.76 176.951 147.641 177 147.487 177H137.449ZM155.533 177.21C154.553 177.21 153.706 177.091 152.992 176.853C152.278 176.615 151.683 176.307 151.207 175.929C150.745 175.537 150.395 175.117 150.157 174.669C149.919 174.207 149.793 173.752 149.779 173.304C149.779 173.178 149.821 173.08 149.905 173.01C150.003 172.926 150.115 172.884 150.241 172.884H152.131C152.271 172.884 152.39 172.912 152.488 172.968C152.586 173.024 152.67 173.136 152.74 173.304C152.866 173.682 153.069 173.983 153.349 174.207C153.643 174.431 153.979 174.592 154.357 174.69C154.735 174.774 155.134 174.816 155.554 174.816C156.394 174.816 157.059 174.62 157.549 174.228C158.053 173.822 158.305 173.248 158.305 172.506C158.305 171.764 158.074 171.232 157.612 170.91C157.15 170.574 156.506 170.406 155.68 170.406H153.517C153.363 170.406 153.237 170.364 153.139 170.28C153.041 170.182 152.992 170.056 152.992 169.902V169.02C152.992 168.88 153.02 168.761 153.076 168.663C153.146 168.551 153.216 168.46 153.286 168.39L157.045 164.715H151.039C150.885 164.715 150.759 164.666 150.661 164.568C150.577 164.47 150.535 164.351 150.535 164.211V162.825C150.535 162.671 150.577 162.545 150.661 162.447C150.759 162.349 150.885 162.3 151.039 162.3H160.048C160.202 162.3 160.328 162.349 160.426 162.447C160.524 162.545 160.573 162.671 160.573 162.825V164.085C160.573 164.211 160.545 164.323 160.489 164.421C160.433 164.519 160.37 164.603 160.3 164.673L156.667 168.411L156.919 168.432C157.773 168.502 158.529 168.698 159.187 169.02C159.859 169.328 160.377 169.783 160.741 170.385C161.119 170.987 161.308 171.743 161.308 172.653C161.308 173.605 161.056 174.424 160.552 175.11C160.062 175.782 159.383 176.3 158.515 176.664C157.647 177.028 156.653 177.21 155.533 177.21Z" fill="#473860"/>
<path d="M206 152C206 146.477 210.477 142 216 142H293C298.523 142 303 146.477 303 152V210C303 215.523 298.523 220 293 220H216C210.477 220 206 215.523 206 210V152Z" fill="#F2EFFA"/>
<path d="M312 152C312 146.477 316.477 142 322 142H399C404.523 142 409 146.477 409 152V210C409 215.523 404.523 220 399 220H322C316.477 220 312 215.523 312 210V152Z" fill="#E1DAFA"/>
<path d="M226.79 194.1C226.443 194.1 226.13 194.033 225.85 193.9C225.57 193.76 225.347 193.577 225.18 193.35C225.02 193.117 224.94 192.857 224.94 192.57C224.94 192.103 225.13 191.733 225.51 191.46C225.89 191.18 226.387 190.993 227 190.9L228.37 190.7V190.49C228.37 190.21 228.3 189.993 228.16 189.84C228.02 189.687 227.78 189.61 227.44 189.61C227.2 189.61 227.003 189.66 226.85 189.76C226.703 189.853 226.593 189.98 226.52 190.14C226.467 190.227 226.39 190.27 226.29 190.27H225.5C225.427 190.27 225.37 190.25 225.33 190.21C225.297 190.17 225.28 190.117 225.28 190.05C225.287 189.943 225.33 189.813 225.41 189.66C225.497 189.507 225.623 189.36 225.79 189.22C225.963 189.073 226.187 188.95 226.46 188.85C226.733 188.75 227.063 188.7 227.45 188.7C227.87 188.7 228.223 188.753 228.51 188.86C228.803 188.96 229.037 189.097 229.21 189.27C229.383 189.443 229.51 189.647 229.59 189.88C229.67 190.113 229.71 190.36 229.71 190.62V193.76C229.71 193.827 229.687 193.883 229.64 193.93C229.593 193.977 229.537 194 229.47 194H228.66C228.587 194 228.527 193.977 228.48 193.93C228.44 193.883 228.42 193.827 228.42 193.76V193.37C228.333 193.49 228.217 193.607 228.07 193.72C227.923 193.833 227.743 193.927 227.53 194C227.323 194.067 227.077 194.1 226.79 194.1ZM227.13 193.15C227.363 193.15 227.573 193.1 227.76 193C227.953 192.9 228.103 192.747 228.21 192.54C228.323 192.327 228.38 192.06 228.38 191.74V191.53L227.38 191.69C226.987 191.75 226.693 191.847 226.5 191.98C226.307 192.113 226.21 192.277 226.21 192.47C226.21 192.617 226.253 192.743 226.34 192.85C226.433 192.95 226.55 193.027 226.69 193.08C226.83 193.127 226.977 193.15 227.13 193.15ZM233.243 194.1C232.763 194.1 232.34 194.01 231.973 193.83C231.613 193.65 231.33 193.39 231.123 193.05C230.923 192.703 230.813 192.287 230.793 191.8C230.786 191.7 230.783 191.57 230.783 191.41C230.783 191.243 230.786 191.107 230.793 191C230.813 190.513 230.923 190.1 231.123 189.76C231.33 189.413 231.613 189.15 231.973 188.97C232.34 188.79 232.763 188.7 233.243 188.7C233.67 188.7 234.033 188.76 234.333 188.88C234.633 188.993 234.88 189.143 235.073 189.33C235.266 189.51 235.41 189.7 235.503 189.9C235.603 190.093 235.656 190.27 235.663 190.43C235.67 190.503 235.646 190.563 235.593 190.61C235.546 190.65 235.49 190.67 235.423 190.67H234.543C234.476 190.67 234.423 190.653 234.383 190.62C234.35 190.587 234.316 190.537 234.283 190.47C234.183 190.203 234.05 190.017 233.883 189.91C233.723 189.797 233.516 189.74 233.263 189.74C232.93 189.74 232.663 189.847 232.463 190.06C232.27 190.267 232.166 190.597 232.153 191.05C232.14 191.303 232.14 191.537 232.153 191.75C232.166 192.21 232.27 192.543 232.463 192.75C232.663 192.957 232.93 193.06 233.263 193.06C233.523 193.06 233.733 193.007 233.893 192.9C234.053 192.787 234.183 192.597 234.283 192.33C234.316 192.263 234.35 192.213 234.383 192.18C234.423 192.147 234.476 192.13 234.543 192.13H235.423C235.49 192.13 235.546 192.153 235.593 192.2C235.646 192.24 235.67 192.297 235.663 192.37C235.656 192.49 235.623 192.627 235.563 192.78C235.51 192.927 235.42 193.08 235.293 193.24C235.173 193.393 235.02 193.537 234.833 193.67C234.646 193.797 234.42 193.9 234.153 193.98C233.893 194.06 233.59 194.1 233.243 194.1ZM239.056 194C238.656 194 238.319 193.93 238.046 193.79C237.773 193.65 237.569 193.443 237.436 193.17C237.303 192.89 237.236 192.543 237.236 192.13V189.86H236.446C236.379 189.86 236.323 189.837 236.276 189.79C236.229 189.743 236.206 189.683 236.206 189.61V189.04C236.206 188.973 236.229 188.917 236.276 188.87C236.323 188.823 236.379 188.8 236.446 188.8H237.236V187.14C237.236 187.073 237.256 187.017 237.296 186.97C237.343 186.923 237.403 186.9 237.476 186.9H238.286C238.353 186.9 238.409 186.923 238.456 186.97C238.503 187.017 238.526 187.073 238.526 187.14V188.8H239.776C239.843 188.8 239.899 188.823 239.946 188.87C239.993 188.917 240.016 188.973 240.016 189.04V189.61C240.016 189.683 239.993 189.743 239.946 189.79C239.899 189.837 239.843 189.86 239.776 189.86H238.526V192.03C238.526 192.303 238.573 192.517 238.666 192.67C238.766 192.823 238.936 192.9 239.176 192.9H239.866C239.933 192.9 239.989 192.923 240.036 192.97C240.083 193.017 240.106 193.073 240.106 193.14V193.76C240.106 193.827 240.083 193.883 240.036 193.93C239.989 193.977 239.933 194 239.866 194H239.056ZM241.233 194C241.166 194 241.11 193.977 241.063 193.93C241.016 193.883 240.993 193.827 240.993 193.76V189.04C240.993 188.973 241.016 188.917 241.063 188.87C241.11 188.823 241.166 188.8 241.233 188.8H242.063C242.136 188.8 242.193 188.823 242.233 188.87C242.28 188.917 242.303 188.973 242.303 189.04V193.76C242.303 193.827 242.28 193.883 242.233 193.93C242.193 193.977 242.136 194 242.063 194H241.233ZM241.193 187.94C241.126 187.94 241.07 187.917 241.023 187.87C240.976 187.823 240.953 187.767 240.953 187.7V186.98C240.953 186.913 240.976 186.857 241.023 186.81C241.07 186.763 241.126 186.74 241.193 186.74H242.103C242.176 186.74 242.236 186.763 242.283 186.81C242.33 186.857 242.353 186.913 242.353 186.98V187.7C242.353 187.767 242.33 187.823 242.283 187.87C242.236 187.917 242.176 187.94 242.103 187.94H241.193ZM245.47 194C245.363 194 245.283 193.977 245.23 193.93C245.183 193.877 245.143 193.817 245.11 193.75L243.24 189.11C243.226 189.077 243.22 189.047 243.22 189.02C243.22 188.96 243.24 188.91 243.28 188.87C243.326 188.823 243.38 188.8 243.44 188.8H244.25C244.33 188.8 244.39 188.823 244.43 188.87C244.47 188.91 244.496 188.95 244.51 188.99L245.84 192.5L247.17 188.99C247.183 188.95 247.21 188.91 247.25 188.87C247.29 188.823 247.35 188.8 247.43 188.8H248.25C248.303 188.8 248.35 188.823 248.39 188.87C248.436 188.91 248.46 188.96 248.46 189.02C248.46 189.047 248.456 189.077 248.45 189.11L246.57 193.75C246.543 193.817 246.503 193.877 246.45 193.93C246.396 193.977 246.316 194 246.21 194H245.47ZM251.426 194.1C250.686 194.1 250.1 193.887 249.666 193.46C249.233 193.033 249 192.427 248.966 191.64C248.96 191.573 248.956 191.49 248.956 191.39C248.956 191.283 248.96 191.2 248.966 191.14C248.993 190.633 249.106 190.2 249.306 189.84C249.513 189.473 249.796 189.193 250.156 189C250.516 188.8 250.94 188.7 251.426 188.7C251.966 188.7 252.42 188.813 252.786 189.04C253.153 189.26 253.43 189.57 253.616 189.97C253.803 190.363 253.896 190.82 253.896 191.34V191.55C253.896 191.617 253.873 191.673 253.826 191.72C253.78 191.767 253.72 191.79 253.646 191.79H250.326C250.326 191.79 250.326 191.8 250.326 191.82C250.326 191.84 250.326 191.857 250.326 191.87C250.333 192.103 250.376 192.32 250.456 192.52C250.543 192.713 250.666 192.87 250.826 192.99C250.993 193.11 251.19 193.17 251.416 193.17C251.603 193.17 251.76 193.143 251.886 193.09C252.013 193.03 252.116 192.963 252.196 192.89C252.276 192.817 252.333 192.757 252.366 192.71C252.426 192.63 252.473 192.583 252.506 192.57C252.546 192.55 252.603 192.54 252.676 192.54H253.536C253.603 192.54 253.656 192.56 253.696 192.6C253.743 192.64 253.763 192.69 253.756 192.75C253.75 192.857 253.693 192.987 253.586 193.14C253.486 193.293 253.34 193.443 253.146 193.59C252.953 193.737 252.71 193.86 252.416 193.96C252.13 194.053 251.8 194.1 251.426 194.1ZM250.326 190.95H252.536V190.92C252.536 190.66 252.493 190.433 252.406 190.24C252.32 190.04 252.193 189.887 252.026 189.78C251.86 189.667 251.66 189.61 251.426 189.61C251.193 189.61 250.993 189.667 250.826 189.78C250.66 189.887 250.533 190.04 250.446 190.24C250.366 190.433 250.326 190.66 250.326 190.92V190.95ZM259.173 194.1C258.766 194.1 258.413 194.01 258.113 193.83C257.82 193.643 257.593 193.383 257.433 193.05C257.273 192.71 257.193 192.31 257.193 191.85V189.04C257.193 188.973 257.216 188.917 257.263 188.87C257.31 188.823 257.366 188.8 257.433 188.8H258.313C258.386 188.8 258.443 188.823 258.483 188.87C258.53 188.917 258.553 188.973 258.553 189.04V191.79C258.553 192.617 258.916 193.03 259.643 193.03C259.99 193.03 260.263 192.92 260.463 192.7C260.67 192.48 260.773 192.177 260.773 191.79V189.04C260.773 188.973 260.796 188.917 260.843 188.87C260.89 188.823 260.946 188.8 261.013 188.8H261.893C261.96 188.8 262.016 188.823 262.063 188.87C262.11 188.917 262.133 188.973 262.133 189.04V193.76C262.133 193.827 262.11 193.883 262.063 193.93C262.016 193.977 261.96 194 261.893 194H261.083C261.01 194 260.95 193.977 260.903 193.93C260.863 193.883 260.843 193.827 260.843 193.76V193.35C260.663 193.583 260.44 193.767 260.173 193.9C259.906 194.033 259.573 194.1 259.173 194.1ZM265.424 194.1C265.024 194.1 264.681 194.053 264.394 193.96C264.114 193.867 263.884 193.75 263.704 193.61C263.524 193.47 263.391 193.33 263.304 193.19C263.217 193.05 263.171 192.933 263.164 192.84C263.157 192.767 263.177 192.71 263.224 192.67C263.277 192.623 263.334 192.6 263.394 192.6H264.184C264.211 192.6 264.234 192.603 264.254 192.61C264.274 192.617 264.301 192.637 264.334 192.67C264.421 192.743 264.511 192.82 264.604 192.9C264.704 192.98 264.821 193.05 264.954 193.11C265.087 193.163 265.254 193.19 265.454 193.19C265.714 193.19 265.931 193.14 266.104 193.04C266.284 192.933 266.374 192.783 266.374 192.59C266.374 192.45 266.334 192.337 266.254 192.25C266.181 192.163 266.041 192.087 265.834 192.02C265.627 191.947 265.334 191.87 264.954 191.79C264.581 191.703 264.271 191.593 264.024 191.46C263.777 191.327 263.594 191.16 263.474 190.96C263.354 190.76 263.294 190.527 263.294 190.26C263.294 190 263.371 189.753 263.524 189.52C263.684 189.28 263.917 189.083 264.224 188.93C264.537 188.777 264.924 188.7 265.384 188.7C265.744 188.7 266.057 188.747 266.324 188.84C266.591 188.927 266.811 189.037 266.984 189.17C267.164 189.303 267.301 189.44 267.394 189.58C267.487 189.713 267.537 189.83 267.544 189.93C267.551 190.003 267.531 190.063 267.484 190.11C267.437 190.15 267.384 190.17 267.324 190.17H266.584C266.551 190.17 266.521 190.163 266.494 190.15C266.467 190.137 266.441 190.12 266.414 190.1C266.341 190.033 266.261 189.963 266.174 189.89C266.087 189.81 265.981 189.743 265.854 189.69C265.734 189.637 265.574 189.61 265.374 189.61C265.121 189.61 264.927 189.667 264.794 189.78C264.661 189.887 264.594 190.023 264.594 190.19C264.594 190.303 264.624 190.403 264.684 190.49C264.751 190.57 264.881 190.647 265.074 190.72C265.267 190.793 265.561 190.87 265.954 190.95C266.401 191.03 266.754 191.15 267.014 191.31C267.281 191.463 267.467 191.643 267.574 191.85C267.687 192.05 267.744 192.273 267.744 192.52C267.744 192.82 267.654 193.09 267.474 193.33C267.301 193.57 267.041 193.76 266.694 193.9C266.354 194.033 265.931 194.1 265.424 194.1ZM271.016 194.1C270.276 194.1 269.69 193.887 269.256 193.46C268.823 193.033 268.59 192.427 268.556 191.64C268.55 191.573 268.546 191.49 268.546 191.39C268.546 191.283 268.55 191.2 268.556 191.14C268.583 190.633 268.696 190.2 268.896 189.84C269.103 189.473 269.386 189.193 269.746 189C270.106 188.8 270.53 188.7 271.016 188.7C271.556 188.7 272.01 188.813 272.376 189.04C272.743 189.26 273.02 189.57 273.206 189.97C273.393 190.363 273.486 190.82 273.486 191.34V191.55C273.486 191.617 273.463 191.673 273.416 191.72C273.37 191.767 273.31 191.79 273.236 191.79H269.916C269.916 191.79 269.916 191.8 269.916 191.82C269.916 191.84 269.916 191.857 269.916 191.87C269.923 192.103 269.966 192.32 270.046 192.52C270.133 192.713 270.256 192.87 270.416 192.99C270.583 193.11 270.78 193.17 271.006 193.17C271.193 193.17 271.35 193.143 271.476 193.09C271.603 193.03 271.706 192.963 271.786 192.89C271.866 192.817 271.923 192.757 271.956 192.71C272.016 192.63 272.063 192.583 272.096 192.57C272.136 192.55 272.193 192.54 272.266 192.54H273.126C273.193 192.54 273.246 192.56 273.286 192.6C273.333 192.64 273.353 192.69 273.346 192.75C273.34 192.857 273.283 192.987 273.176 193.14C273.076 193.293 272.93 193.443 272.736 193.59C272.543 193.737 272.3 193.86 272.006 193.96C271.72 194.053 271.39 194.1 271.016 194.1ZM269.916 190.95H272.126V190.92C272.126 190.66 272.083 190.433 271.996 190.24C271.91 190.04 271.783 189.887 271.616 189.78C271.45 189.667 271.25 189.61 271.016 189.61C270.783 189.61 270.583 189.667 270.416 189.78C270.25 189.887 270.123 190.04 270.036 190.24C269.956 190.433 269.916 190.66 269.916 190.92V190.95ZM274.788 194C274.721 194 274.664 193.977 274.618 193.93C274.571 193.883 274.548 193.827 274.548 193.76V189.05C274.548 188.977 274.571 188.917 274.618 188.87C274.664 188.823 274.721 188.8 274.788 188.8H275.598C275.664 188.8 275.721 188.823 275.768 188.87C275.821 188.917 275.848 188.977 275.848 189.05V189.46C276.001 189.247 276.198 189.083 276.438 188.97C276.684 188.857 276.968 188.8 277.288 188.8H277.698C277.771 188.8 277.828 188.823 277.868 188.87C277.914 188.917 277.938 188.973 277.938 189.04V189.76C277.938 189.827 277.914 189.883 277.868 189.93C277.828 189.977 277.771 190 277.698 190H276.918C276.598 190 276.348 190.09 276.168 190.27C275.994 190.443 275.908 190.69 275.908 191.01V193.76C275.908 193.827 275.884 193.883 275.838 193.93C275.791 193.977 275.731 194 275.658 194H274.788ZM280.688 194.1C280.288 194.1 279.944 194.053 279.658 193.96C279.378 193.867 279.148 193.75 278.968 193.61C278.788 193.47 278.654 193.33 278.568 193.19C278.481 193.05 278.434 192.933 278.428 192.84C278.421 192.767 278.441 192.71 278.488 192.67C278.541 192.623 278.598 192.6 278.658 192.6H279.448C279.474 192.6 279.498 192.603 279.518 192.61C279.538 192.617 279.564 192.637 279.598 192.67C279.684 192.743 279.774 192.82 279.868 192.9C279.968 192.98 280.084 193.05 280.218 193.11C280.351 193.163 280.518 193.19 280.718 193.19C280.978 193.19 281.194 193.14 281.368 193.04C281.548 192.933 281.638 192.783 281.638 192.59C281.638 192.45 281.598 192.337 281.518 192.25C281.444 192.163 281.304 192.087 281.098 192.02C280.891 191.947 280.598 191.87 280.218 191.79C279.844 191.703 279.534 191.593 279.288 191.46C279.041 191.327 278.858 191.16 278.738 190.96C278.618 190.76 278.558 190.527 278.558 190.26C278.558 190 278.634 189.753 278.788 189.52C278.948 189.28 279.181 189.083 279.488 188.93C279.801 188.777 280.188 188.7 280.648 188.7C281.008 188.7 281.321 188.747 281.588 188.84C281.854 188.927 282.074 189.037 282.248 189.17C282.428 189.303 282.564 189.44 282.658 189.58C282.751 189.713 282.801 189.83 282.808 189.93C282.814 190.003 282.794 190.063 282.748 190.11C282.701 190.15 282.648 190.17 282.588 190.17H281.848C281.814 190.17 281.784 190.163 281.758 190.15C281.731 190.137 281.704 190.12 281.678 190.1C281.604 190.033 281.524 189.963 281.438 189.89C281.351 189.81 281.244 189.743 281.118 189.69C280.998 189.637 280.838 189.61 280.638 189.61C280.384 189.61 280.191 189.667 280.058 189.78C279.924 189.887 279.858 190.023 279.858 190.19C279.858 190.303 279.888 190.403 279.948 190.49C280.014 190.57 280.144 190.647 280.338 190.72C280.531 190.793 280.824 190.87 281.218 190.95C281.664 191.03 282.018 191.15 282.278 191.31C282.544 191.463 282.731 191.643 282.838 191.85C282.951 192.05 283.008 192.273 283.008 192.52C283.008 192.82 282.918 193.09 282.738 193.33C282.564 193.57 282.304 193.76 281.958 193.9C281.618 194.033 281.194 194.1 280.688 194.1Z" fill="#334155"/>
<path d="M330.293 194C330.226 194 330.169 193.977 330.123 193.93C330.076 193.883 330.053 193.827 330.053 193.76V189.04C330.053 188.973 330.076 188.917 330.123 188.87C330.169 188.823 330.226 188.8 330.293 188.8H331.113C331.179 188.8 331.236 188.823 331.283 188.87C331.329 188.917 331.353 188.973 331.353 189.04V189.45C331.526 189.237 331.746 189.06 332.013 188.92C332.286 188.773 332.623 188.7 333.023 188.7C333.429 188.7 333.783 188.793 334.083 188.98C334.383 189.16 334.613 189.417 334.773 189.75C334.939 190.083 335.023 190.483 335.023 190.95V193.76C335.023 193.827 334.999 193.883 334.953 193.93C334.906 193.977 334.849 194 334.783 194H333.903C333.836 194 333.779 193.977 333.733 193.93C333.686 193.883 333.663 193.827 333.663 193.76V191.01C333.663 190.623 333.566 190.32 333.373 190.1C333.186 189.88 332.913 189.77 332.553 189.77C332.206 189.77 331.929 189.88 331.723 190.1C331.516 190.32 331.413 190.623 331.413 191.01V193.76C331.413 193.827 331.389 193.883 331.343 193.93C331.296 193.977 331.239 194 331.173 194H330.293ZM338.533 194.1C337.793 194.1 337.206 193.887 336.773 193.46C336.339 193.033 336.106 192.427 336.073 191.64C336.066 191.573 336.063 191.49 336.063 191.39C336.063 191.283 336.066 191.2 336.073 191.14C336.099 190.633 336.213 190.2 336.413 189.84C336.619 189.473 336.903 189.193 337.263 189C337.623 188.8 338.046 188.7 338.533 188.7C339.073 188.7 339.526 188.813 339.893 189.04C340.259 189.26 340.536 189.57 340.723 189.97C340.909 190.363 341.003 190.82 341.003 191.34V191.55C341.003 191.617 340.979 191.673 340.933 191.72C340.886 191.767 340.826 191.79 340.753 191.79H337.433C337.433 191.79 337.433 191.8 337.433 191.82C337.433 191.84 337.433 191.857 337.433 191.87C337.439 192.103 337.483 192.32 337.563 192.52C337.649 192.713 337.773 192.87 337.933 192.99C338.099 193.11 338.296 193.17 338.523 193.17C338.709 193.17 338.866 193.143 338.993 193.09C339.119 193.03 339.223 192.963 339.303 192.89C339.383 192.817 339.439 192.757 339.473 192.71C339.533 192.63 339.579 192.583 339.613 192.57C339.653 192.55 339.709 192.54 339.783 192.54H340.643C340.709 192.54 340.763 192.56 340.803 192.6C340.849 192.64 340.869 192.69 340.863 192.75C340.856 192.857 340.799 192.987 340.693 193.14C340.593 193.293 340.446 193.443 340.253 193.59C340.059 193.737 339.816 193.86 339.523 193.96C339.236 194.053 338.906 194.1 338.533 194.1ZM337.433 190.95H339.643V190.92C339.643 190.66 339.599 190.433 339.513 190.24C339.426 190.04 339.299 189.887 339.133 189.78C338.966 189.667 338.766 189.61 338.533 189.61C338.299 189.61 338.099 189.667 337.933 189.78C337.766 189.887 337.639 190.04 337.553 190.24C337.473 190.433 337.433 190.66 337.433 190.92V190.95ZM343.338 194C343.244 194 343.174 193.977 343.128 193.93C343.081 193.883 343.041 193.823 343.008 193.75L341.578 189.11C341.571 189.077 341.568 189.047 341.568 189.02C341.568 188.96 341.588 188.91 341.628 188.87C341.674 188.823 341.724 188.8 341.778 188.8H342.518C342.598 188.8 342.661 188.823 342.708 188.87C342.754 188.91 342.781 188.95 342.788 188.99L343.768 192.3L344.808 189.02C344.821 188.973 344.851 188.927 344.898 188.88C344.944 188.827 345.014 188.8 345.108 188.8H345.608C345.701 188.8 345.771 188.827 345.818 188.88C345.864 188.927 345.894 188.973 345.908 189.02L346.948 192.3L347.928 188.99C347.934 188.95 347.958 188.91 347.998 188.87C348.044 188.823 348.108 188.8 348.188 188.8H348.928C348.988 188.8 349.038 188.823 349.078 188.87C349.124 188.91 349.148 188.96 349.148 189.02C349.148 189.047 349.141 189.077 349.128 189.11L347.698 193.75C347.678 193.823 347.641 193.883 347.588 193.93C347.541 193.977 347.471 194 347.378 194H346.728C346.641 194 346.568 193.977 346.508 193.93C346.454 193.883 346.418 193.823 346.398 193.75L345.358 190.59L344.318 193.75C344.291 193.823 344.251 193.883 344.198 193.93C344.151 193.977 344.078 194 343.978 194H343.338ZM352.421 194C352.355 194 352.298 193.977 352.251 193.93C352.205 193.883 352.181 193.827 352.181 193.76V189.04C352.181 188.973 352.205 188.917 352.251 188.87C352.298 188.823 352.355 188.8 352.421 188.8H353.201C353.268 188.8 353.325 188.823 353.371 188.87C353.418 188.917 353.441 188.973 353.441 189.04V189.38C353.581 189.193 353.768 189.037 354.001 188.91C354.241 188.777 354.525 188.707 354.851 188.7C355.611 188.687 356.141 188.983 356.441 189.59C356.595 189.323 356.815 189.11 357.101 188.95C357.395 188.783 357.718 188.7 358.071 188.7C358.418 188.7 358.731 188.78 359.011 188.94C359.298 189.1 359.521 189.343 359.681 189.67C359.848 189.99 359.931 190.397 359.931 190.89V193.76C359.931 193.827 359.908 193.883 359.861 193.93C359.815 193.977 359.758 194 359.691 194H358.871C358.805 194 358.748 193.977 358.701 193.93C358.655 193.883 358.631 193.827 358.631 193.76V190.97C358.631 190.67 358.588 190.433 358.501 190.26C358.415 190.08 358.298 189.953 358.151 189.88C358.005 189.807 357.841 189.77 357.661 189.77C357.515 189.77 357.368 189.807 357.221 189.88C357.075 189.953 356.955 190.08 356.861 190.26C356.768 190.433 356.721 190.67 356.721 190.97V193.76C356.721 193.827 356.698 193.883 356.651 193.93C356.605 193.977 356.548 194 356.481 194H355.661C355.595 194 355.538 193.977 355.491 193.93C355.445 193.883 355.421 193.827 355.421 193.76V190.97C355.421 190.67 355.375 190.433 355.281 190.26C355.188 190.08 355.068 189.953 354.921 189.88C354.775 189.807 354.618 189.77 354.451 189.77C354.298 189.77 354.148 189.81 354.001 189.89C353.855 189.963 353.735 190.087 353.641 190.26C353.548 190.433 353.501 190.67 353.501 190.97V193.76C353.501 193.827 353.478 193.883 353.431 193.93C353.385 193.977 353.328 194 353.261 194H352.421ZM363.445 194.1C362.705 194.1 362.118 193.887 361.685 193.46C361.252 193.033 361.018 192.427 360.985 191.64C360.978 191.573 360.975 191.49 360.975 191.39C360.975 191.283 360.978 191.2 360.985 191.14C361.012 190.633 361.125 190.2 361.325 189.84C361.532 189.473 361.815 189.193 362.175 189C362.535 188.8 362.958 188.7 363.445 188.7C363.985 188.7 364.438 188.813 364.805 189.04C365.172 189.26 365.448 189.57 365.635 189.97C365.822 190.363 365.915 190.82 365.915 191.34V191.55C365.915 191.617 365.892 191.673 365.845 191.72C365.798 191.767 365.738 191.79 365.665 191.79H362.345C362.345 191.79 362.345 191.8 362.345 191.82C362.345 191.84 362.345 191.857 362.345 191.87C362.352 192.103 362.395 192.32 362.475 192.52C362.562 192.713 362.685 192.87 362.845 192.99C363.012 193.11 363.208 193.17 363.435 193.17C363.622 193.17 363.778 193.143 363.905 193.09C364.032 193.03 364.135 192.963 364.215 192.89C364.295 192.817 364.352 192.757 364.385 192.71C364.445 192.63 364.492 192.583 364.525 192.57C364.565 192.55 364.622 192.54 364.695 192.54H365.555C365.622 192.54 365.675 192.56 365.715 192.6C365.762 192.64 365.782 192.69 365.775 192.75C365.768 192.857 365.712 192.987 365.605 193.14C365.505 193.293 365.358 193.443 365.165 193.59C364.972 193.737 364.728 193.86 364.435 193.96C364.148 194.053 363.818 194.1 363.445 194.1ZM362.345 190.95H364.555V190.92C364.555 190.66 364.512 190.433 364.425 190.24C364.338 190.04 364.212 189.887 364.045 189.78C363.878 189.667 363.678 189.61 363.445 189.61C363.212 189.61 363.012 189.667 362.845 189.78C362.678 189.887 362.552 190.04 362.465 190.24C362.385 190.433 362.345 190.66 362.345 190.92V190.95ZM368.946 194.1C368.546 194.1 368.203 194.053 367.916 193.96C367.636 193.867 367.406 193.75 367.226 193.61C367.046 193.47 366.913 193.33 366.826 193.19C366.74 193.05 366.693 192.933 366.686 192.84C366.68 192.767 366.7 192.71 366.746 192.67C366.8 192.623 366.856 192.6 366.916 192.6H367.706C367.733 192.6 367.756 192.603 367.776 192.61C367.796 192.617 367.823 192.637 367.856 192.67C367.943 192.743 368.033 192.82 368.126 192.9C368.226 192.98 368.343 193.05 368.476 193.11C368.61 193.163 368.776 193.19 368.976 193.19C369.236 193.19 369.453 193.14 369.626 193.04C369.806 192.933 369.896 192.783 369.896 192.59C369.896 192.45 369.856 192.337 369.776 192.25C369.703 192.163 369.563 192.087 369.356 192.02C369.15 191.947 368.856 191.87 368.476 191.79C368.103 191.703 367.793 191.593 367.546 191.46C367.3 191.327 367.116 191.16 366.996 190.96C366.876 190.76 366.816 190.527 366.816 190.26C366.816 190 366.893 189.753 367.046 189.52C367.206 189.28 367.44 189.083 367.746 188.93C368.06 188.777 368.446 188.7 368.906 188.7C369.266 188.7 369.58 188.747 369.846 188.84C370.113 188.927 370.333 189.037 370.506 189.17C370.686 189.303 370.823 189.44 370.916 189.58C371.01 189.713 371.06 189.83 371.066 189.93C371.073 190.003 371.053 190.063 371.006 190.11C370.96 190.15 370.906 190.17 370.846 190.17H370.106C370.073 190.17 370.043 190.163 370.016 190.15C369.99 190.137 369.963 190.12 369.936 190.1C369.863 190.033 369.783 189.963 369.696 189.89C369.61 189.81 369.503 189.743 369.376 189.69C369.256 189.637 369.096 189.61 368.896 189.61C368.643 189.61 368.45 189.667 368.316 189.78C368.183 189.887 368.116 190.023 368.116 190.19C368.116 190.303 368.146 190.403 368.206 190.49C368.273 190.57 368.403 190.647 368.596 190.72C368.79 190.793 369.083 190.87 369.476 190.95C369.923 191.03 370.276 191.15 370.536 191.31C370.803 191.463 370.99 191.643 371.096 191.85C371.21 192.05 371.266 192.273 371.266 192.52C371.266 192.82 371.176 193.09 370.996 193.33C370.823 193.57 370.563 193.76 370.216 193.9C369.876 194.033 369.453 194.1 368.946 194.1ZM374.269 194.1C373.869 194.1 373.525 194.053 373.239 193.96C372.959 193.867 372.729 193.75 372.549 193.61C372.369 193.47 372.235 193.33 372.149 193.19C372.062 193.05 372.015 192.933 372.009 192.84C372.002 192.767 372.022 192.71 372.069 192.67C372.122 192.623 372.179 192.6 372.239 192.6H373.029C373.055 192.6 373.079 192.603 373.099 192.61C373.119 192.617 373.145 192.637 373.179 192.67C373.265 192.743 373.355 192.82 373.449 192.9C373.549 192.98 373.665 193.05 373.799 193.11C373.932 193.163 374.099 193.19 374.299 193.19C374.559 193.19 374.775 193.14 374.949 193.04C375.129 192.933 375.219 192.783 375.219 192.59C375.219 192.45 375.179 192.337 375.099 192.25C375.025 192.163 374.885 192.087 374.679 192.02C374.472 191.947 374.179 191.87 373.799 191.79C373.425 191.703 373.115 191.593 372.869 191.46C372.622 191.327 372.439 191.16 372.319 190.96C372.199 190.76 372.139 190.527 372.139 190.26C372.139 190 372.215 189.753 372.369 189.52C372.529 189.28 372.762 189.083 373.069 188.93C373.382 188.777 373.769 188.7 374.229 188.7C374.589 188.7 374.902 188.747 375.169 188.84C375.435 188.927 375.655 189.037 375.829 189.17C376.009 189.303 376.145 189.44 376.239 189.58C376.332 189.713 376.382 189.83 376.389 189.93C376.395 190.003 376.375 190.063 376.329 190.11C376.282 190.15 376.229 190.17 376.169 190.17H375.429C375.395 190.17 375.365 190.163 375.339 190.15C375.312 190.137 375.285 190.12 375.259 190.1C375.185 190.033 375.105 189.963 375.019 189.89C374.932 189.81 374.825 189.743 374.699 189.69C374.579 189.637 374.419 189.61 374.219 189.61C373.965 189.61 373.772 189.667 373.639 189.78C373.505 189.887 373.439 190.023 373.439 190.19C373.439 190.303 373.469 190.403 373.529 190.49C373.595 190.57 373.725 190.647 373.919 190.72C374.112 190.793 374.405 190.87 374.799 190.95C375.245 191.03 375.599 191.15 375.859 191.31C376.125 191.463 376.312 191.643 376.419 191.85C376.532 192.05 376.589 192.273 376.589 192.52C376.589 192.82 376.499 193.09 376.319 193.33C376.145 193.57 375.885 193.76 375.539 193.9C375.199 194.033 374.775 194.1 374.269 194.1ZM379.131 194.1C378.784 194.1 378.471 194.033 378.191 193.9C377.911 193.76 377.688 193.577 377.521 193.35C377.361 193.117 377.281 192.857 377.281 192.57C377.281 192.103 377.471 191.733 377.851 191.46C378.231 191.18 378.728 190.993 379.341 190.9L380.711 190.7V190.49C380.711 190.21 380.641 189.993 380.501 189.84C380.361 189.687 380.121 189.61 379.781 189.61C379.541 189.61 379.344 189.66 379.191 189.76C379.044 189.853 378.934 189.98 378.861 190.14C378.808 190.227 378.731 190.27 378.631 190.27H377.841C377.768 190.27 377.711 190.25 377.671 190.21C377.638 190.17 377.621 190.117 377.621 190.05C377.628 189.943 377.671 189.813 377.751 189.66C377.838 189.507 377.964 189.36 378.131 189.22C378.304 189.073 378.528 188.95 378.801 188.85C379.074 188.75 379.404 188.7 379.791 188.7C380.211 188.7 380.564 188.753 380.851 188.86C381.144 188.96 381.378 189.097 381.551 189.27C381.724 189.443 381.851 189.647 381.931 189.88C382.011 190.113 382.051 190.36 382.051 190.62V193.76C382.051 193.827 382.028 193.883 381.981 193.93C381.934 193.977 381.878 194 381.811 194H381.001C380.928 194 380.868 193.977 380.821 193.93C380.781 193.883 380.761 193.827 380.761 193.76V193.37C380.674 193.49 380.558 193.607 380.411 193.72C380.264 193.833 380.084 193.927 379.871 194C379.664 194.067 379.418 194.1 379.131 194.1ZM379.471 193.15C379.704 193.15 379.914 193.1 380.101 193C380.294 192.9 380.444 192.747 380.551 192.54C380.664 192.327 380.721 192.06 380.721 191.74V191.53L379.721 191.69C379.328 191.75 379.034 191.847 378.841 191.98C378.648 192.113 378.551 192.277 378.551 192.47C378.551 192.617 378.594 192.743 378.681 192.85C378.774 192.95 378.891 193.027 379.031 193.08C379.171 193.127 379.318 193.15 379.471 193.15ZM385.684 196.2C385.197 196.2 384.797 196.137 384.484 196.01C384.17 195.883 383.924 195.73 383.744 195.55C383.564 195.37 383.434 195.19 383.354 195.01C383.28 194.837 383.24 194.7 383.234 194.6C383.227 194.533 383.247 194.473 383.294 194.42C383.347 194.373 383.407 194.35 383.474 194.35H384.344C384.41 194.35 384.464 194.363 384.504 194.39C384.544 194.423 384.577 194.48 384.604 194.56C384.644 194.647 384.697 194.74 384.764 194.84C384.83 194.94 384.93 195.023 385.064 195.09C385.204 195.163 385.394 195.2 385.634 195.2C385.887 195.2 386.1 195.163 386.274 195.09C386.447 195.017 386.577 194.893 386.664 194.72C386.757 194.547 386.804 194.307 386.804 194V193.32C386.644 193.513 386.437 193.67 386.184 193.79C385.937 193.91 385.63 193.97 385.264 193.97C384.91 193.97 384.6 193.913 384.334 193.8C384.074 193.68 383.857 193.517 383.684 193.31C383.51 193.097 383.377 192.847 383.284 192.56C383.197 192.273 383.147 191.957 383.134 191.61C383.127 191.43 383.127 191.25 383.134 191.07C383.147 190.737 383.197 190.427 383.284 190.14C383.377 189.853 383.51 189.603 383.684 189.39C383.857 189.17 384.074 189 384.334 188.88C384.6 188.76 384.91 188.7 385.264 188.7C385.644 188.7 385.964 188.773 386.224 188.92C386.484 189.06 386.697 189.237 386.864 189.45V189.05C386.864 188.977 386.887 188.917 386.934 188.87C386.98 188.823 387.037 188.8 387.104 188.8H387.914C387.98 188.8 388.037 188.823 388.084 188.87C388.13 188.917 388.154 188.977 388.154 189.05L388.164 193.87C388.164 194.35 388.074 194.763 387.894 195.11C387.714 195.457 387.44 195.723 387.074 195.91C386.714 196.103 386.25 196.2 385.684 196.2ZM385.634 192.91C385.907 192.91 386.127 192.85 386.294 192.73C386.46 192.61 386.584 192.453 386.664 192.26C386.744 192.067 386.79 191.87 386.804 191.67C386.81 191.583 386.814 191.473 386.814 191.34C386.814 191.207 386.81 191.1 386.804 191.02C386.79 190.813 386.744 190.617 386.664 190.43C386.584 190.237 386.46 190.08 386.294 189.96C386.127 189.833 385.907 189.77 385.634 189.77C385.36 189.77 385.14 189.833 384.974 189.96C384.807 190.08 384.687 190.24 384.614 190.44C384.547 190.64 384.507 190.86 384.494 191.1C384.48 191.26 384.48 191.423 384.494 191.59C384.507 191.823 384.547 192.043 384.614 192.25C384.687 192.45 384.807 192.61 384.974 192.73C385.14 192.85 385.36 192.91 385.634 192.91ZM391.736 194.1C390.996 194.1 390.409 193.887 389.976 193.46C389.543 193.033 389.309 192.427 389.276 191.64C389.269 191.573 389.266 191.49 389.266 191.39C389.266 191.283 389.269 191.2 389.276 191.14C389.303 190.633 389.416 190.2 389.616 189.84C389.823 189.473 390.106 189.193 390.466 189C390.826 188.8 391.249 188.7 391.736 188.7C392.276 188.7 392.729 188.813 393.096 189.04C393.463 189.26 393.739 189.57 393.926 189.97C394.113 190.363 394.206 190.82 394.206 191.34V191.55C394.206 191.617 394.183 191.673 394.136 191.72C394.089 191.767 394.029 191.79 393.956 191.79H390.636C390.636 191.79 390.636 191.8 390.636 191.82C390.636 191.84 390.636 191.857 390.636 191.87C390.643 192.103 390.686 192.32 390.766 192.52C390.853 192.713 390.976 192.87 391.136 192.99C391.303 193.11 391.499 193.17 391.726 193.17C391.913 193.17 392.069 193.143 392.196 193.09C392.323 193.03 392.426 192.963 392.506 192.89C392.586 192.817 392.643 192.757 392.676 192.71C392.736 192.63 392.783 192.583 392.816 192.57C392.856 192.55 392.913 192.54 392.986 192.54H393.846C393.913 192.54 393.966 192.56 394.006 192.6C394.053 192.64 394.073 192.69 394.066 192.75C394.059 192.857 394.003 192.987 393.896 193.14C393.796 193.293 393.649 193.443 393.456 193.59C393.263 193.737 393.019 193.86 392.726 193.96C392.439 194.053 392.109 194.1 391.736 194.1ZM390.636 190.95H392.846V190.92C392.846 190.66 392.803 190.433 392.716 190.24C392.629 190.04 392.503 189.887 392.336 189.78C392.169 189.667 391.969 189.61 391.736 189.61C391.503 189.61 391.303 189.667 391.136 189.78C390.969 189.887 390.843 190.04 390.756 190.24C390.676 190.433 390.636 190.66 390.636 190.92V190.95Z" fill="#334155"/>
<path d="M242.295 177C242.155 177 242.036 176.951 241.938 176.853C241.84 176.755 241.791 176.636 241.791 176.496V173.808H235.134C234.98 173.808 234.854 173.759 234.756 173.661C234.672 173.563 234.63 173.444 234.63 173.304V171.876C234.63 171.792 234.644 171.694 234.672 171.582C234.714 171.456 234.777 171.344 234.861 171.246L241.056 162.657C241.238 162.419 241.497 162.3 241.833 162.3H244.122C244.262 162.3 244.381 162.349 244.479 162.447C244.577 162.545 244.626 162.664 244.626 162.804V171.33H246.495C246.663 171.33 246.789 171.379 246.873 171.477C246.971 171.561 247.02 171.68 247.02 171.834V173.304C247.02 173.444 246.971 173.563 246.873 173.661C246.775 173.759 246.656 173.808 246.516 173.808H244.626V176.496C244.626 176.636 244.577 176.755 244.479 176.853C244.381 176.951 244.262 177 244.122 177H242.295ZM237.549 171.414H241.854V165.345L237.549 171.414ZM254.23 177.21C253.25 177.21 252.403 177.091 251.689 176.853C250.975 176.615 250.38 176.307 249.904 175.929C249.442 175.537 249.092 175.117 248.854 174.669C248.616 174.207 248.49 173.752 248.476 173.304C248.476 173.178 248.518 173.08 248.602 173.01C248.7 172.926 248.812 172.884 248.938 172.884H250.828C250.968 172.884 251.087 172.912 251.185 172.968C251.283 173.024 251.367 173.136 251.437 173.304C251.563 173.682 251.766 173.983 252.046 174.207C252.34 174.431 252.676 174.592 253.054 174.69C253.432 174.774 253.831 174.816 254.251 174.816C255.091 174.816 255.756 174.62 256.246 174.228C256.75 173.822 257.002 173.248 257.002 172.506C257.002 171.764 256.771 171.232 256.309 170.91C255.847 170.574 255.203 170.406 254.377 170.406H252.214C252.06 170.406 251.934 170.364 251.836 170.28C251.738 170.182 251.689 170.056 251.689 169.902V169.02C251.689 168.88 251.717 168.761 251.773 168.663C251.843 168.551 251.913 168.46 251.983 168.39L255.742 164.715H249.736C249.582 164.715 249.456 164.666 249.358 164.568C249.274 164.47 249.232 164.351 249.232 164.211V162.825C249.232 162.671 249.274 162.545 249.358 162.447C249.456 162.349 249.582 162.3 249.736 162.3H258.745C258.899 162.3 259.025 162.349 259.123 162.447C259.221 162.545 259.27 162.671 259.27 162.825V164.085C259.27 164.211 259.242 164.323 259.186 164.421C259.13 164.519 259.067 164.603 258.997 164.673L255.364 168.411L255.616 168.432C256.47 168.502 257.226 168.698 257.884 169.02C258.556 169.328 259.074 169.783 259.438 170.385C259.816 170.987 260.005 171.743 260.005 172.653C260.005 173.605 259.753 174.424 259.249 175.11C258.759 175.782 258.08 176.3 257.212 176.664C256.344 177.028 255.35 177.21 254.23 177.21ZM262.376 177C262.236 177 262.117 176.951 262.019 176.853C261.921 176.755 261.872 176.636 261.872 176.496V175.425C261.872 175.299 261.9 175.152 261.956 174.984C262.026 174.802 262.173 174.62 262.397 174.438L265.715 171.141C266.639 170.413 267.381 169.797 267.941 169.293C268.515 168.775 268.928 168.306 269.18 167.886C269.446 167.452 269.579 167.025 269.579 166.605C269.579 165.975 269.404 165.464 269.054 165.072C268.718 164.68 268.179 164.484 267.437 164.484C266.947 164.484 266.534 164.589 266.198 164.799C265.862 164.995 265.596 165.261 265.4 165.597C265.218 165.933 265.092 166.304 265.022 166.71C264.994 166.892 264.917 167.018 264.791 167.088C264.665 167.158 264.539 167.193 264.413 167.193H262.544C262.418 167.193 262.313 167.151 262.229 167.067C262.145 166.983 262.103 166.885 262.103 166.773C262.117 166.171 262.243 165.59 262.481 165.03C262.719 164.456 263.062 163.952 263.51 163.518C263.972 163.07 264.532 162.713 265.19 162.447C265.848 162.181 266.59 162.048 267.416 162.048C268.578 162.048 269.537 162.244 270.293 162.636C271.063 163.028 271.637 163.56 272.015 164.232C272.407 164.904 272.603 165.66 272.603 166.5C272.603 167.158 272.477 167.767 272.225 168.327C271.973 168.873 271.609 169.405 271.133 169.923C270.657 170.427 270.083 170.945 269.411 171.477L266.429 174.501H272.414C272.568 174.501 272.687 174.55 272.771 174.648C272.869 174.732 272.918 174.851 272.918 175.005V176.496C272.918 176.636 272.869 176.755 272.771 176.853C272.687 176.951 272.568 177 272.414 177H262.376Z" fill="#473860"/>
<path d="M360.817 177C360.663 177 360.537 176.951 360.439 176.853C360.355 176.755 360.313 176.636 360.313 176.496V165.618L357.121 168.075C356.995 168.159 356.869 168.194 356.743 168.18C356.617 168.152 356.505 168.075 356.407 167.949L355.525 166.815C355.441 166.689 355.406 166.556 355.42 166.416C355.448 166.276 355.525 166.164 355.651 166.08L360.355 162.447C360.439 162.377 360.523 162.335 360.607 162.321C360.691 162.307 360.782 162.3 360.88 162.3H362.728C362.868 162.3 362.987 162.349 363.085 162.447C363.183 162.545 363.232 162.664 363.232 162.804V176.496C363.232 176.636 363.183 176.755 363.085 176.853C362.987 176.951 362.868 177 362.728 177H360.817Z" fill="#473860"/>
<rect x="148" y="74" width="193" height="28" rx="9" fill="#E3E3E3"/>
<path d="M120.632 74C124.701 74 128 77.299 128 81.3684L128 94.6316C128 98.701 124.701 102 120.632 102L107.368 102C103.299 102 100 98.701 100 94.6316L100 81.3684C100 77.299 103.299 74 107.368 74L120.632 74Z" fill="#31303F"/>
<path d="M108.164 88.3813L113.223 80.4424C113.599 79.8525 114.414 79.8525 114.79 80.4424L119.836 88.3611C120.083 88.7494 120.048 89.2685 119.75 89.6144L114.536 95.6729C114.153 96.118 113.492 96.1073 113.122 95.6502L108.231 89.6119C107.95 89.2652 107.923 88.7603 108.164 88.3813Z" fill="#E8E1FE"/>
<path d="M102 267C102 261.477 106.477 257 112 257H397C402.523 257 407 261.477 407 267V289C407 294.523 402.523 299 397 299H112C106.477 299 102 294.523 102 289V267Z" fill="#473860"/>
<path d="M119.367 282.13C118.838 282.13 118.379 282.013 117.989 281.779C117.608 281.536 117.313 281.198 117.105 280.765C116.897 280.323 116.793 279.803 116.793 279.205V275.552C116.793 275.465 116.823 275.392 116.884 275.331C116.945 275.27 117.018 275.24 117.105 275.24H118.249C118.344 275.24 118.418 275.27 118.47 275.331C118.531 275.392 118.561 275.465 118.561 275.552V279.127C118.561 280.202 119.033 280.739 119.978 280.739C120.429 280.739 120.784 280.596 121.044 280.31C121.313 280.024 121.447 279.63 121.447 279.127V275.552C121.447 275.465 121.477 275.392 121.538 275.331C121.599 275.27 121.672 275.24 121.759 275.24H122.903C122.99 275.24 123.063 275.27 123.124 275.331C123.185 275.392 123.215 275.465 123.215 275.552V281.688C123.215 281.775 123.185 281.848 123.124 281.909C123.063 281.97 122.99 282 122.903 282H121.85C121.755 282 121.677 281.97 121.616 281.909C121.564 281.848 121.538 281.775 121.538 281.688V281.155C121.304 281.458 121.014 281.697 120.667 281.87C120.32 282.043 119.887 282.13 119.367 282.13ZM127.493 282.13C126.973 282.13 126.527 282.069 126.154 281.948C125.79 281.827 125.491 281.675 125.257 281.493C125.023 281.311 124.85 281.129 124.737 280.947C124.625 280.765 124.564 280.613 124.555 280.492C124.547 280.397 124.573 280.323 124.633 280.271C124.703 280.21 124.776 280.18 124.854 280.18H125.881C125.916 280.18 125.946 280.184 125.972 280.193C125.998 280.202 126.033 280.228 126.076 280.271C126.189 280.366 126.306 280.466 126.427 280.57C126.557 280.674 126.709 280.765 126.882 280.843C127.056 280.912 127.272 280.947 127.532 280.947C127.87 280.947 128.152 280.882 128.377 280.752C128.611 280.613 128.728 280.418 128.728 280.167C128.728 279.985 128.676 279.838 128.572 279.725C128.477 279.612 128.295 279.513 128.026 279.426C127.758 279.331 127.376 279.231 126.882 279.127C126.397 279.014 125.994 278.871 125.673 278.698C125.353 278.525 125.114 278.308 124.958 278.048C124.802 277.788 124.724 277.485 124.724 277.138C124.724 276.8 124.824 276.479 125.023 276.176C125.231 275.864 125.535 275.608 125.933 275.409C126.341 275.21 126.843 275.11 127.441 275.11C127.909 275.11 128.317 275.171 128.663 275.292C129.01 275.405 129.296 275.548 129.521 275.721C129.755 275.894 129.933 276.072 130.054 276.254C130.176 276.427 130.241 276.579 130.249 276.709C130.258 276.804 130.232 276.882 130.171 276.943C130.111 276.995 130.041 277.021 129.963 277.021H129.001C128.958 277.021 128.919 277.012 128.884 276.995C128.85 276.978 128.815 276.956 128.78 276.93C128.685 276.843 128.581 276.752 128.468 276.657C128.356 276.562 128.217 276.479 128.052 276.41C127.896 276.332 127.688 276.293 127.428 276.293C127.099 276.293 126.848 276.367 126.674 276.514C126.501 276.653 126.414 276.83 126.414 277.047C126.414 277.194 126.453 277.324 126.531 277.437C126.618 277.541 126.787 277.641 127.038 277.736C127.29 277.831 127.671 277.931 128.182 278.035C128.763 278.139 129.222 278.295 129.56 278.503C129.907 278.702 130.15 278.936 130.288 279.205C130.436 279.465 130.509 279.755 130.509 280.076C130.509 280.466 130.392 280.817 130.158 281.129C129.933 281.441 129.595 281.688 129.144 281.87C128.702 282.043 128.152 282.13 127.493 282.13ZM134.763 282.13C133.801 282.13 133.038 281.853 132.475 281.298C131.912 280.743 131.608 279.955 131.565 278.932C131.556 278.845 131.552 278.737 131.552 278.607C131.552 278.468 131.556 278.36 131.565 278.282C131.6 277.632 131.747 277.069 132.007 276.592C132.276 276.115 132.644 275.751 133.112 275.5C133.58 275.24 134.13 275.11 134.763 275.11C135.465 275.11 136.054 275.257 136.531 275.552C137.008 275.838 137.367 276.241 137.61 276.761C137.853 277.272 137.974 277.866 137.974 278.542V278.815C137.974 278.902 137.944 278.975 137.883 279.036C137.822 279.097 137.744 279.127 137.649 279.127H133.333C133.333 279.127 133.333 279.14 133.333 279.166C133.333 279.192 133.333 279.214 133.333 279.231C133.342 279.534 133.398 279.816 133.502 280.076C133.615 280.327 133.775 280.531 133.983 280.687C134.2 280.843 134.455 280.921 134.75 280.921C134.993 280.921 135.196 280.886 135.361 280.817C135.526 280.739 135.66 280.652 135.764 280.557C135.868 280.462 135.942 280.384 135.985 280.323C136.063 280.219 136.124 280.158 136.167 280.141C136.219 280.115 136.293 280.102 136.388 280.102H137.506C137.593 280.102 137.662 280.128 137.714 280.18C137.775 280.232 137.801 280.297 137.792 280.375C137.783 280.514 137.71 280.683 137.571 280.882C137.441 281.081 137.25 281.276 136.999 281.467C136.748 281.658 136.431 281.818 136.05 281.948C135.677 282.069 135.248 282.13 134.763 282.13ZM133.333 278.035H136.206V277.996C136.206 277.658 136.15 277.363 136.037 277.112C135.924 276.861 135.76 276.661 135.543 276.514C135.326 276.367 135.066 276.293 134.763 276.293C134.46 276.293 134.2 276.367 133.983 276.514C133.766 276.661 133.602 276.861 133.489 277.112C133.385 277.363 133.333 277.658 133.333 277.996V278.035ZM139.666 282C139.579 282 139.506 281.97 139.445 281.909C139.384 281.848 139.354 281.775 139.354 281.688V275.565C139.354 275.47 139.384 275.392 139.445 275.331C139.506 275.27 139.579 275.24 139.666 275.24H140.719C140.806 275.24 140.879 275.27 140.94 275.331C141.009 275.392 141.044 275.47 141.044 275.565V276.098C141.243 275.821 141.499 275.608 141.811 275.461C142.132 275.314 142.5 275.24 142.916 275.24H143.449C143.544 275.24 143.618 275.27 143.67 275.331C143.731 275.392 143.761 275.465 143.761 275.552V276.488C143.761 276.575 143.731 276.648 143.67 276.709C143.618 276.77 143.544 276.8 143.449 276.8H142.435C142.019 276.8 141.694 276.917 141.46 277.151C141.235 277.385 141.122 277.706 141.122 278.113V281.688C141.122 281.775 141.092 281.848 141.031 281.909C140.97 281.97 140.892 282 140.797 282H139.666ZM147.336 282.13C146.816 282.13 146.37 282.069 145.997 281.948C145.633 281.827 145.334 281.675 145.1 281.493C144.866 281.311 144.693 281.129 144.58 280.947C144.467 280.765 144.407 280.613 144.398 280.492C144.389 280.397 144.415 280.323 144.476 280.271C144.545 280.21 144.619 280.18 144.697 280.18H145.724C145.759 280.18 145.789 280.184 145.815 280.193C145.841 280.202 145.876 280.228 145.919 280.271C146.032 280.366 146.149 280.466 146.27 280.57C146.4 280.674 146.552 280.765 146.725 280.843C146.898 280.912 147.115 280.947 147.375 280.947C147.713 280.947 147.995 280.882 148.22 280.752C148.454 280.613 148.571 280.418 148.571 280.167C148.571 279.985 148.519 279.838 148.415 279.725C148.32 279.612 148.138 279.513 147.869 279.426C147.6 279.331 147.219 279.231 146.725 279.127C146.24 279.014 145.837 278.871 145.516 278.698C145.195 278.525 144.957 278.308 144.801 278.048C144.645 277.788 144.567 277.485 144.567 277.138C144.567 276.8 144.667 276.479 144.866 276.176C145.074 275.864 145.377 275.608 145.776 275.409C146.183 275.21 146.686 275.11 147.284 275.11C147.752 275.11 148.159 275.171 148.506 275.292C148.853 275.405 149.139 275.548 149.364 275.721C149.598 275.894 149.776 276.072 149.897 276.254C150.018 276.427 150.083 276.579 150.092 276.709C150.101 276.804 150.075 276.882 150.014 276.943C149.953 276.995 149.884 277.021 149.806 277.021H148.844C148.801 277.021 148.762 277.012 148.727 276.995C148.692 276.978 148.658 276.956 148.623 276.93C148.528 276.843 148.424 276.752 148.311 276.657C148.198 276.562 148.06 276.479 147.895 276.41C147.739 276.332 147.531 276.293 147.271 276.293C146.942 276.293 146.69 276.367 146.517 276.514C146.344 276.653 146.257 276.83 146.257 277.047C146.257 277.194 146.296 277.324 146.374 277.437C146.461 277.541 146.63 277.641 146.881 277.736C147.132 277.831 147.514 277.931 148.025 278.035C148.606 278.139 149.065 278.295 149.403 278.503C149.75 278.702 149.992 278.936 150.131 279.205C150.278 279.465 150.352 279.755 150.352 280.076C150.352 280.466 150.235 280.817 150.001 281.129C149.776 281.441 149.438 281.688 148.987 281.87C148.545 282.043 147.995 282.13 147.336 282.13ZM156.628 282.13C156.177 282.13 155.77 282.043 155.406 281.87C155.042 281.688 154.751 281.45 154.535 281.155C154.327 280.852 154.223 280.514 154.223 280.141C154.223 279.534 154.465 279.053 154.951 278.698C155.445 278.334 156.095 278.091 156.901 277.97L158.682 277.71V277.437C158.682 277.073 158.591 276.791 158.409 276.592C158.227 276.393 157.915 276.293 157.473 276.293C157.161 276.293 156.905 276.358 156.706 276.488C156.515 276.609 156.372 276.774 156.277 276.982C156.207 277.095 156.108 277.151 155.978 277.151H154.951C154.855 277.151 154.782 277.125 154.73 277.073C154.686 277.021 154.665 276.952 154.665 276.865C154.673 276.726 154.73 276.557 154.834 276.358C154.938 276.159 155.102 275.968 155.328 275.786C155.553 275.595 155.843 275.435 156.199 275.305C156.554 275.175 156.983 275.11 157.486 275.11C158.032 275.11 158.491 275.179 158.864 275.318C159.245 275.448 159.548 275.626 159.774 275.851C159.999 276.076 160.164 276.341 160.268 276.644C160.372 276.947 160.424 277.268 160.424 277.606V281.688C160.424 281.775 160.393 281.848 160.333 281.909C160.272 281.97 160.198 282 160.112 282H159.059C158.963 282 158.885 281.97 158.825 281.909C158.773 281.848 158.747 281.775 158.747 281.688V281.181C158.634 281.346 158.482 281.502 158.292 281.649C158.101 281.788 157.867 281.905 157.59 282C157.321 282.087 157 282.13 156.628 282.13ZM157.07 280.895C157.373 280.895 157.646 280.83 157.889 280.7C158.14 280.57 158.335 280.371 158.474 280.102C158.621 279.825 158.695 279.478 158.695 279.062V278.789L157.395 278.997C156.883 279.075 156.502 279.201 156.251 279.374C155.999 279.547 155.874 279.76 155.874 280.011C155.874 280.202 155.93 280.366 156.043 280.505C156.164 280.635 156.316 280.735 156.498 280.804C156.68 280.865 156.87 280.895 157.07 280.895ZM163.874 282C163.753 282 163.662 281.97 163.601 281.909C163.54 281.848 163.488 281.77 163.445 281.675L161.586 275.643C161.577 275.6 161.573 275.561 161.573 275.526C161.573 275.448 161.599 275.383 161.651 275.331C161.712 275.27 161.777 275.24 161.846 275.24H162.808C162.912 275.24 162.994 275.27 163.055 275.331C163.116 275.383 163.15 275.435 163.159 275.487L164.433 279.79L165.785 275.526C165.802 275.465 165.841 275.405 165.902 275.344C165.963 275.275 166.054 275.24 166.175 275.24H166.825C166.946 275.24 167.037 275.275 167.098 275.344C167.159 275.405 167.198 275.465 167.215 275.526L168.567 279.79L169.841 275.487C169.85 275.435 169.88 275.383 169.932 275.331C169.993 275.27 170.075 275.24 170.179 275.24H171.141C171.219 275.24 171.284 275.27 171.336 275.331C171.397 275.383 171.427 275.448 171.427 275.526C171.427 275.561 171.418 275.6 171.401 275.643L169.542 281.675C169.516 281.77 169.468 281.848 169.399 281.909C169.338 281.97 169.247 282 169.126 282H168.281C168.16 282 168.064 281.97 167.995 281.909C167.926 281.848 167.878 281.77 167.852 281.675L166.5 277.567L165.148 281.675C165.113 281.77 165.061 281.848 164.992 281.909C164.931 281.97 164.836 282 164.706 282H163.874ZM174.452 282.13C174.001 282.13 173.594 282.043 173.23 281.87C172.866 281.688 172.576 281.45 172.359 281.155C172.151 280.852 172.047 280.514 172.047 280.141C172.047 279.534 172.29 279.053 172.775 278.698C173.269 278.334 173.919 278.091 174.725 277.97L176.506 277.71V277.437C176.506 277.073 176.415 276.791 176.233 276.592C176.051 276.393 175.739 276.293 175.297 276.293C174.985 276.293 174.729 276.358 174.53 276.488C174.339 276.609 174.196 276.774 174.101 276.982C174.032 277.095 173.932 277.151 173.802 277.151H172.775C172.68 277.151 172.606 277.125 172.554 277.073C172.511 277.021 172.489 276.952 172.489 276.865C172.498 276.726 172.554 276.557 172.658 276.358C172.762 276.159 172.927 275.968 173.152 275.786C173.377 275.595 173.668 275.435 174.023 275.305C174.378 275.175 174.807 275.11 175.31 275.11C175.856 275.11 176.315 275.179 176.688 275.318C177.069 275.448 177.373 275.626 177.598 275.851C177.823 276.076 177.988 276.341 178.092 276.644C178.196 276.947 178.248 277.268 178.248 277.606V281.688C178.248 281.775 178.218 281.848 178.157 281.909C178.096 281.97 178.023 282 177.936 282H176.883C176.788 282 176.71 281.97 176.649 281.909C176.597 281.848 176.571 281.775 176.571 281.688V281.181C176.458 281.346 176.307 281.502 176.116 281.649C175.925 281.788 175.691 281.905 175.414 282C175.145 282.087 174.825 282.13 174.452 282.13ZM174.894 280.895C175.197 280.895 175.47 280.83 175.713 280.7C175.964 280.57 176.159 280.371 176.298 280.102C176.445 279.825 176.519 279.478 176.519 279.062V278.789L175.219 278.997C174.708 279.075 174.326 279.201 174.075 279.374C173.824 279.547 173.698 279.76 173.698 280.011C173.698 280.202 173.754 280.366 173.867 280.505C173.988 280.635 174.14 280.735 174.322 280.804C174.504 280.865 174.695 280.895 174.894 280.895ZM180.228 282C180.141 282 180.067 281.97 180.007 281.909C179.946 281.848 179.916 281.775 179.916 281.688V275.552C179.916 275.465 179.946 275.392 180.007 275.331C180.067 275.27 180.141 275.24 180.228 275.24H181.307C181.402 275.24 181.476 275.27 181.528 275.331C181.588 275.392 181.619 275.465 181.619 275.552V281.688C181.619 281.775 181.588 281.848 181.528 281.909C181.476 281.97 181.402 282 181.307 282H180.228ZM180.176 274.122C180.08 274.122 180.002 274.096 179.942 274.044C179.89 273.983 179.864 273.905 179.864 273.81V272.874C179.864 272.787 179.89 272.714 179.942 272.653C180.002 272.592 180.08 272.562 180.176 272.562H181.359C181.454 272.562 181.532 272.592 181.593 272.653C181.653 272.714 181.684 272.787 181.684 272.874V273.81C181.684 273.905 181.653 273.983 181.593 274.044C181.532 274.096 181.454 274.122 181.359 274.122H180.176ZM186.398 282C185.878 282 185.441 281.909 185.085 281.727C184.73 281.545 184.466 281.276 184.292 280.921C184.119 280.557 184.032 280.106 184.032 279.569V276.618H183.005C182.919 276.618 182.845 276.588 182.784 276.527C182.724 276.466 182.693 276.393 182.693 276.306V275.552C182.693 275.465 182.724 275.392 182.784 275.331C182.845 275.27 182.919 275.24 183.005 275.24H184.032V273.082C184.032 272.995 184.058 272.922 184.11 272.861C184.171 272.8 184.249 272.77 184.344 272.77H185.397C185.484 272.77 185.558 272.8 185.618 272.861C185.679 272.922 185.709 272.995 185.709 273.082V275.24H187.334C187.421 275.24 187.495 275.27 187.555 275.331C187.616 275.392 187.646 275.465 187.646 275.552V276.306C187.646 276.393 187.616 276.466 187.555 276.527C187.495 276.588 187.421 276.618 187.334 276.618H185.709V279.439C185.709 279.794 185.77 280.072 185.891 280.271C186.021 280.47 186.242 280.57 186.554 280.57H187.451C187.538 280.57 187.612 280.6 187.672 280.661C187.733 280.722 187.763 280.795 187.763 280.882V281.688C187.763 281.775 187.733 281.848 187.672 281.909C187.612 281.97 187.538 282 187.451 282H186.398ZM189.229 282C189.142 282 189.068 281.97 189.008 281.909C188.947 281.848 188.917 281.775 188.917 281.688V275.552C188.917 275.465 188.947 275.392 189.008 275.331C189.068 275.27 189.142 275.24 189.229 275.24H190.308C190.403 275.24 190.477 275.27 190.529 275.331C190.589 275.392 190.62 275.465 190.62 275.552V281.688C190.62 281.775 190.589 281.848 190.529 281.909C190.477 281.97 190.403 282 190.308 282H189.229ZM189.177 274.122C189.081 274.122 189.003 274.096 188.943 274.044C188.891 273.983 188.865 273.905 188.865 273.81V272.874C188.865 272.787 188.891 272.714 188.943 272.653C189.003 272.592 189.081 272.562 189.177 272.562H190.36C190.455 272.562 190.533 272.592 190.594 272.653C190.654 272.714 190.685 272.787 190.685 272.874V273.81C190.685 273.905 190.654 273.983 190.594 274.044C190.533 274.096 190.455 274.122 190.36 274.122H189.177ZM192.923 282C192.836 282 192.763 281.97 192.702 281.909C192.641 281.848 192.611 281.775 192.611 281.688V275.552C192.611 275.465 192.641 275.392 192.702 275.331C192.763 275.27 192.836 275.24 192.923 275.24H193.989C194.076 275.24 194.149 275.27 194.21 275.331C194.271 275.392 194.301 275.465 194.301 275.552V276.085C194.526 275.808 194.812 275.578 195.159 275.396C195.514 275.205 195.952 275.11 196.472 275.11C197.001 275.11 197.46 275.231 197.85 275.474C198.24 275.708 198.539 276.042 198.747 276.475C198.964 276.908 199.072 277.428 199.072 278.035V281.688C199.072 281.775 199.042 281.848 198.981 281.909C198.92 281.97 198.847 282 198.76 282H197.616C197.529 282 197.456 281.97 197.395 281.909C197.334 281.848 197.304 281.775 197.304 281.688V278.113C197.304 277.61 197.178 277.216 196.927 276.93C196.684 276.644 196.329 276.501 195.861 276.501C195.41 276.501 195.051 276.644 194.782 276.93C194.513 277.216 194.379 277.61 194.379 278.113V281.688C194.379 281.775 194.349 281.848 194.288 281.909C194.227 281.97 194.154 282 194.067 282H192.923ZM203.778 284.86C203.146 284.86 202.626 284.778 202.218 284.613C201.811 284.448 201.49 284.249 201.256 284.015C201.022 283.781 200.853 283.547 200.749 283.313C200.654 283.088 200.602 282.91 200.593 282.78C200.585 282.693 200.611 282.615 200.671 282.546C200.741 282.485 200.819 282.455 200.905 282.455H202.036C202.123 282.455 202.192 282.472 202.244 282.507C202.296 282.55 202.34 282.624 202.374 282.728C202.426 282.841 202.496 282.962 202.582 283.092C202.669 283.222 202.799 283.33 202.972 283.417C203.154 283.512 203.401 283.56 203.713 283.56C204.043 283.56 204.32 283.512 204.545 283.417C204.771 283.322 204.94 283.161 205.052 282.936C205.174 282.711 205.234 282.399 205.234 282V281.116C205.026 281.367 204.758 281.571 204.428 281.727C204.108 281.883 203.709 281.961 203.232 281.961C202.764 281.961 202.361 281.887 202.023 281.74C201.685 281.584 201.404 281.372 201.178 281.103C200.953 280.826 200.78 280.501 200.658 280.128C200.546 279.755 200.481 279.344 200.463 278.893C200.455 278.659 200.455 278.425 200.463 278.191C200.481 277.758 200.546 277.355 200.658 276.982C200.771 276.609 200.94 276.284 201.165 276.007C201.399 275.721 201.685 275.5 202.023 275.344C202.361 275.188 202.764 275.11 203.232 275.11C203.726 275.11 204.142 275.205 204.48 275.396C204.818 275.578 205.096 275.808 205.312 276.085V275.565C205.312 275.47 205.343 275.392 205.403 275.331C205.464 275.27 205.538 275.24 205.624 275.24H206.677C206.764 275.24 206.838 275.27 206.898 275.331C206.959 275.392 206.989 275.47 206.989 275.565L207.002 281.831C207.002 282.455 206.885 282.992 206.651 283.443C206.417 283.894 206.062 284.24 205.585 284.483C205.117 284.734 204.515 284.86 203.778 284.86ZM203.713 280.583C204.069 280.583 204.355 280.505 204.571 280.349C204.788 280.193 204.948 279.989 205.052 279.738C205.156 279.487 205.217 279.231 205.234 278.971C205.243 278.858 205.247 278.715 205.247 278.542C205.247 278.369 205.243 278.23 205.234 278.126C205.217 277.857 205.156 277.602 205.052 277.359C204.948 277.108 204.788 276.904 204.571 276.748C204.355 276.583 204.069 276.501 203.713 276.501C203.358 276.501 203.072 276.583 202.855 276.748C202.639 276.904 202.483 277.112 202.387 277.372C202.301 277.632 202.249 277.918 202.231 278.23C202.214 278.438 202.214 278.65 202.231 278.867C202.249 279.17 202.301 279.456 202.387 279.725C202.483 279.985 202.639 280.193 202.855 280.349C203.072 280.505 203.358 280.583 203.713 280.583ZM213.668 282.13C213.217 282.13 212.81 282.043 212.446 281.87C212.082 281.688 211.791 281.45 211.575 281.155C211.367 280.852 211.263 280.514 211.263 280.141C211.263 279.534 211.505 279.053 211.991 278.698C212.485 278.334 213.135 278.091 213.941 277.97L215.722 277.71V277.437C215.722 277.073 215.631 276.791 215.449 276.592C215.267 276.393 214.955 276.293 214.513 276.293C214.201 276.293 213.945 276.358 213.746 276.488C213.555 276.609 213.412 276.774 213.317 276.982C213.247 277.095 213.148 277.151 213.018 277.151H211.991C211.895 277.151 211.822 277.125 211.77 277.073C211.726 277.021 211.705 276.952 211.705 276.865C211.713 276.726 211.77 276.557 211.874 276.358C211.978 276.159 212.142 275.968 212.368 275.786C212.593 275.595 212.883 275.435 213.239 275.305C213.594 275.175 214.023 275.11 214.526 275.11C215.072 275.11 215.531 275.179 215.904 275.318C216.285 275.448 216.588 275.626 216.814 275.851C217.039 276.076 217.204 276.341 217.308 276.644C217.412 276.947 217.464 277.268 217.464 277.606V281.688C217.464 281.775 217.433 281.848 217.373 281.909C217.312 281.97 217.238 282 217.152 282H216.099C216.003 282 215.925 281.97 215.865 281.909C215.813 281.848 215.787 281.775 215.787 281.688V281.181C215.674 281.346 215.522 281.502 215.332 281.649C215.141 281.788 214.907 281.905 214.63 282C214.361 282.087 214.04 282.13 213.668 282.13ZM214.11 280.895C214.413 280.895 214.686 280.83 214.929 280.7C215.18 280.57 215.375 280.371 215.514 280.102C215.661 279.825 215.735 279.478 215.735 279.062V278.789L214.435 278.997C213.923 279.075 213.542 279.201 213.291 279.374C213.039 279.547 212.914 279.76 212.914 280.011C212.914 280.202 212.97 280.366 213.083 280.505C213.204 280.635 213.356 280.735 213.538 280.804C213.72 280.865 213.91 280.895 214.11 280.895ZM219.456 284.47C219.37 284.47 219.296 284.44 219.235 284.379C219.175 284.318 219.144 284.245 219.144 284.158V275.552C219.144 275.465 219.175 275.392 219.235 275.331C219.296 275.27 219.37 275.24 219.456 275.24H220.483C220.579 275.24 220.652 275.27 220.704 275.331C220.765 275.392 220.795 275.465 220.795 275.552V276.072C221.003 275.795 221.276 275.565 221.614 275.383C221.952 275.201 222.373 275.11 222.875 275.11C223.335 275.11 223.733 275.184 224.071 275.331C224.409 275.478 224.691 275.691 224.916 275.968C225.142 276.237 225.315 276.557 225.436 276.93C225.558 277.303 225.627 277.714 225.644 278.165C225.653 278.312 225.657 278.464 225.657 278.62C225.657 278.776 225.653 278.932 225.644 279.088C225.636 279.521 225.571 279.924 225.449 280.297C225.328 280.661 225.15 280.982 224.916 281.259C224.691 281.528 224.409 281.74 224.071 281.896C223.733 282.052 223.335 282.13 222.875 282.13C222.407 282.13 222.009 282.048 221.679 281.883C221.35 281.71 221.081 281.484 220.873 281.207V284.158C220.873 284.245 220.843 284.318 220.782 284.379C220.73 284.44 220.657 284.47 220.561 284.47H219.456ZM222.394 280.739C222.767 280.739 223.057 280.661 223.265 280.505C223.473 280.34 223.621 280.128 223.707 279.868C223.803 279.608 223.859 279.322 223.876 279.01C223.894 278.75 223.894 278.49 223.876 278.23C223.859 277.918 223.803 277.632 223.707 277.372C223.621 277.112 223.473 276.904 223.265 276.748C223.057 276.583 222.767 276.501 222.394 276.501C222.039 276.501 221.749 276.583 221.523 276.748C221.307 276.913 221.146 277.125 221.042 277.385C220.947 277.636 220.891 277.896 220.873 278.165C220.865 278.321 220.86 278.486 220.86 278.659C220.86 278.832 220.865 279.001 220.873 279.166C220.882 279.426 220.943 279.677 221.055 279.92C221.168 280.154 221.333 280.349 221.549 280.505C221.766 280.661 222.048 280.739 222.394 280.739ZM227.442 284.47C227.355 284.47 227.281 284.44 227.221 284.379C227.16 284.318 227.13 284.245 227.13 284.158V275.552C227.13 275.465 227.16 275.392 227.221 275.331C227.281 275.27 227.355 275.24 227.442 275.24H228.469C228.564 275.24 228.638 275.27 228.69 275.331C228.75 275.392 228.781 275.465 228.781 275.552V276.072C228.989 275.795 229.262 275.565 229.6 275.383C229.938 275.201 230.358 275.11 230.861 275.11C231.32 275.11 231.719 275.184 232.057 275.331C232.395 275.478 232.676 275.691 232.902 275.968C233.127 276.237 233.3 276.557 233.422 276.93C233.543 277.303 233.612 277.714 233.63 278.165C233.638 278.312 233.643 278.464 233.643 278.62C233.643 278.776 233.638 278.932 233.63 279.088C233.621 279.521 233.556 279.924 233.435 280.297C233.313 280.661 233.136 280.982 232.902 281.259C232.676 281.528 232.395 281.74 232.057 281.896C231.719 282.052 231.32 282.13 230.861 282.13C230.393 282.13 229.994 282.048 229.665 281.883C229.335 281.71 229.067 281.484 228.859 281.207V284.158C228.859 284.245 228.828 284.318 228.768 284.379C228.716 284.44 228.642 284.47 228.547 284.47H227.442ZM230.38 280.739C230.752 280.739 231.043 280.661 231.251 280.505C231.459 280.34 231.606 280.128 231.693 279.868C231.788 279.608 231.844 279.322 231.862 279.01C231.879 278.75 231.879 278.49 231.862 278.23C231.844 277.918 231.788 277.632 231.693 277.372C231.606 277.112 231.459 276.904 231.251 276.748C231.043 276.583 230.752 276.501 230.38 276.501C230.024 276.501 229.734 276.583 229.509 276.748C229.292 276.913 229.132 277.125 229.028 277.385C228.932 277.636 228.876 277.896 228.859 278.165C228.85 278.321 228.846 278.486 228.846 278.659C228.846 278.832 228.85 279.001 228.859 279.166C228.867 279.426 228.928 279.677 229.041 279.92C229.153 280.154 229.318 280.349 229.535 280.505C229.751 280.661 230.033 280.739 230.38 280.739ZM235.414 282C235.327 282 235.254 281.97 235.193 281.909C235.132 281.848 235.102 281.775 235.102 281.688V275.565C235.102 275.47 235.132 275.392 235.193 275.331C235.254 275.27 235.327 275.24 235.414 275.24H236.467C236.554 275.24 236.627 275.27 236.688 275.331C236.757 275.392 236.792 275.47 236.792 275.565V276.098C236.991 275.821 237.247 275.608 237.559 275.461C237.88 275.314 238.248 275.24 238.664 275.24H239.197C239.292 275.24 239.366 275.27 239.418 275.331C239.479 275.392 239.509 275.465 239.509 275.552V276.488C239.509 276.575 239.479 276.648 239.418 276.709C239.366 276.77 239.292 276.8 239.197 276.8H238.183C237.767 276.8 237.442 276.917 237.208 277.151C236.983 277.385 236.87 277.706 236.87 278.113V281.688C236.87 281.775 236.84 281.848 236.779 281.909C236.718 281.97 236.64 282 236.545 282H235.414ZM243.424 282.13C242.731 282.13 242.146 282.009 241.669 281.766C241.201 281.523 240.842 281.181 240.59 280.739C240.348 280.297 240.209 279.781 240.174 279.192C240.166 279.036 240.161 278.845 240.161 278.62C240.161 278.395 240.166 278.204 240.174 278.048C240.209 277.45 240.352 276.934 240.603 276.501C240.863 276.059 241.227 275.717 241.695 275.474C242.172 275.231 242.748 275.11 243.424 275.11C244.1 275.11 244.672 275.231 245.14 275.474C245.617 275.717 245.981 276.059 246.232 276.501C246.492 276.934 246.64 277.45 246.674 278.048C246.683 278.204 246.687 278.395 246.687 278.62C246.687 278.845 246.683 279.036 246.674 279.192C246.64 279.781 246.497 280.297 246.245 280.739C246.003 281.181 245.643 281.523 245.166 281.766C244.698 282.009 244.118 282.13 243.424 282.13ZM243.424 280.843C243.884 280.843 244.239 280.7 244.49 280.414C244.742 280.119 244.88 279.69 244.906 279.127C244.915 278.997 244.919 278.828 244.919 278.62C244.919 278.412 244.915 278.243 244.906 278.113C244.88 277.558 244.742 277.134 244.49 276.839C244.239 276.544 243.884 276.397 243.424 276.397C242.965 276.397 242.61 276.544 242.358 276.839C242.107 277.134 241.968 277.558 241.942 278.113C241.934 278.243 241.929 278.412 241.929 278.62C241.929 278.828 241.934 278.997 241.942 279.127C241.968 279.69 242.107 280.119 242.358 280.414C242.61 280.7 242.965 280.843 243.424 280.843ZM250.278 282C250.14 282 250.036 281.97 249.966 281.909C249.906 281.84 249.854 281.762 249.81 281.675L247.379 275.643C247.362 275.6 247.353 275.561 247.353 275.526C247.353 275.448 247.379 275.383 247.431 275.331C247.492 275.27 247.561 275.24 247.639 275.24H248.692C248.796 275.24 248.874 275.27 248.926 275.331C248.978 275.383 249.013 275.435 249.03 275.487L250.759 280.05L252.488 275.487C252.506 275.435 252.54 275.383 252.592 275.331C252.644 275.27 252.722 275.24 252.826 275.24H253.892C253.962 275.24 254.022 275.27 254.074 275.331C254.135 275.383 254.165 275.448 254.165 275.526C254.165 275.561 254.161 275.6 254.152 275.643L251.708 281.675C251.674 281.762 251.622 281.84 251.552 281.909C251.483 281.97 251.379 282 251.24 282H250.278ZM257.048 282.13C256.597 282.13 256.19 282.043 255.826 281.87C255.462 281.688 255.171 281.45 254.955 281.155C254.747 280.852 254.643 280.514 254.643 280.141C254.643 279.534 254.885 279.053 255.371 278.698C255.865 278.334 256.515 278.091 257.321 277.97L259.102 277.71V277.437C259.102 277.073 259.011 276.791 258.829 276.592C258.647 276.393 258.335 276.293 257.893 276.293C257.581 276.293 257.325 276.358 257.126 276.488C256.935 276.609 256.792 276.774 256.697 276.982C256.627 277.095 256.528 277.151 256.398 277.151H255.371C255.275 277.151 255.202 277.125 255.15 277.073C255.106 277.021 255.085 276.952 255.085 276.865C255.093 276.726 255.15 276.557 255.254 276.358C255.358 276.159 255.522 275.968 255.748 275.786C255.973 275.595 256.263 275.435 256.619 275.305C256.974 275.175 257.403 275.11 257.906 275.11C258.452 275.11 258.911 275.179 259.284 275.318C259.665 275.448 259.968 275.626 260.194 275.851C260.419 276.076 260.584 276.341 260.688 276.644C260.792 276.947 260.844 277.268 260.844 277.606V281.688C260.844 281.775 260.813 281.848 260.753 281.909C260.692 281.97 260.618 282 260.532 282H259.479C259.383 282 259.305 281.97 259.245 281.909C259.193 281.848 259.167 281.775 259.167 281.688V281.181C259.054 281.346 258.902 281.502 258.712 281.649C258.521 281.788 258.287 281.905 258.01 282C257.741 282.087 257.42 282.13 257.048 282.13ZM257.49 280.895C257.793 280.895 258.066 280.83 258.309 280.7C258.56 280.57 258.755 280.371 258.894 280.102C259.041 279.825 259.115 279.478 259.115 279.062V278.789L257.815 278.997C257.303 279.075 256.922 279.201 256.671 279.374C256.419 279.547 256.294 279.76 256.294 280.011C256.294 280.202 256.35 280.366 256.463 280.505C256.584 280.635 256.736 280.735 256.918 280.804C257.1 280.865 257.29 280.895 257.49 280.895ZM262.836 282C262.75 282 262.676 281.97 262.615 281.909C262.555 281.848 262.524 281.775 262.524 281.688V273.082C262.524 272.995 262.555 272.922 262.615 272.861C262.676 272.8 262.75 272.77 262.836 272.77H263.915C264.002 272.77 264.076 272.8 264.136 272.861C264.197 272.922 264.227 272.995 264.227 273.082V281.688C264.227 281.775 264.197 281.848 264.136 281.909C264.076 281.97 264.002 282 263.915 282H262.836Z" fill="white"/>
<path d="M384.904 284.18C384.112 284.18 383.404 284.084 382.78 283.892C382.156 283.7 381.628 283.43 381.196 283.082C380.776 282.734 380.452 282.326 380.224 281.858C380.008 281.39 379.9 280.868 379.9 280.292C379.9 279.596 380.068 278.996 380.404 278.492C380.752 277.976 381.202 277.58 381.754 277.304C381.31 277.028 380.962 276.674 380.71 276.242C380.47 275.81 380.35 275.306 380.35 274.73C380.35 274.034 380.524 273.428 380.872 272.912C381.232 272.384 381.748 271.97 382.42 271.67C383.104 271.37 383.932 271.22 384.904 271.22C385.876 271.22 386.698 271.37 387.37 271.67C388.042 271.958 388.552 272.366 388.9 272.894C389.248 273.41 389.422 274.016 389.422 274.712C389.422 275.288 389.302 275.792 389.062 276.224C388.822 276.656 388.486 277.016 388.054 277.304C388.618 277.568 389.068 277.964 389.404 278.492C389.74 279.008 389.908 279.614 389.908 280.31C389.908 281.066 389.71 281.738 389.314 282.326C388.93 282.902 388.36 283.358 387.604 283.694C386.86 284.018 385.96 284.18 384.904 284.18ZM384.904 282.308C385.372 282.308 385.792 282.23 386.164 282.074C386.548 281.906 386.848 281.672 387.064 281.372C387.292 281.072 387.406 280.718 387.406 280.31C387.406 279.89 387.292 279.536 387.064 279.248C386.848 278.948 386.548 278.72 386.164 278.564C385.792 278.396 385.372 278.312 384.904 278.312C384.436 278.312 384.01 278.396 383.626 278.564C383.254 278.72 382.954 278.948 382.726 279.248C382.51 279.536 382.402 279.89 382.402 280.31C382.402 280.718 382.51 281.072 382.726 281.372C382.954 281.672 383.254 281.906 383.626 282.074C384.01 282.23 384.436 282.308 384.904 282.308ZM384.904 276.53C385.3 276.518 385.66 276.44 385.984 276.296C386.32 276.152 386.584 275.954 386.776 275.702C386.98 275.45 387.082 275.156 387.082 274.82C387.082 274.472 386.986 274.172 386.794 273.92C386.614 273.656 386.356 273.452 386.02 273.308C385.696 273.164 385.324 273.092 384.904 273.092C384.484 273.092 384.106 273.164 383.77 273.308C383.446 273.452 383.188 273.656 382.996 273.92C382.816 274.172 382.726 274.472 382.726 274.82C382.726 275.168 382.816 275.468 382.996 275.72C383.188 275.972 383.446 276.17 383.77 276.314C384.106 276.458 384.484 276.53 384.904 276.53Z" fill="white"/>
</svg>
