<svg width="114" height="114" viewBox="0 0 114 114" fill="none" xmlns="http://www.w3.org/2000/svg">
<circle r="47.5" transform="matrix(1 0 0 -1 57.5 56.7451)" fill="#EBFCFC"/>
<ellipse rx="54.725" ry="55.2136" transform="matrix(-4.37114e-08 1 1 4.37114e-08 57.2136 56.9701)" stroke="#EBFCFC" stroke-width="3" stroke-linecap="round" stroke-dasharray="33 33"/>
<path d="M87 57.2451C87 41.2289 74.0163 28.2451 58 28.2451C41.9837 28.2451 29 41.2289 29 57.2451C29 73.2614 41.9837 86.2451 58 86.2451C74.0163 86.2451 87 73.2614 87 57.2451Z" fill="#5DE8E8"/>
<path d="M67 67.7451L62.5 62.7451" stroke="#0B4B4B" stroke-width="4" stroke-linecap="round" stroke-linejoin="round"/>
<path d="M56 62.2451C60.4183 62.2451 64 58.6634 64 54.2451C64 49.8268 60.4183 46.2451 56 46.2451C51.5817 46.2451 48 49.8268 48 54.2451C48 58.6634 51.5817 62.2451 56 62.2451Z" fill="#0B4B4B"/>
<path d="M51.5 54.2451C51.5 51.7598 53.5147 49.7451 56 49.7451" stroke="#5DE8E8" stroke-width="3" stroke-linecap="round" stroke-linejoin="round"/>
</svg>
