<svg width="359" height="371" viewBox="0 0 359 371" fill="none" xmlns="http://www.w3.org/2000/svg">
<path d="M321.401 191.191C321.401 270.826 257.064 335.382 177.701 335.382C98.337 335.382 34 270.826 34 191.191C34 111.557 98.337 47 177.701 47C257.064 47 321.401 111.557 321.401 191.191Z" fill="#323142"/>
<path d="M314.187 191.431C314.187 266.932 252.981 328.139 177.479 328.139C101.977 328.139 40.7709 266.932 40.7709 191.431C40.7709 115.929 101.977 54.7227 177.479 54.7227C252.981 54.7227 314.187 115.929 314.187 191.431Z" fill="#292836"/>
<mask id="mask0_1322_430" style="mask-type:alpha" maskUnits="userSpaceOnUse" x="40" y="55" width="275" height="275">
<path d="M314.187 192.514C314.187 268.016 252.981 329.222 177.479 329.222C101.977 329.222 40.771 268.016 40.771 192.514C40.771 117.013 101.977 55.8064 177.479 55.8064C252.981 55.8064 314.187 117.013 314.187 192.514Z" fill="#7977BF"/>
</mask>
<g mask="url(#mask0_1322_430)">
<path d="M152.886 236.606C140.301 242.922 125.345 260.708 88.0842 271.167C57.3033 279.807 40.5627 355.409 150.726 355.409C260.889 355.409 295.694 337.061 311.535 315.1C311.535 315.1 304.191 272.786 288.541 271.167C264.51 268.681 233.121 246.12 233.121 246.12C201.733 228.506 211.028 228.506 180.967 228.506C158.826 228.506 165.306 230.372 152.886 236.606Z" fill="white"/>
<path d="M151.485 198.265H215.529V262.915C215.529 274.332 206.273 283.588 194.856 283.588H173.382C161.453 283.588 151.77 273.941 151.725 262.012L151.485 198.265Z" fill="#F6A55C"/>
<path d="M215.528 199.345V213.385V240.386L187.103 219.312C186.298 218.716 186.809 217.338 187.811 217.316C202.275 216.996 212.198 205.506 215.528 199.345Z" fill="#D18343"/>
<path d="M152.564 195.024H166.605V224.185H152.564V195.024Z" fill="#F6A55C"/>
<path d="M143.817 122.663C143.576 125.989 143.817 150.204 143.817 150.204C138.956 149.124 133.016 150.204 131.396 158.844C130.434 163.975 139.856 175.584 145.437 180.985C144.141 210.362 169.377 216.986 182.158 216.626C211.967 218.354 218.879 197.185 218.879 179.365C222.299 176.485 229.571 168.672 231.299 160.464C233.027 152.256 223.739 150.204 218.879 150.204V127.523C192.094 128.819 151.917 111.418 148.677 109.703C145.437 107.987 144.245 116.723 143.817 122.663Z" fill="#F6A55C"/>
<path d="M136.048 160.446C135.686 158.524 138.171 156.263 140.824 155.328C141.904 154.947 142.879 155.859 142.879 157.004V169.614C142.879 170.568 141.698 170.958 141.162 170.169C138.772 166.652 136.414 162.395 136.048 160.446Z" fill="#E78441"/>
<path d="M227.201 160.446C227.562 158.524 225.078 156.263 222.425 155.328C221.344 154.947 220.37 155.859 220.37 157.004V169.614C220.37 170.568 221.55 170.958 222.087 170.169C224.477 166.652 226.834 162.395 227.201 160.446Z" fill="#E78441"/>
<mask id="mask1_1322_430" style="mask-type:alpha" maskUnits="userSpaceOnUse" x="147" y="202" width="18" height="14">
<path fill-rule="evenodd" clip-rule="evenodd" d="M148.495 202.835C149.55 201.781 151.259 201.781 152.314 202.835C153.404 203.925 155.302 205.644 157.372 207.179C159.532 208.78 161.525 209.91 162.871 210.209C164.326 210.532 165.244 211.975 164.921 213.43C164.597 214.886 163.155 215.804 161.699 215.481C159.157 214.916 156.38 213.166 154.156 211.517C151.843 209.803 149.745 207.904 148.495 206.654C147.441 205.599 147.441 203.89 148.495 202.835Z" fill="#D18343"/>
</mask>
<g mask="url(#mask1_1322_430)">
<path d="M166.283 205.565L160.947 201.159L151.163 202.045V218.785L166.283 218.785V205.565Z" fill="#D18343"/>
</g>
<path d="M147.145 106.034C123.846 108.752 133.216 140.573 140.814 156.143H145.035C145.175 146.659 146.385 125.993 150.1 119.198C154.742 110.705 169.093 125.993 173.313 131.089C177.534 136.185 197.372 138.732 208.345 131.089C217.125 124.974 216.224 145.244 214.677 156.143H220.586C228.183 115.377 221.852 107.733 218.475 106.034C215.774 104.675 208.908 102.92 205.813 102.212C195.008 81.8287 181.614 77.8654 176.268 78.4316C156.346 77.7521 148.552 96.5502 147.145 106.034Z" fill="#141322"/>
<path fill-rule="evenodd" clip-rule="evenodd" d="M163.987 144.001C155.812 142.774 151.806 145.919 150.974 147.108C150.461 147.841 149.451 148.019 148.718 147.506C147.985 146.993 147.807 145.983 148.32 145.25C150.008 142.838 155.362 139.431 164.468 140.796C165.352 140.929 165.962 141.754 165.829 142.639C165.697 143.524 164.872 144.133 163.987 144.001Z" fill="#704926"/>
<path fill-rule="evenodd" clip-rule="evenodd" d="M197.409 144.001C205.584 142.774 209.59 145.919 210.422 147.108C210.935 147.841 211.945 148.019 212.678 147.506C213.411 146.993 213.589 145.983 213.076 145.25C211.388 142.838 206.034 139.431 196.928 140.796C196.043 140.929 195.434 141.754 195.566 142.639C195.699 143.524 196.524 144.133 197.409 144.001Z" fill="#704926"/>
<path fill-rule="evenodd" clip-rule="evenodd" d="M195.556 153.727C201.58 156.577 205.313 155.118 206.12 154.502C206.831 153.959 207.848 154.096 208.391 154.807C208.934 155.518 208.797 156.535 208.086 157.078C206.093 158.599 201.01 159.892 194.17 156.656C193.362 156.273 193.016 155.308 193.399 154.499C193.781 153.69 194.747 153.344 195.556 153.727Z" fill="#52520E"/>
<path fill-rule="evenodd" clip-rule="evenodd" d="M166.443 153.917C160.323 156.555 156.643 154.966 155.858 154.322C155.166 153.755 154.145 153.856 153.578 154.548C153.01 155.24 153.111 156.26 153.803 156.828C155.742 158.417 160.776 159.887 167.725 156.893C168.547 156.538 168.926 155.585 168.572 154.764C168.217 153.942 167.264 153.563 166.443 153.917Z" fill="#52520E"/>
<path fill-rule="evenodd" clip-rule="evenodd" d="M179.888 154.819C180.782 154.819 181.508 155.545 181.508 156.439V176.356C182.988 175.772 184.572 174.974 185.982 174.264C186.235 174.136 186.483 174.011 186.723 173.891C187.524 173.491 188.497 173.815 188.897 174.615C189.297 175.416 188.973 176.389 188.172 176.789C187.95 176.9 187.713 177.02 187.466 177.144C185.807 177.981 183.651 179.07 181.715 179.733C179.897 180.356 178.268 178.91 178.268 177.222V156.439C178.268 155.545 178.993 154.819 179.888 154.819Z" fill="#E78441"/>
<path fill-rule="evenodd" clip-rule="evenodd" d="M192.952 185.787C193.504 186.491 193.381 187.51 192.677 188.062C191.046 189.341 188.125 190.255 185.003 190.5C181.824 190.75 178.125 190.333 174.875 188.629C174.082 188.213 173.776 187.234 174.192 186.442C174.607 185.649 175.586 185.344 176.379 185.759C178.947 187.105 181.997 187.486 184.75 187.27C187.56 187.05 189.755 186.236 190.678 185.512C191.382 184.96 192.4 185.083 192.952 185.787Z" fill="#E78441"/>
</g>
<circle cx="268" cy="304" r="42" fill="#333141"/>
<circle cx="68" cy="277" r="42" fill="#333141"/>
<path d="M43.7726 343C43.666 343 43.5753 342.963 43.5006 342.888C43.426 342.813 43.3886 342.723 43.3886 342.616V332.184C43.3886 332.077 43.426 331.987 43.5006 331.912C43.5753 331.837 43.666 331.8 43.7726 331.8H45.2766C45.394 331.8 45.4846 331.837 45.5486 331.912C45.6233 331.987 45.6606 332.077 45.6606 332.184V342.616C45.6606 342.723 45.6233 342.813 45.5486 342.888C45.4846 342.963 45.394 343 45.2766 343H43.7726ZM48.3619 343C48.2552 343 48.1645 342.963 48.0899 342.888C48.0152 342.813 47.9779 342.723 47.9779 342.616V335.064C47.9779 334.957 48.0152 334.867 48.0899 334.792C48.1645 334.717 48.2552 334.68 48.3619 334.68H49.6739C49.7805 334.68 49.8712 334.717 49.9459 334.792C50.0205 334.867 50.0579 334.957 50.0579 335.064V335.72C50.3352 335.379 50.6872 335.096 51.1139 334.872C51.5512 334.637 52.0899 334.52 52.7299 334.52C53.3805 334.52 53.9459 334.669 54.4259 334.968C54.9059 335.256 55.2739 335.667 55.5299 336.2C55.7965 336.733 55.9299 337.373 55.9299 338.12V342.616C55.9299 342.723 55.8925 342.813 55.8179 342.888C55.7432 342.963 55.6525 343 55.5459 343H54.1379C54.0312 343 53.9405 342.963 53.8659 342.888C53.7912 342.813 53.7539 342.723 53.7539 342.616V338.216C53.7539 337.597 53.5992 337.112 53.2899 336.76C52.9912 336.408 52.5539 336.232 51.9779 336.232C51.4232 336.232 50.9805 336.408 50.6499 336.76C50.3192 337.112 50.1539 337.597 50.1539 338.216V342.616C50.1539 342.723 50.1165 342.813 50.0419 342.888C49.9672 342.963 49.8765 343 49.7699 343H48.3619ZM61.1143 343.16C60.4743 343.16 59.9249 343.085 59.4663 342.936C59.0183 342.787 58.6503 342.6 58.3623 342.376C58.0743 342.152 57.8609 341.928 57.7223 341.704C57.5836 341.48 57.5089 341.293 57.4983 341.144C57.4876 341.027 57.5196 340.936 57.5943 340.872C57.6796 340.797 57.7703 340.76 57.8663 340.76H59.1303C59.1729 340.76 59.2103 340.765 59.2423 340.776C59.2743 340.787 59.3169 340.819 59.3703 340.872C59.5089 340.989 59.6529 341.112 59.8023 341.24C59.9623 341.368 60.1489 341.48 60.3623 341.576C60.5756 341.661 60.8423 341.704 61.1623 341.704C61.5783 341.704 61.9249 341.624 62.2023 341.464C62.4903 341.293 62.6343 341.053 62.6343 340.744C62.6343 340.52 62.5703 340.339 62.4423 340.2C62.3249 340.061 62.1009 339.939 61.7703 339.832C61.4396 339.715 60.9703 339.592 60.3623 339.464C59.7649 339.325 59.2689 339.149 58.8743 338.936C58.4796 338.723 58.1863 338.456 57.9943 338.136C57.8023 337.816 57.7063 337.443 57.7063 337.016C57.7063 336.6 57.8289 336.205 58.0743 335.832C58.3303 335.448 58.7036 335.133 59.1943 334.888C59.6956 334.643 60.3143 334.52 61.0503 334.52C61.6263 334.52 62.1276 334.595 62.5543 334.744C62.9809 334.883 63.3329 335.059 63.6103 335.272C63.8983 335.485 64.1169 335.704 64.2663 335.928C64.4156 336.141 64.4956 336.328 64.5063 336.488C64.5169 336.605 64.4849 336.701 64.4103 336.776C64.3356 336.84 64.2503 336.872 64.1543 336.872H62.9703C62.9169 336.872 62.8689 336.861 62.8263 336.84C62.7836 336.819 62.7409 336.792 62.6983 336.76C62.5809 336.653 62.4529 336.541 62.3143 336.424C62.1756 336.296 62.0049 336.189 61.8023 336.104C61.6103 336.019 61.3543 335.976 61.0343 335.976C60.6289 335.976 60.3196 336.067 60.1063 336.248C59.8929 336.419 59.7863 336.637 59.7863 336.904C59.7863 337.085 59.8343 337.245 59.9303 337.384C60.0369 337.512 60.2449 337.635 60.5543 337.752C60.8636 337.869 61.3329 337.992 61.9623 338.12C62.6769 338.248 63.2423 338.44 63.6583 338.696C64.0849 338.941 64.3836 339.229 64.5543 339.56C64.7356 339.88 64.8263 340.237 64.8263 340.632C64.8263 341.112 64.6823 341.544 64.3943 341.928C64.1169 342.312 63.7009 342.616 63.1463 342.84C62.6023 343.053 61.9249 343.16 61.1143 343.16ZM70.2066 343C69.5666 343 69.028 342.888 68.5906 342.664C68.1533 342.44 67.828 342.109 67.6146 341.672C67.4013 341.224 67.2946 340.669 67.2946 340.008V336.376H66.0306C65.924 336.376 65.8333 336.339 65.7586 336.264C65.684 336.189 65.6466 336.093 65.6466 335.976V335.064C65.6466 334.957 65.684 334.867 65.7586 334.792C65.8333 334.717 65.924 334.68 66.0306 334.68H67.2946V332.024C67.2946 331.917 67.3266 331.827 67.3906 331.752C67.4653 331.677 67.5613 331.64 67.6786 331.64H68.9746C69.0813 331.64 69.172 331.677 69.2466 331.752C69.3213 331.827 69.3586 331.917 69.3586 332.024V334.68H71.3586C71.4653 334.68 71.556 334.717 71.6306 334.792C71.7053 334.867 71.7426 334.957 71.7426 335.064V335.976C71.7426 336.093 71.7053 336.189 71.6306 336.264C71.556 336.339 71.4653 336.376 71.3586 336.376H69.3586V339.848C69.3586 340.285 69.4333 340.627 69.5826 340.872C69.7426 341.117 70.0146 341.24 70.3986 341.24H71.5026C71.6093 341.24 71.7 341.277 71.7746 341.352C71.8493 341.427 71.8866 341.517 71.8866 341.624V342.616C71.8866 342.723 71.8493 342.813 71.7746 342.888C71.7 342.963 71.6093 343 71.5026 343H70.2066ZM75.722 343.16C75.1673 343.16 74.666 343.053 74.218 342.84C73.77 342.616 73.4127 342.323 73.146 341.96C72.89 341.587 72.762 341.171 72.762 340.712C72.762 339.965 73.066 339.373 73.674 338.936C74.282 338.488 75.0767 338.189 76.058 338.04L78.25 337.72V337.384C78.25 336.936 78.138 336.589 77.914 336.344C77.69 336.099 77.306 335.976 76.762 335.976C76.378 335.976 76.0633 336.056 75.818 336.216C75.5833 336.365 75.4073 336.568 75.29 336.824C75.2047 336.963 75.082 337.032 74.922 337.032H73.658C73.5407 337.032 73.45 337 73.386 336.936C73.3327 336.872 73.306 336.787 73.306 336.68C73.3167 336.509 73.386 336.301 73.514 336.056C73.6527 335.811 73.8553 335.576 74.122 335.352C74.3993 335.117 74.7567 334.92 75.194 334.76C75.6313 334.6 76.1593 334.52 76.778 334.52C77.45 334.52 78.0153 334.605 78.474 334.776C78.9433 334.936 79.3167 335.155 79.594 335.432C79.8713 335.709 80.074 336.035 80.202 336.408C80.33 336.781 80.394 337.176 80.394 337.592V342.616C80.394 342.723 80.3567 342.813 80.282 342.888C80.2073 342.963 80.1167 343 80.01 343H78.714C78.5967 343 78.5007 342.963 78.426 342.888C78.362 342.813 78.33 342.723 78.33 342.616V341.992C78.1913 342.184 78.0047 342.371 77.77 342.552C77.5353 342.733 77.2473 342.883 76.906 343C76.5753 343.107 76.1807 343.16 75.722 343.16ZM76.266 341.64C76.6393 341.64 76.9753 341.56 77.274 341.4C77.5833 341.24 77.8233 340.995 77.994 340.664C78.1753 340.323 78.266 339.896 78.266 339.384V339.048L76.666 339.304C76.0367 339.4 75.5673 339.555 75.258 339.768C74.9487 339.981 74.794 340.243 74.794 340.552C74.794 340.787 74.8633 340.989 75.002 341.16C75.1513 341.32 75.338 341.443 75.562 341.528C75.786 341.603 76.0207 341.64 76.266 341.64ZM82.8466 343C82.74 343 82.6493 342.963 82.5746 342.888C82.5 342.813 82.4626 342.723 82.4626 342.616V332.024C82.4626 331.917 82.5 331.827 82.5746 331.752C82.6493 331.677 82.74 331.64 82.8466 331.64H84.1746C84.2813 331.64 84.372 331.677 84.4466 331.752C84.5213 331.827 84.5586 331.917 84.5586 332.024V342.616C84.5586 342.723 84.5213 342.813 84.4466 342.888C84.372 342.963 84.2813 343 84.1746 343H82.8466ZM87.081 343C86.9743 343 86.8837 342.963 86.809 342.888C86.7343 342.813 86.697 342.723 86.697 342.616V332.024C86.697 331.917 86.7343 331.827 86.809 331.752C86.8837 331.677 86.9743 331.64 87.081 331.64H88.409C88.5157 331.64 88.6063 331.677 88.681 331.752C88.7557 331.827 88.793 331.917 88.793 332.024V342.616C88.793 342.723 88.7557 342.813 88.681 342.888C88.6063 342.963 88.5157 343 88.409 343H87.081Z" fill="white"/>
<path opacity="0.35" d="M269 325C280.046 325 289 316.046 289 305C289 293.954 280.046 285 269 285C257.954 285 249 293.954 249 305C249 316.046 257.954 325 269 325Z" fill="#EBEB4A"/>
<path d="M267 313C266.488 313 265.976 312.804 265.586 312.414L259.586 306.414C258.804 305.632 258.804 304.368 259.586 303.586C260.368 302.804 261.632 302.804 262.414 303.586L267 308.172L285.586 289.586C286.368 288.804 287.632 288.804 288.414 289.586C289.196 290.368 289.196 291.632 288.414 292.414L268.414 312.414C268.024 312.804 267.512 313 267 313Z" fill="#EBEB4A"/>
<circle cx="97" cy="50" r="42" fill="#333141"/>
<path opacity="0.35" d="M97 46.6667C92.8617 46.6667 89.0133 47.9301 85.82 50.0901C84.1417 51.2267 83.9883 53.6551 85.4217 55.0884L85.485 55.1517C86.5817 56.2484 88.305 56.4451 89.595 55.5817C91.715 54.1634 94.2633 53.3334 97 53.3334C99.7367 53.3334 102.285 54.1634 104.403 55.5834C105.693 56.4467 107.417 56.2501 108.513 55.1534L108.577 55.0901C110.01 53.6567 109.858 51.2284 108.178 50.0917C104.987 47.9301 101.138 46.6667 97 46.6667Z" fill="#6BD5FF"/>
<path d="M92.8783 62.5451L94.1233 63.7901C95.7117 65.3784 98.2883 65.3784 99.8767 63.7901L101.122 62.5451C102.925 60.7417 102.08 57.6834 99.6183 57.0151C98.7833 56.7884 97.9067 56.6667 97 56.6667C96.0933 56.6667 95.2167 56.7884 94.3817 57.0151C91.92 57.6834 91.075 60.7417 92.8783 62.5451Z" fill="#6BD5FF"/>
<path d="M97 43.3334C102.362 43.3334 107.305 45.1501 111.25 48.2017C112.593 49.2401 114.477 49.1917 115.677 47.9901L115.722 47.9451C117.133 46.5334 116.965 44.2117 115.39 42.9851C110.307 39.0251 103.915 36.6667 96.9717 36.6667C90.0433 36.6667 83.665 39.0151 78.5883 42.9584C77.01 44.1834 76.8417 46.5084 78.255 47.9201L78.325 47.9901C79.525 49.1901 81.4083 49.2401 82.7517 48.2017C86.695 45.1501 91.6383 43.3334 97 43.3334Z" fill="#6BD5FF"/>
<path opacity="0.35" d="M78 298H54C50.686 298 48 295.314 48 292V268C48 264.686 50.686 262 54 262H78C81.314 262 84 264.686 84 268V292C84 295.314 81.314 298 78 298Z" fill="#94E2BF"/>
<path d="M70 282.842V262.842C70 260.632 68.21 258.842 66 258.842C63.79 258.842 62 260.632 62 262.842V282.842H70Z" fill="#94E2BF"/>
<path d="M57.738 280C56.196 280 55.42 281.86 56.506 282.956L64.218 290.742C65.2 291.732 66.8 291.732 67.782 290.742L75.494 282.956C76.58 281.86 75.804 280 74.262 280H57.738Z" fill="#94E2BF"/>
<circle cx="314" cy="89" r="42" fill="#333141"/>
<rect opacity="0.35" x="300" y="69" width="32" height="38" rx="5" fill="#E46E6F"/>
<path opacity="0.35" d="M338.258 96.602C337.684 96.028 334.374 92.718 332.656 91C331.218 93.284 329.284 95.218 327 96.656C328.718 98.374 332.028 101.684 332.602 102.258C334.164 103.82 336.696 103.82 338.258 102.258C339.82 100.696 339.82 98.164 338.258 96.602Z" fill="#E76F6F"/>
<path opacity="0.97" d="M324 97C329.523 97 334 92.5228 334 87C334 81.4772 329.523 77 324 77C318.477 77 314 81.4772 314 87C314 92.5228 318.477 97 324 97Z" fill="#E76F6F"/>
<path d="M274.231 29.9277C255.093 17.7569 233.157 9.63525 210.118 6.19046C187.078 2.74567 163.903 3.24221 139.846 8.52155" stroke="#476B83" stroke-width="5"/>
<path d="M31.6389 89.2167C16.9784 111.322 7.59754 136.503 4.22125 162.813C0.844961 189.122 3.56372 215.856 12.1674 240.947" stroke="#556F6D" stroke-width="5"/>
<path d="M333.995 279.006C346.297 255.506 353.031 229.492 353.675 202.974C353.957 191.366 353.552 181.019 352.072 171.034" stroke="#714651" stroke-width="5"/>
<rect x="33" y="333" width="7.07108" height="7.07108" rx="1.5" transform="rotate(45 33 333)" fill="#94E2BF"/>
<path d="M86.4876 113.16C85.4956 113.16 84.6636 113.016 83.9916 112.728C83.3302 112.429 82.8236 112.045 82.4716 111.576C82.1302 111.096 81.9489 110.595 81.9276 110.072C81.9276 109.976 81.9596 109.896 82.0236 109.832C82.0876 109.768 82.1676 109.736 82.2636 109.736H83.6876C83.8262 109.736 83.9276 109.768 83.9916 109.832C84.0662 109.885 84.1302 109.955 84.1836 110.04C84.2476 110.243 84.3702 110.445 84.5516 110.648C84.7329 110.84 84.9782 111 85.2876 111.128C85.6076 111.256 86.0076 111.32 86.4876 111.32C87.2556 111.32 87.8262 111.192 88.1996 110.936C88.5836 110.68 88.7756 110.333 88.7756 109.896C88.7756 109.587 88.6742 109.341 88.4716 109.16C88.2689 108.968 87.9542 108.797 87.5276 108.648C87.1116 108.488 86.5569 108.323 85.8636 108.152C85.0636 107.96 84.3916 107.731 83.8476 107.464C83.3142 107.187 82.9089 106.84 82.6316 106.424C82.3649 106.008 82.2316 105.48 82.2316 104.84C82.2316 104.221 82.3969 103.672 82.7276 103.192C83.0689 102.712 83.5489 102.333 84.1676 102.056C84.7969 101.779 85.5436 101.64 86.4076 101.64C87.1009 101.64 87.7142 101.736 88.2476 101.928C88.7809 102.109 89.2236 102.355 89.5756 102.664C89.9276 102.963 90.1942 103.288 90.3756 103.64C90.5676 103.981 90.6689 104.317 90.6796 104.648C90.6796 104.733 90.6476 104.813 90.5836 104.888C90.5302 104.952 90.4502 104.984 90.3436 104.984H88.8556C88.7702 104.984 88.6849 104.963 88.5996 104.92C88.5142 104.877 88.4449 104.797 88.3916 104.68C88.3276 104.349 88.1196 104.067 87.7676 103.832C87.4156 103.597 86.9622 103.48 86.4076 103.48C85.8316 103.48 85.3676 103.587 85.0156 103.8C84.6636 104.013 84.4876 104.344 84.4876 104.792C84.4876 105.091 84.5729 105.341 84.7436 105.544C84.9249 105.736 85.2076 105.907 85.5916 106.056C85.9862 106.205 86.5036 106.365 87.1436 106.536C88.0502 106.739 88.7916 106.973 89.3676 107.24C89.9436 107.507 90.3649 107.848 90.6316 108.264C90.8982 108.669 91.0316 109.187 91.0316 109.816C91.0316 110.52 90.8396 111.123 90.4556 111.624C90.0822 112.115 89.5542 112.493 88.8716 112.76C88.1889 113.027 87.3942 113.16 86.4876 113.16ZM96.2572 113.16C95.0732 113.16 94.1345 112.819 93.4412 112.136C92.7479 111.453 92.3745 110.483 92.3212 109.224C92.3105 109.117 92.3052 108.984 92.3052 108.824C92.3052 108.653 92.3105 108.52 92.3212 108.424C92.3639 107.613 92.5452 106.92 92.8652 106.344C93.1959 105.757 93.6492 105.309 94.2252 105C94.8012 104.68 95.4785 104.52 96.2572 104.52C97.1212 104.52 97.8465 104.701 98.4332 105.064C99.0199 105.416 99.4625 105.912 99.7612 106.552C100.06 107.181 100.209 107.912 100.209 108.744V109.08C100.209 109.187 100.172 109.277 100.097 109.352C100.023 109.427 99.9265 109.464 99.8092 109.464H94.4972C94.4972 109.464 94.4972 109.48 94.4972 109.512C94.4972 109.544 94.4972 109.571 94.4972 109.592C94.5079 109.965 94.5772 110.312 94.7052 110.632C94.8439 110.941 95.0412 111.192 95.2972 111.384C95.5639 111.576 95.8785 111.672 96.2412 111.672C96.5399 111.672 96.7905 111.629 96.9932 111.544C97.1959 111.448 97.3612 111.341 97.4892 111.224C97.6172 111.107 97.7079 111.011 97.7612 110.936C97.8572 110.808 97.9319 110.733 97.9852 110.712C98.0492 110.68 98.1399 110.664 98.2572 110.664H99.6332C99.7399 110.664 99.8252 110.696 99.8892 110.76C99.9639 110.824 99.9959 110.904 99.9852 111C99.9745 111.171 99.8839 111.379 99.7132 111.624C99.5532 111.869 99.3185 112.109 99.0092 112.344C98.6999 112.579 98.3105 112.776 97.8412 112.936C97.3825 113.085 96.8545 113.16 96.2572 113.16ZM94.4972 108.12H98.0332V108.072C98.0332 107.656 97.9639 107.293 97.8252 106.984C97.6865 106.664 97.4839 106.419 97.2172 106.248C96.9505 106.067 96.6305 105.976 96.2572 105.976C95.8839 105.976 95.5639 106.067 95.2972 106.248C95.0305 106.419 94.8279 106.664 94.6892 106.984C94.5612 107.293 94.4972 107.656 94.4972 108.072V108.12ZM102.292 113C102.185 113 102.094 112.963 102.02 112.888C101.945 112.813 101.908 112.723 101.908 112.616V105.064C101.908 104.957 101.945 104.867 102.02 104.792C102.094 104.717 102.185 104.68 102.292 104.68H103.604C103.71 104.68 103.801 104.717 103.876 104.792C103.95 104.867 103.988 104.957 103.988 105.064V105.72C104.265 105.379 104.617 105.096 105.044 104.872C105.481 104.637 106.02 104.52 106.66 104.52C107.31 104.52 107.876 104.669 108.356 104.968C108.836 105.256 109.204 105.667 109.46 106.2C109.726 106.733 109.86 107.373 109.86 108.12V112.616C109.86 112.723 109.822 112.813 109.748 112.888C109.673 112.963 109.582 113 109.476 113H108.068C107.961 113 107.87 112.963 107.796 112.888C107.721 112.813 107.684 112.723 107.684 112.616V108.216C107.684 107.597 107.529 107.112 107.22 106.76C106.921 106.408 106.484 106.232 105.908 106.232C105.353 106.232 104.91 106.408 104.58 106.76C104.249 107.112 104.084 107.597 104.084 108.216V112.616C104.084 112.723 104.046 112.813 103.972 112.888C103.897 112.963 103.806 113 103.7 113H102.292ZM114.98 113.16C114.425 113.16 113.935 113.069 113.508 112.888C113.092 112.696 112.745 112.429 112.468 112.088C112.191 111.747 111.977 111.347 111.828 110.888C111.679 110.419 111.593 109.907 111.572 109.352C111.561 109.16 111.556 108.989 111.556 108.84C111.556 108.68 111.561 108.504 111.572 108.312C111.593 107.779 111.673 107.283 111.812 106.824C111.961 106.365 112.175 105.965 112.452 105.624C112.74 105.272 113.092 105 113.508 104.808C113.935 104.616 114.425 104.52 114.98 104.52C115.556 104.52 116.041 104.621 116.436 104.824C116.841 105.016 117.177 105.267 117.444 105.576V102.024C117.444 101.917 117.476 101.827 117.54 101.752C117.615 101.677 117.711 101.64 117.828 101.64H119.188C119.295 101.64 119.385 101.677 119.46 101.752C119.535 101.827 119.572 101.917 119.572 102.024V112.616C119.572 112.723 119.535 112.813 119.46 112.888C119.385 112.963 119.295 113 119.188 113H117.924C117.807 113 117.711 112.963 117.636 112.888C117.572 112.813 117.54 112.723 117.54 112.616V112.024C117.273 112.355 116.932 112.627 116.516 112.84C116.111 113.053 115.599 113.16 114.98 113.16ZM115.572 111.448C116.02 111.448 116.377 111.347 116.644 111.144C116.911 110.941 117.108 110.685 117.236 110.376C117.364 110.056 117.433 109.731 117.444 109.4C117.455 109.208 117.46 109.005 117.46 108.792C117.46 108.568 117.455 108.36 117.444 108.168C117.433 107.848 117.359 107.544 117.22 107.256C117.081 106.957 116.879 106.712 116.612 106.52C116.345 106.328 115.999 106.232 115.572 106.232C115.124 106.232 114.767 106.333 114.5 106.536C114.244 106.728 114.057 106.984 113.94 107.304C113.823 107.624 113.753 107.976 113.732 108.36C113.721 108.68 113.721 109 113.732 109.32C113.753 109.704 113.823 110.056 113.94 110.376C114.057 110.696 114.244 110.957 114.5 111.16C114.767 111.352 115.124 111.448 115.572 111.448Z" fill="white"/>
<rect x="73" y="103" width="7.07108" height="7.07108" rx="1.5" transform="rotate(45 73 103)" fill="#6BD5FF"/>
<path d="M288.951 155C288.865 155 288.785 154.968 288.711 154.904C288.647 154.84 288.615 154.76 288.615 154.664C288.615 154.621 288.625 154.573 288.647 154.52L292.503 144.2C292.535 144.093 292.593 144.003 292.679 143.928C292.775 143.843 292.903 143.8 293.063 143.8H294.807C294.967 143.8 295.089 143.843 295.175 143.928C295.26 144.003 295.324 144.093 295.367 144.2L299.223 154.52C299.233 154.573 299.239 154.621 299.239 154.664C299.239 154.76 299.207 154.84 299.143 154.904C299.079 154.968 299.004 155 298.919 155H297.527C297.377 155 297.265 154.968 297.191 154.904C297.127 154.829 297.084 154.76 297.063 154.696L296.311 152.744H291.559L290.807 154.696C290.785 154.76 290.737 154.829 290.663 154.904C290.599 154.968 290.492 155 290.343 155H288.951ZM292.119 150.904H295.751L293.927 145.96L292.119 150.904ZM300.924 155C300.818 155 300.727 154.963 300.652 154.888C300.578 154.813 300.54 154.723 300.54 154.616V147.064C300.54 146.957 300.578 146.867 300.652 146.792C300.727 146.717 300.818 146.68 300.924 146.68H302.236C302.343 146.68 302.434 146.717 302.508 146.792C302.583 146.867 302.62 146.957 302.62 147.064V147.72C302.898 147.379 303.25 147.096 303.676 146.872C304.114 146.637 304.652 146.52 305.292 146.52C305.943 146.52 306.508 146.669 306.988 146.968C307.468 147.256 307.836 147.667 308.092 148.2C308.359 148.733 308.492 149.373 308.492 150.12V154.616C308.492 154.723 308.455 154.813 308.38 154.888C308.306 154.963 308.215 155 308.108 155H306.7C306.594 155 306.503 154.963 306.428 154.888C306.354 154.813 306.316 154.723 306.316 154.616V150.216C306.316 149.597 306.162 149.112 305.852 148.76C305.554 148.408 305.116 148.232 304.54 148.232C303.986 148.232 303.543 148.408 303.212 148.76C302.882 149.112 302.716 149.597 302.716 150.216V154.616C302.716 154.723 302.679 154.813 302.604 154.888C302.53 154.963 302.439 155 302.332 155H300.924ZM312.941 155.16C312.386 155.16 311.885 155.053 311.437 154.84C310.989 154.616 310.631 154.323 310.365 153.96C310.109 153.587 309.981 153.171 309.981 152.712C309.981 151.965 310.285 151.373 310.893 150.936C311.501 150.488 312.295 150.189 313.277 150.04L315.469 149.72V149.384C315.469 148.936 315.357 148.589 315.133 148.344C314.909 148.099 314.525 147.976 313.981 147.976C313.597 147.976 313.282 148.056 313.037 148.216C312.802 148.365 312.626 148.568 312.509 148.824C312.423 148.963 312.301 149.032 312.141 149.032H310.877C310.759 149.032 310.669 149 310.605 148.936C310.551 148.872 310.525 148.787 310.525 148.68C310.535 148.509 310.605 148.301 310.733 148.056C310.871 147.811 311.074 147.576 311.341 147.352C311.618 147.117 311.975 146.92 312.413 146.76C312.85 146.6 313.378 146.52 313.997 146.52C314.669 146.52 315.234 146.605 315.693 146.776C316.162 146.936 316.535 147.155 316.813 147.432C317.09 147.709 317.293 148.035 317.421 148.408C317.549 148.781 317.613 149.176 317.613 149.592V154.616C317.613 154.723 317.575 154.813 317.501 154.888C317.426 154.963 317.335 155 317.229 155H315.933C315.815 155 315.719 154.963 315.645 154.888C315.581 154.813 315.549 154.723 315.549 154.616V153.992C315.41 154.184 315.223 154.371 314.989 154.552C314.754 154.733 314.466 154.883 314.125 155C313.794 155.107 313.399 155.16 312.941 155.16ZM313.485 153.64C313.858 153.64 314.194 153.56 314.493 153.4C314.802 153.24 315.042 152.995 315.213 152.664C315.394 152.323 315.485 151.896 315.485 151.384V151.048L313.885 151.304C313.255 151.4 312.786 151.555 312.477 151.768C312.167 151.981 312.013 152.243 312.013 152.552C312.013 152.787 312.082 152.989 312.221 153.16C312.37 153.32 312.557 153.443 312.781 153.528C313.005 153.603 313.239 153.64 313.485 153.64ZM320.065 155C319.959 155 319.868 154.963 319.793 154.888C319.719 154.813 319.681 154.723 319.681 154.616V144.024C319.681 143.917 319.719 143.827 319.793 143.752C319.868 143.677 319.959 143.64 320.065 143.64H321.393C321.5 143.64 321.591 143.677 321.665 143.752C321.74 143.827 321.777 143.917 321.777 144.024V154.616C321.777 154.723 321.74 154.813 321.665 154.888C321.591 154.963 321.5 155 321.393 155H320.065ZM325.404 158.04C325.318 158.04 325.244 158.008 325.18 157.944C325.116 157.88 325.084 157.805 325.084 157.72C325.084 157.677 325.084 157.635 325.084 157.592C325.094 157.56 325.116 157.517 325.148 157.464L326.396 154.504L323.324 147.256C323.281 147.149 323.26 147.075 323.26 147.032C323.27 146.936 323.308 146.856 323.372 146.792C323.436 146.717 323.516 146.68 323.612 146.68H324.908C325.036 146.68 325.132 146.712 325.196 146.776C325.26 146.84 325.308 146.909 325.34 146.984L327.468 152.216L329.66 146.984C329.692 146.899 329.74 146.829 329.804 146.776C329.868 146.712 329.964 146.68 330.092 146.68H331.372C331.457 146.68 331.532 146.712 331.596 146.776C331.67 146.84 331.708 146.915 331.708 147C331.708 147.064 331.686 147.149 331.644 147.256L327.116 157.736C327.073 157.821 327.02 157.891 326.956 157.944C326.892 158.008 326.796 158.04 326.668 158.04H325.404ZM332.993 155C332.875 155 332.779 154.963 332.705 154.888C332.641 154.813 332.609 154.723 332.609 154.616V153.704C332.609 153.608 332.63 153.517 332.673 153.432C332.726 153.336 332.779 153.256 332.833 153.192L336.929 148.344H333.121C333.014 148.344 332.923 148.312 332.849 148.248C332.774 148.173 332.737 148.077 332.737 147.96V147.064C332.737 146.957 332.774 146.867 332.849 146.792C332.923 146.717 333.014 146.68 333.121 146.68H339.185C339.302 146.68 339.393 146.717 339.457 146.792C339.531 146.867 339.569 146.957 339.569 147.064V148.04C339.569 148.136 339.547 148.221 339.505 148.296C339.462 148.371 339.409 148.445 339.345 148.52L335.345 153.336H339.521C339.627 153.336 339.718 153.373 339.793 153.448C339.867 153.512 339.905 153.603 339.905 153.72V154.616C339.905 154.723 339.867 154.813 339.793 154.888C339.718 154.963 339.627 155 339.521 155H332.993ZM345.015 155.16C343.831 155.16 342.892 154.819 342.199 154.136C341.506 153.453 341.132 152.483 341.079 151.224C341.068 151.117 341.063 150.984 341.063 150.824C341.063 150.653 341.068 150.52 341.079 150.424C341.122 149.613 341.303 148.92 341.623 148.344C341.954 147.757 342.407 147.309 342.983 147C343.559 146.68 344.236 146.52 345.015 146.52C345.879 146.52 346.604 146.701 347.191 147.064C347.778 147.416 348.22 147.912 348.519 148.552C348.818 149.181 348.967 149.912 348.967 150.744V151.08C348.967 151.187 348.93 151.277 348.855 151.352C348.78 151.427 348.684 151.464 348.567 151.464H343.255C343.255 151.464 343.255 151.48 343.255 151.512C343.255 151.544 343.255 151.571 343.255 151.592C343.266 151.965 343.335 152.312 343.463 152.632C343.602 152.941 343.799 153.192 344.055 153.384C344.322 153.576 344.636 153.672 344.999 153.672C345.298 153.672 345.548 153.629 345.751 153.544C345.954 153.448 346.119 153.341 346.247 153.224C346.375 153.107 346.466 153.011 346.519 152.936C346.615 152.808 346.69 152.733 346.743 152.712C346.807 152.68 346.898 152.664 347.015 152.664H348.391C348.498 152.664 348.583 152.696 348.647 152.76C348.722 152.824 348.754 152.904 348.743 153C348.732 153.171 348.642 153.379 348.471 153.624C348.311 153.869 348.076 154.109 347.767 154.344C347.458 154.579 347.068 154.776 346.599 154.936C346.14 155.085 345.612 155.16 345.015 155.16ZM343.255 150.12H346.791V150.072C346.791 149.656 346.722 149.293 346.583 148.984C346.444 148.664 346.242 148.419 345.975 148.248C345.708 148.067 345.388 147.976 345.015 147.976C344.642 147.976 344.322 148.067 344.055 148.248C343.788 148.419 343.586 148.664 343.447 148.984C343.319 149.293 343.255 149.656 343.255 150.072V150.12Z" fill="white"/>
<rect x="279" y="145" width="7.07108" height="7.07108" rx="1.5" transform="rotate(45 279 145)" fill="#E46E6F"/>
<path d="M261.56 367C261.475 367 261.395 366.968 261.32 366.904C261.256 366.84 261.224 366.76 261.224 366.664C261.224 366.621 261.235 366.573 261.256 366.52L265.112 356.2C265.144 356.093 265.203 356.003 265.288 355.928C265.384 355.843 265.512 355.8 265.672 355.8H267.416C267.576 355.8 267.699 355.843 267.784 355.928C267.869 356.003 267.933 356.093 267.976 356.2L271.832 366.52C271.843 366.573 271.848 366.621 271.848 366.664C271.848 366.76 271.816 366.84 271.752 366.904C271.688 366.968 271.613 367 271.528 367H270.136C269.987 367 269.875 366.968 269.8 366.904C269.736 366.829 269.693 366.76 269.672 366.696L268.92 364.744H264.168L263.416 366.696C263.395 366.76 263.347 366.829 263.272 366.904C263.208 366.968 263.101 367 262.952 367H261.56ZM264.728 362.904H268.36L266.536 357.96L264.728 362.904ZM276.656 367.16C275.888 367.16 275.211 367.016 274.624 366.728C274.048 366.44 273.595 366.024 273.264 365.48C272.944 364.925 272.768 364.259 272.736 363.48C272.725 363.32 272.72 363.112 272.72 362.856C272.72 362.589 272.725 362.371 272.736 362.2C272.768 361.421 272.944 360.76 273.264 360.216C273.595 359.661 274.048 359.24 274.624 358.952C275.211 358.664 275.888 358.52 276.656 358.52C277.339 358.52 277.92 358.616 278.4 358.808C278.88 358.989 279.275 359.229 279.584 359.528C279.893 359.816 280.123 360.12 280.272 360.44C280.432 360.749 280.517 361.032 280.528 361.288C280.539 361.405 280.501 361.501 280.416 361.576C280.341 361.64 280.251 361.672 280.144 361.672H278.736C278.629 361.672 278.544 361.645 278.48 361.592C278.427 361.539 278.373 361.459 278.32 361.352C278.16 360.925 277.947 360.627 277.68 360.456C277.424 360.275 277.093 360.184 276.688 360.184C276.155 360.184 275.728 360.355 275.408 360.696C275.099 361.027 274.933 361.555 274.912 362.28C274.891 362.685 274.891 363.059 274.912 363.4C274.933 364.136 275.099 364.669 275.408 365C275.728 365.331 276.155 365.496 276.688 365.496C277.104 365.496 277.44 365.411 277.696 365.24C277.952 365.059 278.16 364.755 278.32 364.328C278.373 364.221 278.427 364.141 278.48 364.088C278.544 364.035 278.629 364.008 278.736 364.008H280.144C280.251 364.008 280.341 364.045 280.416 364.12C280.501 364.184 280.539 364.275 280.528 364.392C280.517 364.584 280.464 364.803 280.368 365.048C280.283 365.283 280.139 365.528 279.936 365.784C279.744 366.029 279.499 366.259 279.2 366.472C278.901 366.675 278.539 366.84 278.112 366.968C277.696 367.096 277.211 367.16 276.656 367.16ZM285.957 367C285.317 367 284.778 366.888 284.341 366.664C283.903 366.44 283.578 366.109 283.365 365.672C283.151 365.224 283.045 364.669 283.045 364.008V360.376H281.781C281.674 360.376 281.583 360.339 281.509 360.264C281.434 360.189 281.397 360.093 281.397 359.976V359.064C281.397 358.957 281.434 358.867 281.509 358.792C281.583 358.717 281.674 358.68 281.781 358.68H283.045V356.024C283.045 355.917 283.077 355.827 283.141 355.752C283.215 355.677 283.311 355.64 283.429 355.64H284.725C284.831 355.64 284.922 355.677 284.997 355.752C285.071 355.827 285.109 355.917 285.109 356.024V358.68H287.109C287.215 358.68 287.306 358.717 287.381 358.792C287.455 358.867 287.493 358.957 287.493 359.064V359.976C287.493 360.093 287.455 360.189 287.381 360.264C287.306 360.339 287.215 360.376 287.109 360.376H285.109V363.848C285.109 364.285 285.183 364.627 285.333 364.872C285.493 365.117 285.765 365.24 286.149 365.24H287.253C287.359 365.24 287.45 365.277 287.525 365.352C287.599 365.427 287.637 365.517 287.637 365.624V366.616C287.637 366.723 287.599 366.813 287.525 366.888C287.45 366.963 287.359 367 287.253 367H285.957Z" fill="white"/>
<rect x="254" y="357" width="7.07108" height="7.07108" rx="1.5" transform="rotate(45 254 357)" fill="#EBEB4A"/>
<path d="M35.4717 80.6609C36.7146 80.2074 38.0475 81.064 38.1512 82.3831L39.0311 93.5804C39.1607 95.229 37.3471 96.3137 35.9559 95.4195L24.5247 88.0725C23.1335 87.1783 23.3669 85.0781 24.9204 84.5112L35.4717 80.6609Z" fill="#94E2BF"/>
<path d="M282.255 34.1826C282.601 35.4596 281.634 36.7148 280.311 36.7059L269.079 36.6301C267.426 36.6189 266.499 34.7197 267.509 33.4096L275.801 22.6448C276.811 21.3347 278.883 21.7459 279.316 23.3421L282.255 34.1826Z" fill="#6BD5FF"/>
<path d="M329.209 289.716C327.985 290.218 326.619 289.414 326.464 288.1L325.144 276.946C324.95 275.304 326.72 274.149 328.145 274.988L339.856 281.88C341.281 282.719 341.131 284.826 339.6 285.454L329.209 289.716Z" fill="#E46E6F"/>
</svg>
