<svg width="442" height="333" viewBox="0 0 442 333" fill="none" xmlns="http://www.w3.org/2000/svg">
<mask id="mask0_1214_2985" style="mask-type:alpha" maskUnits="userSpaceOnUse" x="0" y="0" width="442" height="333">
<rect width="442" height="333" fill="#C4C4C4"/>
</mask>
<g mask="url(#mask0_1214_2985)">
<path d="M0 125C0 56.5167 55.5167 1 124 1H442V332H0V125Z" fill="#333141"/>
<g filter="url(#filter0_d_1214_2985)">
<rect x="100" y="71" width="256.503" height="185" rx="20" fill="#CEF2E2"/>
</g>
<circle cx="227.987" cy="162.553" r="73.9406" fill="#BEE9D6"/>
<mask id="mask1_1214_2985" style="mask-type:alpha" maskUnits="userSpaceOnUse" x="154" y="88" width="148" height="149">
<circle cx="227.987" cy="162.554" r="73.9406" fill="#BEE9D6"/>
</mask>
<g mask="url(#mask1_1214_2985)">
<path d="M201.29 189.042C191 196.024 180.463 204.027 174.875 206.821C157.096 215.71 158.62 236.029 158.62 236.029C158.62 236.029 178.879 253.834 210.322 253.834C273.559 253.834 290.744 242.286 299.837 229.68C299.837 229.68 295.201 215.864 283.581 208.345C275.707 203.25 267.834 194.63 256.912 189.042C245.991 183.454 244.706 180.914 227.45 180.914C210.687 180.914 208.401 184.216 201.29 189.042Z" fill="white"/>
<mask id="mask2_1214_2985" style="mask-type:alpha" maskUnits="userSpaceOnUse" x="157" y="178" width="146" height="76">
<path d="M211.622 182.953C204.383 186.72 190.437 211.655 169.003 217.893C151.296 223.046 147.008 253.81 210.38 253.81C273.751 253.81 293.264 234.685 302.376 221.588C302.376 221.588 282.926 206.879 274.123 204.698C268.326 203.262 259.106 195.198 259.106 195.198C249.786 191.48 245.069 178.122 227.776 178.122C215.04 178.122 218.767 179.235 211.622 182.953Z" fill="white"/>
</mask>
<g mask="url(#mask2_1214_2985)">
<path d="M209.418 163.391H246.181V204.791L240.151 254.826L236.466 260.925C231.624 268.939 219.877 268.567 215.552 260.263L212.72 254.826L209.418 204.791V163.391Z" fill="#F6A55C"/>
<path d="M154.557 181.931L173.098 173.55V185.233L154.557 200.472L137.54 188.789L134.746 173.55L154.557 181.931Z" fill="#C4C4C4"/>
</g>
<rect x="211.378" y="161.77" width="8.05956" height="16.7391" fill="#F6A55C"/>
<path d="M206.357 120.232C206.219 122.142 206.357 136.041 206.357 136.041C203.567 135.421 200.157 136.041 199.227 141.001C198.675 143.946 204.083 150.61 207.287 153.71C206.543 170.573 221.029 174.376 228.365 174.169C245.476 175.161 249.444 163.01 249.444 152.78C251.407 151.127 255.582 146.643 256.574 141.931C257.566 137.219 252.234 136.041 249.444 136.041V123.022C234.069 123.766 211.006 113.777 209.146 112.793C207.287 111.808 206.603 116.822 206.357 120.232Z" fill="#F6A55C"/>
<mask id="mask3_1214_2985" style="mask-type:alpha" maskUnits="userSpaceOnUse" x="208" y="165" width="11" height="9">
<path fill-rule="evenodd" clip-rule="evenodd" d="M209.043 166.254C209.648 165.648 210.629 165.648 211.234 166.254C211.86 166.879 212.95 167.866 214.138 168.747C215.378 169.666 216.522 170.315 217.294 170.486C218.13 170.672 218.657 171.5 218.471 172.335C218.285 173.171 217.458 173.698 216.622 173.512C215.163 173.188 213.569 172.183 212.292 171.237C210.964 170.253 209.76 169.163 209.043 168.445C208.437 167.84 208.437 166.859 209.043 166.254Z" fill="#D18343"/>
</mask>
<g mask="url(#mask3_1214_2985)">
<path d="M219.253 167.82L216.19 165.291L210.574 165.799V175.408L219.253 175.408V167.82Z" fill="#D18343"/>
</g>
<path fill-rule="evenodd" clip-rule="evenodd" d="M218.072 132.899C213.379 132.195 211.079 134 210.602 134.682C210.308 135.103 209.728 135.205 209.307 134.911C208.886 134.616 208.784 134.036 209.078 133.616C210.047 132.231 213.121 130.275 218.348 131.059C218.856 131.136 219.206 131.609 219.129 132.117C219.053 132.625 218.58 132.975 218.072 132.899Z" fill="#704926"/>
<path fill-rule="evenodd" clip-rule="evenodd" d="M237.257 132.899C241.949 132.195 244.249 134 244.726 134.682C245.021 135.103 245.601 135.205 246.021 134.911C246.442 134.616 246.545 134.036 246.25 133.616C245.281 132.231 242.207 130.275 236.981 131.059C236.473 131.136 236.123 131.609 236.199 132.117C236.275 132.625 236.749 132.975 237.257 132.899Z" fill="#704926"/>
<path fill-rule="evenodd" clip-rule="evenodd" d="M236.193 138.482C239.651 140.118 241.794 139.28 242.257 138.926C242.666 138.615 243.249 138.693 243.561 139.102C243.872 139.51 243.794 140.093 243.386 140.405C242.242 141.278 239.324 142.02 235.398 140.163C234.934 139.943 234.735 139.389 234.955 138.925C235.174 138.46 235.729 138.262 236.193 138.482Z" fill="#52520E"/>
<path fill-rule="evenodd" clip-rule="evenodd" d="M219.481 138.591C215.969 140.104 213.856 139.193 213.406 138.823C213.008 138.497 212.422 138.555 212.097 138.952C211.771 139.35 211.829 139.936 212.226 140.261C213.339 141.174 216.229 142.018 220.218 140.299C220.689 140.095 220.907 139.548 220.704 139.076C220.5 138.605 219.953 138.387 219.481 138.591Z" fill="#52520E"/>
<path fill-rule="evenodd" clip-rule="evenodd" d="M227.199 139.108C227.713 139.108 228.129 139.525 228.129 140.038V151.471C228.979 151.136 229.888 150.677 230.698 150.27C230.843 150.196 230.985 150.125 231.123 150.056C231.582 149.826 232.141 150.012 232.371 150.472C232.6 150.931 232.414 151.49 231.955 151.719C231.827 151.783 231.691 151.852 231.55 151.923C230.597 152.404 229.36 153.028 228.248 153.409C227.205 153.767 226.269 152.937 226.269 151.968V140.038C226.269 139.525 226.686 139.108 227.199 139.108Z" fill="#E78441"/>
<path fill-rule="evenodd" clip-rule="evenodd" d="M234.699 156.885C235.016 157.289 234.945 157.874 234.541 158.191C233.605 158.925 231.928 159.45 230.136 159.591C228.311 159.734 226.188 159.494 224.322 158.516C223.867 158.278 223.692 157.716 223.93 157.261C224.169 156.806 224.731 156.631 225.185 156.869C226.66 157.642 228.41 157.86 229.991 157.736C231.604 157.61 232.864 157.143 233.393 156.727C233.797 156.41 234.382 156.481 234.699 156.885Z" fill="#E78441"/>
<path fill-rule="evenodd" clip-rule="evenodd" d="M204.393 183.569C211.57 177.417 221.006 174.566 227.704 174.566C239.951 174.566 247.576 180.683 252.037 188.271C256.446 195.774 257.776 204.708 257.668 210.66C257.653 211.502 256.958 212.171 256.117 212.156C255.275 212.141 254.605 211.446 254.621 210.605C254.722 205.043 253.458 196.706 249.409 189.816C245.41 183.012 238.711 177.614 227.704 177.614C221.702 177.614 212.978 180.224 206.377 185.883C199.859 191.47 195.406 200.016 197.707 212.126C197.864 212.953 197.321 213.75 196.494 213.907C195.667 214.065 194.87 213.522 194.713 212.695C192.188 199.406 197.132 189.792 204.393 183.569Z" fill="#B5CCC2"/>
<path fill-rule="evenodd" clip-rule="evenodd" d="M190.488 218.133C191.396 215.191 193.474 212.416 197.521 211.667C201.569 210.917 204.502 212.765 206.403 215.188C208.254 217.548 209.217 220.535 209.56 222.571C209.7 223.401 209.14 224.187 208.31 224.326C207.481 224.466 206.694 223.907 206.555 223.077C206.268 221.376 205.451 218.914 204.004 217.069C202.607 215.287 200.726 214.173 198.076 214.663C195.426 215.154 194.068 216.867 193.401 219.031C192.71 221.272 192.828 223.863 193.17 225.554C193.336 226.379 192.802 227.183 191.977 227.349C191.152 227.516 190.348 226.982 190.182 226.157C189.774 224.134 189.605 221 190.488 218.133Z" fill="#628C7A"/>
<path d="M201.308 141.374C201.12 140.374 202.419 139.196 203.801 138.716C204.351 138.526 204.845 138.989 204.845 139.571V146.15C204.845 146.636 204.245 146.834 203.972 146.433C202.729 144.607 201.498 142.387 201.308 141.374Z" fill="#E78441"/>
<path d="M254.101 141.374C254.289 140.374 252.989 139.196 251.608 138.716C251.058 138.526 250.563 138.989 250.563 139.571V146.15C250.563 146.636 251.163 146.834 251.436 146.433C252.679 144.607 253.91 142.387 254.101 141.374Z" fill="#E78441"/>
<path d="M246.5 129C245.833 127.667 246.5 123.5 241.5 123.5C237.377 123.5 234.333 123.5 230 123.5C226.5 123.5 223.5 121 223.5 119H217C215 119 208.5 122 208.5 128.5" stroke="#D59052" stroke-width="4" stroke-linecap="round"/>
<path d="M208.908 127.345V138.848C208.908 140.006 207.869 140.886 206.727 140.696C204.468 140.32 202.812 138.369 202.827 136.079C202.866 129.935 202.996 120.839 203.321 115.153C203.664 109.141 209.962 106.941 214.51 106.404C215.947 106.235 217.296 105.591 218.448 104.715C222.807 101.402 229.588 100.781 232.783 100.93C248.835 101.133 252.087 111.069 252.087 120.467V135.529C252.087 137.223 251.206 138.817 249.784 139.739C248.974 140.264 248.017 140.552 247.051 140.552H246.99C246.438 140.552 245.99 140.104 245.99 139.552V128.36C245.99 125.976 244.057 124.043 241.673 124.043H231.005C225.613 124.512 224.188 120.291 222.536 119.373C222.273 119.227 221.965 119.217 221.665 119.217H217.798C213.226 119.217 208.908 124.635 208.908 127.345Z" fill="#392323"/>
<path d="M208.909 139.516L206.115 140.298V172.301C207.469 181.783 213.734 200.645 227.958 200.239C242.181 199.833 247.768 181.444 248.784 172.301V140.298H245.991V150.547C245.991 150.984 245.848 151.408 245.584 151.756L242.056 156.407C241.119 157.641 239.403 157.935 237.984 157.311C230.084 153.836 220.762 155.906 215.72 157.936C214.845 158.288 213.829 158.054 213.25 157.309L209.33 152.269C209.057 151.918 208.909 151.486 208.909 151.042V139.516Z" fill="#392323"/>
<path fill-rule="evenodd" clip-rule="evenodd" d="M236.232 158.818C236.612 159.23 236.587 159.873 236.175 160.254C234.745 161.577 230.819 164.142 226.356 163.819C225.796 163.778 225.375 163.292 225.416 162.732C225.456 162.172 225.943 161.752 226.502 161.792C230.186 162.059 233.583 159.883 234.796 158.762C235.208 158.381 235.851 158.406 236.232 158.818Z" fill="#E78441"/>
<path d="M262.754 214.695C262.754 218.342 259.797 221.299 256.15 221.299C252.503 221.299 249.547 218.342 249.547 214.695C249.547 211.048 252.503 208.092 256.15 208.092C259.797 208.092 262.754 211.048 262.754 214.695Z" fill="#628C7A"/>
<path d="M259.198 214.696C259.198 216.379 257.834 217.744 256.151 217.744C254.467 217.744 253.103 216.379 253.103 214.696C253.103 213.013 254.467 211.648 256.151 211.648C257.834 211.648 259.198 213.013 259.198 214.696Z" fill="#B8ECD4"/>
<path d="M227.704 211.902L209.417 207.076L212.465 254.064L240.403 253.048L245.737 208.346L227.704 211.902Z" fill="#DEE6E8"/>
<path fill-rule="evenodd" clip-rule="evenodd" d="M191.042 223.96C192.114 223.63 193.251 224.233 193.58 225.306L194.305 227.666C194.634 228.739 194.031 229.875 192.958 230.205C191.886 230.534 190.749 229.931 190.42 228.858L189.695 226.498C189.366 225.426 189.969 224.289 191.042 223.96Z" fill="#C0E1D1"/>
<path fill-rule="evenodd" clip-rule="evenodd" d="M206.669 217.97C207.719 217.575 208.891 218.105 209.287 219.156L210.302 221.853C210.698 222.903 210.167 224.075 209.117 224.471C208.067 224.866 206.895 224.336 206.499 223.285L205.484 220.588C205.088 219.538 205.619 218.366 206.669 217.97Z" fill="#C0E1D1"/>
</g>
<rect x="73" y="210" width="162" height="91" rx="11" fill="#252431"/>
<rect x="119" y="226" width="95" height="4" rx="2" fill="#C4C4C4"/>
<rect x="119" y="233" width="14" height="4" rx="2" fill="#C4C4C4"/>
<rect x="296" y="42" width="85" height="85" rx="10" fill="white"/>
<circle cx="97" cy="231" r="12" fill="#393845"/>
<rect x="90" y="273" width="95" height="4" rx="2" fill="#C4C4C4"/>
<rect x="90" y="280" width="14" height="4" rx="2" fill="#C4C4C4"/>
<circle cx="210" cy="278" r="12" fill="#393845"/>
<line x1="85" y1="255.5" x2="220" y2="255.5" stroke="#A193AB"/>
</g>
<defs>
<filter id="filter0_d_1214_2985" x="55" y="31" width="356.503" height="285" filterUnits="userSpaceOnUse" color-interpolation-filters="sRGB">
<feFlood flood-opacity="0" result="BackgroundImageFix"/>
<feColorMatrix in="SourceAlpha" type="matrix" values="0 0 0 0 0 0 0 0 0 0 0 0 0 0 0 0 0 0 127 0" result="hardAlpha"/>
<feOffset dx="5" dy="10"/>
<feGaussianBlur stdDeviation="25"/>
<feColorMatrix type="matrix" values="0 0 0 0 0 0 0 0 0 0 0 0 0 0 0 0 0 0 0.05 0"/>
<feBlend mode="normal" in2="BackgroundImageFix" result="effect1_dropShadow_1214_2985"/>
<feBlend mode="normal" in="SourceGraphic" in2="effect1_dropShadow_1214_2985" result="shape"/>
</filter>
</defs>
</svg>
